<?xml version="1.0" encoding="utf-8"?>
<!-- Generator: Adobe Illustrator 22.1.0, SVG Export Plug-In . SVG Version: 6.00 Build 0)  -->
<svg version="1.1" id="Capa_1" xmlns="http://www.w3.org/2000/svg" xmlns:xlink="http://www.w3.org/1999/xlink" x="0px" y="0px"
	 viewBox="0 0 251 251" style="enable-background:new 0 0 251 251;" xml:space="preserve">
<style type="text/css">
	.st0{fill:none;stroke:#D7D9E0;stroke-width:2;}
</style>
<path class="st0" d="M204.5,196.5c0,0-44.7,48.5-116.1,29.4c-1.8-0.5-2.8-0.7-3.4-0.5c-0.5,0.2-0.9,0.6-1.2,1.1
	c-0.2,0.6,0,1.5,0.4,3.3L87,241"/>
<path class="st0" d="M169.5,2c0,0,43.1,16.5,62.5,64.4c0.9,2.2,1.3,3.3,1.9,3.6c0.5,0.3,1.1,0.3,1.7,0.1c0.6-0.3,1.2-1.2,2.3-3.2
	l6-10.3"/>
<path class="st0" d="M1.5,112.5c0,0-1.4-55.1,41.9-91.8c1.5-1.2,0.6-3.7-1.3-3.7H29"/>
</svg>
