<svg width="24" height="24" viewBox="0 0 24 24" fill="none" xmlns="http://www.w3.org/2000/svg">
<path d="M11.68 22.5C11.515 22.5 11.35 22.428 11.24 22.289C11.049 22.049 11.09 21.7 11.333 21.51C14.272 19.212 17.785 15.76 17.877 12.343C17.779 8.67596 13.787 4.96996 10.444 2.49996C10.196 2.31696 10.145 1.96896 10.33 1.72396C10.515 1.47896 10.866 1.42796 11.113 1.61096C14.648 4.22296 18.869 8.18595 18.998 12.289H19L18.998 12.399C18.902 15.482 16.559 18.839 12.028 22.381C11.924 22.461 11.803 22.5 11.68 22.5Z" fill="black"/>
<path fill-rule="evenodd" clip-rule="evenodd" d="M17.799 12.692C17.683 12.765 17.598 12.805 17.532 12.863C17.345 13.029 17.227 12.99 17.105 12.778C16.808 12.266 16.488 11.769 16.184 11.262C16.125 11.164 16.062 11.054 16.05 10.945C15.989 10.358 15.939 9.77004 15.896 9.18104C15.867 8.76004 15.875 8.76004 16.293 8.72904C16.34 8.72604 16.388 8.71304 16.481 8.69604C15.752 7.82404 14.903 7.19004 13.829 6.79804C13.866 6.92704 13.885 7.02504 13.92 7.11504C14.005 7.32604 13.943 7.42704 13.712 7.47504C13.115 7.60204 12.524 7.75504 11.927 7.88704C11.809 7.91204 11.673 7.91704 11.554 7.89104C10.917 7.75204 10.284 7.59304 9.64799 7.45304C9.48799 7.41904 9.46499 7.33304 9.49699 7.20304C9.52899 7.07704 9.56499 6.95304 9.61199 6.79004C8.54399 7.21404 7.67099 7.81604 6.95799 8.71304C7.08999 8.72204 7.18899 8.73804 7.28599 8.73304C7.52199 8.71704 7.59299 8.80804 7.55599 9.04504C7.50699 9.35704 7.50699 9.67504 7.47299 9.98804C7.43299 10.375 7.46599 10.801 7.30899 11.137C7.02399 11.744 6.62099 12.295 6.26899 12.871C6.18699 13.004 6.10199 13.004 5.98299 12.914C5.88999 12.843 5.78199 12.787 5.64899 12.704C5.69299 13.847 6.03599 14.84 6.65799 15.782C6.70499 15.666 6.74799 15.585 6.77099 15.498C6.82699 15.259 6.94299 15.227 7.16699 15.328C7.72399 15.577 8.29299 15.796 8.85499 16.037C8.96699 16.085 9.08199 16.155 9.15999 16.245C9.57699 16.713 9.98099 17.192 10.394 17.662C10.518 17.803 10.543 17.912 10.362 18.022C10.265 18.08 10.186 18.165 10.07 18.262C11.19 18.541 12.255 18.572 13.36 18.255C13.248 18.163 13.171 18.087 13.083 18.028C12.913 17.912 12.905 17.814 13.051 17.655C13.461 17.205 13.85 16.734 14.254 16.278C14.334 16.188 14.435 16.099 14.545 16.05C15.152 15.788 15.765 15.544 16.373 15.285C16.524 15.219 16.589 15.275 16.635 15.405C16.675 15.523 16.721 15.637 16.778 15.789C17.42 14.834 17.734 13.827 17.799 12.692Z" fill="white"/>
<path fill-rule="evenodd" clip-rule="evenodd" d="M11.693 19.107C8.26401 19.123 5.20701 16.438 5.01001 12.825C4.79901 8.95296 7.83701 5.97496 11.337 5.79896C15.205 5.60196 18.4 8.60496 18.44 12.398C18.477 16.001 15.551 19.105 11.693 19.107ZM17.799 12.692C17.683 12.765 17.598 12.805 17.532 12.863C17.345 13.029 17.227 12.99 17.105 12.778C16.808 12.266 16.488 11.769 16.184 11.262C16.125 11.164 16.062 11.054 16.05 10.945C15.989 10.358 15.939 9.76996 15.896 9.18096C15.867 8.75996 15.875 8.75996 16.293 8.72896C16.34 8.72596 16.388 8.71296 16.481 8.69596C15.752 7.82396 14.903 7.18996 13.829 6.79796C13.866 6.92696 13.885 7.02496 13.92 7.11496C14.005 7.32596 13.943 7.42696 13.712 7.47496C13.115 7.60196 12.524 7.75496 11.927 7.88696C11.809 7.91196 11.673 7.91696 11.554 7.89096C10.917 7.75196 10.284 7.59296 9.64801 7.45296C9.48801 7.41896 9.46501 7.33296 9.49701 7.20296C9.52901 7.07696 9.56501 6.95296 9.61201 6.78996C8.54401 7.21396 7.67101 7.81596 6.95801 8.71296C7.09001 8.72196 7.18901 8.73796 7.28601 8.73296C7.52201 8.71696 7.59301 8.80796 7.55601 9.04496C7.50701 9.35696 7.50701 9.67496 7.47301 9.98796C7.43301 10.375 7.46601 10.801 7.30901 11.137C7.02401 11.744 6.62101 12.295 6.26901 12.871C6.18701 13.004 6.10201 13.004 5.98301 12.914C5.89001 12.843 5.78201 12.787 5.64901 12.704C5.69301 13.847 6.03601 14.84 6.65801 15.782C6.70501 15.666 6.74801 15.585 6.77101 15.498C6.82701 15.259 6.94301 15.227 7.16701 15.328C7.72401 15.577 8.29301 15.796 8.85501 16.037C8.96701 16.085 9.08201 16.155 9.16001 16.245C9.57701 16.713 9.98101 17.192 10.394 17.662C10.518 17.803 10.543 17.912 10.362 18.022C10.265 18.08 10.186 18.165 10.07 18.262C11.19 18.541 12.255 18.572 13.36 18.255C13.248 18.163 13.171 18.087 13.083 18.028C12.913 17.912 12.905 17.814 13.051 17.655C13.461 17.205 13.85 16.734 14.254 16.278C14.334 16.188 14.435 16.099 14.545 16.05C15.152 15.788 15.765 15.544 16.373 15.285C16.524 15.219 16.589 15.275 16.635 15.405C16.675 15.523 16.721 15.637 16.778 15.789C17.42 14.834 17.734 13.827 17.799 12.692Z" fill="black"/>
<path fill-rule="evenodd" clip-rule="evenodd" d="M11.716 14.668C11.254 14.668 10.791 14.663 10.33 14.67C10.146 14.673 10.039 14.62 9.98003 14.432C9.69803 13.546 9.40503 12.664 9.11303 11.783C9.05603 11.616 9.09803 11.497 9.24003 11.395C9.99703 10.857 10.754 10.32 11.503 9.77501C11.659 9.66301 11.787 9.66701 11.937 9.77401C12.689 10.317 13.442 10.859 14.198 11.397C14.344 11.501 14.382 11.623 14.328 11.785C14.035 12.676 13.74 13.565 13.45 14.456C13.397 14.617 13.294 14.672 13.129 14.67C12.657 14.665 12.187 14.668 11.716 14.668Z" fill="black"/>
<path fill-rule="evenodd" clip-rule="evenodd" d="M12.97 17.769C12.752 18.013 12.519 18.243 12.271 18.456C12.632 18.424 12.995 18.36 13.36 18.255C13.248 18.163 13.171 18.087 13.083 18.028C12.958 17.943 12.922 17.867 12.97 17.769Z" fill="#CECECE"/>
<path fill-rule="evenodd" clip-rule="evenodd" d="M17.532 12.864C17.345 13.03 17.227 12.991 17.105 12.779C16.808 12.267 16.488 11.7699 16.184 11.2629C16.125 11.1649 16.062 11.055 16.05 10.946C15.989 10.359 15.939 9.77095 15.896 9.18195C15.867 8.76095 15.875 8.76095 16.293 8.72995C16.34 8.72695 16.388 8.71395 16.481 8.69695C15.752 7.82495 14.903 7.19095 13.829 6.79895C13.866 6.92795 13.885 7.02595 13.92 7.11595C14.005 7.32695 13.943 7.42795 13.712 7.47595C13.384 7.54595 13.057 7.62295 12.73 7.70095C14.044 9.03695 14.856 10.856 14.856 12.864C14.856 14.562 14.272 16.1219 13.298 17.3729C13.618 17.0099 13.932 16.64 14.254 16.277C14.334 16.187 14.435 16.0979 14.545 16.049C15.152 15.787 15.765 15.543 16.373 15.284C16.524 15.218 16.589 15.274 16.635 15.404C16.675 15.522 16.721 15.636 16.778 15.788C17.42 14.831 17.734 13.824 17.799 12.689C17.683 12.766 17.599 12.805 17.532 12.864Z" fill="#CECECE"/>
</svg>
