<svg width="1024" height="1024" viewBox="0 0 1024 1024" fill="none" xmlns="http://www.w3.org/2000/svg">
<circle cx="512" cy="512" r="512" fill="#262B38"/>
<g opacity="0.1">
<path fill-rule="evenodd" clip-rule="evenodd" d="M723.665 79.125L733.672 85.4086C693.876 103.445 549.352 97.7432 530.85 96.9286V89.365C530.85 89.365 663.389 92.1577 723.665 79.125ZM776.96 112.638L740.771 89.9469C718.661 103.096 653.381 105.889 602.065 105.889C568.087 105.889 538.88 104.725 530.85 104.376V130.441C556.916 133.583 706.21 157.089 742.981 283.576L784.407 279.27C777.774 260.07 747.869 168.027 776.96 112.638ZM783.127 116.366C754.851 171.289 787.083 264.497 791.971 277.762L803.607 276.366C768.698 168.846 795.578 124.395 795.578 124.395L783.127 116.366ZM530.85 137.893V151.275C679.098 168.846 723.665 285.559 723.665 285.559L735.301 284.279C699.927 164.89 558.545 141.268 530.85 137.893ZM762.531 323.842L801.396 319.188C849.455 455.566 929.629 529.107 932.073 531.318L917.062 583.449C811.055 545.166 721.222 605.907 708.655 614.984L679.564 566.577C792.669 484.889 768 349.093 762.531 323.842ZM890.298 472.318C903.568 490.569 918.277 507.729 934.284 523.634L937.542 511.998C899.84 490.121 815.477 317.438 815.477 317.438L808.844 318.252C828.317 373.313 855.761 425.221 890.298 472.318ZM743.563 326.168L755.2 324.772C760.087 345.95 785.92 480.117 676.072 560.292L670.603 551.332C670.603 551.332 773.818 475.346 743.563 326.168ZM914.967 590.428C810.24 552.727 721.571 614.748 712.378 621.381L718.778 631.854C831.301 563.316 911.127 604.392 911.127 604.392L915.083 590.545L914.967 590.428ZM1015.62 539.925C1015.62 539.925 1015.39 542.485 1014.81 546.906C993.991 555.08 969.195 545.698 961.162 542.658L961.158 542.657C960.616 542.452 960.15 542.275 959.767 542.135L961.978 534.572C961.978 534.572 977.105 547.605 1015.62 539.925ZM995.491 557.495C982.472 557.193 969.648 554.264 957.789 548.884L943.244 600.433C946.036 603.459 987.695 651.284 966.516 732.972C997.004 670.019 1009.8 587.983 1013.88 554.703C1007.92 556.559 1001.73 557.501 995.491 557.495ZM947.898 764.389L946.967 766.6L945.105 769.393C945.105 769.393 982.691 671.531 937.658 620.68L940.916 609.044C949.335 620.306 955.643 633.001 959.534 646.513C966.982 671.299 971.171 711.793 947.898 764.389ZM382.371 596.596C383.651 597.527 513.164 689.687 646.982 596.596L634.764 578.094C516.073 664.087 391.447 582.05 391.447 582.05L382.138 596.596H382.371ZM651.636 602.647L674.909 638.952C602.618 693.782 552.64 772.945 534.225 861.789H483.025C461.916 729.883 354.986 651.461 349.856 647.699C349.754 647.624 349.693 647.579 349.672 647.563L378.181 602.647C403.84 619.583 432.278 631.873 462.196 638.952C480.411 643.342 499.081 645.568 517.818 645.585C565.81 645.573 612.597 630.561 651.636 602.647ZM345.716 653.732L338.734 665.368C442.182 740.539 462.313 861.79 462.313 861.79H475.811C454.516 732.277 349.091 655.826 345.716 653.732ZM542.022 861.785C560.386 775.515 609.008 698.661 679.099 645.116L688.292 658.963C624.008 711.108 577.594 782.009 555.521 861.785H542.022ZM81.4546 607.531C70.5165 619.866 34.9092 668.855 70.4001 754.848L71.2146 757.059H70.1674C72.2619 760.317 74.3565 763.459 76.5674 766.484C76.5674 766.484 40.0292 671.066 85.0619 620.215L81.4546 607.531ZM79.2436 599.273C68.292 610.353 60.0485 623.814 55.1563 638.604C45.8196 667.393 45.3332 698.321 53.7599 727.39C25.1345 665.833 13.8472 588.335 10.2399 555.637C17.0659 556.951 24.0013 557.613 30.9527 557.615C42.7556 557.56 54.4975 555.917 65.8618 552.728L79.2436 599.273ZM9.19236 547.494C27.3527 551.02 46.0882 550.223 63.8833 545.166L60.8578 534.228C60.8578 534.228 46.5451 546.912 8.37781 539.464C8.37781 539.464 8.37781 542.374 9.19236 547.494ZM489.891 104.724V131.488C471.273 133.699 314.182 156.041 276.829 283.343L235.171 278.572C241.571 259.954 271.127 167.095 242.851 113.103L282.647 88.0845C309.993 101.699 385.513 104.724 445.556 104.724H489.891ZM489.774 96.8123V89.365C489.774 89.365 357.236 92.1577 296.96 79.125L290.094 83.4305C326.632 97.5105 434.036 98.4414 489.774 96.8123ZM236.568 117.178C264.146 170.589 232.495 264.611 227.724 277.876L216.902 276.596C251.462 169.076 224.931 124.625 224.931 124.625L236.568 117.178ZM284.392 284.393L297.076 285.789C297.076 285.789 341.527 169.076 489.891 151.273V138.822C468.829 141.498 320.465 163.956 284.392 284.393ZM221.091 319.419L257.979 323.841C253.324 343.623 225.513 484.306 341.062 566.808L312.088 615.099C298.939 606.023 207.36 546.328 103.448 582.75L88.9023 532.015C148.573 472.136 193.785 399.423 221.091 319.419ZM265.425 324.656C261.818 339.202 231.564 479.071 344.902 560.525L350.371 551.332C350.371 551.332 247.273 475.347 277.527 325.82L265.425 324.656ZM109.615 604.394L105.426 589.849C208.097 553.612 297.785 614.056 308.768 621.458L308.829 621.5L302.546 631.856C189.44 563.318 109.615 604.394 109.615 604.394ZM213.179 318.484L205.15 317.553C205.15 317.553 120.902 490.237 83.2004 511.997L86.575 523.633C143.266 465.328 186.482 395.3 213.179 318.484ZM654.662 993.979C614.866 992.117 584.96 980.248 565.644 959.07C551.002 942.545 542.568 921.439 541.789 899.375H552.844C555.171 989.091 668.393 989.091 668.393 989.091L654.662 993.979ZM468.363 899.719H458.24C458.24 899.719 440.785 987.69 338.734 987.108C338.734 987.108 348.276 990.832 365.033 995.603C390.133 992.467 413.613 981.524 432.155 964.318C450.697 947.112 463.363 924.515 468.363 899.719ZM536.902 899.719C537.623 922.879 546.481 945.044 561.92 962.323C583.383 983.898 612.059 996.786 642.444 998.512C534.807 1031.09 429.614 1012.71 375.854 998.512C399.867 993.147 421.824 980.976 439.097 963.455C456.371 945.933 468.228 923.805 473.251 899.719H536.902Z" fill="white" fill-opacity="0.24"/>
<path fill-rule="evenodd" clip-rule="evenodd" d="M674.445 35.8319C675.377 33.0762 675.376 33.076 675.375 33.0756L674.445 35.8319ZM671.838 46.7927C672.593 45.8718 673.239 44.9202 673.787 44.0225C675.401 41.3751 676.46 38.6633 676.978 37.3378L676.993 37.301L677.024 37.2205L677.073 37.0944L677.1 37.0278C677.116 36.9871 677.131 36.9486 677.146 36.9123L678.286 34.0606L675.375 33.0756L675.309 33.0533L675.118 32.9897L674.38 32.7458C673.732 32.5332 672.776 32.2233 671.538 31.8308C669.06 31.046 665.449 29.9312 660.902 28.6062C651.809 25.9566 638.964 22.464 623.94 19.0881C593.979 12.3555 555.16 6.04169 520.123 7.90168L519.963 7.89585L519.106 7.86797C518.355 7.84517 517.249 7.81537 515.82 7.78698C512.962 7.73019 508.812 7.67905 503.629 7.70097C493.263 7.74482 478.754 8.08088 462.167 9.24997C429.059 11.5836 387.417 17.2518 353.943 30.6885L350.878 31.9188L352.485 34.804C354.694 38.7695 357.643 42.2441 361.147 45.0533C288.076 62.9566 239.377 95.4998 208.77 123.942C193.081 138.521 182.156 152.013 175.141 161.886C171.633 166.822 169.102 170.855 167.441 173.668C167.076 174.286 166.753 174.845 166.471 175.341C165.517 174.732 164.348 174.126 162.926 173.594C157.901 171.711 149.909 170.807 137.382 173.564L137.392 173.609C136.999 173.708 136.637 173.841 136.513 173.909C136.421 173.966 136.278 174.065 136.224 174.105C136.131 174.177 136.06 174.241 136.032 174.266C136.008 174.288 135.984 174.31 135.961 174.331C135.946 174.346 135.932 174.359 135.918 174.372L135.898 174.392L135.867 174.423C135.779 174.509 135.673 174.618 135.555 174.742C135.315 174.993 134.977 175.354 134.55 175.821C133.694 176.755 132.459 178.135 130.895 179.94C127.766 183.551 123.311 188.872 117.934 195.75C107.182 209.503 92.7315 229.491 77.8227 254.463C48.0201 304.382 16.3008 374.36 8.74065 454.357L8.58862 455.966L9.8827 456.951L9.90484 456.968L9.98882 457.032L10.3109 457.274C10.5924 457.486 11.0051 457.794 11.5349 458.185C12.5941 458.968 14.1221 460.083 16.0051 461.421C19.7684 464.093 24.9629 467.662 30.676 471.235C36.3792 474.802 42.6519 478.408 48.5633 481.131C53.2241 483.278 57.9064 484.996 62.0111 485.591C62.1395 486.507 62.3079 487.685 62.5176 489.101C63.0697 492.83 63.9079 498.215 65.0541 504.856C67.346 518.135 70.8718 536.447 75.8081 556.579C85.6459 596.702 101.204 644.574 124.074 674.02L125.859 676.317L130.454 672.749L128.669 670.451C106.623 642.065 91.2866 595.275 81.4589 555.194C76.5625 535.224 73.0628 517.049 70.7875 503.866C69.65 497.276 68.8191 491.937 68.273 488.249C68.0013 486.413 67.8001 484.987 67.6668 484.02L67.7749 483.521L67.7777 483.509L67.79 483.453L67.8422 483.219C67.8565 483.156 67.8732 483.082 67.8923 482.999L67.9293 482.838C67.966 482.679 68.0092 482.493 68.0592 482.28C68.2548 481.449 68.5534 480.215 68.962 478.617C69.7792 475.423 71.0359 470.778 72.7878 465.006C76.2923 453.461 81.7738 437.42 89.6741 419.468C105.463 383.589 130.807 340.317 169.121 309.909C169.509 309.805 170.007 309.677 170.615 309.531C172.355 309.114 174.995 308.55 178.529 307.988C185.597 306.863 196.244 305.741 210.419 305.798C238.431 305.912 280.253 310.633 335.487 329.072C335.81 340.108 340.154 356.71 346.342 375.26C352.997 395.209 361.946 417.857 370.904 439.16C379.865 460.471 388.854 480.476 395.6 495.151C398.974 502.489 401.789 508.497 403.76 512.671C404.746 514.759 405.521 516.388 406.05 517.496L406.134 517.673L406.082 517.75C405.426 518.709 404.461 520.121 403.226 521.934C400.754 525.56 397.199 530.79 392.86 537.207C384.183 550.04 372.373 567.624 359.841 586.625C334.821 624.563 306.792 668.346 295.183 691.155L293.863 693.747L299.048 696.386L300.368 693.794C311.799 671.337 339.624 627.847 364.698 589.829C377.214 570.851 389.011 553.286 397.68 540.465C402.014 534.055 405.566 528.831 408.033 525.211C409.267 523.4 410.23 521.991 410.884 521.034L411.018 520.839H616.651L616.728 520.945C617.348 521.791 618.262 523.041 619.432 524.655C621.774 527.884 625.146 532.567 629.264 538.381C637.499 550.012 648.713 566.162 660.625 584.244C684.508 620.498 710.997 664.218 722.093 694.863L723.084 697.599L728.554 695.618L727.564 692.882C716.203 661.506 689.339 617.255 665.484 581.043C653.526 562.893 642.274 546.687 634.012 535.019C629.88 529.184 626.495 524.483 624.142 521.239C623.543 520.414 623.011 519.682 622.551 519.051C622.384 518.823 622.227 518.608 622.08 518.406C621.89 518.146 621.716 517.908 621.558 517.692C656.675 452.432 672.001 402.026 678.523 367.769C681.811 350.5 682.861 337.343 683.083 328.463C683.194 324.023 683.098 320.654 682.972 318.376C682.965 318.251 682.958 318.129 682.951 318.01C682.938 317.803 682.926 317.606 682.913 317.419C683.65 317.229 684.55 317 685.604 316.737C688.866 315.923 693.592 314.786 699.43 313.499C711.11 310.924 727.225 307.751 744.971 305.357C762.727 302.962 782.056 301.356 800.18 301.889C818.352 302.425 835.065 305.106 847.744 311.111L848.133 311.295L848.281 311.449C848.875 312.068 849.753 312.993 850.879 314.208C853.131 316.638 856.375 320.225 860.322 324.835C868.219 334.057 878.924 347.365 890.142 363.685C911.594 394.896 934.79 436.94 943.945 482.398L943.42 482.505L944.001 485.356L944.047 485.585C945.291 491.678 948.026 505.084 942.414 533.031C936.708 561.445 922.366 604.912 888.982 670.924L887.669 673.52L892.862 676.145L894.174 673.549C927.7 607.256 942.275 563.275 948.118 534.177C952.592 511.897 951.943 498.356 950.788 490.264C978.355 476.582 999.957 453.239 1011.46 424.65L1008.76 423.565H1011.67V408.537L1009.48 413.984L1009.33 413.4C1007.81 407.323 1005.53 398.613 1002.45 388.058C996.303 366.955 986.974 338.448 974.267 308.86C961.566 279.289 945.449 248.541 925.689 223.015C905.979 197.554 882.468 177.063 854.89 168.325C809.601 107.995 744.958 65.1002 671.838 46.7927ZM664.909 45.3227C664.453 45.6036 663.988 45.8165 663.515 45.9531L663.428 45.9796C654.729 48.7856 640.804 50.9458 624.593 52.5811C608.449 54.2096 590.264 55.2975 573.172 56.0236C556.086 56.7494 540.12 57.1125 528.425 57.294C522.578 57.3848 517.8 57.4302 514.485 57.4528C513.621 57.4587 512.857 57.4631 512.198 57.4663L512.198 57.4468L509.898 57.4746L509.662 57.4751L509.38 57.4755C410.183 53.6454 383.516 48.7727 370.021 43.8593C369.988 43.8432 369.956 43.827 369.924 43.8108C369.89 43.7938 369.856 43.7767 369.822 43.7595L369.658 43.0499L368.841 43.2383C365.098 41.1564 361.867 38.2769 359.373 34.8132C391.428 22.6257 430.737 17.2979 462.576 15.0537C479.008 13.8956 493.386 13.5625 503.653 13.5191C508.786 13.4974 512.889 13.5481 515.704 13.604C517.112 13.632 518.198 13.6613 518.93 13.6835L519.758 13.7104L519.965 13.7179L520.03 13.7204L520.166 13.7259L520.302 13.7186C554.583 11.878 592.854 18.0659 622.665 24.7647C637.547 28.1088 650.273 31.569 659.274 34.1921C663.774 35.5034 667.342 36.605 669.781 37.3774C670.056 37.4648 670.318 37.5479 670.564 37.6267C670.099 38.6711 669.523 39.8396 668.819 40.994C667.705 42.8205 666.464 44.2862 665.135 45.1772L664.953 45.1343L664.909 45.3227ZM665.819 51.3185L666.443 51.4664C740.296 68.9651 805.625 111.919 850.962 172.788L851.002 172.841C851.019 173.792 851.043 175.116 851.07 176.765C851.129 180.368 851.206 185.522 851.276 191.727C851.415 204.137 851.528 220.74 851.419 237.524C851.31 254.318 850.979 271.252 850.236 284.34C849.864 290.893 849.392 296.416 848.805 300.453C848.538 302.287 848.256 303.747 847.969 304.829C834.586 299.059 817.854 296.589 800.351 296.074C781.799 295.527 762.132 297.172 744.193 299.591C726.245 302.012 709.966 305.218 698.177 307.817C692.281 309.117 687.503 310.267 684.195 311.092C682.761 311.45 681.603 311.747 680.75 311.969C649.157 277.963 607.29 250.658 573.279 231.822C556.037 222.273 540.769 214.876 529.806 209.864C524.324 207.358 519.916 205.447 516.875 204.161C515.688 203.66 514.709 203.253 513.955 202.943L512.269 63.2842C512.921 63.281 513.675 63.2767 514.525 63.2709C517.854 63.2481 522.649 63.2026 528.515 63.1115C540.245 62.9294 556.265 62.5652 573.419 61.8365C590.567 61.108 608.876 60.0142 625.177 58.3699C641.386 56.7348 655.834 54.5354 665.174 51.5299C665.392 51.4657 665.607 51.3951 665.819 51.3185ZM163.667 180.741L163.769 180.536C163.12 180.07 162.187 179.53 160.885 179.042C157.301 177.7 150.751 176.7 139.474 179.066C139.301 179.25 139.09 179.477 138.842 179.749C138.026 180.641 136.826 181.981 135.292 183.751C132.224 187.29 127.832 192.536 122.518 199.333C111.888 212.929 97.5822 232.716 82.8183 257.445C53.4782 306.59 22.4133 375.117 14.6898 453.282C14.7856 453.353 14.8864 453.428 14.992 453.506C16.0259 454.27 17.5243 455.363 19.374 456.677C23.0761 459.306 28.1726 462.807 33.7613 466.302C39.3599 469.804 45.4 473.268 50.9977 475.847C55.5254 477.932 59.525 479.324 62.6683 479.808C62.8451 479.08 63.0635 478.199 63.3253 477.176C64.1618 473.906 65.4414 469.178 67.2204 463.317C70.7777 451.597 76.3363 435.332 84.3487 417.124C100.1 381.331 125.437 337.796 163.907 306.632L163.559 305.543L163.986 305.407C152.997 264.68 153.107 221.745 164.315 181.063L163.667 180.741ZM170.706 179.7L170.655 179.794L170.695 179.865L170.363 181.038C159.005 221.152 158.744 263.577 169.578 303.797C171.452 303.356 174.133 302.796 177.615 302.242C184.987 301.069 195.947 299.921 210.442 299.98C239.108 300.097 281.564 304.93 337.393 323.574C382.124 268.401 441.205 226.632 508.136 202.861L506.449 63.186C409.939 59.3912 382.561 54.5883 368.148 49.3691L368.131 49.373C292.977 66.7028 243.447 99.6596 212.73 128.204C197.365 142.482 186.697 155.667 179.883 165.256C176.477 170.05 174.034 173.945 172.45 176.627C171.658 177.967 171.081 179.005 170.706 179.7ZM856.861 175.138C856.869 175.611 856.878 176.123 856.887 176.669C856.946 180.281 857.023 185.445 857.093 191.661C857.234 204.091 857.346 220.731 857.237 237.562C857.128 254.383 856.797 271.434 856.045 284.67C855.67 291.279 855.187 297.001 854.562 301.291C854.251 303.428 853.893 305.292 853.471 306.763C853.346 307.198 853.209 307.622 853.056 308.024C853.613 308.611 854.315 309.356 855.146 310.253C857.445 312.734 860.74 316.378 864.742 321.051C872.743 330.396 883.58 343.867 894.937 360.39C917.025 392.527 941.218 436.404 950.193 484.04C975.266 471.008 994.955 449.506 1005.72 423.311C1005.69 423.165 1005.65 423.001 1005.61 422.819C1005.54 422.515 1005.46 422.161 1005.36 421.759C1004.99 420.164 1004.44 417.814 1003.69 414.808C1002.19 408.795 999.921 400.159 996.868 389.686C990.761 368.734 981.508 340.464 968.921 311.156C956.327 281.834 940.437 251.571 921.088 226.576C902.683 202.802 881.309 183.999 856.861 175.138ZM351.861 373.419C345.438 354.165 341.344 337.931 341.286 328.013C385.621 273.035 444.386 231.487 510.998 208.02L511.175 208.091C511.955 208.41 513.112 208.887 514.609 209.52C517.604 210.787 521.96 212.675 527.387 215.156C538.242 220.119 553.374 227.449 570.46 236.911C604.437 255.729 645.963 282.879 677.005 316.487C677.051 317 677.11 317.738 677.163 318.698C677.28 320.822 677.374 324.035 677.266 328.317C677.052 336.881 676.036 349.724 672.808 366.681C666.401 400.328 651.278 450.204 616.388 515.021H411.316L411.3 514.989C410.774 513.888 410.003 512.266 409.021 510.187C407.057 506.028 404.251 500.038 400.887 492.72C394.157 478.083 385.196 458.139 376.267 436.904C367.334 415.662 358.45 393.167 351.861 373.419ZM623.814 867.158L621.016 867.955C568.234 882.985 513.002 882.966 471.059 879.226C450.069 877.354 432.364 874.546 419.899 872.205C413.665 871.034 408.739 869.98 405.366 869.216C403.679 868.834 402.38 868.525 401.499 868.311C401.059 868.203 400.723 868.12 400.496 868.063L400.237 867.997L400.169 867.979L400.15 867.975L400.874 865.157C400.143 867.973 400.149 867.974 400.15 867.975L397.327 867.242L398.789 861.61L401.605 862.341L401.621 862.345L401.678 862.36L401.916 862.42C402.129 862.474 402.451 862.554 402.876 862.658C403.727 862.865 404.995 863.167 406.65 863.542C409.96 864.291 414.815 865.331 420.973 866.487C433.289 868.8 450.806 871.578 471.576 873.43C513.152 877.138 567.593 877.118 619.423 862.359L622.22 861.562L623.814 867.158Z" fill="white" fill-opacity="0.48"/>
<path fill-rule="evenodd" clip-rule="evenodd" d="M893.251 668.384L894.305 671.219C898.117 681.476 900.473 696.736 901.916 713.609C903.366 730.555 903.912 749.393 904 766.953C904.087 784.52 903.715 800.846 903.322 812.778C903.125 818.745 902.923 823.616 902.769 826.996C902.693 828.687 902.628 830.005 902.583 830.901L902.53 831.923L902.513 832.253L902.512 832.27C902.512 832.271 902.512 832.276 899.607 832.117L902.512 832.27L902.461 833.2L901.886 833.924C870.446 873.576 829.107 906.523 795.715 929.523C779.004 941.034 764.25 950.076 753.668 956.244C748.377 959.329 744.127 961.695 741.195 963.293C739.73 964.091 738.593 964.698 737.821 965.106C737.435 965.311 737.14 965.465 736.94 965.569L736.712 965.687L736.653 965.718L736.637 965.726C736.636 965.727 736.631 965.73 735.301 963.142L736.637 965.726L735.447 966.337L734.213 965.84C698.77 951.544 669.665 926.73 649.475 905.603C639.365 895.024 631.456 885.332 626.069 878.278C623.375 874.751 621.311 871.881 619.916 869.886C619.218 868.889 618.687 868.111 618.329 867.578C618.15 867.312 618.014 867.107 617.922 866.968L617.816 866.807L617.788 866.764L617.781 866.752C617.78 866.751 617.777 866.746 620.218 865.164L617.781 866.752L616.488 864.759L618.173 863.094C651.955 829.716 677.942 787.2 695.505 752.928C704.278 735.81 710.929 720.787 715.385 710.05C717.613 704.683 719.291 700.388 720.411 697.44C720.971 695.966 721.391 694.829 721.67 694.064L721.983 693.198L722.06 692.982L722.078 692.929L722.082 692.917L722.776 690.937L724.871 690.968C780.106 691.779 821.586 686.388 849.213 680.814C863.027 678.027 873.38 675.193 880.258 673.065C883.697 672.001 886.268 671.113 887.968 670.495C888.819 670.187 889.452 669.945 889.867 669.783L890.326 669.602L890.433 669.558L890.456 669.549M890.456 669.549L893.251 668.384L890.456 669.549ZM726.859 696.813C726.595 697.528 726.259 698.43 725.85 699.506C724.711 702.504 723.011 706.854 720.759 712.281C716.255 723.133 709.54 738.3 700.683 755.581C683.283 789.535 657.543 831.805 623.973 865.529C624.185 865.836 624.421 866.177 624.683 866.551C626.036 868.485 628.053 871.289 630.693 874.747C635.976 881.665 643.747 891.187 653.681 901.583C673.338 922.153 701.33 945.997 735.149 959.938C735.899 959.541 736.998 958.954 738.411 958.184C741.298 956.611 745.499 954.272 750.738 951.218C761.218 945.109 775.846 936.145 792.415 924.732C825.377 902.027 865.89 869.723 896.75 831.035L896.772 830.608C896.817 829.721 896.881 828.413 896.957 826.733C897.109 823.373 897.311 818.526 897.507 812.586C897.899 800.703 898.268 784.455 898.181 766.982C898.094 749.502 897.55 730.835 896.119 714.104C894.816 698.864 892.792 685.447 889.802 676.019C888.017 676.665 885.409 677.561 881.978 678.623C874.918 680.807 864.375 683.69 850.364 686.517C822.689 692.101 781.487 697.468 726.859 696.813Z" fill="white" fill-opacity="0.48"/>
<path fill-rule="evenodd" clip-rule="evenodd" d="M127.707 668.384L126.654 671.219C122.842 681.476 120.485 696.736 119.042 713.609C117.593 730.555 117.046 749.393 116.959 766.953C116.871 784.52 117.243 800.846 117.637 812.778C117.833 818.745 118.036 823.616 118.189 826.996C118.266 828.687 118.33 830.005 118.375 830.901L118.428 831.923L118.445 832.253L118.446 832.27C118.447 832.271 118.447 832.276 121.351 832.117L118.446 832.27L118.498 833.2L119.072 833.924C150.512 873.576 191.851 906.523 225.243 929.523C241.954 941.034 256.708 950.076 267.29 956.244C272.582 959.329 276.831 961.695 279.763 963.293C281.229 964.091 282.365 964.698 283.137 965.106C283.523 965.311 283.819 965.465 284.018 965.569L284.246 965.687L284.305 965.718L284.321 965.726C284.322 965.727 284.328 965.73 285.657 963.142L284.321 965.726L285.511 966.337L286.745 965.84C322.188 951.544 351.294 926.73 371.484 905.603C381.593 895.024 389.502 885.332 394.889 878.278C397.583 874.751 399.648 871.881 401.043 869.886C401.741 868.889 402.271 868.111 402.629 867.578C402.808 867.312 402.944 867.107 403.036 866.968L403.142 866.807L403.17 866.764L403.178 866.752C403.179 866.751 403.182 866.746 400.741 865.164L403.178 866.752L404.47 864.759L402.785 863.094C369.003 829.716 343.017 787.2 325.453 752.928C316.68 735.81 310.029 720.787 305.573 710.05C303.345 704.683 301.667 700.388 300.547 697.44C299.988 695.966 299.568 694.829 299.289 694.064L298.976 693.198L298.899 692.982L298.88 692.929L298.876 692.917L298.182 690.937L296.087 690.968C240.852 691.779 199.372 686.388 171.745 680.814C157.931 678.027 147.579 675.193 140.7 673.065C137.261 672.001 134.691 671.113 132.99 670.495C132.14 670.187 131.507 669.945 131.092 669.783L130.632 669.602L130.525 669.558L130.502 669.549M130.502 669.549L127.707 668.384L130.502 669.549ZM294.1 696.813C294.363 697.528 294.7 698.43 295.108 699.506C296.247 702.504 297.947 706.854 300.199 712.281C304.703 723.133 311.419 738.3 320.275 755.581C337.676 789.535 363.416 831.805 396.985 865.529C396.774 865.836 396.537 866.177 396.276 866.551C394.923 868.485 392.906 871.289 390.265 874.747C384.982 881.665 377.212 891.187 367.277 901.583C347.62 922.153 319.628 945.997 285.81 959.938C285.059 959.541 283.961 958.954 282.547 958.184C279.66 956.611 275.459 954.272 270.22 951.218C259.74 945.109 245.112 936.145 228.543 924.732C195.581 902.027 155.068 869.723 124.208 831.035L124.186 830.608C124.141 829.721 124.077 828.413 124.001 826.733C123.849 823.373 123.648 818.526 123.452 812.586C123.06 800.703 122.69 784.455 122.777 766.982C122.864 749.502 123.408 730.835 124.839 714.104C126.142 698.864 128.166 685.447 131.156 676.019C132.941 676.665 135.549 677.561 138.981 678.623C146.041 680.807 156.583 683.69 170.594 686.517C198.269 692.101 239.472 697.468 294.1 696.813Z" fill="white" fill-opacity="0.48"/>
</g>
</svg>
