<svg width="192" height="202" viewBox="0 0 192 202" fill="none" xmlns="http://www.w3.org/2000/svg">
<g opacity="0.24" filter="url(#filter0_f)">
<rect x="40" y="50" width="112" height="112" rx="2" fill="#1A1B1F"/>
</g>
<path d="M32.8529 10.2822C31.8971 12.1579 31.4443 14.2799 31.2213 17.0098C31 19.7185 31 23.1124 31 27.5534V27.6V104.4V104.447C31 108.888 31 112.281 31.2213 114.99C31.4443 117.72 31.8971 119.842 32.8529 121.718C34.4827 124.917 37.0834 127.517 40.2822 129.147C42.1579 130.103 44.2799 130.556 47.0098 130.779C49.7185 131 53.1124 131 57.5534 131H57.6H134.4H134.447C138.888 131 142.281 131 144.99 130.779C147.72 130.556 149.842 130.103 151.718 129.147C154.917 127.517 157.517 124.917 159.147 121.718C160.103 119.842 160.556 117.72 160.779 114.99C161 112.281 161 108.888 161 104.447V104.4V27.6V27.5534C161 23.1124 161 19.7185 160.779 17.0098C160.556 14.2799 160.103 12.1579 159.147 10.2822C157.517 7.08341 154.917 4.48274 151.718 2.85289C149.842 1.89714 147.72 1.44435 144.99 1.22131C142.281 0.999995 138.888 0.999997 134.447 1H134.4H57.6H57.5534C53.1124 0.999997 49.7185 0.999995 47.0098 1.22131C44.2799 1.44435 42.1579 1.89714 40.2822 2.85289C37.0834 4.48274 34.4827 7.08341 32.8529 10.2822Z" fill="white" stroke="#31F565" stroke-width="2"/>
<mask id="mask0" mask-type="alpha" maskUnits="userSpaceOnUse" x="32" y="2" width="128" height="128">
<path d="M32 27.6C32 18.6392 32 14.1587 33.7439 10.7362C35.2779 7.72556 37.7256 5.27787 40.7362 3.7439C44.1587 2 48.6392 2 57.6 2H134.4C143.361 2 147.841 2 151.264 3.7439C154.274 5.27787 156.722 7.72556 158.256 10.7362C160 14.1587 160 18.6392 160 27.6V104.4C160 113.361 160 117.841 158.256 121.264C156.722 124.274 154.274 126.722 151.264 128.256C147.841 130 143.361 130 134.4 130H57.6C48.6392 130 44.1587 130 40.7362 128.256C37.7256 126.722 35.2779 124.274 33.7439 121.264C32 117.841 32 113.361 32 104.4V27.6Z" fill="#1A1B1F"/>
</mask>
<g mask="url(#mask0)">
<g opacity="0.48">
<path d="M131.132 -41.6377C131.132 -41.6377 131.428 1.95346 132.328 5.39566C133.425 9.61949 136.231 13.2496 139.136 14.4145C142.041 15.5795 169.19 23.749 170.038 24.0647C170.885 24.3804 186.347 29.3257 186.181 29.9796C186.014 30.6334 183.14 39.0961 183.14 39.0961C183.14 39.0961 177.027 58.5167 175.84 62.5752C174.652 66.6337 163.434 102.258 162.927 102.935C162.42 103.611 160.884 105.941 162.753 100.064C164.621 94.1863 165.136 92.9688 165.136 92.9688L169.977 78.2831L163.267 76.1712L171.081 52.1209L177.534 54.2328L182.383 39.532L160.983 33.1136L155.687 49.4152C155.687 49.4152 150.392 49.8135 147.699 57.7727C145.573 63.9581 147.956 67.7385 148.804 68.5803C149.651 69.422 155.09 51.3543 155.43 50.6778C155.771 50.0014 156.277 50.0916 155.771 51.6098C155.264 53.128 152.155 63.2967 149.908 69.4296C148.297 73.8112 144.045 85.641 144.045 85.9641C144.045 86.2873 160.612 91.2853 162.201 91.7888C162.921 91.9641 163.61 92.2479 164.243 92.6306L160.612 102.664C160.612 102.664 109.392 86.37 108.537 85.8664C107.682 85.3629 107.493 85.5432 109.762 78.2831C112.032 71.0229 115.058 61.3877 115.058 61.3877L123.106 37.0669C123.106 37.0669 128.076 39.4494 129.915 42.4707C131.949 45.8528 133.054 48.0473 130.595 54.0449C128.924 58.1034 124.899 61.0495 122.357 61.4779C119.816 61.9063 113.635 62.9059 108.96 56.8182C105.791 52.6921 106.555 48.115 107.553 44.5375C109.672 36.9391 117.259 35.7742 119.498 36.1349C122.259 36.5784 122.789 36.0447 123.492 34.4439C124.899 31.2121 130.626 11.9794 130.626 11.9794L74.9043 -5.65996L59.079 43.8235L66.3865 45.3267L74.3899 21.7048L67.9372 19.5027L72.355 4.72676L93.4226 11.7239L88.324 28.7094C88.324 28.7094 91.9324 32.9257 90.0261 39.7725C87.7567 47.9872 82.8018 47.9647 82.2118 47.7091L87.8248 30.0622C87.8248 30.0622 87.5676 28.3712 85.9563 33.0685C84.345 37.7658 76.4399 64.8224 76.4399 64.8224L55.2589 57.9831L59.5253 44.793C59.5253 44.793 58.9353 44.1166 58.6781 44.793C58.4209 45.4695 50.9092 68.9485 50.9092 68.9485L107.228 87.0614C107.228 87.0614 111.684 88.2038 111.684 92.7583C111.684 97.3129 111.427 129.999 111.427 129.999" stroke="#31F565" stroke-miterlimit="10"/>
<g opacity="0.4" filter="url(#filter1_f)">
<path d="M131.132 -41.6377C131.132 -41.6377 131.428 1.95346 132.328 5.39566C133.425 9.61949 136.231 13.2496 139.136 14.4145C142.041 15.5795 169.19 23.749 170.038 24.0647C170.885 24.3804 186.347 29.3257 186.181 29.9796C186.014 30.6334 183.14 39.0961 183.14 39.0961C183.14 39.0961 177.027 58.5167 175.84 62.5752C174.652 66.6337 163.434 102.258 162.927 102.935C162.42 103.611 160.884 105.941 162.753 100.064C164.621 94.1863 165.136 92.9688 165.136 92.9688L169.977 78.2831L163.267 76.1712L171.081 52.1209L177.534 54.2328L182.383 39.532L160.983 33.1136L155.687 49.4152C155.687 49.4152 150.392 49.8135 147.699 57.7727C145.573 63.9581 147.956 67.7385 148.804 68.5803C149.651 69.422 155.09 51.3543 155.43 50.6778C155.771 50.0014 156.277 50.0916 155.771 51.6098C155.264 53.128 152.155 63.2967 149.908 69.4296C148.297 73.8112 144.045 85.641 144.045 85.9641C144.045 86.2873 160.612 91.2853 162.201 91.7888C162.921 91.9641 163.61 92.2479 164.243 92.6306L160.612 102.664C160.612 102.664 109.392 86.37 108.537 85.8664C107.682 85.3629 107.493 85.5432 109.762 78.2831C112.032 71.0229 115.058 61.3877 115.058 61.3877L123.106 37.0669C123.106 37.0669 128.076 39.4494 129.915 42.4707C131.949 45.8528 133.054 48.0473 130.595 54.0449C128.924 58.1034 124.899 61.0495 122.357 61.4779C119.816 61.9063 113.635 62.9059 108.96 56.8182C105.791 52.6921 106.555 48.115 107.553 44.5375C109.672 36.9391 117.259 35.7742 119.498 36.1349C122.259 36.5784 122.789 36.0447 123.492 34.4439C124.899 31.2121 130.626 11.9794 130.626 11.9794L74.9043 -5.65996L59.079 43.8235L66.3865 45.3267L74.3899 21.7048L67.9372 19.5027L72.355 4.72676L93.4226 11.7239L88.324 28.7094C88.324 28.7094 91.9324 32.9257 90.0261 39.7725C87.7567 47.9872 82.8018 47.9647 82.2118 47.7091L87.8248 30.0622C87.8248 30.0622 87.5676 28.3712 85.9563 33.0685C84.345 37.7658 76.4399 64.8224 76.4399 64.8224L55.2589 57.9831L59.5253 44.793C59.5253 44.793 58.9353 44.1166 58.6781 44.793C58.4209 45.4695 50.9092 68.9485 50.9092 68.9485L107.228 87.0614C107.228 87.0614 111.684 88.2038 111.684 92.7583C111.684 97.3129 111.427 129.999 111.427 129.999" stroke="#31F565" stroke-miterlimit="10"/>
</g>
</g>
<path d="M60.0088 116.027C66.5251 116.027 72.0233 112.361 73.9375 105.519H67.4619C66.1179 108.614 63.104 110.121 60.0088 110.121C55.1215 110.121 51.5375 106.334 51.5375 101.202C51.5375 96.1111 55.1215 92.2827 60.0088 92.2827C63.267 92.2827 66.1993 93.9118 67.4619 96.9256H73.9375C72.0233 90.1242 66.5251 86.418 60.0088 86.418C51.2931 86.418 45.2655 92.8529 45.2655 101.202C45.2655 109.592 51.2931 116.027 60.0088 116.027Z" fill="#00A32C"/>
<path d="M77.4114 115.457H83.3169V93.0565H83.8056L87.8376 115.457H96.594L100.667 93.0565H101.115V115.457H107.02V86.9474H96.3903L92.4398 109.347H91.9918L88.0412 86.9474H77.4114V115.457Z" fill="#00A32C"/>
<path fill-rule="evenodd" clip-rule="evenodd" d="M124.445 68.2933C123.079 68.2933 122.2 67.3583 122.2 66.1517C122.2 64.9652 123.079 64 124.424 64C125.811 64 126.68 64.9552 126.68 66.1416C126.68 67.318 125.821 68.2933 124.445 68.2933ZM124.44 67.92C125.618 67.92 126.307 67.171 126.307 66.1357C126.307 65.1003 125.607 64.3733 124.417 64.3733C123.273 64.3733 122.573 65.1223 122.573 66.1467C122.573 67.149 123.273 67.92 124.44 67.92ZM123.659 67.3058V65.0658H124.63C125.148 65.0658 125.45 65.4287 125.45 65.8125C125.45 66.1236 125.277 66.3725 125.083 66.4554L125.525 67.3058H124.943L124.598 66.5695H124.198V67.3058H123.659ZM124.176 66.0813H124.549C124.745 66.0813 124.838 65.9405 124.838 65.7998C124.838 65.6389 124.735 65.5182 124.549 65.5182H124.176V66.0813Z" fill="#00A32C"/>
<path fill-rule="evenodd" clip-rule="evenodd" d="M117.789 76C115.202 76 113.384 74.1173 113.384 71.6698C113.384 69.2066 115.218 67.3238 117.789 67.3238C120.376 67.3238 122.178 69.2222 122.178 71.6698C122.178 74.1173 120.36 76 117.789 76ZM117.789 73.8192C119.012 73.8192 119.858 72.8935 119.858 71.6698C119.858 70.4303 119.012 69.5046 117.789 69.5046C116.566 69.5046 115.704 70.4303 115.704 71.6698C115.704 72.8935 116.566 73.8192 117.789 73.8192ZM107.979 75.796V67.5278H110.237V68.626H110.394C110.754 67.92 111.569 67.3238 112.51 67.3238H113.168V69.5988H112.322C111.068 69.5988 110.253 70.3832 110.253 71.9208V75.796H107.979ZM99.5023 75.796V64.8136H103.406C105.585 64.8136 107.058 66.2099 107.058 68.3436C107.058 70.4617 105.506 71.9208 103.406 71.9208H101.838V75.796H99.5023ZM101.838 69.74H103.312C104.158 69.74 104.707 69.1438 104.707 68.3436C104.707 67.5592 104.158 66.9944 103.312 66.9944H101.838V69.74ZM93.5181 76C91.0788 76 89.5621 74.2857 89.5621 71.7536C89.5621 69.1429 91.2352 67.4443 93.4399 67.4443C95.8479 67.4443 97.2552 69.1271 97.2552 71.5806V72.021H90.5941C90.6254 74.0026 91.7668 75.0878 93.5337 75.0878C94.769 75.0878 95.8479 74.3643 96.1919 73.1376L97.1614 73.3735C96.7392 74.8204 95.457 76 93.5181 76ZM90.6097 71.156H96.2388C96.1606 69.2687 94.8941 68.3408 93.4399 68.3408C91.9544 68.3408 90.7192 69.426 90.6097 71.156ZM85.1839 76C82.7446 76 81.2279 74.2857 81.2279 71.7536C81.2279 69.1429 82.901 67.4443 85.1057 67.4443C87.5137 67.4443 88.921 69.1271 88.921 71.5806V72.021H82.2599C82.2912 74.0026 83.4326 75.0878 85.1995 75.0878C86.4348 75.0878 87.5137 74.3643 87.8577 73.1376L88.8272 73.3735C88.405 74.8204 87.1228 76 85.1839 76ZM82.2756 71.156H87.9047C87.8265 69.2687 86.5599 68.3408 85.1058 68.3408C83.6203 68.3408 82.385 69.426 82.2756 71.156ZM77.0999 75.7955V67.6488H78.085V69.0642H78.1632C78.4916 68.3093 79.2265 67.4443 80.4618 67.4443H81.0559V68.4508H80.3836C78.9138 68.4508 78.1007 69.6461 78.1007 71.3761V75.7955H77.0999ZM72.0963 76C69.657 76 68.1403 74.2857 68.1403 71.7536C68.1403 69.1429 69.8134 67.4443 72.0181 67.4443C74.4261 67.4443 75.8334 69.1271 75.8334 71.5806V72.021H69.1723C69.2036 74.0026 70.345 75.0878 72.1119 75.0878C73.3472 75.0878 74.4261 74.3643 74.7701 73.1376L75.7396 73.3735C75.3174 74.8204 74.0352 76 72.0963 76ZM69.188 71.156H74.817C74.7389 69.2687 73.4723 68.3408 72.0181 68.3408C70.5327 68.3408 69.2974 69.426 69.188 71.156ZM64.2156 75.7955V68.4823H62.652V67.6488H64.2156V66.2647C64.2156 64.6606 65.1694 64 66.5923 64H67.593V64.865H66.5923C65.6229 64.865 65.2163 65.2896 65.2163 66.2805V67.6488H67.6556V68.4823H65.2163V75.7955H64.2156ZM58.5865 76C56.1473 76 54.6305 74.2857 54.6305 71.7536C54.6305 69.1429 56.3036 67.4443 58.5083 67.4443C60.9163 67.4443 62.3236 69.1271 62.3236 71.5806V72.021H55.6625C55.6938 74.0026 56.8353 75.0878 58.6022 75.0878C59.8374 75.0878 60.9163 74.3643 61.2603 73.1376L62.2298 73.3735C61.8076 74.8204 60.5254 76 58.5865 76ZM55.6782 71.156H61.3072C61.2291 69.2687 59.9625 68.3408 58.5083 68.3408C57.0229 68.3408 55.7876 69.426 55.6782 71.156ZM47 75.7955V64.7864H50.4087C52.5353 64.7864 53.8956 66.0446 53.8956 67.9318C53.8956 69.6147 52.9262 70.8729 51.1905 71.1717L54.1458 75.7955H52.9262L50.0804 71.2346H48.0164V75.7955H47ZM48.0164 70.3067H50.3931C51.7691 70.3067 52.8167 69.5203 52.8167 67.9476C52.8167 66.6894 51.9724 65.73 50.3149 65.73H48.0164V70.3067Z" fill="#00A32C"/>
</g>
<defs>
<filter id="filter0_f" x="0" y="10" width="192" height="192" filterUnits="userSpaceOnUse" color-interpolation-filters="sRGB">
<feFlood flood-opacity="0" result="BackgroundImageFix"/>
<feBlend mode="normal" in="SourceGraphic" in2="BackgroundImageFix" result="shape"/>
<feGaussianBlur stdDeviation="20" result="effect1_foregroundBlur"/>
</filter>
<filter id="filter1_f" x="46.2809" y="-45.6406" width="144.402" height="179.643" filterUnits="userSpaceOnUse" color-interpolation-filters="sRGB">
<feFlood flood-opacity="0" result="BackgroundImageFix"/>
<feBlend mode="normal" in="SourceGraphic" in2="BackgroundImageFix" result="shape"/>
<feGaussianBlur stdDeviation="2" result="effect1_foregroundBlur"/>
</filter>
</defs>
</svg>
