<svg width="160" height="178" viewBox="0 0 160 178" fill="none" xmlns="http://www.w3.org/2000/svg">
<g opacity="0.32" filter="url(#filter0_f)">
<rect x="24" y="42" width="112" height="112" rx="2" fill="#1A1B1F"/>
</g>
<path d="M16.8529 10.2822C15.8971 12.1579 15.4443 14.2799 15.2213 17.0098C15 19.7185 15 23.1124 15 27.5534V27.6V104.4V104.447C15 108.888 15 112.281 15.2213 114.99C15.4443 117.72 15.8971 119.842 16.8529 121.718C18.4827 124.917 21.0834 127.517 24.2822 129.147C26.1579 130.103 28.2799 130.556 31.0098 130.779C33.7185 131 37.1124 131 41.5534 131H41.6H118.4H118.447C122.888 131 126.281 131 128.99 130.779C131.72 130.556 133.842 130.103 135.718 129.147C138.917 127.517 141.517 124.917 143.147 121.718C144.103 119.842 144.556 117.72 144.779 114.99C145 112.281 145 108.888 145 104.447V104.4V27.6V27.5534C145 23.1124 145 19.7185 144.779 17.0098C144.556 14.2799 144.103 12.1579 143.147 10.2822C141.517 7.08341 138.917 4.48274 135.718 2.85289C133.842 1.89714 131.72 1.44435 128.99 1.22131C126.281 0.999995 122.888 0.999997 118.447 1H118.4H41.6H41.5534C37.1124 0.999997 33.7185 0.999995 31.0098 1.22131C28.2799 1.44435 26.1579 1.89714 24.2822 2.85289C21.0834 4.48274 18.4827 7.08341 16.8529 10.2822Z" fill="url(#paint0_linear)" stroke="#31F565" stroke-width="2"/>
<mask id="mask0" mask-type="alpha" maskUnits="userSpaceOnUse" x="16" y="2" width="128" height="128">
<path d="M16 27.6C16 18.6392 16 14.1587 17.7439 10.7362C19.2779 7.72556 21.7256 5.27787 24.7362 3.7439C28.1587 2 32.6392 2 41.6 2H118.4C127.361 2 131.841 2 135.264 3.7439C138.274 5.27787 140.722 7.72556 142.256 10.7362C144 14.1587 144 18.6392 144 27.6V104.4C144 113.361 144 117.841 142.256 121.264C140.722 124.274 138.274 126.722 135.264 128.256C131.841 130 127.361 130 118.4 130H41.6C32.6392 130 28.1587 130 24.7362 128.256C21.7256 126.722 19.2779 124.274 17.7439 121.264C16 117.841 16 113.361 16 104.4V27.6Z" fill="#1A1B1F"/>
</mask>
<g mask="url(#mask0)">
<g opacity="0.8">
<g style="mix-blend-mode:overlay">
<path d="M94.084 133.867L93.711 133.843C93.7159 133.766 94.2184 125.96 95.4174 111.454C96.663 96.3819 89.1854 92.7465 88.3287 92.3813L88.1902 92.3223C80.8231 89.1885 77.5072 87.2385 76.0228 86.1543C72.7408 83.7568 64.9908 76.6451 63.3966 73.7268C63.0974 73.1792 62.841 72.7547 62.6148 72.3803C62.3057 71.8679 62.0463 71.4381 61.7954 70.8911L61.9776 71.4344L61.1087 70.0049C59.9309 68.0674 56.3426 59.9498 56.1905 59.6052C53.0826 50.4027 51.9168 42.4569 52.6207 35.2972C53.2376 29.0279 53.8666 26.0751 56.3769 20.9481C58.513 16.5854 59.988 14.1488 63.5963 10.3506C67.2124 6.54414 67.2621 6.58809 67.4445 6.74796C67.611 6.89385 67.4472 7.0971 67.2201 7.37838L67.1888 7.40905C66.2407 8.13899 64.3431 11.002 62.5083 13.7708C61.2748 15.6319 59.9995 17.5565 58.9633 18.9142C56.2856 22.4227 54.5437 32.7925 54.4711 33.2323C54.3288 34.0909 55.0268 35.138 55.3847 35.6081C55.7653 34.5785 56.9938 31.218 57.4648 29.437C58.033 27.2881 63.4079 19.3561 63.6362 19.0198L63.6781 18.9578L63.7514 18.9421C64.4914 18.7818 65.5788 18.7776 66.8264 18.8705C65.4979 18.7005 64.592 18.589 64.4727 18.5853C64.3828 18.5824 64.3056 18.5246 64.2715 18.4345C63.99 17.6891 67.7746 6.34776 69.0883 5.1148C70.9517 3.36542 80.2321 -4.33868 88.3251 -7.28253C88.4606 -7.33558 102.36 -12.6502 118.916 -8.05833C118.805 -8.17753 118.685 -8.29875 118.556 -8.42129C117.258 -9.6512 114.64 -10.2026 111.61 -10.8411C109.722 -11.2387 107.582 -11.6899 105.539 -12.368C99.602 -14.337 96.9114 -26.6972 98.5162 -44.6252L98.8881 -44.592C98.0722 -35.4754 98.3554 -27.6645 99.7066 -22.003C100.946 -16.8116 103.003 -13.6027 105.656 -12.7226C107.68 -12.0511 109.809 -11.6025 111.687 -11.2069C114.772 -10.5567 117.438 -9.99505 118.812 -8.69266C119.11 -8.41097 119.36 -8.13653 119.569 -7.87208L119.608 -7.86062L119.751 -7.6317C119.915 -7.40309 120.05 -7.18291 120.16 -6.97372L121.306 -5.13106L120.87 -5.22989C120.861 -5.23191 120.778 -5.25025 120.625 -5.28051C120.627 -4.99049 120.581 -4.81718 120.574 -4.79519L120.519 -4.60121L120.33 -4.67104C119.378 -5.0223 116.684 -5.27417 116.657 -5.27678C108.327 -6.00733 101.625 -3.8507 99.4137 -3.01939C98.7897 -1.16943 96.7113 5.07951 96.448 7.01744C97.8377 8.02436 111.852 18.1935 113.21 19.7422C114.442 19.6125 126.403 18.3818 132.556 18.7016C134.104 13.857 136.292 6.48904 136.087 5.67447C136.049 5.52694 136.11 5.39871 136.24 5.34698C137.334 4.92159 148.505 12.6553 150.471 16.2054C152.785 20.3864 154.981 29.6978 155.156 34.388L155.162 34.5358L144.651 37.4485L144.579 37.3233C144.496 37.1805 136.313 23.0474 134.008 20.7457C133.751 20.5525 133.469 20.3788 133.299 20.3031C133.303 20.311 133.306 20.3193 133.31 20.3282C133.466 20.6654 135.415 23.8243 137.478 27.1686C141.419 33.5546 144.215 38.1056 144.3 38.5C144.467 39.2695 139.106 53.5837 136.534 57.2672L136.485 57.3372L136.4 57.3462C135.667 57.4215 118.427 59.1861 117.014 58.892C116.285 58.7392 113.425 54.8008 110.635 50.7261C112.439 53.4079 114.22 56.0484 115.195 57.4942C115.693 58.233 116.01 58.7034 116.06 58.777C116.13 58.8824 116.344 59.2028 112.28 67.226C110.276 71.1815 107.89 75.6464 107.077 76.7038L107.022 76.7751L106.932 76.7767C103.826 76.826 88.7333 77.0205 86.8901 76.1777C86.7946 76.2564 86.7245 76.3452 86.7307 76.3786C86.7309 76.3796 86.7706 76.4733 87.1414 76.5474C88.2674 76.7721 105.896 77.2593 107.52 77.1908C108.396 77.1505 110.943 78.9131 113.897 80.9502C116.764 82.9266 120.008 85.1626 121.196 85.288C122.139 84.8142 136.821 77.3869 138.811 73.4158C138.716 72.5055 137.446 60.4244 136.64 57.8535L136.616 57.7781L136.654 57.7088C136.67 57.6801 136.813 57.4256 137.069 57.4556C137.319 57.4835 137.503 57.7529 137.665 58.3292C137.999 59.5159 139.7 69.6262 139.862 73.5859C142.955 74.6553 146.351 75.5971 146.889 75.3882C147.419 74.585 155.495 62.2082 156.962 53.5486C157.06 52.9645 157.154 52.4167 157.244 51.899C157.429 50.8207 157.592 49.8735 157.729 49.0002C157.746 46.105 157.439 43.9777 157.433 43.9389L157.431 43.9131C157.412 41.9665 155.336 34.9921 155.315 34.9221L155.305 34.8869L155.308 34.8506C155.652 31.2597 154.006 24.8778 152.492 20.5038C151.156 16.6432 149.347 14.3876 147.754 12.6903C146.507 11.3613 143.42 9.30708 141.167 7.80705C140.241 7.1908 139.441 6.65859 138.926 6.283C137.218 5.03735 135.567 5.08604 135.551 5.08603L135.458 5.0896L135.079 4.63479C133.55 2.94925 128.68 -0.312111 125.458 -2.47037C123.556 -3.7441 122.553 -4.41961 122.333 -4.65346C121.62 -5.41408 122.26 -7.18174 122.288 -7.25666L122.349 -7.42104L122.517 -7.37084C124.329 -6.83198 135.417 -2.25397 144.345 6.49499C146.807 8.90743 149.1 11.9214 151.16 15.453C155.259 22.4813 157.077 29.2718 157.095 29.3394C158.825 41.2231 158.927 43.7835 158.102 49.0364C158.085 51.4766 157.84 54.4515 157.004 57.1973C155.155 63.2693 150.82 74.406 142.567 80.7713C134.245 87.1895 122.913 93.9064 116.358 94.4438L116.33 94.4459L113.175 93.7503L113.612 93.5108C113.659 93.4856 118.295 90.9073 119.972 86.6839C119.889 86.7583 119.764 86.8847 119.583 87.1002C119.178 87.581 118.631 88.2778 118.052 89.0151C117.258 90.0257 116.437 91.0711 115.945 91.6038C115.129 92.487 113.169 93.4731 112.331 93.8941L112.317 93.9009C112.558 93.9427 112.952 93.9706 113.294 93.9737L113.327 94.3443C113.114 94.3852 108.083 95.3466 106.4 95.2933C104.143 95.2218 96.486 94.8796 92.6867 93.478C88.8622 92.0668 79.9746 85.6486 79.4089 84.8939C79.2761 84.717 79.0293 84.3872 81.6208 80.6162C82.7475 78.9771 83.9358 77.3829 84.1625 77.0804C84.1584 77.0057 84.1431 76.9289 84.1251 76.8927C84.0882 76.9075 83.9894 76.9645 83.8102 77.1779C83.1124 78.0105 78.9 84.2964 78.8576 84.3599L78.7574 84.5095L78.6041 84.4152C78.0554 84.0759 65.1437 76.0537 63.2893 71.5654C61.6953 67.7064 59.72 61.486 59.675 57.5995C59.617 59.1096 59.7449 61.1813 60.3102 63.9331C61.5261 69.8523 61.9677 70.5836 62.9353 72.1868C63.1632 72.5645 63.4216 72.9931 63.7249 73.5474C65.2972 76.4256 72.9841 83.4715 76.2432 85.8523C77.7119 86.9248 81.0021 88.8581 88.3364 91.9781L88.4752 92.0371C89.3573 92.4131 97.057 96.1511 95.7902 111.485C94.5913 125.987 94.0887 133.79 94.084 133.867ZM84.152 76.5141C84.1882 76.5152 84.2244 76.5216 84.2606 76.5355C84.5382 76.6418 84.539 77.0644 84.5363 77.1481L84.5345 77.2069L84.4988 77.2544C82.0418 80.5186 79.5808 84.1903 79.7157 84.6845C80.1413 85.2487 88.9887 91.7153 92.8155 93.127C96.6584 94.545 104.815 94.8691 106.411 94.9196C107.548 94.9556 110.366 94.4946 112.01 94.2049C111.816 94.1306 111.795 94.0442 111.782 93.9877C111.75 93.8478 111.835 93.7253 112.034 93.6247L112.163 93.5602C112.911 93.1837 114.9 92.1841 115.67 91.3502C116.152 90.8284 116.968 89.7892 117.758 88.7842C118.339 88.0439 118.888 87.3454 119.297 86.8592C119.77 86.2973 120.022 86.1285 120.225 86.2366C120.425 86.3427 120.379 86.6247 120.334 86.7831C118.906 90.4048 115.4 92.8432 114.201 93.5941L116.355 94.0689C122.839 93.521 134.072 86.8507 142.339 80.4756C150.51 74.1735 154.81 63.118 156.647 57.0885C157.135 55.4849 157.419 53.8012 157.573 52.1936C157.495 52.6422 157.414 53.1134 157.33 53.6109C155.808 62.5978 147.26 75.5067 147.175 75.6359L147.152 75.6698L147.117 75.6912C146.318 76.1875 140.731 74.2837 139.619 73.8974L139.497 73.8556L139.493 73.7274C139.365 69.8826 137.641 59.6225 137.306 58.4305C137.151 57.8806 137.024 57.827 137.023 57.8269C137.023 57.8269 137.023 57.8274 137.023 57.8279C137.868 60.6893 139.135 72.9072 139.189 73.431L139.194 73.4838L139.171 73.5312C137.164 77.7159 121.962 85.324 121.316 85.6459L121.271 85.6679L121.222 85.6653C119.972 85.5916 116.776 83.3888 113.685 81.2581C111.029 79.4262 108.275 77.5236 107.536 77.5645C105.907 77.6331 88.2024 77.1398 87.0687 76.9144C86.9094 76.8826 86.4251 76.7858 86.3633 76.4455C86.3028 76.113 86.7012 75.8466 86.7818 75.7965L86.9151 75.7135L87.0198 75.8302C87.6479 76.4662 99.4669 76.5201 106.835 76.4046C108.568 74.047 115.593 59.9612 115.724 58.9474C115.63 58.8075 115.33 58.3622 114.886 57.7033C112.216 53.7449 105.123 43.2293 104.687 42.4812C104.423 42.03 104.371 41.7671 104.51 41.6017C104.621 41.4696 104.809 41.479 104.936 41.5269L104.994 41.5487L105.027 41.6004C109.178 48.0369 116.124 58.324 117.091 58.5264C118.173 58.7544 130.063 57.6215 136.277 56.983C138.912 53.1278 143.982 39.2621 143.934 38.5709C143.811 38.1427 139.967 31.9136 137.161 27.365C134.912 23.7212 133.136 20.843 132.972 20.4847C132.928 20.3903 132.796 20.1034 132.985 19.9508C133.064 19.8875 133.271 19.7203 134.245 20.4547L134.264 20.4713C136.501 22.6911 143.958 35.5052 144.831 37.0106L154.776 34.2546C154.566 29.6485 152.371 20.4097 150.144 16.3865C148.116 12.7248 137.877 5.95708 136.465 5.70367C136.558 7.37361 133.255 17.7446 132.868 18.9533L132.824 19.0913L132.679 19.083C126.3 18.7174 113.278 20.1109 113.148 20.125L113.035 20.1371L112.972 20.0431C112.36 19.1251 101.694 11.2771 96.1393 7.256L96.0515 7.19238L96.0632 7.08429C96.2566 5.30672 98.2185 -0.640489 98.9593 -2.84254C98.8283 -2.78985 98.7361 -2.75088 98.6843 -2.72883C97.0902 -0.318933 96.1167 5.52693 95.77 7.94193C95.7751 7.93885 95.7794 7.936 95.7835 7.93338L95.8718 7.87609L95.9666 7.92198C100.358 10.043 111.909 20.0124 112.399 20.4359L112.5 20.5236L104.29 40.7066L82.8439 40.0274C82.0601 41.1857 73.6259 53.7229 73.3854 57.366C74.2319 59.7332 76.0593 62.5614 80.0911 67.9776C82.1487 70.741 85.5319 75.4602 85.0734 76.0127L84.9239 76.193L84.7812 76.0067C84.3172 75.3998 73.4143 61.1076 73.0197 57.7585C73.0089 57.6672 73.0058 57.5676 73.0092 57.4613C72.9602 57.3213 72.9152 57.1835 72.8732 57.0468C72.6645 57.5997 72.5529 57.919 72.5466 57.9373L72.5085 58.0465L72.3941 58.0614C69.8661 58.3905 61.591 56.1584 60.2299 55.7842C59.3542 59.0459 61.8315 67.0573 63.6349 71.4225C65.3378 75.544 77.1599 83.0672 78.6478 84.0017C79.3109 83.0131 82.8657 77.7227 83.5236 76.9382C83.6853 76.7451 83.9162 76.5066 84.152 76.5141ZM75.8932 62.7519C78.5047 66.9325 82.4504 72.2817 84.1954 74.6106C83.5967 73.5586 82.3563 71.6467 79.7911 68.201C78.1394 65.9822 76.872 64.214 75.8932 62.7519ZM65.0342 9.38632C64.6957 9.73813 64.309 10.1428 63.8672 10.608C60.1257 14.5463 58.7542 16.9423 56.7125 21.1123C54.2277 26.1877 53.6043 29.1148 52.993 35.3339C52.2943 42.4396 53.454 50.3342 56.5386 59.4701C56.5635 59.5255 58.9718 64.9736 60.5138 68.0839C59.5579 64.7485 57.9105 57.8969 59.4652 54.8011C59.0354 53.6037 54.7134 41.3998 55.557 37.1178C55.6435 36.2918 55.8365 36.2917 55.9399 36.2919C56.1379 36.2917 56.3087 36.2916 56.5457 38.5673C56.9444 42.3929 59.1784 52.2521 60.3454 53.9783L60.4133 54.0789L60.3492 54.1821C60.3431 54.1916 60.0991 54.608 59.9035 55.5652C59.9102 55.5425 59.9174 55.5203 59.9243 55.4978L59.9796 55.3273L60.1526 55.3756C60.2465 55.402 69.4626 57.9615 72.2324 57.7037C72.3021 57.5092 72.4616 57.0697 72.7045 56.4393C72.6275 56.1297 72.5647 55.8218 72.5105 55.5084L72.5007 55.4508L72.5253 55.3979C72.793 54.823 78.6068 42.3841 82.0014 38.5893C81.2046 36.095 77.9718 25.7314 77.7606 21.1353C76.5039 20.8417 67.0439 18.6779 63.9026 19.2927C63.3854 20.0583 58.3518 27.5425 57.8258 29.533C57.2633 31.6604 55.6362 36.0033 55.6198 36.0469L55.5109 36.3377L55.3054 36.1055C55.2473 36.0399 53.885 34.4845 54.1023 33.1717C54.1757 32.7283 55.9329 22.2697 58.6663 18.6879C59.695 17.3401 60.9669 15.4207 62.1969 13.565C63.2055 12.0411 64.186 10.5625 65.0342 9.38632ZM59.439 55.9823C58.7589 58.7847 59.6809 63.4056 60.4878 66.535C60.3225 65.812 60.1429 64.979 59.9435 64.0088C59.1393 60.093 59.1984 57.5345 59.439 55.9823ZM73.0999 56.4529C73.1133 56.5029 73.1272 56.5529 73.1413 56.6033C73.2504 56.1572 73.4219 55.6465 73.6441 55.0863C73.4333 55.6015 73.2517 56.061 73.0999 56.4529ZM72.8892 55.502C72.9078 55.6063 72.9275 55.7096 72.9489 55.8135C73.3017 54.9214 73.772 53.7776 74.3487 52.4767C73.5556 54.0862 73.0103 55.2438 72.8892 55.502ZM55.9507 36.9899C55.9414 37.0499 55.9326 37.1125 55.9265 37.1739C55.1309 41.2143 59.2007 52.9332 59.7777 54.5629C59.8558 54.339 59.9263 54.1839 59.9736 54.0909C58.6764 51.9597 56.5404 42.1213 56.174 38.6061C56.0853 37.7561 56.0087 37.269 55.9507 36.9899ZM82.4229 38.6794C82.4901 38.8885 82.5292 39.0072 82.5328 39.019L82.5646 39.116L82.5003 39.1953C78.5511 44.0588 75.4837 50.6519 73.8512 54.583C76.131 49.2318 82.268 40.2074 82.5925 39.7317L82.6503 39.6471L104.042 40.3245L112.053 20.6308C110.888 19.6295 100.1 10.3946 95.8982 8.30452C95.8503 8.33542 95.7846 8.37847 95.7016 8.43244C95.6534 8.78945 95.6284 8.99909 95.6267 9.0125L95.6136 9.12628L95.5056 9.16599C94.5329 9.52514 84.1332 16.8891 78.7091 20.7764C78.2558 24.7536 83.0992 37.736 83.1486 37.8674L83.1992 38.0022L83.0817 38.0857C82.8781 38.2296 82.6579 38.4298 82.4229 38.6794ZM104.906 42.1039C104.933 42.1574 104.966 42.2198 105.009 42.2927C105.146 42.5269 105.979 43.7842 107.131 45.5064C106.121 43.9767 105.316 42.7372 104.906 42.1039ZM157.805 43.8968C157.823 44.0265 157.967 45.0795 158.048 46.6573C158.476 42.7303 158.174 39.3495 156.729 29.4143C156.715 29.3678 154.908 22.624 150.836 15.6415C148.793 12.1388 146.521 9.15144 144.082 6.76219C135.457 -1.69072 124.82 -6.2213 122.581 -6.9584C122.412 -6.41599 122.193 -5.34906 122.605 -4.90914C122.806 -4.69534 124.131 -3.80815 125.665 -2.78096C128.903 -0.612483 133.795 2.66456 135.361 4.38963L135.629 4.71205C136.022 4.71377 137.545 4.8141 139.145 5.98127C139.654 6.35218 140.451 6.8823 141.373 7.4962C143.642 9.00642 146.749 11.0743 148.026 12.4349C149.646 14.161 151.486 16.455 152.845 20.3821C154.366 24.777 156.019 31.193 155.684 34.85C155.861 35.4478 157.777 41.934 157.805 43.8968ZM82.134 39.0014C81.6468 39.5699 81.1088 40.3158 80.5433 41.1783C81.0595 40.4402 81.5938 39.7226 82.146 39.0389C82.1424 39.0269 82.1385 39.0145 82.134 39.0014ZM71.4283 19.4692C74.7252 20.0282 77.7514 20.7476 77.9855 20.8039L78.1243 20.8369L78.129 20.9795C78.2718 25.3433 81.3973 35.4555 82.2945 38.2769C82.4526 38.1176 82.6046 37.9803 82.7493 37.8672C82.2021 36.3938 77.8296 24.4536 78.3482 20.6471L78.3592 20.5674L78.4248 20.5206C79.0498 20.0724 93.4274 9.77162 95.2679 8.8635C95.2733 8.82079 95.28 8.76665 95.288 8.70208C92.2281 10.6978 80.0914 18.6383 78.1737 20.2995L78.1102 20.3545L78.0265 20.3434C76.2227 20.1028 73.7604 19.776 71.4283 19.4692ZM64.6193 18.2231C66.0266 18.3674 76.8373 19.8076 77.9932 19.9616C80.2106 18.0946 92.7994 9.87565 95.3523 8.21343C95.6534 6.00244 96.6489 -0.389259 98.4041 -2.98305L98.4339 -3.02698L98.482 -3.04889C98.4949 -3.05447 98.7136 -3.15127 99.1149 -3.30536C99.1438 -3.39121 99.1685 -3.46323 99.188 -3.51971C94.5384 -6.38839 90.657 -5.67306 88.9909 -5.36579C88.637 -5.30045 88.4028 -5.2575 88.2464 -5.26246C87.9936 -5.27046 87.8424 -5.35404 87.7966 -5.51107C87.7063 -5.81936 88.1785 -6.22103 88.5909 -6.50343L88.6344 -6.53322L88.6874 -6.53603C88.6884 -6.536 89.0784 -6.55481 89.7739 -6.60135C95.5244 -6.98547 99.2432 -5.09123 99.7997 -4.78663C108.912 -7.39476 117.638 -6.19241 120.2 -5.73955C120.143 -6.04501 120.027 -6.42096 119.798 -6.84706L119.459 -7.39211C119.423 -7.44363 119.385 -7.49544 119.345 -7.54781C102.682 -12.3695 88.597 -6.98793 88.4561 -6.93281C80.4183 -4.0089 71.1955 3.64865 69.3432 5.3874C68.087 6.56659 64.6769 16.9703 64.6193 18.2231ZM92.3673 -6.04351C94.3147 -5.98184 96.7876 -5.47243 99.5124 -3.75777L99.6378 -3.679L99.5897 -3.53915C99.5883 -3.53496 99.5809 -3.513 99.5675 -3.47379C102.064 -4.37882 108.625 -6.35666 116.69 -5.64872C116.796 -5.63888 119.123 -5.4211 120.241 -5.09246C120.247 -5.16186 120.249 -5.24904 120.245 -5.35191C117.864 -5.7826 109.037 -7.0622 99.8281 -4.4055L99.7503 -4.38303L99.6806 -4.42464C99.6434 -4.44676 95.8913 -6.63601 89.7988 -6.22807C89.2491 -6.19137 88.889 -6.17161 88.7594 -6.16499C88.5008 -5.98194 88.2587 -5.76073 88.1819 -5.64199C88.201 -5.63914 88.2261 -5.6366 88.2585 -5.63557C88.375 -5.63188 88.617 -5.67658 88.9232 -5.73295C89.6745 -5.87197 90.8645 -6.0911 92.3673 -6.04351Z" stroke="white" stroke-width="0.4" stroke-miterlimit="10"/>
</g>
<g style="mix-blend-mode:overlay" opacity="0.72" filter="url(#filter1_f)">
<path d="M88.3287 92.3813L88.1902 92.3223C80.8231 89.1886 77.5072 87.2385 76.0228 86.1543C72.7408 83.7568 64.9908 76.6451 63.3966 73.7268C63.0974 73.1793 62.841 72.7548 62.6148 72.3803C62.3057 71.8679 62.0463 71.4381 61.7954 70.8911L61.9776 71.4344L61.1087 70.0049C59.9309 68.0675 56.3426 59.9498 56.1905 59.6052C53.0826 50.4028 51.9168 42.4569 52.6207 35.2972C53.2376 29.0279 53.8666 26.0751 56.3769 20.9481C58.513 16.5854 59.988 14.1488 63.5963 10.3506C67.2124 6.54414 67.2621 6.5881 67.4445 6.74796C67.611 6.89385 67.4472 7.0971 67.2201 7.37838L67.1888 7.40906C66.2407 8.13899 64.3431 11.002 62.5083 13.7708C61.2748 15.6319 59.9995 17.5565 58.9633 18.9142C56.2856 22.4227 54.5437 32.7925 54.4711 33.2323C54.3288 34.0909 55.0268 35.138 55.3847 35.6081C55.7653 34.5785 56.9938 31.218 57.4648 29.437C58.033 27.2881 63.4079 19.3561 63.6362 19.0198L63.6781 18.9578L63.7514 18.9421C64.4914 18.7818 65.5788 18.7776 66.8264 18.8705C65.4979 18.7005 64.592 18.589 64.4727 18.5853C64.3828 18.5824 64.3056 18.5246 64.2715 18.4345C63.99 17.6891 67.7746 6.34777 69.0883 5.1148C70.9517 3.36542 80.2321 -4.33867 88.3251 -7.28252C88.4606 -7.33558 102.36 -12.6502 118.916 -8.05833C118.805 -8.17753 118.685 -8.29875 118.556 -8.42129C117.258 -9.6512 114.64 -10.2026 111.61 -10.8411C109.722 -11.2387 107.582 -11.6899 105.539 -12.368C99.602 -14.337 96.9114 -26.6972 98.5162 -44.6252L98.8881 -44.592C98.0722 -35.4754 98.3554 -27.6645 99.7066 -22.003C100.946 -16.8116 103.003 -13.6027 105.656 -12.7226C107.68 -12.0511 109.809 -11.6025 111.687 -11.2069C114.772 -10.5567 117.438 -9.99505 118.812 -8.69266C119.11 -8.41097 119.36 -8.13652 119.569 -7.87208L119.608 -7.86062L119.751 -7.63169C119.915 -7.40309 120.05 -7.18291 120.16 -6.97372L121.306 -5.13106L120.87 -5.22989C120.861 -5.23191 120.778 -5.25025 120.625 -5.28051C120.627 -4.99049 120.581 -4.81718 120.574 -4.79519L120.519 -4.60121L120.33 -4.67103C119.378 -5.0223 116.684 -5.27417 116.657 -5.27678C108.327 -6.00733 101.625 -3.85069 99.4137 -3.01939C98.7897 -1.16943 96.7113 5.07952 96.448 7.01744C97.8377 8.02436 111.852 18.1935 113.21 19.7422C114.442 19.6125 126.403 18.3818 132.556 18.7016C134.104 13.857 136.292 6.48905 136.087 5.67448C136.049 5.52694 136.11 5.39871 136.24 5.34698C137.334 4.92159 148.505 12.6553 150.471 16.2054C152.785 20.3864 154.981 29.6978 155.156 34.388L155.162 34.5358L144.651 37.4485L144.579 37.3233C144.496 37.1805 136.313 23.0474 134.008 20.7457C133.751 20.5525 133.469 20.3788 133.299 20.3031C133.303 20.311 133.306 20.3193 133.31 20.3282C133.466 20.6654 135.415 23.8243 137.478 27.1686C141.419 33.5546 144.215 38.1056 144.3 38.5C144.467 39.2695 139.106 53.5837 136.534 57.2672L136.485 57.3372L136.4 57.3462C135.667 57.4215 118.427 59.1861 117.014 58.892C116.285 58.7392 113.425 54.8008 110.635 50.7261C112.439 53.4079 114.22 56.0484 115.195 57.4942C115.693 58.233 116.01 58.7034 116.06 58.777C116.13 58.8824 116.344 59.2028 112.28 67.226C110.276 71.1815 107.89 75.6464 107.077 76.7038L107.022 76.7751L106.932 76.7767C103.826 76.826 88.7333 77.0205 86.8901 76.1777C86.7946 76.2564 86.7245 76.3452 86.7307 76.3786C86.7307 76.3786 86.7706 76.4733 87.1414 76.5474C88.2674 76.7721 105.896 77.2593 107.52 77.1908C108.396 77.1505 110.943 78.9131 113.897 80.9502C116.764 82.9266 120.008 85.1626 121.196 85.288C122.139 84.8142 136.821 77.3869 138.811 73.4158C138.716 72.5055 137.446 60.4244 136.64 57.8535L136.616 57.7781L136.654 57.7088C136.67 57.6801 136.813 57.4256 137.069 57.4556C137.319 57.4835 137.503 57.7529 137.665 58.3292C137.999 59.5159 139.7 69.6262 139.862 73.5859C142.955 74.6553 146.351 75.5971 146.889 75.3882C147.419 74.585 155.495 62.2082 156.962 53.5486C157.06 52.9645 157.154 52.4167 157.244 51.899C157.429 50.8207 157.592 49.8735 157.729 49.0002C157.746 46.105 157.439 43.9777 157.433 43.9389L157.431 43.9132C157.412 41.9665 155.336 34.9921 155.315 34.9221L155.305 34.8869L155.308 34.8506C155.652 31.2597 154.006 24.8778 152.492 20.5038C151.156 16.6432 149.347 14.3876 147.754 12.6903C146.507 11.3613 143.42 9.30708 141.167 7.80705C140.241 7.1908 139.441 6.65859 138.926 6.283C137.218 5.03735 135.567 5.08604 135.551 5.08603L135.458 5.0896L135.079 4.63479C133.55 2.94925 128.68 -0.312109 125.458 -2.47037C123.556 -3.74409 122.553 -4.41961 122.333 -4.65346C121.62 -5.41407 122.26 -7.18174 122.288 -7.25666L122.349 -7.42103L122.517 -7.37084C124.329 -6.83198 135.417 -2.25397 144.345 6.49499C146.807 8.90743 149.1 11.9214 151.16 15.453C155.259 22.4813 157.077 29.2718 157.095 29.3394C158.825 41.2231 158.927 43.7835 158.102 49.0364C158.085 51.4766 157.84 54.4515 157.004 57.1974C155.155 63.2693 150.82 74.406 142.567 80.7713C134.245 87.1895 122.913 93.9064 116.358 94.4438L116.33 94.4459L113.175 93.7503L113.612 93.5108C113.659 93.4856 118.295 90.9073 119.972 86.6839C119.889 86.7583 119.764 86.8848 119.583 87.1002C119.178 87.581 118.631 88.2778 118.052 89.0152C117.258 90.0257 116.437 91.0711 115.945 91.6038C115.129 92.487 113.169 93.4731 112.331 93.8941L112.317 93.9009C112.558 93.9427 112.952 93.9706 113.294 93.9737L113.327 94.3443C113.114 94.3852 108.083 95.3466 106.4 95.2933C104.143 95.2218 96.486 94.8796 92.6867 93.478C88.8622 92.0668 79.9746 85.6486 79.4089 84.8939C79.2761 84.717 79.0293 84.3872 81.6208 80.6162C82.7475 78.9771 83.9358 77.3829 84.1625 77.0804C84.1584 77.0057 84.1431 76.9289 84.1251 76.8927C84.0882 76.9075 83.9894 76.9645 83.8102 77.1779C83.1124 78.0105 78.9 84.2964 78.8576 84.3599L78.7574 84.5095L78.6041 84.4152C78.0554 84.0759 65.1437 76.0537 63.2893 71.5654C61.6953 67.7064 59.72 61.486 59.675 57.5995C59.617 59.1096 59.7449 61.1813 60.3102 63.9331C61.5261 69.8523 61.9677 70.5836 62.9353 72.1868C63.1632 72.5645 63.4216 72.9931 63.7249 73.5474C65.2972 76.4256 72.9841 83.4715 76.2432 85.8523C77.7119 86.9248 81.0021 88.8581 88.3364 91.9781L88.4752 92.0371C106.762 99.832 196.576 138.525 88.3287 92.3813ZM84.152 76.5141C84.1882 76.5152 84.2244 76.5216 84.2606 76.5355C84.5382 76.6418 84.539 77.0644 84.5363 77.1481L84.5345 77.2069L84.4988 77.2544C82.0418 80.5186 79.5808 84.1903 79.7157 84.6845C80.1413 85.2487 88.9887 91.7153 92.8155 93.127C96.6584 94.545 104.815 94.8691 106.411 94.9197C107.548 94.9556 110.366 94.4946 112.01 94.2049C111.816 94.1306 111.795 94.0442 111.782 93.9877C111.75 93.8478 111.835 93.7253 112.034 93.6247L112.163 93.5602C112.911 93.1837 114.9 92.1841 115.67 91.3502C116.152 90.8284 116.968 89.7892 117.758 88.7842C118.339 88.0439 118.888 87.3454 119.297 86.8592C119.77 86.2973 120.022 86.1285 120.225 86.2366C120.425 86.3427 120.379 86.6247 120.334 86.7831C118.906 90.4048 115.4 92.8432 114.201 93.5941L116.355 94.0689C122.839 93.521 134.072 86.8507 142.339 80.4756C150.51 74.1735 154.81 63.118 156.647 57.0885C157.135 55.4849 157.419 53.8012 157.572 52.1936C157.495 52.6422 157.414 53.1134 157.33 53.6109C155.808 62.5978 147.26 75.5067 147.175 75.6359L147.152 75.6698L147.117 75.6912C146.318 76.1875 140.731 74.2837 139.619 73.8974L139.497 73.8557L139.493 73.7274C139.365 69.8826 137.641 59.6225 137.306 58.4305C137.151 57.8806 137.023 57.8269 137.023 57.8269C137.868 60.6883 139.135 72.9072 139.189 73.431L139.194 73.4838L139.171 73.5312C137.164 77.7159 121.962 85.324 121.316 85.6459L121.271 85.6679L121.222 85.6653C119.972 85.5916 116.776 83.3888 113.685 81.2581C111.029 79.4262 108.275 77.5236 107.536 77.5645C105.907 77.6331 88.2024 77.1398 87.0687 76.9144C86.9094 76.8826 86.4251 76.7858 86.3633 76.4455C86.3028 76.113 86.7012 75.8466 86.7818 75.7965L86.9151 75.7135L87.0198 75.8302C87.6479 76.4662 99.4669 76.5201 106.835 76.4047C108.568 74.047 115.593 59.9612 115.724 58.9474C115.63 58.8075 115.33 58.3622 114.886 57.7033C112.216 53.7449 105.123 43.2293 104.687 42.4812C104.423 42.03 104.371 41.7671 104.51 41.6017C104.621 41.4696 104.809 41.479 104.936 41.5269L104.994 41.5487L105.027 41.6004C109.178 48.0369 116.124 58.324 117.091 58.5264C118.173 58.7544 130.063 57.6215 136.277 56.983C138.912 53.1278 143.982 39.2621 143.934 38.5709C143.811 38.1427 139.967 31.9136 137.161 27.365C134.912 23.7212 133.136 20.843 132.972 20.4847C132.928 20.3903 132.796 20.1034 132.985 19.9508C133.064 19.8875 133.271 19.7203 134.245 20.4547L134.264 20.4713C136.501 22.6911 143.958 35.5052 144.831 37.0106L154.776 34.2546C154.566 29.6485 152.371 20.4097 150.144 16.3865C148.116 12.7248 137.877 5.95708 136.465 5.70367C136.558 7.37361 133.255 17.7446 132.868 18.9533L132.824 19.0913L132.679 19.083C126.3 18.7174 113.278 20.1109 113.148 20.125L113.035 20.1371L112.972 20.0431C112.36 19.1251 101.694 11.2771 96.1393 7.256L96.0515 7.19238L96.0632 7.08429C96.2566 5.30672 98.2185 -0.640489 98.9593 -2.84254C98.8283 -2.78984 98.7361 -2.75088 98.6843 -2.72883C97.0902 -0.318933 96.1167 5.52694 95.77 7.94193C95.7751 7.93885 95.7794 7.936 95.7835 7.93338L95.8718 7.87609L95.9666 7.92198C100.358 10.043 111.909 20.0125 112.399 20.4359L112.5 20.5236L104.29 40.7066L82.8439 40.0274C82.0601 41.1857 73.6259 53.7229 73.3854 57.366C74.2319 59.7332 76.0593 62.5614 80.0911 67.9776C82.1487 70.741 85.5319 75.4602 85.0734 76.0127L84.9239 76.193L84.7812 76.0067C84.3172 75.3998 73.4143 61.1076 73.0197 57.7585C73.0089 57.6672 73.0058 57.5676 73.0092 57.4613C72.9602 57.3213 72.9152 57.1835 72.8732 57.0468C72.6645 57.5997 72.5529 57.919 72.5466 57.9373L72.5085 58.0465L72.3941 58.0614C69.8661 58.3905 61.591 56.1584 60.2299 55.7842C59.3542 59.0459 61.8315 67.0573 63.6349 71.4225C65.3378 75.544 77.1599 83.0672 78.6478 84.0017C79.3109 83.0131 82.8657 77.7227 83.5236 76.9382C83.6853 76.7451 83.9162 76.5066 84.152 76.5141ZM75.8932 62.7519C78.5047 66.9325 82.4504 72.2817 84.1954 74.6106C83.5967 73.5586 82.3563 71.6467 79.7911 68.201C78.1394 65.9822 76.872 64.214 75.8932 62.7519ZM65.0342 9.38632C64.6957 9.73813 64.309 10.1428 63.8672 10.608C60.1257 14.5463 58.7542 16.9423 56.7125 21.1123C54.2277 26.1877 53.6043 29.1148 52.993 35.3339C52.2943 42.4396 53.454 50.3342 56.5386 59.4701C56.5635 59.5255 58.9718 64.9736 60.5138 68.0839C59.5579 64.7485 57.9105 57.8969 59.4652 54.8011C59.0354 53.6037 54.7134 41.3998 55.557 37.1178C55.6435 36.2918 55.8365 36.2917 55.9399 36.2919C56.1379 36.2917 56.3087 36.2916 56.5457 38.5673C56.9444 42.3929 59.1784 52.2521 60.3454 53.9782L60.4133 54.0789L60.3492 54.1821C60.3431 54.1916 60.0991 54.608 59.9035 55.5652C59.9102 55.5425 59.9174 55.5203 59.9243 55.4978L59.9796 55.3273L60.1526 55.3756C60.2465 55.402 69.4626 57.9615 72.2324 57.7037C72.3021 57.5092 72.4616 57.0697 72.7045 56.4393C72.6275 56.1297 72.5647 55.8218 72.5105 55.5084L72.5007 55.4508L72.5253 55.3979C72.793 54.823 78.6068 42.3841 82.0014 38.5893C81.2046 36.095 77.9718 25.7314 77.7606 21.1353C76.5039 20.8417 67.0439 18.6779 63.9026 19.2928C63.3854 20.0583 58.3518 27.5425 57.8258 29.533C57.2633 31.6604 55.6362 36.0033 55.6198 36.0469L55.5109 36.3377L55.3054 36.1055C55.2473 36.0399 53.885 34.4846 54.1023 33.1717C54.1757 32.7283 55.9329 22.2697 58.6663 18.6879C59.695 17.3401 60.9669 15.4207 62.1969 13.565C63.2055 12.0411 64.186 10.5625 65.0342 9.38632ZM59.439 55.9823C58.7589 58.7847 59.6809 63.4055 60.4878 66.535C60.3225 65.8119 60.1429 64.979 59.9435 64.0088C59.1393 60.093 59.1984 57.5345 59.439 55.9823ZM73.0999 56.4529C73.1133 56.5029 73.1272 56.5529 73.1413 56.6033C73.2504 56.1572 73.4219 55.6465 73.6441 55.0863C73.4333 55.6015 73.2517 56.061 73.0999 56.4529ZM72.8892 55.502C72.9078 55.6063 72.9275 55.7096 72.9489 55.8135C73.3017 54.9214 73.772 53.7776 74.3487 52.4767C73.5556 54.0862 73.0103 55.2438 72.8892 55.502ZM55.9507 36.9899C55.9414 37.0499 55.9326 37.1125 55.9265 37.1739C55.1309 41.2143 59.2007 52.9332 59.7777 54.5629C59.8558 54.339 59.9263 54.1839 59.9736 54.0909C58.6764 51.9597 56.5404 42.1213 56.174 38.6061C56.0853 37.7561 56.0087 37.269 55.9507 36.9899ZM82.4229 38.6794C82.4901 38.8885 82.5292 39.0072 82.5328 39.019L82.5646 39.116L82.5003 39.1953C78.5511 44.0588 75.4837 50.6519 73.8512 54.583C76.131 49.2318 82.268 40.2074 82.5925 39.7317L82.6503 39.6471L104.042 40.3245L112.053 20.6308C110.888 19.6296 100.1 10.3946 95.8982 8.30452C95.8503 8.33542 95.7846 8.37847 95.7016 8.43244C95.6534 8.78945 95.6284 8.99909 95.6267 9.0125L95.6136 9.12628L95.5056 9.16599C94.5329 9.52514 84.1332 16.8891 78.7091 20.7764C78.2559 24.7536 83.0992 37.736 83.1486 37.8674L83.1992 38.0022L83.0817 38.0857C82.8781 38.2296 82.6579 38.4298 82.4229 38.6794ZM104.906 42.1039C104.933 42.1574 104.966 42.2198 105.009 42.2927C105.146 42.5269 105.979 43.7842 107.131 45.5064C106.121 43.9767 105.316 42.7372 104.906 42.1039ZM157.805 43.8968C157.823 44.0265 157.967 45.0795 158.048 46.6573C158.476 42.7303 158.174 39.3495 156.729 29.4143C156.715 29.3678 154.908 22.624 150.836 15.6415C148.793 12.1388 146.521 9.15145 144.082 6.7622C135.457 -1.69071 124.82 -6.2213 122.581 -6.9584C122.412 -6.41599 122.193 -5.34906 122.605 -4.90914C122.806 -4.69534 124.131 -3.80815 125.665 -2.78096C128.903 -0.612481 133.795 2.66456 135.361 4.38963L135.629 4.71205C136.022 4.71377 137.545 4.8141 139.145 5.98127C139.654 6.35218 140.451 6.8823 141.373 7.4962C143.642 9.00642 146.749 11.0743 148.026 12.4349C149.646 14.161 151.486 16.455 152.845 20.3821C154.366 24.777 156.019 31.193 155.684 34.85C155.861 35.4478 157.777 41.934 157.805 43.8968ZM82.134 39.0014C81.6468 39.5699 81.1088 40.3158 80.5433 41.1783C81.0595 40.4402 81.5938 39.7226 82.146 39.0389C82.1424 39.0269 82.1385 39.0145 82.134 39.0014ZM71.4283 19.4692C74.7252 20.0282 77.7514 20.7476 77.9855 20.8039L78.1243 20.8369L78.129 20.9795C78.2718 25.3433 81.3973 35.4555 82.2945 38.2769C82.4526 38.1176 82.6046 37.9803 82.7493 37.8672C82.2021 36.3938 77.8296 24.4536 78.3482 20.6471L78.3592 20.5674L78.4248 20.5206C79.0498 20.0724 93.4274 9.77162 95.2679 8.86351C95.2733 8.82079 95.28 8.76665 95.288 8.70208C92.2281 10.6978 80.0914 18.6383 78.1737 20.2995L78.1102 20.3545L78.0265 20.3434C76.2227 20.1028 73.7604 19.776 71.4283 19.4692ZM64.6193 18.2231C66.0266 18.3674 76.8373 19.8076 77.9932 19.9616C80.2106 18.0946 92.7994 9.87565 95.3523 8.21344C95.6534 6.00244 96.6489 -0.389259 98.4041 -2.98305L98.4339 -3.02698L98.482 -3.04889C98.4949 -3.05447 98.7136 -3.15126 99.1149 -3.30536C99.1438 -3.39121 99.1685 -3.46323 99.188 -3.51971C94.5384 -6.38839 90.657 -5.67306 88.9909 -5.36579C88.637 -5.30045 88.4028 -5.2575 88.2464 -5.26245C87.9936 -5.27046 87.8424 -5.35404 87.7966 -5.51107C87.7063 -5.81936 88.1785 -6.22103 88.5909 -6.50343L88.6344 -6.53322L88.6874 -6.53603C88.6874 -6.53603 89.0784 -6.55481 89.7739 -6.60135C95.5244 -6.98547 99.2432 -5.09123 99.7997 -4.78663C108.912 -7.39476 117.638 -6.19241 120.2 -5.73954C120.143 -6.04501 120.027 -6.42096 119.798 -6.84706L119.459 -7.39211C119.423 -7.44363 119.385 -7.49544 119.345 -7.54781C102.682 -12.3695 88.597 -6.98793 88.4561 -6.9328C80.4183 -4.0089 71.1955 3.64865 69.3432 5.3874C68.087 6.56659 64.6769 16.9703 64.6193 18.2231ZM92.3673 -6.0435C94.3147 -5.98183 96.7876 -5.47243 99.5124 -3.75777L99.6378 -3.679L99.5897 -3.53915C99.5883 -3.53496 99.5809 -3.513 99.5675 -3.47378C102.064 -4.37882 108.625 -6.35666 116.69 -5.64872C116.796 -5.63888 119.123 -5.4211 120.241 -5.09246C120.247 -5.16186 120.249 -5.24903 120.245 -5.35191C117.864 -5.7826 109.037 -7.0622 99.8281 -4.4055L99.7503 -4.38303L99.6806 -4.42464C99.6434 -4.44676 95.8913 -6.63601 89.7988 -6.22807C89.2491 -6.19137 88.889 -6.17161 88.7594 -6.16499C88.5008 -5.98194 88.2587 -5.76073 88.1819 -5.64199C88.201 -5.63914 88.2261 -5.6366 88.2585 -5.63557C88.375 -5.63188 88.617 -5.67657 88.9232 -5.73295C89.6745 -5.87197 90.8645 -6.0911 92.3673 -6.0435Z" stroke="white" stroke-miterlimit="10"/>
</g>
</g>
<path d="M30.4873 115.456H36.5557V104.581H47.6335V98.9203H36.5557V92.6483H48.4073V86.9464H30.4873V115.456Z" fill="white"/>
<path d="M69.1687 115.456H75.5629L65.9919 86.9464H57.4392L47.7868 115.456H54.3032L56.1359 109.754H67.3359L69.1687 115.456ZM57.8872 104.215L61.4712 93.0555H61.9192L65.5439 104.215H57.8872Z" fill="white"/>
<path d="M77.8184 115.456H83.8868V93.0555H84.3348L90.7697 115.456H101.196V86.9464H95.1683V109.346H94.761L88.1632 86.9464H77.8184V115.456Z" fill="white"/>
<path d="M115.486 115.985C122.165 115.985 126.238 112.075 126.238 107.188C126.238 95.4177 111.576 100.142 111.576 94.8068C111.576 93.4628 112.635 92.0374 115.241 92.0374C117.848 92.0374 119.396 93.7072 119.396 95.9472H125.505C125.505 88.9421 120.047 86.417 115.404 86.417C109.214 86.417 105.508 90.3268 105.508 94.8068C105.508 106.333 120.006 100.997 120.006 107.147C120.006 108.858 118.581 110.12 115.689 110.12C112.961 110.12 110.721 108.491 110.721 105.722H104.652C104.652 111.953 109.214 115.985 115.486 115.985Z" fill="white"/>
<path fill-rule="evenodd" clip-rule="evenodd" d="M108.445 68.32C107.079 68.32 106.2 67.3791 106.2 66.1651C106.2 64.9712 107.079 64 108.424 64C109.811 64 110.68 64.9611 110.68 66.1549C110.68 67.3386 109.821 68.32 108.445 68.32ZM108.44 67.9443C109.618 67.9443 110.307 67.1907 110.307 66.1489C110.307 65.1071 109.607 64.3756 108.417 64.3756C107.273 64.3756 106.573 65.1293 106.573 66.16C106.573 67.1685 107.273 67.9443 108.44 67.9443ZM107.659 67.3263V65.0724H108.63C109.148 65.0724 109.45 65.4376 109.45 65.8237C109.45 66.1368 109.277 66.3872 109.083 66.4707L109.525 67.3263H108.943L108.598 66.5855H108.198V67.3263H107.659ZM108.176 66.0942H108.549C108.745 66.0942 108.838 65.9526 108.838 65.811C108.838 65.6491 108.735 65.5277 108.549 65.5277H108.176V66.0942Z" fill="white"/>
<path fill-rule="evenodd" clip-rule="evenodd" d="M101.789 76C99.2024 76 97.3839 74.1173 97.3839 71.6698C97.3839 69.2065 99.2181 67.3238 101.789 67.3238C104.376 67.3238 106.178 69.2222 106.178 71.6698C106.178 74.1173 104.36 76 101.789 76ZM101.789 73.8192C103.012 73.8192 103.858 72.8935 103.858 71.6698C103.858 70.4303 103.012 69.5046 101.789 69.5046C100.566 69.5046 99.704 70.4303 99.704 71.6698C99.704 72.8935 100.566 73.8192 101.789 73.8192ZM91.9794 75.796V67.5278H94.2369V68.626H94.3936C94.7542 67.92 95.5694 67.3238 96.51 67.3238H97.1684V69.5988H96.3218C95.0677 69.5988 94.2525 70.3832 94.2525 71.9208V75.796H91.9794ZM83.5023 75.796V64.8136H87.4058C89.5848 64.8136 91.0584 66.2099 91.0584 68.3436C91.0584 70.4617 89.5064 71.9208 87.4058 71.9208H85.8381V75.796H83.5023ZM85.8382 69.74H87.3118C88.1583 69.74 88.707 69.1438 88.707 68.3436C88.707 67.5592 88.1583 66.9944 87.3118 66.9944H85.8382V69.74ZM77.5181 76C75.0788 76 73.5621 74.2857 73.5621 71.7536C73.5621 69.1429 75.2352 67.4443 77.4399 67.4443C79.8479 67.4443 81.2552 69.1271 81.2552 71.5806V72.021H74.5941C74.6254 74.0026 75.7668 75.0878 77.5337 75.0878C78.769 75.0878 79.8479 74.3644 80.1919 73.1376L81.1614 73.3735C80.7392 74.8205 79.457 76 77.5181 76ZM74.6097 71.156H80.2388C80.1606 69.2687 78.8941 68.3408 77.4399 68.3408C75.9544 68.3408 74.7192 69.4259 74.6097 71.156ZM69.1839 76C66.7446 76 65.2279 74.2857 65.2279 71.7536C65.2279 69.1429 66.901 67.4443 69.1057 67.4443C71.5137 67.4443 72.921 69.1271 72.921 71.5806V72.021H66.2599C66.2912 74.0026 67.4326 75.0878 69.1995 75.0878C70.4348 75.0878 71.5137 74.3644 71.8577 73.1376L72.8272 73.3735C72.405 74.8205 71.1228 76 69.1839 76ZM66.2756 71.156H71.9047C71.8265 69.2687 70.5599 68.3408 69.1058 68.3408C67.6203 68.3408 66.385 69.4259 66.2756 71.156ZM61.0999 75.7955V67.6488H62.085V69.0642H62.1632C62.4916 68.3093 63.2265 67.4443 64.4618 67.4443H65.0559V68.4509H64.3836C62.9138 68.4509 62.1007 69.6461 62.1007 71.3762V75.7955H61.0999ZM56.0963 76C53.657 76 52.1403 74.2857 52.1403 71.7536C52.1403 69.1429 53.8134 67.4443 56.0181 67.4443C58.4261 67.4443 59.8334 69.1271 59.8334 71.5806V72.021H53.1723C53.2036 74.0026 54.345 75.0878 56.1119 75.0878C57.3472 75.0878 58.4261 74.3644 58.7701 73.1376L59.7396 73.3735C59.3174 74.8205 58.0352 76 56.0963 76ZM53.188 71.156H58.817C58.7389 69.2687 57.4723 68.3408 56.0181 68.3408C54.5327 68.3408 53.2974 69.4259 53.188 71.156ZM48.2156 75.7955V68.4823H46.652V67.6488H48.2156V66.2647C48.2156 64.6606 49.1694 64 50.5923 64H51.593V64.865H50.5923C49.6229 64.865 49.2163 65.2896 49.2163 66.2805V67.6488H51.6556V68.4823H49.2163V75.7955H48.2156ZM42.5865 76C40.1473 76 38.6305 74.2857 38.6305 71.7536C38.6305 69.1429 40.3036 67.4443 42.5083 67.4443C44.9163 67.4443 46.3236 69.1271 46.3236 71.5806V72.021H39.6625C39.6938 74.0026 40.8353 75.0878 42.6022 75.0878C43.8374 75.0878 44.9163 74.3644 45.2603 73.1376L46.2298 73.3735C45.8076 74.8205 44.5254 76 42.5865 76ZM39.6782 71.156H45.3072C45.2291 69.2687 43.9625 68.3408 42.5083 68.3408C41.0229 68.3408 39.7876 69.4259 39.6782 71.156ZM31 75.7956V64.7864H34.4087C36.5353 64.7864 37.8956 66.0446 37.8956 67.9319C37.8956 69.6147 36.9262 70.8729 35.1905 71.1717L38.1458 75.7956H36.9262L34.0804 71.2346H32.0164V75.7956H31ZM32.0164 70.3067H34.3931C35.7691 70.3067 36.8167 69.5203 36.8167 67.9476C36.8167 66.6894 35.9724 65.73 34.3149 65.73H32.0164V70.3067Z" fill="white"/>
</g>
<defs>
<filter id="filter0_f" x="0" y="18" width="160" height="160" filterUnits="userSpaceOnUse" color-interpolation-filters="sRGB">
<feFlood flood-opacity="0" result="BackgroundImageFix"/>
<feBlend mode="normal" in="SourceGraphic" in2="BackgroundImageFix" result="shape"/>
<feGaussianBlur stdDeviation="12" result="effect1_foregroundBlur"/>
</filter>
<filter id="filter1_f" x="47.9225" y="-49.168" width="115.18" height="168.296" filterUnits="userSpaceOnUse" color-interpolation-filters="sRGB">
<feFlood flood-opacity="0" result="BackgroundImageFix"/>
<feBlend mode="normal" in="SourceGraphic" in2="BackgroundImageFix" result="shape"/>
<feGaussianBlur stdDeviation="2" result="effect1_foregroundBlur"/>
</filter>
<linearGradient id="paint0_linear" x1="16" y1="2" x2="144" y2="130" gradientUnits="userSpaceOnUse">
<stop stop-color="#144DA3"/>
<stop offset="0.484164" stop-color="#0A1352"/>
<stop offset="1" stop-color="#73057A"/>
</linearGradient>
</defs>
</svg>
