<svg width="192" height="202" viewBox="0 0 192 202" fill="none" xmlns="http://www.w3.org/2000/svg">
<g opacity="0.48" filter="url(#filter0_f)">
<rect x="40" y="50" width="112" height="112" rx="2" fill="#1A1B1F"/>
</g>
<path d="M32.8529 10.2822C31.8971 12.1579 31.4443 14.2799 31.2213 17.0098C31 19.7185 31 23.1124 31 27.5534V27.6V104.4V104.447C31 108.888 31 112.281 31.2213 114.99C31.4443 117.72 31.8971 119.842 32.8529 121.718C34.4827 124.917 37.0834 127.517 40.2822 129.147C42.1579 130.103 44.2799 130.556 47.0098 130.779C49.7185 131 53.1124 131 57.5534 131H57.6H134.4H134.447C138.888 131 142.281 131 144.99 130.779C147.72 130.556 149.842 130.103 151.718 129.147C154.917 127.517 157.517 124.917 159.147 121.718C160.103 119.842 160.556 117.72 160.779 114.99C161 112.281 161 108.888 161 104.447V104.4V27.6V27.5534C161 23.1124 161 19.7185 160.779 17.0098C160.556 14.2799 160.103 12.1579 159.147 10.2822C157.517 7.08341 154.917 4.48274 151.718 2.85289C149.842 1.89714 147.72 1.44435 144.99 1.22131C142.281 0.999995 138.888 0.999997 134.447 1H134.4H57.6H57.5534C53.1124 0.999997 49.7185 0.999995 47.0098 1.22131C44.2799 1.44435 42.1579 1.89714 40.2822 2.85289C37.0834 4.48274 34.4827 7.08341 32.8529 10.2822Z" fill="url(#paint0_radial)" stroke="#31F565" stroke-width="2"/>
<mask id="mask0" mask-type="alpha" maskUnits="userSpaceOnUse" x="32" y="2" width="128" height="128">
<path d="M32 27.6C32 18.6392 32 14.1587 33.7439 10.7362C35.2779 7.72556 37.7256 5.27787 40.7362 3.7439C44.1587 2 48.6392 2 57.6 2H134.4C143.361 2 147.841 2 151.264 3.7439C154.274 5.27787 156.722 7.72556 158.256 10.7362C160 14.1587 160 18.6392 160 27.6V104.4C160 113.361 160 117.841 158.256 121.264C156.722 124.274 154.274 126.722 151.264 128.256C147.841 130 143.361 130 134.4 130H57.6C48.6392 130 44.1587 130 40.7362 128.256C37.7256 126.722 35.2779 124.274 33.7439 121.264C32 117.841 32 113.361 32 104.4V27.6Z" fill="#1A1B1F"/>
</mask>
<g mask="url(#mask0)">
<g opacity="0.48">
<g style="mix-blend-mode:overlay">
<path d="M125.265 -20.4346C125.265 -20.4346 113.509 18.5373 129.918 25.0345C140.825 29.3503 152.606 34.1554 159.296 36.8931C162.66 38.2712 164.725 39.1286 164.725 39.1286C164.725 39.1286 168.511 40.6352 170.493 40.7974C172.475 40.9596 173.187 40.6703 173.098 43.0689C173.009 45.4675 172.041 48.2732 172.17 49.2288C172.298 50.1844 172.476 52.6232 171.554 53.83C170.632 55.0368 168.744 57.8728 164.652 65.4218C163.097 68.2885 161.573 70.6854 160.179 73.557C158.786 76.4286 157.497 79.8555 158.434 74.4967C159.372 69.1379 161.124 65.5208 159.359 64.052C157.593 62.5831 156.656 63.378 159.992 57.178C163.329 50.978 167.317 44.0765 167.795 42.6728C168.272 41.269 169.035 42.4566 159.729 38.5056C150.422 34.5545 128.098 25.56 128.098 25.56C128.098 25.56 118.251 21.664 116.826 22.2488C115.4 22.8336 113.374 26.1105 109.173 33.5195L103.446 43.5591C103.446 43.5591 82.4043 35.8371 82.4848 35.3031C82.5653 34.7691 96.1618 16.4561 96.4139 15.6879C96.666 14.9198 97.1375 14.5487 109.495 18.3745C119.512 21.4835 121.883 22.3413 122.518 22.437C123.153 22.5327 125.746 21.0057 107.539 16.0123C88.6105 10.8127 87.9543 10.0831 83.0999 11.3605C78.2455 12.6378 76.9666 14.1874 71.6365 21.3352C69.0237 24.8422 68.5703 25.6971 68.2314 26.1791C65.3206 25.9335 62.4441 25.3801 59.6498 24.5282C55.3937 23.1716 53.8181 23.0707 50.6571 26.2091C47.4045 29.4376 46.7812 30.9885 46.7812 30.9885C46.7812 30.9885 50.8557 28.5535 54.4912 29.5044C57.9852 30.4471 62.9575 32.9973 62.9575 32.9973C62.9575 32.9973 67.1818 28.7059 67.6364 28.0593C68.0909 27.4127 69.7776 26.7762 68.9959 27.9131C67.4242 29.8859 65.7283 31.7562 63.9187 33.5127C63.0126 34.1823 63.188 34.0527 61.5982 33.228C59.2842 31.9951 55.4351 29.7897 51.3116 30.267C49.0967 30.5313 47.1442 31.2513 46.5937 31.9745C46.0432 32.6977 45.8281 34.6416 47.3933 36.7499C48.9585 38.8582 50.9454 40.926 52.9744 41.6803C54.1571 42.1245 55.3974 42.3968 56.6574 42.4889C56.6574 42.4889 58.9416 36.7675 64.5355 36.4858C70.3065 36.1918 76.6701 35.714 86.2451 40.2517C95.82 44.7893 123.693 55.0946 127.692 56.952C131.691 58.8094 151.813 66.1264 152.861 66.2843C153.908 66.4421 158.375 66.4002 152.558 63.5536C146.741 60.707 152.585 61.6073 154.607 62.8808C156.629 64.1542 158.854 64.86 158.759 67.2577C158.664 69.6553 156.853 78.1396 156.787 78.5783C156.721 79.0169 155.462 80.2576 153.911 78.1448C152.359 76.0321 151.648 75.925 149.783 75.3773C147.917 74.8296 137.617 71.4894 130.286 71.1907C122.955 70.8921 110.542 70.3607 102.134 73.3779C96.5528 75.3843 98.3338 71.0628 98.8831 65.652C99.4323 60.2412 94.7684 51.3792 88.8727 46.8564C84.0113 43.1397 77.7728 40.6327 71.8135 42.0035C65.8542 43.3743 60.8769 49.0865 63.3982 54.544C65.9196 60.0015 76.0103 69.3888 82.2997 71.2989C88.5892 73.2089 94.8783 71.2442 95.7343 70.0014C96.5904 68.7586 98.2623 70.1158 95.6894 71.2039C93.1166 72.2919 86.3287 76.4895 75.2536 69.1968C64.1785 61.9041 60.0858 52.569 62.0496 47.6379C64.0134 42.7069 69.1686 39.5635 75.0044 39.2272C81.1702 38.8562 78.172 38.0273 76.5002 37.5738C74.8285 37.1203 66.3082 36.5709 63.0155 37.739C60.4686 38.6554 57.5313 41.86 56.8794 44.8499C56.2275 47.8397 56.7807 53.4752 59.6942 58.1401C62.6077 62.8051 69.6098 71.6619 80.8525 74.3964C93.1537 77.3881 97.1317 75.5496 98.4654 75.575C99.7991 75.6005 117.818 91.5787 115.636 111.352C113.455 131.125 109.726 150.568 109.726 150.568" stroke="white" stroke-miterlimit="10"/>
</g>
<g style="mix-blend-mode:overlay" opacity="0.64" filter="url(#filter1_f)">
<path d="M125.265 -20.4346C125.265 -20.4346 113.491 18.6559 129.898 25.1648C140.804 29.4884 152.584 34.3023 159.274 37.045C162.637 38.4256 164.702 39.2846 164.702 39.2846C164.702 39.2846 168.487 40.794 170.469 40.9558C172.451 41.1175 173.163 40.8271 173.073 43.2328C172.984 45.6384 172.014 48.4526 172.142 49.4109C172.271 50.3693 172.447 52.8151 171.525 54.0258C170.602 55.2365 168.712 58.0816 164.617 65.6543C163.06 68.5301 161.536 70.9347 160.141 73.8152C158.745 76.6957 157.455 80.1332 158.395 74.7584C159.335 69.3836 161.089 65.7552 159.324 64.2829C157.559 62.8106 156.621 63.6081 159.961 57.3886C163.3 51.1692 167.291 44.2458 167.77 42.8378C168.248 41.4297 169.01 42.6204 159.705 38.662C150.4 34.7035 128.078 25.6926 128.078 25.6926C128.078 25.6926 118.233 21.7896 116.806 22.3768C115.38 22.9639 113.353 26.2512 109.148 33.6836L103.417 43.7549C103.417 43.7549 82.3768 36.0196 82.4575 35.484C82.5382 34.9485 96.1437 16.5762 96.3962 15.8057C96.6486 15.0352 97.1203 14.6629 109.477 18.4943C119.494 21.608 121.864 22.4673 122.499 22.563C123.134 22.6587 125.728 21.1261 107.522 16.1262C88.5944 10.9197 87.9384 10.1883 83.0831 11.4715C78.2278 12.7546 76.9482 14.3093 71.6146 21.4803C69.0002 24.9986 68.5463 25.8562 68.2072 26.3398C65.2963 26.0947 62.4198 25.541 59.6258 24.6878C55.3699 23.3292 53.7943 23.2287 50.6317 26.3775C47.3775 29.6169 46.7535 31.1726 46.7535 31.1726C46.7535 31.1726 50.8293 28.7286 54.4646 29.6808C57.9584 30.6247 62.9299 33.1801 62.9299 33.1801C62.9299 33.1801 67.1564 28.8744 67.6113 28.2257C68.0662 27.577 69.7533 26.9379 68.971 28.0785C67.3983 30.0577 65.7015 31.9342 63.891 33.6966C62.9846 34.3686 63.16 34.2385 61.5704 33.4121C59.2568 32.1766 55.4085 29.9665 51.2845 30.447C49.0693 30.713 47.1164 31.4359 46.5655 32.1615C46.0146 32.887 45.7987 34.8368 47.3631 36.9505C48.9275 39.0642 50.9136 41.1371 52.9424 41.8928C54.125 42.3378 55.3652 42.6103 56.6252 42.7021C56.6252 42.7021 58.9121 36.963 64.5065 36.678C70.278 36.3807 76.6423 35.8987 86.2159 40.4454C95.7895 44.992 123.66 55.3151 127.658 57.1762C131.656 59.0372 151.777 66.3667 152.825 66.5245C153.872 66.6824 158.339 66.6384 152.523 63.7861C146.707 60.9337 152.551 61.8341 154.573 63.1104C156.594 64.3866 158.819 65.0935 158.723 67.4982C158.626 69.9029 156.812 78.4127 156.745 78.8526C156.679 79.2925 155.42 80.5373 153.869 78.4192C152.319 76.301 151.608 76.1938 149.742 75.6454C147.877 75.0969 137.577 71.7515 130.246 71.4552C122.914 71.1588 110.502 70.6314 102.091 73.661C96.5089 75.6757 98.2919 71.3409 98.8436 65.9141C99.3952 60.4873 94.7349 51.6015 88.8408 47.0682C83.9807 43.3428 77.7429 40.8312 71.7826 42.2086C65.8223 43.5861 60.8421 49.3171 63.3613 54.7893C65.8804 60.2616 75.9676 69.6718 82.2567 71.5847C88.5457 73.4975 94.836 71.5243 95.6927 70.2775C96.5494 69.0308 98.2208 70.3912 95.6473 71.4835C93.0738 72.5759 86.2836 76.7886 75.211 69.4796C64.1383 62.1705 60.0495 52.8101 62.0156 47.8638C63.9817 42.9175 69.1385 39.7627 74.9749 39.4229C81.1412 39.0481 78.1432 38.2181 76.4716 37.764C74.7999 37.3099 66.2793 36.7626 62.9859 37.9356C60.4384 38.8558 57.4995 42.071 56.8463 45.0698C56.193 48.0687 56.7438 53.7203 59.6554 58.3976C62.5671 63.0748 69.5658 71.9543 80.808 74.6919C93.1087 77.6868 97.0878 75.8412 98.4216 75.8662C99.7553 75.8911 117.768 91.9079 115.578 111.74C113.388 131.571 109.726 150.568 109.726 150.568" stroke="white" stroke-miterlimit="10"/>
</g>
</g>
<path d="M47 115.509H53.0684V105.205H55.96L61.2138 115.509H68.1375L61.9062 104.268C65.2051 102.721 66.9971 99.7476 66.9971 95.9193C66.9971 90.584 62.8022 87 56.8153 87H47V115.509ZM53.0684 99.7069V92.6611H56.6931C59.4218 92.6611 60.6844 94.2087 60.6844 96.0415C60.6844 98.4036 59.096 99.7069 56.8967 99.7069H53.0684Z" fill="white"/>
<path d="M70.765 115.509H89.0923V109.848H76.8334V103.861H87.0559V98.2H76.8334V92.7018H88.685V87H70.765V115.509Z" fill="white"/>
<path d="M92.7402 115.509H98.8086V104.635H109.886V98.9738H98.8086V92.7018H110.66V87H92.7402V115.509Z" fill="white"/>
<path d="M115.621 106.386H120.549L121.078 87H115.132L115.621 106.386ZM118.065 116.039C120.182 116.039 121.526 114.491 121.526 112.617C121.526 110.744 120.182 109.196 118.065 109.196C115.947 109.196 114.521 110.744 114.521 112.617C114.521 114.491 115.947 116.039 118.065 116.039Z" fill="white"/>
<path fill-rule="evenodd" clip-rule="evenodd" d="M124.445 68.32C123.079 68.32 122.2 67.3791 122.2 66.1651C122.2 64.9712 123.079 64 124.424 64C125.811 64 126.68 64.9611 126.68 66.1549C126.68 67.3386 125.821 68.32 124.445 68.32ZM124.44 67.9443C125.618 67.9443 126.307 67.1907 126.307 66.1489C126.307 65.1071 125.607 64.3756 124.417 64.3756C123.273 64.3756 122.573 65.1293 122.573 66.16C122.573 67.1685 123.273 67.9443 124.44 67.9443ZM123.659 67.3263V65.0724H124.63C125.148 65.0724 125.45 65.4376 125.45 65.8237C125.45 66.1368 125.277 66.3872 125.083 66.4707L125.525 67.3263H124.943L124.598 66.5855H124.198V67.3263H123.659ZM124.176 66.0942H124.549C124.745 66.0942 124.838 65.9526 124.838 65.811C124.838 65.6491 124.735 65.5277 124.549 65.5277H124.176V66.0942Z" fill="white"/>
<path fill-rule="evenodd" clip-rule="evenodd" d="M117.789 76C115.202 76 113.384 74.1173 113.384 71.6698C113.384 69.2065 115.218 67.3238 117.789 67.3238C120.376 67.3238 122.178 69.2222 122.178 71.6698C122.178 74.1173 120.36 76 117.789 76ZM117.789 73.8192C119.012 73.8192 119.858 72.8935 119.858 71.6698C119.858 70.4303 119.012 69.5046 117.789 69.5046C116.566 69.5046 115.704 70.4303 115.704 71.6698C115.704 72.8935 116.566 73.8192 117.789 73.8192ZM107.979 75.796V67.5278H110.237V68.626H110.394C110.754 67.92 111.569 67.3238 112.51 67.3238H113.168V69.5988H112.322C111.068 69.5988 110.253 70.3832 110.253 71.9208V75.796H107.979ZM99.5023 75.796V64.8136H103.406C105.585 64.8136 107.058 66.2099 107.058 68.3436C107.058 70.4617 105.506 71.9208 103.406 71.9208H101.838V75.796H99.5023ZM101.838 69.74H103.312C104.158 69.74 104.707 69.1438 104.707 68.3436C104.707 67.5592 104.158 66.9944 103.312 66.9944H101.838V69.74ZM93.5181 76C91.0788 76 89.5621 74.2857 89.5621 71.7536C89.5621 69.1429 91.2352 67.4443 93.4399 67.4443C95.8479 67.4443 97.2552 69.1271 97.2552 71.5806V72.021H90.5941C90.6254 74.0026 91.7668 75.0878 93.5337 75.0878C94.769 75.0878 95.8479 74.3644 96.1919 73.1376L97.1614 73.3735C96.7392 74.8205 95.457 76 93.5181 76ZM90.6097 71.156H96.2388C96.1606 69.2687 94.8941 68.3408 93.4399 68.3408C91.9544 68.3408 90.7192 69.4259 90.6097 71.156ZM85.1839 76C82.7446 76 81.2279 74.2857 81.2279 71.7536C81.2279 69.1429 82.901 67.4443 85.1057 67.4443C87.5137 67.4443 88.921 69.1271 88.921 71.5806V72.021H82.2599C82.2912 74.0026 83.4326 75.0878 85.1995 75.0878C86.4348 75.0878 87.5137 74.3644 87.8577 73.1376L88.8272 73.3735C88.405 74.8205 87.1228 76 85.1839 76ZM82.2756 71.156H87.9047C87.8265 69.2687 86.5599 68.3408 85.1058 68.3408C83.6203 68.3408 82.385 69.4259 82.2756 71.156ZM77.0999 75.7955V67.6488H78.085V69.0642H78.1632C78.4916 68.3093 79.2265 67.4443 80.4618 67.4443H81.0559V68.4509H80.3836C78.9138 68.4509 78.1007 69.6461 78.1007 71.3762V75.7955H77.0999ZM72.0963 76C69.657 76 68.1403 74.2857 68.1403 71.7536C68.1403 69.1429 69.8134 67.4443 72.0181 67.4443C74.4261 67.4443 75.8334 69.1271 75.8334 71.5806V72.021H69.1723C69.2036 74.0026 70.345 75.0878 72.1119 75.0878C73.3472 75.0878 74.4261 74.3644 74.7701 73.1376L75.7396 73.3735C75.3174 74.8205 74.0352 76 72.0963 76ZM69.188 71.156H74.817C74.7389 69.2687 73.4723 68.3408 72.0181 68.3408C70.5327 68.3408 69.2974 69.4259 69.188 71.156ZM64.2156 75.7955V68.4823H62.652V67.6488H64.2156V66.2647C64.2156 64.6606 65.1694 64 66.5923 64H67.593V64.865H66.5923C65.6229 64.865 65.2163 65.2896 65.2163 66.2805V67.6488H67.6556V68.4823H65.2163V75.7955H64.2156ZM58.5865 76C56.1473 76 54.6305 74.2857 54.6305 71.7536C54.6305 69.1429 56.3036 67.4443 58.5083 67.4443C60.9163 67.4443 62.3236 69.1271 62.3236 71.5806V72.021H55.6625C55.6938 74.0026 56.8353 75.0878 58.6022 75.0878C59.8374 75.0878 60.9163 74.3644 61.2603 73.1376L62.2298 73.3735C61.8076 74.8205 60.5254 76 58.5865 76ZM55.6782 71.156H61.3072C61.2291 69.2687 59.9625 68.3408 58.5083 68.3408C57.0229 68.3408 55.7876 69.4259 55.6782 71.156ZM47 75.7956V64.7864H50.4087C52.5353 64.7864 53.8956 66.0446 53.8956 67.9319C53.8956 69.6147 52.9262 70.8729 51.1905 71.1717L54.1458 75.7956H52.9262L50.0804 71.2346H48.0164V75.7956H47ZM48.0164 70.3067H50.3931C51.7691 70.3067 52.8167 69.5203 52.8167 67.9476C52.8167 66.6894 51.9724 65.73 50.3149 65.73H48.0164V70.3067Z" fill="white"/>
</g>
<defs>
<filter id="filter0_f" x="0" y="10" width="192" height="192" filterUnits="userSpaceOnUse" color-interpolation-filters="sRGB">
<feFlood flood-opacity="0" result="BackgroundImageFix"/>
<feBlend mode="normal" in="SourceGraphic" in2="BackgroundImageFix" result="shape"/>
<feGaussianBlur stdDeviation="20" result="effect1_foregroundBlur"/>
</filter>
<filter id="filter1_f" x="25.7361" y="-35.0508" width="160.603" height="196.731" filterUnits="userSpaceOnUse" color-interpolation-filters="sRGB">
<feFlood flood-opacity="0" result="BackgroundImageFix"/>
<feBlend mode="normal" in="SourceGraphic" in2="BackgroundImageFix" result="shape"/>
<feGaussianBlur stdDeviation="2" result="effect1_foregroundBlur"/>
</filter>
<radialGradient id="paint0_radial" cx="0" cy="0" r="1" gradientUnits="userSpaceOnUse" gradientTransform="translate(160 2) rotate(135) scale(181.019 120.208)">
<stop stop-color="#45586B"/>
<stop offset="1" stop-color="#2D3145"/>
</radialGradient>
</defs>
</svg>
