<svg width="120" height="128" viewBox="0 0 120 128" fill="none" xmlns="http://www.w3.org/2000/svg">
<g opacity="0.16" filter="url(#filter0_f)">
<rect x="24" y="32" width="72" height="72" rx="2" fill="#1A1B1F"/>
</g>
<path d="M16 17.6C16 11.4394 16 8.35913 17.1989 6.0061C18.2535 3.93632 19.9363 2.25354 22.0061 1.19893C24.3591 0 27.4394 0 33.6 0H86.4C92.5606 0 95.6409 0 97.9939 1.19893C100.064 2.25354 101.746 3.93632 102.801 6.0061C104 8.35913 104 11.4394 104 17.6V70.4C104 76.5606 104 79.6409 102.801 81.9939C101.746 84.0637 100.064 85.7465 97.9939 86.8011C95.6409 88 92.5606 88 86.4 88H33.6C27.4394 88 24.3591 88 22.0061 86.8011C19.9363 85.7465 18.2535 84.0637 17.1989 81.9939C16 79.6409 16 76.5606 16 70.4V17.6Z" fill="url(#paint0_radial)"/>
<mask id="mask0" mask-type="alpha" maskUnits="userSpaceOnUse" x="16" y="0" width="88" height="88">
<path d="M16 17.6C16 11.4394 16 8.35913 17.1989 6.0061C18.2535 3.93632 19.9363 2.25354 22.0061 1.19893C24.3591 0 27.4394 0 33.6 0H86.4C92.5606 0 95.6409 0 97.9939 1.19893C100.064 2.25354 101.746 3.93632 102.801 6.0061C104 8.35913 104 11.4394 104 17.6V70.4C104 76.5606 104 79.6409 102.801 81.9939C101.746 84.0637 100.064 85.7465 97.9939 86.8011C95.6409 88 92.5606 88 86.4 88H33.6C27.4394 88 24.3591 88 22.0061 86.8011C19.9363 85.7465 18.2535 84.0637 17.1989 81.9939C16 79.6409 16 76.5606 16 70.4V17.6Z" fill="url(#paint1_radial)"/>
</mask>
<g mask="url(#mask0)">
<g opacity="0.64" filter="url(#filter1_d)">
<path d="M80.1196 -15.4239C80.1196 -15.4239 72.0374 11.3693 83.3184 15.8361C90.817 18.8032 98.9165 22.1067 103.516 23.9889C105.829 24.9363 107.249 25.5258 107.249 25.5258C107.249 25.5258 109.851 26.5616 111.214 26.6731C112.576 26.7846 113.066 26.5857 113.005 28.2348C112.944 29.8838 112.278 31.8127 112.367 32.4697C112.455 33.1266 112.578 34.8033 111.944 35.633C111.31 36.4627 110.011 38.4124 107.198 43.6023C106.129 45.5732 105.082 47.2211 104.123 49.1953C103.165 51.1695 102.279 53.5255 102.923 49.8414C103.568 46.1572 104.773 43.6704 103.559 42.6606C102.346 41.6508 101.701 42.1972 103.995 37.9348C106.289 33.6723 109.03 28.9275 109.359 27.9624C109.687 26.9973 110.212 27.8138 103.814 25.0975C97.4155 22.3811 82.0677 16.1974 82.0677 16.1974C82.0677 16.1974 75.2979 13.5189 74.3178 13.921C73.3376 14.323 71.9446 16.5758 69.0566 21.6696L65.1193 28.5718C65.1193 28.5718 50.653 23.2629 50.7083 22.8957C50.7636 22.5286 60.1113 9.93845 60.2846 9.41034C60.4579 8.88223 60.7821 8.62714 69.2777 11.2573C76.1647 13.3948 77.7944 13.9845 78.2309 14.0503C78.6674 14.1161 80.4505 13.0663 67.9333 9.63337C54.9197 6.05859 54.4686 5.55704 51.1312 6.43519C47.7938 7.31334 46.9145 8.3787 43.2501 13.2928C41.4538 15.7039 41.1421 16.2916 40.9091 16.623C38.9079 16.4542 36.9303 16.0737 35.0093 15.488C32.0832 14.5554 31 14.486 28.8268 16.6436C26.5907 18.8632 26.1621 19.9295 26.1621 19.9295C26.1621 19.9295 28.9633 18.2554 31.4627 18.9092C33.8648 19.5572 37.2833 21.3105 37.2833 21.3105C37.2833 21.3105 40.1875 18.3602 40.5 17.9157C40.8126 17.4711 41.9721 17.0335 41.4347 17.8152C40.3542 19.1714 39.1883 20.4573 37.9441 21.6649C37.3212 22.1252 37.4418 22.0361 36.3488 21.4692C34.7579 20.6215 32.1117 19.1053 29.2768 19.4334C27.754 19.6152 26.4117 20.1101 26.0332 20.6073C25.6547 21.1045 25.5069 22.441 26.5829 23.8904C27.659 25.3399 29.025 26.7615 30.4199 27.2801C31.2331 27.5855 32.0857 27.7727 32.952 27.836C32.952 27.836 34.5224 23.9025 38.3682 23.7088C42.3358 23.5067 46.7108 23.1783 53.2935 26.2979C59.8763 29.4175 79.0388 36.5024 81.7881 37.7794C84.5373 39.0564 98.3716 44.0868 99.0918 44.1953C99.812 44.3039 102.883 44.275 98.8837 42.318C94.8844 40.361 98.9023 40.9799 100.293 41.8554C101.683 42.7309 103.212 43.2162 103.147 44.8645C103.081 46.5129 101.836 52.3459 101.791 52.6474C101.745 52.949 100.88 53.8019 99.8136 52.3495C98.7469 50.897 98.258 50.8233 96.9756 50.4468C95.6932 50.0703 88.6114 47.7738 83.5714 47.5685C78.5314 47.3632 69.998 46.9979 64.2171 49.0722C60.3801 50.4516 61.6045 47.4806 61.9822 43.7606C62.3598 40.0407 59.1533 33.948 55.1 30.8387C51.7578 28.2834 47.4689 26.5598 43.3718 27.5023C39.2748 28.4447 35.8529 32.3719 37.5863 36.1239C39.3197 39.8759 46.2571 46.3297 50.5811 47.6429C54.9051 48.956 59.2288 47.6052 59.8174 46.7508C60.4059 45.8964 61.5554 46.8295 59.7865 47.5775C58.0177 48.3256 53.351 51.2114 45.7369 46.1977C38.1227 41.1839 35.309 34.7661 36.6592 31.376C38.0093 27.9858 41.5534 25.8248 45.5656 25.5936C49.8045 25.3385 47.7433 24.7686 46.5939 24.4569C45.4446 24.1451 39.5869 23.7674 37.3232 24.5704C35.5722 25.2005 33.5528 27.4036 33.1046 29.4592C32.6565 31.5147 33.0368 35.3891 35.0398 38.5962C37.0428 41.8034 41.8568 47.8924 49.5861 49.7724C58.0432 51.8292 60.7781 50.5652 61.695 50.5827C62.6119 50.6002 74.9998 61.5852 73.5001 75.1794C72.0004 88.7735 69.4369 102.14 69.4369 102.14" stroke="#8990A3" stroke-width="0.8" stroke-miterlimit="10"/>
</g>
<path d="M26.3125 78.0375H30.4845V70.9535H32.4725L36.0845 78.0375H40.8445L36.5605 70.3095C38.8285 69.2455 40.0605 67.2015 40.0605 64.5695C40.0605 60.9015 37.1765 58.4375 33.0605 58.4375H26.3125V78.0375ZM30.4845 67.1735V62.3295H32.9765C34.8525 62.3295 35.7205 63.3935 35.7205 64.6535C35.7205 66.2775 34.6285 67.1735 33.1165 67.1735H30.4845Z" fill="white"/>
<path d="M42.6509 78.0375H55.2509V74.1455H46.8229V70.0295H53.8509V66.1375H46.8229V62.3575H54.9709V58.4375H42.6509V78.0375Z" fill="white"/>
<path d="M57.7589 78.0375H61.9309V70.5615H69.5469V66.6695H61.9309V62.3575H70.0789V58.4375H57.7589V78.0375Z" fill="white"/>
<path d="M73.4894 71.7655H76.8774L77.2414 58.4375H73.1534L73.4894 71.7655ZM75.1694 78.4015C76.6254 78.4015 77.5494 77.3375 77.5494 76.0495C77.5494 74.7615 76.6254 73.6975 75.1694 73.6975C73.7134 73.6975 72.7334 74.7615 72.7334 76.0495C72.7334 77.3375 73.7134 78.4015 75.1694 78.4015Z" fill="white"/>
<path fill-rule="evenodd" clip-rule="evenodd" d="M79.556 45.595C78.6171 45.595 78.0125 44.9481 78.0125 44.1135C78.0125 43.2927 78.6171 42.625 79.5418 42.625C80.4949 42.625 81.0924 43.2858 81.0924 44.1065C81.0924 44.9203 80.5021 45.595 79.556 45.595ZM79.5525 45.3367C80.3626 45.3367 80.8358 44.8186 80.8358 44.1024C80.8358 43.3861 80.3545 42.8833 79.5364 42.8833C78.7504 42.8833 78.2691 43.4014 78.2691 44.11C78.2691 44.8034 78.7504 45.3367 79.5525 45.3367ZM79.0154 44.9118V43.3623H79.683C80.0391 43.3623 80.2468 43.6134 80.2468 43.8788C80.2468 44.094 80.1281 44.2662 79.9946 44.3236L80.2987 44.9118H79.8981L79.6608 44.4025H79.3863V44.9118H79.0154ZM79.3711 44.0648H79.6272C79.7623 44.0648 79.8263 43.9674 79.8263 43.87C79.8263 43.7588 79.7552 43.6753 79.6272 43.6753H79.3711V44.0648Z" fill="white"/>
<path fill-rule="evenodd" clip-rule="evenodd" d="M74.98 50.875C73.2016 50.875 71.9514 49.5806 71.9514 47.898C71.9514 46.2045 73.2124 44.9101 74.98 44.9101C76.7583 44.9101 77.9977 46.2153 77.9977 47.898C77.9977 49.5806 76.7475 50.875 74.98 50.875ZM74.98 49.3757C75.8206 49.3757 76.4026 48.7393 76.4026 47.898C76.4026 47.0458 75.8206 46.4094 74.98 46.4094C74.1393 46.4094 73.5465 47.0458 73.5465 47.898C73.5465 48.7393 74.1393 49.3757 74.98 49.3757ZM68.2359 50.7348V45.0504H69.7878V45.8054H69.8956C70.1435 45.32 70.7039 44.9101 71.3506 44.9101H71.8033V46.4742H71.2213C70.3591 46.4742 69.7986 47.0135 69.7986 48.0705V50.7348H68.2359ZM62.4079 50.7348V43.1843H65.0915C66.5896 43.1843 67.6027 44.1443 67.6027 45.6113C67.6027 47.0674 66.5357 48.0705 65.0915 48.0705H64.0137V50.7348H62.4079ZM64.0137 46.5712H65.0268C65.6088 46.5712 65.986 46.1614 65.986 45.6113C65.986 45.0719 65.6088 44.6836 65.0268 44.6836H64.0137V46.5712ZM58.2937 50.875C56.6167 50.875 55.5739 49.6964 55.5739 47.9556C55.5739 46.1607 56.7242 44.993 58.2399 44.993C59.8954 44.993 60.8629 46.1499 60.8629 47.8367V48.1394H56.2834C56.3049 49.5018 57.0897 50.2479 58.3044 50.2479C59.1537 50.2479 59.8954 49.7505 60.1319 48.9071L60.7984 49.0693C60.5082 50.0641 59.6267 50.875 58.2937 50.875ZM56.2942 47.5447H60.1642C60.1104 46.2472 59.2397 45.6093 58.2399 45.6093C57.2187 45.6093 56.3694 46.3553 56.2942 47.5447ZM52.5639 50.875C50.8869 50.875 49.8442 49.6964 49.8442 47.9556C49.8442 46.1607 50.9944 44.993 52.5102 44.993C54.1657 44.993 55.1332 46.1499 55.1332 47.8367V48.1394H50.5537C50.5752 49.5018 51.3599 50.2479 52.5747 50.2479C53.4239 50.2479 54.1657 49.7505 54.4022 48.9071L55.0687 49.0693C54.7784 50.0641 53.8969 50.875 52.5639 50.875ZM50.5645 47.5447H54.4345C54.3807 46.2472 53.51 45.6093 52.5102 45.6093C51.489 45.6093 50.6397 46.3553 50.5645 47.5447ZM47.0062 50.7344V45.1335H47.6835V46.1067H47.7372C47.963 45.5877 48.4682 44.993 49.3175 44.993H49.726V45.685H49.2637C48.2532 45.685 47.6942 46.5067 47.6942 47.6961V50.7344H47.0062ZM43.5662 50.875C41.8892 50.875 40.8465 49.6964 40.8465 47.9556C40.8465 46.1607 41.9967 44.993 43.5125 44.993C45.168 44.993 46.1355 46.1499 46.1355 47.8367V48.1394H41.556C41.5775 49.5018 42.3622 50.2479 43.577 50.2479C44.4262 50.2479 45.168 49.7505 45.4045 48.9071L46.071 49.0693C45.7807 50.0641 44.8992 50.875 43.5662 50.875ZM41.5667 47.5447H45.4367C45.383 46.2472 44.5122 45.6093 43.5125 45.6093C42.4912 45.6093 41.642 46.3553 41.5667 47.5447ZM38.1482 50.7344V45.7066H37.0732V45.1335H38.1482V44.182C38.1482 43.0791 38.804 42.625 39.7822 42.625H40.4702V43.2197H39.7822C39.1157 43.2197 38.8362 43.5116 38.8362 44.1928V45.1335H40.5132V45.7066H38.8362V50.7344H38.1482ZM34.2782 50.875C32.6012 50.875 31.5585 49.6964 31.5585 47.9556C31.5585 46.1607 32.7087 44.993 34.2245 44.993C35.88 44.993 36.8475 46.1499 36.8475 47.8367V48.1394H32.268C32.2895 49.5018 33.0742 50.2479 34.289 50.2479C35.1382 50.2479 35.88 49.7505 36.1165 48.9071L36.783 49.0693C36.4927 50.0641 35.6112 50.875 34.2782 50.875ZM32.2787 47.5447H36.1487C36.095 46.2472 35.2242 45.6093 34.2245 45.6093C33.2032 45.6093 32.354 46.3553 32.2787 47.5447ZM26.3125 50.7344V43.1656H28.656C30.118 43.1656 31.0532 44.0306 31.0532 45.3282C31.0532 46.4851 30.3867 47.3501 29.1935 47.5555L31.2252 50.7344H30.3867L28.4302 47.5988H27.0112V50.7344H26.3125ZM27.0112 46.9608H28.6452C29.5912 46.9608 30.3115 46.4202 30.3115 45.339C30.3115 44.4739 29.731 43.8144 28.5915 43.8144H27.0112V46.9608Z" fill="white"/>
</g>
<defs>
<filter id="filter0_f" x="0" y="8" width="120" height="120" filterUnits="userSpaceOnUse" color-interpolation-filters="sRGB">
<feFlood flood-opacity="0" result="BackgroundImageFix"/>
<feBlend mode="normal" in="SourceGraphic" in2="BackgroundImageFix" result="shape"/>
<feGaussianBlur stdDeviation="12" result="effect1_foregroundBlur"/>
</filter>
<filter id="filter1_d" x="23.3483" y="-17.5391" width="92.0618" height="121.755" filterUnits="userSpaceOnUse" color-interpolation-filters="sRGB">
<feFlood flood-opacity="0" result="BackgroundImageFix"/>
<feColorMatrix in="SourceAlpha" type="matrix" values="0 0 0 0 0 0 0 0 0 0 0 0 0 0 0 0 0 0 127 0"/>
<feOffset/>
<feGaussianBlur stdDeviation="1"/>
<feColorMatrix type="matrix" values="0 0 0 0 1 0 0 0 0 1 0 0 0 0 1 0 0 0 0.16 0"/>
<feBlend mode="normal" in2="BackgroundImageFix" result="effect1_dropShadow"/>
<feBlend mode="normal" in="SourceGraphic" in2="effect1_dropShadow" result="shape"/>
</filter>
<radialGradient id="paint0_radial" cx="0" cy="0" r="1" gradientUnits="userSpaceOnUse" gradientTransform="translate(104) rotate(135) scale(124.451 82.6431)">
<stop stop-color="#45586B"/>
<stop offset="1" stop-color="#2D3145"/>
</radialGradient>
<radialGradient id="paint1_radial" cx="0" cy="0" r="1" gradientUnits="userSpaceOnUse" gradientTransform="translate(104) rotate(135) scale(124.451 82.6431)">
<stop stop-color="#45586B"/>
<stop offset="1" stop-color="#2D3145"/>
</radialGradient>
</defs>
</svg>
