<svg width="120" height="128" viewBox="0 0 120 128" fill="none" xmlns="http://www.w3.org/2000/svg">
<g opacity="0.16" filter="url(#filter0_f)">
<rect x="24" y="32" width="72" height="72" rx="2" fill="#1A1B1F"/>
</g>
<path d="M16 17.6C16 11.4394 16 8.35913 17.1989 6.0061C18.2535 3.93632 19.9363 2.25354 22.0061 1.19893C24.3591 0 27.4394 0 33.6 0H86.4C92.5606 0 95.6409 0 97.9939 1.19893C100.064 2.25354 101.746 3.93632 102.801 6.0061C104 8.35913 104 11.4394 104 17.6V70.4C104 76.5606 104 79.6409 102.801 81.9939C101.746 84.0637 100.064 85.7465 97.9939 86.8011C95.6409 88 92.5606 88 86.4 88H33.6C27.4394 88 24.3591 88 22.0061 86.8011C19.9363 85.7465 18.2535 84.0637 17.1989 81.9939C16 79.6409 16 76.5606 16 70.4V17.6Z" fill="url(#paint0_linear)"/>
<mask id="mask0" mask-type="alpha" maskUnits="userSpaceOnUse" x="16" y="0" width="88" height="88">
<path d="M16 17.6C16 11.4394 16 8.35913 17.1989 6.0061C18.2535 3.93632 19.9363 2.25354 22.0061 1.19893C24.3591 0 27.4394 0 33.6 0H86.4C92.5606 0 95.6409 0 97.9939 1.19893C100.064 2.25354 101.746 3.93632 102.801 6.0061C104 8.35913 104 11.4394 104 17.6V70.4C104 76.5606 104 79.6409 102.801 81.9939C101.746 84.0637 100.064 85.7465 97.9939 86.8011C95.6409 88 92.5606 88 86.4 88H33.6C27.4394 88 24.3591 88 22.0061 86.8011C19.9363 85.7465 18.2535 84.0637 17.1989 81.9939C16 79.6409 16 76.5606 16 70.4V17.6Z" fill="#1A1B1F"/>
</mask>
<g mask="url(#mask0)">
<path d="M69.6828 90.6587L69.4264 90.6422C69.4298 90.5893 69.7752 85.2225 70.5995 75.2497C71.4559 64.8876 66.315 62.3882 65.726 62.1371L65.6308 62.0966C60.5659 59.9421 58.2863 58.6015 57.2657 57.8561C55.0093 56.2078 49.6812 51.3185 48.5852 49.3122C48.3795 48.9357 48.2033 48.6439 48.0477 48.3865C47.8352 48.0342 47.6569 47.7387 47.4844 47.3626L47.6097 47.7361L47.0123 46.7534C46.2026 45.4214 43.7356 39.8405 43.631 39.6036C41.4943 33.2769 40.6929 27.8141 41.1768 22.8918C41.6009 18.5817 42.0333 16.5516 43.7592 13.0268C45.2277 10.0275 46.2418 8.35229 48.7225 5.74102C51.2086 3.12409 51.2428 3.15431 51.3682 3.26422C51.4826 3.36452 51.37 3.50426 51.2139 3.69764L51.1923 3.71872C50.5405 4.22055 49.2359 6.18889 47.9745 8.09244C47.1265 9.37193 46.2497 10.6951 45.5373 11.6285C43.6964 14.0406 42.4988 21.1698 42.449 21.4722C42.3511 22.0625 42.831 22.7824 43.077 23.1056C43.3387 22.3977 44.1833 20.0874 44.5071 18.863C44.8977 17.3856 48.593 11.9323 48.75 11.7011L48.7787 11.6585L48.8291 11.6477C49.3379 11.5375 50.0855 11.5346 50.9432 11.5984C50.0299 11.4816 49.4071 11.405 49.325 11.4024C49.2632 11.4004 49.2101 11.3607 49.1867 11.2987C48.9932 10.7862 51.5951 2.98909 52.4983 2.14142C53.7794 0.938725 60.1596 -4.35784 65.7235 -6.38174C65.8167 -6.41821 75.3728 -10.072 86.7545 -6.91511C86.6784 -6.99705 86.5961 -7.08039 86.507 -7.16464C85.6146 -8.0102 83.8151 -8.38928 81.7317 -8.82825C80.4338 -9.10162 78.9629 -9.41183 77.5578 -9.87801C73.4764 -11.2317 71.6267 -19.7293 72.7299 -32.0548L72.9856 -32.032C72.4247 -25.7644 72.6194 -20.3943 73.5484 -16.5021C74.4005 -12.933 75.8146 -10.7269 77.6384 -10.1218C79.0301 -9.66014 80.4935 -9.3517 81.7848 -9.07975C83.9061 -8.63271 85.7385 -8.2466 86.6835 -7.3512C86.888 -7.15754 87.0598 -6.96886 87.204 -6.78705L87.2308 -6.77918L87.329 -6.62179C87.442 -6.46463 87.5345 -6.31325 87.6103 -6.16944L88.3978 -4.9026L88.0979 -4.97055C88.0919 -4.97194 88.0348 -4.98455 87.93 -5.00535C87.9311 -4.80596 87.8992 -4.68681 87.8949 -4.67169L87.8569 -4.53834L87.7268 -4.58634C87.0727 -4.82783 85.2206 -5.00099 85.2018 -5.00279C79.4748 -5.50504 74.867 -4.02235 73.347 -3.45083C72.918 -2.17898 71.4891 2.11717 71.3081 3.44949C72.2635 4.14175 81.8981 11.133 82.8317 12.1978C83.6792 12.1086 91.902 11.2625 96.1322 11.4823C97.1968 8.1517 98.7006 3.08622 98.5596 2.5262C98.534 2.42477 98.5757 2.33661 98.6651 2.30104C99.4169 2.00859 107.097 7.3255 108.449 9.76621C110.04 12.6406 111.55 19.0423 111.67 22.2668L111.674 22.3684L104.448 24.3708L104.398 24.2847C104.341 24.1866 98.7154 14.4701 97.1308 12.8877C96.9539 12.7549 96.7598 12.6354 96.6431 12.5834C96.6456 12.5888 96.648 12.5945 96.6509 12.6006C96.7577 12.8325 98.0977 15.0042 99.5162 17.3034C102.225 21.6938 104.148 24.8226 104.206 25.0937C104.321 25.6228 100.636 35.4638 98.8674 37.9962L98.8336 38.0443L98.7752 38.0505C98.271 38.1023 86.4189 39.3154 85.4471 39.1132C84.9463 39.0082 82.9799 36.3005 81.0613 33.4992C82.3018 35.343 83.5262 37.1583 84.1967 38.1523C84.5391 38.6602 84.7572 38.9836 84.7911 39.0342C84.8393 39.1067 84.9863 39.327 82.1925 44.8429C80.8149 47.5623 79.1748 50.6319 78.6158 51.3588L78.5777 51.4079L78.5158 51.409C76.3806 51.4429 66.0042 51.5766 64.737 50.9972C64.6714 51.0513 64.6232 51.1123 64.6274 51.1353C64.6276 51.136 64.6548 51.2004 64.9098 51.2514C65.6839 51.4058 77.8034 51.7408 78.92 51.6937C79.5222 51.6659 81.273 52.8777 83.3043 54.2782C85.2753 55.6371 87.5057 57.1743 88.3221 57.2605C88.9705 56.9348 99.0643 51.8285 100.433 49.0984C100.368 48.4725 99.4944 40.1668 98.94 38.3992L98.9236 38.3475L98.9496 38.2998C98.9604 38.2801 99.059 38.1051 99.2347 38.1257C99.4069 38.1449 99.5335 38.3301 99.6449 38.7263C99.8744 39.5422 101.044 46.493 101.155 49.2153C103.282 49.9505 105.616 50.598 105.987 50.4544C106.35 49.9022 111.903 41.3931 112.911 35.4396C112.979 35.0381 113.044 34.6615 113.105 34.3055C113.232 33.5643 113.344 32.913 113.439 32.3126C113.45 30.3222 113.239 28.8597 113.236 28.833L113.234 28.8153C113.221 27.477 111.794 22.6821 111.779 22.634L111.772 22.6097L111.775 22.5848C112.011 20.116 110.879 15.7285 109.838 12.7213C108.92 10.0672 107.676 8.51648 106.581 7.34961C105.724 6.4359 103.602 5.02361 102.052 3.99235C101.416 3.56867 100.866 3.20278 100.512 2.94456C99.3372 2.08818 98.202 2.12165 98.1911 2.12165L98.1277 2.1241L97.8672 1.81141C96.8155 0.652605 93.4676 -1.58958 91.2523 -3.07338C89.9446 -3.94907 89.2554 -4.41349 89.1043 -4.57426C88.6137 -5.09718 89.0539 -6.31245 89.0729 -6.36396L89.1147 -6.47696L89.2302 -6.44245C90.4765 -6.07198 98.0992 -2.9246 104.237 3.0903C105.93 4.74885 107.506 6.82095 108.922 9.24896C111.74 14.0809 112.991 18.7494 113.003 18.7959C114.192 26.9659 114.262 28.7261 113.695 32.3375C113.683 34.0151 113.515 36.0604 112.94 37.9482C111.669 42.1226 108.689 49.7791 103.015 54.1552C97.2934 58.5678 89.5028 63.1856 84.9961 63.5551L84.9767 63.5565L82.8082 63.0783L83.1084 62.9137C83.1405 62.8964 86.3276 61.1237 87.4811 58.2202C87.424 58.2713 87.3378 58.3583 87.2136 58.5064C86.9351 58.837 86.5589 59.316 86.1607 59.8229C85.615 60.5177 85.0507 61.2364 84.712 61.6026C84.1512 62.2098 82.8034 62.8877 82.2278 63.1772L82.2182 63.1819C82.3834 63.2106 82.6546 63.2298 82.8896 63.2319L82.9123 63.4867C82.7658 63.5148 79.3069 64.1758 78.1501 64.1391C76.5986 64.09 71.3341 63.8547 68.7222 62.8911C66.0928 61.9209 59.9826 57.5084 59.5937 56.9896C59.5024 56.8679 59.3327 56.6412 61.1144 54.0486C61.889 52.9218 62.7059 51.8257 62.8618 51.6178C62.859 51.5664 62.8485 51.5136 62.8361 51.4887C62.8107 51.4989 62.7428 51.5381 62.6195 51.6848C62.1398 52.2572 59.2438 56.5788 59.2147 56.6224L59.1458 56.7253L59.0404 56.6604C58.6631 56.4272 49.7863 50.9119 48.5115 47.8262C47.4155 45.1732 46.0576 40.8966 46.0266 38.2246C45.9867 39.2628 46.0746 40.6872 46.4633 42.579C47.2992 46.6485 47.6028 47.1512 48.2681 48.2534C48.4248 48.5131 48.6024 48.8077 48.8109 49.1889C49.8919 51.1676 55.1766 56.0117 57.4173 57.6485C58.427 58.3858 60.689 59.715 65.7314 61.86L65.8267 61.9005C66.4332 62.159 71.7267 64.7288 70.8558 75.2706C70.0316 85.2411 69.686 90.6055 69.6828 90.6587ZM62.8546 51.2284C62.8794 51.2292 62.9043 51.2336 62.9292 51.2431C63.12 51.3162 63.1206 51.6068 63.1188 51.6643L63.1175 51.7047L63.093 51.7374C61.4038 53.9815 59.7118 56.5058 59.8046 56.8456C60.0972 57.2335 66.1798 61.6793 68.8107 62.6498C71.4527 63.6247 77.0605 63.8475 78.1577 63.8823C78.939 63.907 80.8766 63.59 82.007 63.3908C81.8733 63.3398 81.8595 63.2804 81.8504 63.2415C81.8281 63.1454 81.8863 63.0611 82.0237 62.992L82.1118 62.9476C82.6265 62.6888 83.9938 62.0015 84.523 61.4283C84.8544 61.0696 85.4157 60.355 85.9585 59.6641C86.3578 59.1552 86.7354 58.675 87.0168 58.3407C87.342 57.9544 87.515 57.8383 87.6551 57.9127C87.7921 57.9856 87.7608 58.1795 87.7296 58.2884C86.7478 60.7783 84.3376 62.4547 83.5133 62.9709L84.9943 63.2974C89.4517 62.9207 97.1744 58.3348 102.858 53.9519C108.476 49.6193 111.432 42.0186 112.695 37.8734C113.031 36.7708 113.226 35.6133 113.331 34.5081C113.278 34.8165 113.222 35.1404 113.165 35.4825C112.118 41.661 106.242 50.5359 106.183 50.6247L106.167 50.648L106.143 50.6627C105.594 51.0039 101.753 49.695 100.988 49.4295L100.904 49.4008L100.902 49.3126C100.813 46.6693 99.6282 39.6155 99.3977 38.796C99.2913 38.4179 99.2043 38.381 99.2033 38.381C99.2033 38.381 99.2033 38.3814 99.2033 38.3817C99.7844 40.3489 100.655 48.7487 100.692 49.1088L100.696 49.1451L100.68 49.1777C99.3005 52.0547 88.849 57.2852 88.4048 57.5065L88.3741 57.5217L88.3401 57.5199C87.4808 57.4692 85.2834 55.9548 83.1588 54.49C81.3323 53.2305 79.4388 51.9225 78.9311 51.9506C77.8109 51.9978 65.6392 51.6586 64.8598 51.5036C64.7503 51.4818 64.4173 51.4152 64.3749 51.1813C64.3332 50.9527 64.6071 50.7695 64.6625 50.7351L64.7542 50.678L64.8262 50.7583C65.258 51.1955 73.3835 51.2326 78.4492 51.1532C79.6406 49.5323 84.4703 39.8483 84.5604 39.1513C84.4958 39.0552 84.2893 38.749 83.984 38.296C82.1483 35.5746 77.2724 28.3451 76.9721 27.8308C76.7912 27.5206 76.7551 27.3399 76.8507 27.2261C76.9273 27.1353 77.0563 27.1418 77.1436 27.1747L77.1832 27.1897L77.2062 27.2252C80.0601 31.6503 84.8356 38.7227 85.5001 38.8619C86.244 39.0186 94.4182 38.2398 98.6907 37.8008C100.502 35.1504 103.987 25.6177 103.955 25.1425C103.87 24.8481 101.228 20.5656 99.2982 17.4384C97.7523 14.9333 96.5314 12.9546 96.418 12.7082C96.3878 12.6434 96.2971 12.4461 96.4272 12.3412C96.4812 12.2977 96.624 12.1827 97.2933 12.6876L97.3063 12.699C98.8448 14.2252 103.971 23.0348 104.571 24.0698L111.409 22.175C111.264 19.0084 109.755 12.6567 108.224 9.89073C106.83 7.37327 99.7908 2.72049 98.82 2.54627C98.8834 3.69436 96.6129 10.8244 96.3466 11.6554L96.3165 11.7503L96.217 11.7445C91.8314 11.4932 82.8789 12.4512 82.7893 12.4609L82.7117 12.4693L82.6685 12.4046C82.2473 11.7735 74.9145 6.37797 71.0958 3.6135L71.0355 3.56976L71.0435 3.49545C71.1765 2.27337 72.5253 -1.81534 73.0346 -3.32925C72.9445 -3.29302 72.8811 -3.26623 72.8455 -3.25107C71.7495 -1.59427 71.0803 2.42477 70.8419 4.08507C70.8454 4.08296 70.8484 4.081 70.8512 4.0792L70.9119 4.03981L70.9771 4.07136C73.9964 5.52954 81.9378 12.3836 82.2743 12.6746L82.3441 12.735L76.6995 26.6108L61.9552 26.1439C61.4163 26.9402 55.6179 35.5595 55.4525 38.0641C56.0345 39.6916 57.2908 41.636 60.0627 45.3596C61.4773 47.2594 63.8033 50.5039 63.488 50.8837L63.3852 51.0077L63.2871 50.8796C62.9681 50.4624 55.4724 40.6364 55.2011 38.334C55.1937 38.2712 55.1915 38.2027 55.1939 38.1296C55.1602 38.0334 55.1293 37.9387 55.1004 37.8447C54.9569 38.2248 54.8802 38.4443 54.8758 38.4569L54.8496 38.532L54.771 38.5422C53.033 38.7684 47.3438 37.2339 46.4081 36.9767C45.8061 39.2191 47.5092 44.7269 48.749 47.728C49.9198 50.5615 58.0475 55.7337 59.0704 56.3761C59.5263 55.6965 61.9703 52.0594 62.4225 51.52C62.5337 51.3873 62.6924 51.2233 62.8546 51.2284ZM57.1766 41.7669C58.972 44.6411 61.6847 48.3187 62.8844 49.9198C62.4728 49.1966 61.62 47.8821 59.8564 45.5132C58.7209 43.9878 57.8496 42.7721 57.1766 41.7669ZM49.7111 5.07809C49.4784 5.31996 49.2125 5.59814 48.9087 5.91798C46.3365 8.6256 45.3936 10.2729 43.9899 13.1397C42.2816 16.6291 41.853 18.6414 41.4328 22.9171C40.9524 27.8022 41.7497 33.2298 43.8703 39.5107C43.8875 39.5488 45.5432 43.2943 46.6033 45.4327C45.9461 43.1396 44.8135 38.4291 45.8824 36.3007C45.5869 35.4775 42.6155 27.0873 43.1955 24.1435C43.255 23.5756 43.3876 23.5755 43.4588 23.5757C43.5948 23.5756 43.7123 23.5755 43.8753 25.14C44.1493 27.7701 45.6852 34.5483 46.4875 35.735L46.5342 35.8042L46.4901 35.8752C46.486 35.8817 46.3182 36.168 46.1837 36.8261C46.1883 36.8105 46.1932 36.7952 46.198 36.7797L46.236 36.6625L46.3549 36.6957C46.4195 36.7139 52.7556 38.4736 54.6598 38.2963C54.7078 38.1626 54.8174 37.8604 54.9844 37.427C54.9315 37.2142 54.8883 37.0025 54.8511 36.787L54.8443 36.7474L54.8612 36.7111C55.0453 36.3158 59.0423 27.764 61.376 25.1551C60.8282 23.4403 58.6057 16.3154 58.4605 13.1555C57.5965 12.9537 51.0927 11.4661 48.9331 11.8888C48.5775 12.4151 45.1169 17.5605 44.7553 18.9289C44.3686 20.3915 43.2499 23.3773 43.2387 23.4073L43.1638 23.6072L43.0225 23.4476C42.9826 23.4024 42.046 22.3331 42.1954 21.4306C42.2459 21.1257 43.4539 13.9354 45.3331 11.4729C46.0404 10.5463 46.9148 9.22672 47.7604 7.95093C48.4538 6.90326 49.1279 5.8867 49.7111 5.07809ZM45.8644 37.1129C45.3968 39.0395 46.0307 42.2163 46.5854 44.3678C46.4718 43.8707 46.3483 43.298 46.2112 42.631C45.6583 39.9389 45.699 38.18 45.8644 37.1129ZM55.2563 37.4363C55.2654 37.4707 55.275 37.5051 55.2847 37.5397C55.3597 37.2331 55.4776 36.882 55.6303 36.4968C55.4854 36.851 55.3606 37.1669 55.2563 37.4363ZM55.1114 36.7826C55.1242 36.8543 55.1377 36.9254 55.1524 36.9968C55.395 36.3834 55.7183 35.5971 56.1148 34.7027C55.5695 35.8092 55.1946 36.6051 55.1114 36.7826ZM43.4662 24.0556C43.4597 24.0968 43.4537 24.1398 43.4495 24.182C42.9025 26.9598 45.7006 35.0166 46.0972 36.137C46.1509 35.9831 46.1994 35.8764 46.2319 35.8125C45.3401 34.3473 43.8716 27.5834 43.6197 25.1667C43.5587 24.5823 43.506 24.2474 43.4662 24.0556ZM61.6658 25.2171C61.712 25.3609 61.7389 25.4424 61.7413 25.4506L61.7632 25.5173L61.719 25.5717C59.0039 28.9154 56.8951 33.4482 55.7728 36.1508C57.3401 32.4718 61.5593 26.2676 61.7824 25.9406L61.8221 25.8824L76.529 26.3481L82.0363 12.8087C81.2355 12.1203 73.8191 5.77128 70.93 4.33436C70.8971 4.3556 70.852 4.3852 70.7949 4.4223C70.7618 4.66774 70.7446 4.81187 70.7434 4.82109L70.7344 4.89931L70.6602 4.92662C69.9915 5.17353 62.8417 10.2363 59.1126 12.9088C58.801 15.6431 62.1308 24.5685 62.1647 24.6589L62.1995 24.7515L62.1187 24.8089C61.9788 24.9079 61.8274 25.0455 61.6658 25.2171ZM77.1231 27.5714C77.1413 27.6082 77.1645 27.6511 77.1937 27.7012C77.2877 27.8622 77.8609 28.7266 78.6525 29.9106C77.9584 28.859 77.405 28.0068 77.1231 27.5714ZM113.491 28.804C113.503 28.8932 113.603 29.6172 113.658 30.7019C113.952 28.002 113.745 25.6778 112.751 18.8474C112.742 18.8153 111.499 14.179 108.7 9.37854C107.295 6.97042 105.733 4.91662 104.057 3.27401C98.1266 -2.53737 90.8135 -5.65215 89.2746 -6.1589C89.1581 -5.78599 89.0075 -5.05248 89.2912 -4.75004C89.4292 -4.60305 90.3402 -3.99311 91.3948 -3.28691C93.6207 -1.79608 96.9843 0.456884 98.0605 1.64287L98.2453 1.86453C98.5154 1.86571 99.5624 1.93469 100.663 2.73713C101.012 2.99212 101.56 3.35658 102.194 3.77863C103.754 4.81691 105.89 6.23856 106.768 7.174C107.882 8.36066 109.147 9.93778 110.081 12.6377C111.127 15.6592 112.263 20.0702 112.033 22.5844C112.155 22.9954 113.472 27.4546 113.491 28.804ZM61.4672 25.4385C61.1322 25.8293 60.7624 26.3421 60.3735 26.9351C60.7285 26.4276 61.0958 25.9343 61.4754 25.4643C61.4729 25.456 61.4703 25.4475 61.4672 25.4385ZM54.107 12.0101C56.3736 12.3944 58.4542 12.889 58.6151 12.9277L58.7105 12.9504L58.7138 13.0484C58.8119 16.0485 60.9607 23.0007 61.5775 24.9404C61.6862 24.8309 61.7907 24.7365 61.8902 24.6587C61.514 23.6458 58.5079 15.4368 58.8645 12.8199L58.872 12.7651L58.9171 12.7329C59.3468 12.4248 69.2314 5.34299 70.4967 4.71866C70.5004 4.68929 70.505 4.65207 70.5105 4.60768C68.4069 5.97973 60.0629 11.4388 58.7445 12.5809L58.7008 12.6187L58.6433 12.6111C57.4031 12.4457 55.7103 12.221 54.107 12.0101ZM49.4258 11.1534C50.3933 11.2526 57.8257 12.2427 58.6204 12.3486C60.1448 11.065 68.7996 5.41451 70.5548 4.27174C70.7618 2.75168 71.4461 -1.64262 72.6529 -3.42585L72.6734 -3.45605L72.7064 -3.47112C72.7153 -3.47495 72.8656 -3.5415 73.1415 -3.64744C73.1614 -3.70646 73.1784 -3.75597 73.1918 -3.7948C69.9952 -5.76702 67.3267 -5.27523 66.1813 -5.06398C65.938 -5.01906 65.777 -4.98953 65.6695 -4.99294C65.4957 -4.99844 65.3917 -5.0559 65.3602 -5.16386C65.2982 -5.37581 65.6228 -5.65196 65.9063 -5.84611L65.9362 -5.86659L65.9726 -5.86852C65.9733 -5.8685 66.2414 -5.88143 66.7196 -5.91343C70.6731 -6.17751 73.2298 -4.87522 73.6124 -4.66581C79.8772 -6.4589 85.8763 -5.63229 87.6373 -5.32094C87.5987 -5.53094 87.5183 -5.78941 87.3615 -6.08235L87.1282 -6.45708C87.1033 -6.49249 87.0772 -6.52812 87.0499 -6.56412C75.5938 -9.87901 65.9105 -6.17921 65.8136 -6.1413C60.2877 -4.13112 53.947 1.13344 52.6735 2.32884C51.8099 3.13953 49.4654 10.2921 49.4258 11.1534ZM68.5026 -5.52991C69.8414 -5.48751 71.5415 -5.13729 73.4148 -3.95847L73.501 -3.90431L73.468 -3.80817C73.467 -3.80529 73.4619 -3.79019 73.4527 -3.76323C75.1692 -4.38544 79.68 -5.74521 85.2248 -5.25849C85.2976 -5.25173 86.897 -5.10201 87.6661 -4.87607C87.6696 -4.92378 87.6715 -4.98371 87.6683 -5.05444C86.0315 -5.35054 79.9627 -6.23027 73.6318 -4.40378L73.5784 -4.38834L73.5304 -4.41694C73.5049 -4.43215 70.9253 -5.93726 66.7367 -5.6568C66.3588 -5.63157 66.1112 -5.61798 66.0221 -5.61343C65.8444 -5.48759 65.6779 -5.3355 65.6251 -5.25387C65.6382 -5.25191 65.6555 -5.25016 65.6778 -5.24946C65.7579 -5.24692 65.9243 -5.27765 66.1348 -5.31641C66.6513 -5.41198 67.4694 -5.56263 68.5026 -5.52991Z" stroke="url(#paint1_linear)" stroke-width="0.6" stroke-miterlimit="10"/>
<path d="M25.96 78.0004H30.132V70.5244H37.748V66.6324H30.132V62.3204H38.28V58.4004H25.96V78.0004Z" fill="white"/>
<path d="M52.5534 78.0004H56.9494L50.3694 58.4004H44.4894L37.8534 78.0004H42.3334L43.5934 74.0804H51.2934L52.5534 78.0004ZM44.7974 70.2724L47.2614 62.6004H47.5694L50.0614 70.2724H44.7974Z" fill="white"/>
<path d="M58.5001 78.0004H62.6721V62.6004H62.9801L67.4041 78.0004H74.5721V58.4004H70.4281V73.8004H70.1481L65.6121 58.4004H58.5001V78.0004Z" fill="white"/>
<path d="M84.3964 78.3644C88.9884 78.3644 91.7884 75.6764 91.7884 72.3164C91.7884 64.2244 81.7084 67.4724 81.7084 63.8044C81.7084 62.8804 82.4364 61.9004 84.2284 61.9004C86.0204 61.9004 87.0844 63.0484 87.0844 64.5884H91.2844C91.2844 59.7724 87.5324 58.0364 84.3404 58.0364C80.0844 58.0364 77.5364 60.7244 77.5364 63.8044C77.5364 71.7284 87.5044 68.0604 87.5044 72.2884C87.5044 73.4644 86.5244 74.3324 84.5364 74.3324C82.6604 74.3324 81.1204 73.2124 81.1204 71.3084H76.9484C76.9484 75.5924 80.0844 78.3644 84.3964 78.3644Z" fill="white"/>
<path fill-rule="evenodd" clip-rule="evenodd" d="M79.556 45.595C78.6171 45.595 78.0125 44.9481 78.0125 44.1135C78.0125 43.2927 78.6171 42.625 79.5418 42.625C80.4949 42.625 81.0924 43.2858 81.0924 44.1065C81.0924 44.9203 80.5021 45.595 79.556 45.595ZM79.5524 45.3367C80.3626 45.3367 80.8358 44.8186 80.8358 44.1024C80.8358 43.3861 80.3545 42.8833 79.5364 42.8833C78.7504 42.8833 78.2691 43.4014 78.2691 44.11C78.2691 44.8034 78.7504 45.3367 79.5524 45.3367ZM79.0154 44.9118V43.3623H79.683C80.0391 43.3623 80.2468 43.6134 80.2468 43.8788C80.2468 44.094 80.1281 44.2662 79.9946 44.3236L80.2987 44.9118H79.8981L79.6608 44.4025H79.3863V44.9118H79.0154ZM79.3711 44.0648H79.6271C79.7623 44.0648 79.8263 43.9674 79.8263 43.87C79.8263 43.7587 79.7552 43.6753 79.6271 43.6753H79.3711V44.0648Z" fill="white"/>
<path fill-rule="evenodd" clip-rule="evenodd" d="M74.9799 50.875C73.2016 50.875 71.9514 49.5806 71.9514 47.898C71.9514 46.2045 73.2124 44.9101 74.9799 44.9101C76.7583 44.9101 77.9977 46.2153 77.9977 47.898C77.9977 49.5806 76.7475 50.875 74.9799 50.875ZM74.98 49.3757C75.8206 49.3757 76.4026 48.7393 76.4026 47.898C76.4026 47.0458 75.8206 46.4094 74.98 46.4094C74.1393 46.4094 73.5465 47.0458 73.5465 47.898C73.5465 48.7393 74.1393 49.3757 74.98 49.3757ZM68.2359 50.7348V45.0504H69.7878V45.8054H69.8956C70.1435 45.32 70.7039 44.9101 71.3506 44.9101H71.8033V46.4742H71.2213C70.3591 46.4742 69.7986 47.0135 69.7986 48.0705V50.7348H68.2359ZM62.4079 50.7348V43.1843H65.0915C66.5896 43.1843 67.6027 44.1443 67.6027 45.6113C67.6027 47.0674 66.5357 48.0705 65.0915 48.0705H64.0137V50.7348H62.4079ZM64.0137 46.5712H65.0268C65.6088 46.5712 65.986 46.1614 65.986 45.6113C65.986 45.0719 65.6088 44.6836 65.0268 44.6836H64.0137V46.5712ZM58.2937 50.875C56.6167 50.875 55.5739 49.6964 55.5739 47.9556C55.5739 46.1607 56.7242 44.993 58.2399 44.993C59.8954 44.993 60.8629 46.1499 60.8629 47.8367V48.1394H56.2834C56.3049 49.5018 57.0897 50.2479 58.3044 50.2479C59.1537 50.2479 59.8954 49.7505 60.1319 48.9071L60.7984 49.0693C60.5082 50.0641 59.6267 50.875 58.2937 50.875ZM56.2942 47.5447H60.1642C60.1104 46.2472 59.2397 45.6093 58.2399 45.6093C57.2187 45.6093 56.3694 46.3553 56.2942 47.5447ZM52.5639 50.875C50.8869 50.875 49.8442 49.6964 49.8442 47.9556C49.8442 46.1607 50.9944 44.993 52.5102 44.993C54.1657 44.993 55.1332 46.1499 55.1332 47.8367V48.1394H50.5537C50.5752 49.5018 51.3599 50.2479 52.5747 50.2479C53.4239 50.2479 54.1657 49.7505 54.4022 48.9071L55.0687 49.0693C54.7784 50.0641 53.8969 50.875 52.5639 50.875ZM50.5644 47.5447H54.4344C54.3807 46.2472 53.5099 45.6093 52.5102 45.6093C51.4889 45.6093 50.6397 46.3553 50.5644 47.5447ZM47.0062 50.7344V45.1335H47.6835V46.1067H47.7372C47.963 45.5876 48.4682 44.993 49.3174 44.993H49.7259V45.685H49.2637C48.2532 45.685 47.6942 46.5067 47.6942 47.6961V50.7344H47.0062ZM43.5662 50.875C41.8892 50.875 40.8465 49.6964 40.8465 47.9556C40.8465 46.1607 41.9967 44.993 43.5125 44.993C45.168 44.993 46.1355 46.1499 46.1355 47.8367V48.1394H41.556C41.5775 49.5018 42.3622 50.2479 43.577 50.2479C44.4262 50.2479 45.168 49.7505 45.4045 48.9071L46.071 49.0693C45.7807 50.0641 44.8992 50.875 43.5662 50.875ZM41.5667 47.5447H45.4367C45.383 46.2472 44.5122 45.6093 43.5125 45.6093C42.4912 45.6093 41.642 46.3553 41.5667 47.5447ZM38.1482 50.7344V45.7066H37.0732V45.1335H38.1482V44.182C38.1482 43.0791 38.804 42.625 39.7822 42.625H40.4702V43.2197H39.7822C39.1157 43.2197 38.8362 43.5116 38.8362 44.1928V45.1335H40.5132V45.7066H38.8362V50.7344H38.1482ZM34.2782 50.875C32.6012 50.875 31.5585 49.6964 31.5585 47.9556C31.5585 46.1607 32.7087 44.993 34.2245 44.993C35.88 44.993 36.8475 46.1499 36.8475 47.8367V48.1394H32.268C32.2895 49.5018 33.0742 50.2479 34.289 50.2479C35.1382 50.2479 35.88 49.7505 36.1165 48.9071L36.783 49.0693C36.4927 50.0641 35.6112 50.875 34.2782 50.875ZM32.2787 47.5447H36.1487C36.095 46.2472 35.2242 45.6093 34.2245 45.6093C33.2032 45.6093 32.354 46.3553 32.2787 47.5447ZM26.3125 50.7344V43.1656H28.656C30.118 43.1656 31.0532 44.0306 31.0532 45.3281C31.0532 46.4851 30.3867 47.3501 29.1935 47.5555L31.2252 50.7344H30.3867L28.4302 47.5988H27.0112V50.7344H26.3125ZM27.0112 46.9608H28.6452C29.5912 46.9608 30.3115 46.4202 30.3115 45.339C30.3115 44.474 29.731 43.8144 28.5915 43.8144H27.0112V46.9608Z" fill="white"/>
</g>
<defs>
<filter id="filter0_f" x="0" y="8" width="120" height="120" filterUnits="userSpaceOnUse" color-interpolation-filters="sRGB">
<feFlood flood-opacity="0" result="BackgroundImageFix"/>
<feBlend mode="normal" in="SourceGraphic" in2="BackgroundImageFix" result="shape"/>
<feGaussianBlur stdDeviation="12" result="effect1_foregroundBlur"/>
</filter>
<linearGradient id="paint0_linear" x1="16" y1="0" x2="104" y2="88" gradientUnits="userSpaceOnUse">
<stop stop-color="#144DA3"/>
<stop offset="0.484164" stop-color="#0A1352"/>
<stop offset="1" stop-color="#73057A"/>
</linearGradient>
<linearGradient id="paint1_linear" x1="16.3438" y1="0.343749" x2="103.656" y2="86.9687" gradientUnits="userSpaceOnUse">
<stop stop-color="#2EA7FF"/>
<stop offset="0.424137" stop-color="#343ED9"/>
<stop offset="1" stop-color="#FF00C9"/>
</linearGradient>
</defs>
</svg>
