<svg width="120" height="128" viewBox="0 0 120 128" fill="none" xmlns="http://www.w3.org/2000/svg">
<g opacity="0.16" filter="url(#filter0_f)">
<rect x="24" y="32" width="72" height="72" rx="2" fill="#1A1B1F"/>
</g>
<path d="M16 17.6C16 11.4394 16 8.35913 17.1989 6.0061C18.2535 3.93632 19.9363 2.25354 22.0061 1.19893C24.3591 0 27.4394 0 33.6 0H86.4C92.5606 0 95.6409 0 97.9939 1.19893C100.064 2.25354 101.746 3.93632 102.801 6.0061C104 8.35913 104 11.4394 104 17.6V70.4C104 76.5606 104 79.6409 102.801 81.9939C101.746 84.0637 100.064 85.7465 97.9939 86.8011C95.6409 88 92.5606 88 86.4 88H33.6C27.4394 88 24.3591 88 22.0061 86.8011C19.9363 85.7465 18.2535 84.0637 17.1989 81.9939C16 79.6409 16 76.5606 16 70.4V17.6Z" fill="url(#paint0_linear)"/>
<mask id="mask0" mask-type="alpha" maskUnits="userSpaceOnUse" x="16" y="0" width="88" height="88">
<path d="M16 17.6C16 11.4394 16 8.35913 17.1989 6.0061C18.2535 3.93632 19.9363 2.25354 22.0061 1.19893C24.3591 0 27.4394 0 33.6 0H86.4C92.5606 0 95.6409 0 97.9939 1.19893C100.064 2.25354 101.746 3.93632 102.801 6.0061C104 8.35913 104 11.4394 104 17.6V70.4C104 76.5606 104 79.6409 102.801 81.9939C101.746 84.0637 100.064 85.7465 97.9939 86.8011C95.6409 88 92.5606 88 86.4 88H33.6C27.4394 88 24.3591 88 22.0061 86.8011C19.9363 85.7465 18.2535 84.0637 17.1989 81.9939C16 79.6409 16 76.5606 16 70.4V17.6Z" fill="#1A1B1F"/>
</mask>
<g mask="url(#mask0)">
<g opacity="0.48" filter="url(#filter1_d)">
<path d="M84.1535 -30.0011C84.1535 -30.0011 84.3564 -0.0321779 84.9752 2.33433C85.7293 5.23822 87.6588 7.73391 89.6559 8.5348C91.6529 9.33569 110.318 14.9523 110.901 15.1693C111.483 15.3863 122.113 18.7862 121.999 19.2358C121.885 19.6853 119.908 25.5034 119.908 25.5034C119.908 25.5034 115.706 38.8551 114.89 41.6453C114.073 44.4355 106.361 68.9273 106.012 69.3924C105.664 69.8574 104.608 71.4592 105.892 67.4186C107.177 63.3779 107.531 62.5409 107.531 62.5409L110.859 52.4444L106.246 50.9925L111.618 34.4579L116.055 35.9099L119.388 25.8031L104.676 21.3904L101.035 32.5978C101.035 32.5978 97.3945 32.8716 95.5431 38.3435C94.0817 42.596 95.7199 45.1951 96.3024 45.7738C96.8849 46.3525 100.624 33.9309 100.858 33.4658C101.092 33.0008 101.441 33.0628 101.092 34.1066C100.744 35.1503 98.6063 42.1413 97.0617 46.3576C95.9539 49.37 93.0311 57.503 93.0311 57.7252C93.0311 57.9473 104.421 61.3834 105.513 61.7296C106.008 61.8501 106.481 62.0453 106.917 62.3083L104.421 69.2064C104.421 69.2064 69.2067 58.0042 68.619 57.658C68.0313 57.3118 67.9013 57.4358 69.4615 52.4444C71.0217 47.4531 73.102 40.8289 73.102 40.8289L78.6356 24.1083C78.6356 24.1083 82.0524 25.7463 83.3162 27.8234C84.7152 30.1486 85.4745 31.6574 83.7843 35.7807C82.6349 38.5709 79.8681 40.5964 78.1207 40.8909C76.3733 41.1854 72.1243 41.8726 68.9102 37.6873C66.7311 34.8506 67.2564 31.7039 67.9429 29.2444C69.3991 24.0205 74.6154 23.2196 76.1548 23.4676C78.0531 23.7724 78.4171 23.4056 78.9008 22.305C79.8681 20.0832 83.8051 6.86067 83.8051 6.86067L45.4966 -5.26641L34.6168 28.7535L39.6407 29.7869L45.143 13.5468L40.7068 12.0329L43.744 1.87446L58.228 6.68499L54.7227 18.3625C54.7227 18.3625 57.2034 21.2613 55.8929 25.9684C54.3327 31.616 50.9262 31.6005 50.5205 31.4249L54.3795 19.2926C54.3795 19.2926 54.2026 18.13 53.0949 21.3594C51.9871 24.5888 46.5524 43.1902 46.5524 43.1902L31.9904 38.4882L34.9236 29.42C34.9236 29.42 34.518 28.955 34.3411 29.42C34.1643 29.8851 29 46.027 29 46.027L67.7193 58.4796C67.7193 58.4796 70.7825 59.2649 70.7825 62.3962C70.7825 65.5274 70.6057 87.9989 70.6057 87.9989" stroke="#82FAA2" stroke-width="0.8" stroke-miterlimit="10"/>
</g>
<path d="M35.256 78.3935C39.736 78.3935 43.516 75.8735 44.832 71.1695H40.38C39.456 73.2975 37.384 74.3335 35.256 74.3335C31.896 74.3335 29.432 71.7295 29.432 68.2015C29.432 64.7015 31.896 62.0695 35.256 62.0695C37.496 62.0695 39.512 63.1895 40.38 65.2615H44.832C43.516 60.5855 39.736 58.0375 35.256 58.0375C29.264 58.0375 25.12 62.4615 25.12 68.2015C25.12 73.9695 29.264 78.3935 35.256 78.3935Z" fill="white"/>
<path d="M47.2203 78.0015H51.2803V62.6015H51.6163L54.3883 78.0015H60.4083L63.2083 62.6015H63.5163V78.0015H67.5763V58.4015H60.2683L57.5523 73.8015H57.2443L54.5283 58.4015H47.2203V78.0015Z" fill="white"/>
<path fill-rule="evenodd" clip-rule="evenodd" d="M79.556 45.595C78.6171 45.595 78.0125 44.9481 78.0125 44.1135C78.0125 43.2927 78.6171 42.625 79.5418 42.625C80.4949 42.625 81.0924 43.2858 81.0924 44.1065C81.0924 44.9203 80.5021 45.595 79.556 45.595ZM79.5524 45.3367C80.3626 45.3367 80.8358 44.8186 80.8358 44.1024C80.8358 43.3861 80.3545 42.8833 79.5364 42.8833C78.7504 42.8833 78.2691 43.4014 78.2691 44.11C78.2691 44.8034 78.7504 45.3367 79.5524 45.3367ZM79.0154 44.9118V43.3623H79.683C80.0391 43.3623 80.2468 43.6134 80.2468 43.8788C80.2468 44.094 80.1281 44.2662 79.9946 44.3236L80.2987 44.9118H79.8981L79.6608 44.4025H79.3863V44.9118H79.0154ZM79.3711 44.0648H79.6271C79.7623 44.0648 79.8263 43.9674 79.8263 43.87C79.8263 43.7587 79.7552 43.6753 79.6271 43.6753H79.3711V44.0648Z" fill="white"/>
<path fill-rule="evenodd" clip-rule="evenodd" d="M74.9799 50.875C73.2016 50.875 71.9514 49.5806 71.9514 47.898C71.9514 46.2045 73.2124 44.9101 74.9799 44.9101C76.7583 44.9101 77.9977 46.2153 77.9977 47.898C77.9977 49.5806 76.7475 50.875 74.9799 50.875ZM74.98 49.3757C75.8206 49.3757 76.4026 48.7393 76.4026 47.898C76.4026 47.0458 75.8206 46.4094 74.98 46.4094C74.1393 46.4094 73.5465 47.0458 73.5465 47.898C73.5465 48.7393 74.1393 49.3757 74.98 49.3757ZM68.2359 50.7348V45.0504H69.7878V45.8054H69.8956C70.1435 45.32 70.7039 44.9101 71.3506 44.9101H71.8033V46.4742H71.2213C70.3591 46.4742 69.7986 47.0135 69.7986 48.0705V50.7348H68.2359ZM62.4079 50.7348V43.1843H65.0915C66.5896 43.1843 67.6027 44.1443 67.6027 45.6113C67.6027 47.0674 66.5357 48.0705 65.0915 48.0705H64.0137V50.7348H62.4079ZM64.0137 46.5712H65.0268C65.6088 46.5712 65.986 46.1614 65.986 45.6113C65.986 45.0719 65.6088 44.6836 65.0268 44.6836H64.0137V46.5712ZM58.2937 50.875C56.6167 50.875 55.5739 49.6964 55.5739 47.9556C55.5739 46.1607 56.7242 44.993 58.2399 44.993C59.8954 44.993 60.8629 46.1499 60.8629 47.8367V48.1394H56.2834C56.3049 49.5018 57.0897 50.2479 58.3044 50.2479C59.1537 50.2479 59.8954 49.7505 60.1319 48.9071L60.7984 49.0693C60.5082 50.0641 59.6267 50.875 58.2937 50.875ZM56.2942 47.5447H60.1642C60.1104 46.2472 59.2397 45.6093 58.2399 45.6093C57.2187 45.6093 56.3694 46.3553 56.2942 47.5447ZM52.5639 50.875C50.8869 50.875 49.8442 49.6964 49.8442 47.9556C49.8442 46.1607 50.9944 44.993 52.5102 44.993C54.1657 44.993 55.1332 46.1499 55.1332 47.8367V48.1394H50.5537C50.5752 49.5018 51.3599 50.2479 52.5747 50.2479C53.4239 50.2479 54.1657 49.7505 54.4022 48.9071L55.0687 49.0693C54.7784 50.0641 53.8969 50.875 52.5639 50.875ZM50.5644 47.5447H54.4344C54.3807 46.2472 53.5099 45.6093 52.5102 45.6093C51.4889 45.6093 50.6397 46.3553 50.5644 47.5447ZM47.0062 50.7344V45.1335H47.6835V46.1067H47.7372C47.963 45.5876 48.4682 44.993 49.3174 44.993H49.7259V45.685H49.2637C48.2532 45.685 47.6942 46.5067 47.6942 47.6961V50.7344H47.0062ZM43.5662 50.875C41.8892 50.875 40.8465 49.6964 40.8465 47.9556C40.8465 46.1607 41.9967 44.993 43.5125 44.993C45.168 44.993 46.1355 46.1499 46.1355 47.8367V48.1394H41.556C41.5775 49.5018 42.3622 50.2479 43.577 50.2479C44.4262 50.2479 45.168 49.7505 45.4045 48.9071L46.071 49.0693C45.7807 50.0641 44.8992 50.875 43.5662 50.875ZM41.5667 47.5447H45.4367C45.383 46.2472 44.5122 45.6093 43.5125 45.6093C42.4912 45.6093 41.642 46.3553 41.5667 47.5447ZM38.1482 50.7344V45.7066H37.0732V45.1335H38.1482V44.182C38.1482 43.0791 38.804 42.625 39.7822 42.625H40.4702V43.2197H39.7822C39.1157 43.2197 38.8362 43.5116 38.8362 44.1928V45.1335H40.5132V45.7066H38.8362V50.7344H38.1482ZM34.2782 50.875C32.6012 50.875 31.5585 49.6964 31.5585 47.9556C31.5585 46.1607 32.7087 44.993 34.2245 44.993C35.88 44.993 36.8475 46.1499 36.8475 47.8367V48.1394H32.268C32.2895 49.5018 33.0742 50.2479 34.289 50.2479C35.1382 50.2479 35.88 49.7505 36.1165 48.9071L36.783 49.0693C36.4927 50.0641 35.6112 50.875 34.2782 50.875ZM32.2787 47.5447H36.1487C36.095 46.2472 35.2242 45.6093 34.2245 45.6093C33.2032 45.6093 32.354 46.3553 32.2787 47.5447ZM26.3125 50.7344V43.1656H28.656C30.118 43.1656 31.0532 44.0306 31.0532 45.3281C31.0532 46.4851 30.3867 47.3501 29.1935 47.5555L31.2252 50.7344H30.3867L28.4302 47.5988H27.0112V50.7344H26.3125ZM27.0112 46.9608H28.6452C29.5912 46.9608 30.3115 46.4202 30.3115 45.339C30.3115 44.474 29.731 43.8144 28.5915 43.8144H27.0112V46.9608Z" fill="white"/>
</g>
<defs>
<filter id="filter0_f" x="0" y="8" width="120" height="120" filterUnits="userSpaceOnUse" color-interpolation-filters="sRGB">
<feFlood flood-opacity="0" result="BackgroundImageFix"/>
<feBlend mode="normal" in="SourceGraphic" in2="BackgroundImageFix" result="shape"/>
<feGaussianBlur stdDeviation="12" result="effect1_foregroundBlur"/>
</filter>
<filter id="filter1_d" x="24.4973" y="-34.0035" width="101.903" height="126.005" filterUnits="userSpaceOnUse" color-interpolation-filters="sRGB">
<feFlood flood-opacity="0" result="BackgroundImageFix"/>
<feColorMatrix in="SourceAlpha" type="matrix" values="0 0 0 0 0 0 0 0 0 0 0 0 0 0 0 0 0 0 127 0"/>
<feOffset/>
<feGaussianBlur stdDeviation="2"/>
<feColorMatrix type="matrix" values="0 0 0 0 0.192 0 0 0 0 0.96 0 0 0 0 0.3968 0 0 0 0.56 0"/>
<feBlend mode="normal" in2="BackgroundImageFix" result="effect1_dropShadow"/>
<feBlend mode="normal" in="SourceGraphic" in2="effect1_dropShadow" result="shape"/>
</filter>
<linearGradient id="paint0_linear" x1="15.9999" y1="1.04904e-06" x2="104" y2="88" gradientUnits="userSpaceOnUse">
<stop stop-color="#00E03B"/>
<stop offset="1" stop-color="#00A32C"/>
</linearGradient>
</defs>
</svg>
