<svg width="24" height="24" viewBox="0 0 24 24" fill="none" xmlns="http://www.w3.org/2000/svg">
<path fill-rule="evenodd" clip-rule="evenodd" d="M12 10.0201L16.6101 5.41005C17.1568 4.86332 18.0432 4.86332 18.5899 5.41005C19.1367 5.95678 19.1367 6.84322 18.5899 7.38995L13.9799 12L18.5899 16.6101C19.1367 17.1568 19.1367 18.0432 18.5899 18.5899C18.0432 19.1367 17.1568 19.1367 16.6101 18.5899L12 13.9799L7.38995 18.5899C6.84322 19.1367 5.95678 19.1367 5.41005 18.5899C4.86332 18.0432 4.86332 17.1568 5.41005 16.6101L10.0201 12L5.41005 7.38995C4.86332 6.84322 4.86332 5.95678 5.41005 5.41005C5.95678 4.86332 6.84322 4.86332 7.38995 5.41005L12 10.0201Z" fill="#33363D"/>
</svg>
