<svg width="24" height="24" viewBox="0 0 24 24" fill="none" xmlns="http://www.w3.org/2000/svg">
<circle cx="12" cy="12" r="12" fill="#00CC36"/>
<path fill-rule="evenodd" clip-rule="evenodd" d="M19.5984 12.3088C19.4534 12.4009 19.3472 12.4513 19.2647 12.5245C19.031 12.7339 18.8835 12.6847 18.731 12.4173C18.3597 11.7714 17.9598 11.1444 17.5798 10.5048C17.506 10.3812 17.4273 10.2424 17.4123 10.1049C17.336 9.36439 17.2736 8.62262 17.2198 7.87958C17.1836 7.34848 17.1936 7.34848 17.716 7.30937C17.7748 7.30559 17.8348 7.28919 17.951 7.26774C17.0398 6.1677 15.9786 5.36789 14.6362 4.87337C14.6824 5.03611 14.7062 5.15974 14.7499 5.27328C14.8562 5.53946 14.7787 5.66687 14.49 5.72742C13.7437 5.88764 13.005 6.08065 12.2588 6.24717C12.1113 6.27871 11.9413 6.28502 11.7926 6.25222C10.9964 6.07687 10.2052 5.87628 9.41022 5.69967C9.21023 5.65678 9.18149 5.54829 9.22148 5.38429C9.26148 5.22534 9.30648 5.06891 9.36523 4.86328C8.0303 5.39817 6.93911 6.1576 6.0479 7.28919C6.2129 7.30054 6.33664 7.32073 6.45788 7.31442C6.75287 7.29424 6.84161 7.40903 6.79536 7.70801C6.73412 8.10161 6.73412 8.50277 6.69162 8.89763C6.64162 9.38584 6.68287 9.92325 6.48663 10.3471C6.1304 11.1129 5.62668 11.808 5.1867 12.5346C5.08421 12.7024 4.97796 12.7024 4.82922 12.5888C4.71298 12.4993 4.57798 12.4286 4.41174 12.3239C4.46674 13.7658 4.89547 15.0185 5.67292 16.2069C5.73167 16.0606 5.78542 15.9584 5.81417 15.8486C5.88416 15.5471 6.02916 15.5067 6.30914 15.6342C7.00535 15.9483 7.71656 16.2246 8.41903 16.5286C8.55902 16.5891 8.70276 16.6774 8.80026 16.791C9.32148 17.3814 9.82645 17.9856 10.3427 18.5786C10.4977 18.7564 10.5289 18.8939 10.3027 19.0327C10.1814 19.1059 10.0827 19.2131 9.9377 19.3355C11.3376 19.6874 12.6688 19.7265 14.05 19.3266C13.91 19.2106 13.8137 19.1147 13.7037 19.0403C13.4913 18.8939 13.4813 18.7703 13.6637 18.5697C14.1762 18.002 14.6624 17.4079 15.1674 16.8326C15.2674 16.7191 15.3937 16.6068 15.5311 16.545C16.2899 16.2145 17.0561 15.9067 17.816 15.5799C18.0048 15.4967 18.086 15.5673 18.1435 15.7313C18.1935 15.8802 18.251 16.024 18.3222 16.2157C19.1247 15.011 19.5172 13.7406 19.5984 12.3088Z" fill="white"/>
<path fill-rule="evenodd" clip-rule="evenodd" d="M11.9664 20.4015C7.68035 20.4217 3.8593 17.0345 3.61307 12.4766C3.34933 7.59197 7.14663 3.83516 11.5214 3.61313C16.3561 3.36461 20.3497 7.15296 20.3997 11.9379C20.4459 16.4832 16.7886 20.399 11.9664 20.4015ZM19.5985 12.3088C19.4535 12.4009 19.3472 12.4514 19.2647 12.5245C19.031 12.7339 18.8835 12.6847 18.731 12.4173C18.3598 11.7714 17.9598 11.1444 17.5798 10.5048C17.5061 10.3812 17.4273 10.2424 17.4123 10.1049C17.3361 9.36441 17.2736 8.62263 17.2198 7.8796C17.1836 7.3485 17.1936 7.3485 17.7161 7.30939C17.7748 7.30561 17.8348 7.28921 17.951 7.26776C17.0398 6.16771 15.9787 5.36791 14.6362 4.87339C14.6825 5.03613 14.7062 5.15975 14.75 5.27329C14.8562 5.53947 14.7787 5.66689 14.49 5.72744C13.7438 5.88765 13.0051 6.08067 12.2589 6.24719C12.1114 6.27873 11.9414 6.28503 11.7926 6.25223C10.9964 6.07688 10.2052 5.8763 9.41025 5.69969C9.21026 5.65679 9.18152 5.5483 9.22151 5.38431C9.26151 5.22535 9.30651 5.06893 9.36526 4.8633C8.03033 5.39818 6.93914 6.15762 6.04793 7.28921C6.21293 7.30056 6.33667 7.32074 6.45791 7.31444C6.7529 7.29425 6.84164 7.40905 6.79539 7.70803C6.73415 8.10163 6.73415 8.50279 6.69165 8.89765C6.64165 9.38586 6.6829 9.92326 6.48666 10.3471C6.13043 11.1129 5.62671 11.808 5.18673 12.5346C5.08424 12.7024 4.97799 12.7024 4.82925 12.5889C4.71301 12.4993 4.57801 12.4286 4.41177 12.3239C4.46677 13.7659 4.8955 15.0186 5.67295 16.2069C5.7317 16.0606 5.78545 15.9584 5.8142 15.8486C5.88419 15.5471 6.02919 15.5068 6.30917 15.6342C7.00538 15.9483 7.71659 16.2246 8.41906 16.5286C8.55905 16.5892 8.70279 16.6775 8.80029 16.791C9.32151 17.3814 9.82648 17.9857 10.3427 18.5786C10.4977 18.7564 10.5289 18.894 10.3027 19.0327C10.1815 19.1059 10.0827 19.2131 9.93773 19.3355C11.3376 19.6875 12.6688 19.7266 14.05 19.3267C13.91 19.2106 13.8138 19.1147 13.7038 19.0403C13.4913 18.894 13.4813 18.7703 13.6638 18.5697C14.1762 18.0021 14.6625 17.4079 15.1674 16.8326C15.2674 16.7191 15.3937 16.6068 15.5312 16.545C16.2899 16.2145 17.0561 15.9067 17.8161 15.5799C18.0048 15.4967 18.086 15.5673 18.1435 15.7313C18.1935 15.8802 18.251 16.024 18.3223 16.2157C19.1247 15.011 19.5172 13.7406 19.5985 12.3088Z" fill="black"/>
<path fill-rule="evenodd" clip-rule="evenodd" d="M11.9952 14.8003C11.4177 14.8003 10.839 14.794 10.2628 14.8028C10.0328 14.8066 9.89905 14.7398 9.8253 14.5026C9.47282 13.3849 9.10659 12.2722 8.74161 11.1608C8.67037 10.9501 8.72286 10.8 8.90035 10.6713C9.84655 9.99264 10.7928 9.31521 11.729 8.62768C11.9239 8.48638 12.0839 8.49143 12.2714 8.62641C13.2114 9.31142 14.1526 9.99517 15.0975 10.6739C15.28 10.8051 15.3275 10.959 15.26 11.1633C14.8938 12.2874 14.5251 13.4088 14.1626 14.5329C14.0963 14.736 13.9676 14.8054 13.7613 14.8028C13.1714 14.7965 12.5839 14.8003 11.9952 14.8003Z" fill="black"/>
<path fill-rule="evenodd" clip-rule="evenodd" d="M13.5624 18.7109C13.2899 19.0187 12.9986 19.3089 12.6887 19.5776C13.1399 19.5372 13.5936 19.4565 14.0498 19.324C13.9098 19.208 13.8136 19.1121 13.7036 19.0377C13.5474 18.9304 13.5024 18.8346 13.5624 18.7109Z" fill="#CECECE"/>
<path fill-rule="evenodd" clip-rule="evenodd" d="M19.2646 12.5261C19.0309 12.7355 18.8834 12.6864 18.7309 12.4189C18.3597 11.773 17.9597 11.146 17.5797 10.5064C17.506 10.3828 17.4272 10.244 17.4122 10.1065C17.336 9.36602 17.2735 8.62425 17.2197 7.88121C17.1835 7.35011 17.1935 7.35011 17.716 7.311C17.7747 7.30722 17.8347 7.29082 17.951 7.26937C17.0397 6.16932 15.9786 5.36952 14.6361 4.875C14.6824 5.03774 14.7061 5.16137 14.7499 5.2749C14.8561 5.54108 14.7786 5.6685 14.4899 5.72905C14.0799 5.81736 13.6712 5.9145 13.2625 6.01289C14.9049 7.69829 15.9198 9.993 15.9198 12.5261C15.9198 14.6682 15.1898 16.6362 13.9724 18.2143C14.3724 17.7564 14.7649 17.2896 15.1673 16.8317C15.2673 16.7182 15.3936 16.6059 15.5311 16.5441C16.2898 16.2136 17.056 15.9058 17.816 15.579C18.0047 15.4958 18.0859 15.5664 18.1434 15.7304C18.1934 15.8793 18.2509 16.0231 18.3222 16.2148C19.1246 15.0076 19.5171 13.7372 19.5984 12.3054C19.4534 12.4025 19.3484 12.4517 19.2646 12.5261Z" fill="#CECECE"/>
</svg>
