<svg width="91" height="21" viewBox="0 0 91 21" fill="none" xmlns="http://www.w3.org/2000/svg">
<path d="M87.8804 3.45238H89.2764V9.78438H87.5444C86.9688 7.04358 85.4528 5.08438 82.588 5.08438C80.3472 5.08438 79.4312 5.68878 79.4312 7.34838C79.4312 11.1164 90.1676 8.30438 90.1676 15.3116C90.1676 19.3076 87.1832 20.6116 83.8112 20.6116C82.0072 20.6116 80.2028 19.8076 78.8072 18.6276L78.2792 20.1076H76.6392V13.3H78.4228C78.7588 16.668 80.7312 18.4752 84.15 18.4752C86.266 18.4752 87.278 17.4432 87.278 16.2392C87.278 11.9432 76.542 15.1828 76.542 7.99878C76.542 4.45518 79.598 2.94678 82.514 2.94678C84.342 2.94678 85.882 3.82598 87.0864 4.70598L87.8804 3.45238Z" fill="#C4C6CC"/>
<path d="M49.392 20.1084H56.904V18.252H55.028C54.5688 18.252 54.256 18.148 54.256 17.8C54.256 17.5724 54.3044 17.42 54.3516 17.2724L55.1432 14.7564H60.6072L61.4028 17.2724C61.4504 17.42 61.498 17.648 61.498 17.8764C61.498 18.1244 61.3064 18.252 60.7548 18.252H58.8504V20.1084H75.142V18.252H73.746C72.93 18.252 72.566 17.8244 72.566 17.02V6.51599C72.566 5.56399 73.314 5.31119 74.082 5.31119H75.142V3.45239H66.6228V5.31159H67.9712C68.9112 5.31159 69.198 5.81159 69.198 6.44359V17.3484C69.198 18.0004 68.814 18.2524 67.8256 18.2524H67.2256C65.9504 18.2524 65.134 18.0768 64.698 16.8928L59.8884 3.45239H56.5156L51.92 16.8928C51.5116 18.0768 50.668 18.2524 49.3924 18.2524L49.392 20.1084ZM59.9124 12.9004H55.8444L57.7724 6.84359H57.8152L59.9124 12.9004Z" fill="#C4C6CC"/>
<path d="M75.192 0.000366211V2.09637H66.4164L75.192 0.000366211Z" fill="#C4C6CC"/>
<path d="M36.9724 20.1084V18.252H38.5124C39.0688 18.252 39.5484 18.052 39.5484 17.3956V6.16399C39.5484 5.51119 39.0688 5.31119 38.5124 5.31119H36.9724V3.45239H46.4084C50.0196 3.45239 52.088 5.18879 52.088 8.02479C52.088 11.1164 49.924 12.5728 46.6964 12.5728H42.9208V17.3972C42.9208 18.0532 43.5208 18.2532 44.0732 18.2532H45.6132V20.1096H36.9724V20.1084ZM42.92 10.7124H45.1084C47.3728 10.7124 48.5764 9.98519 48.5764 8.05319C48.5764 6.11719 47.6124 5.31239 45.1084 5.31239H42.92V10.7124Z" fill="#C4C6CC"/>
<path d="M17.1884 20.1084V18.252H18.7284C19.4004 18.252 19.8604 18 19.8604 17.1436V6.39239C19.8604 5.64039 19.5444 5.31239 18.5848 5.31239H17.1892V3.45239H25.9972V5.31159H24.6492C23.5932 5.31159 23.2292 5.56439 23.2292 6.44359V18.2756H27.1536C29.6332 18.2756 30.2332 16.8436 30.4536 12.9484H32.2332V20.108H17.1884V20.1084Z" fill="#C4C6CC"/>
<path d="M0.000399995 20.1084V18.252H1.3484C2.1688 18.252 2.6244 18 2.6244 16.4924V6.71639C2.6244 5.64079 2.336 5.31159 1.084 5.31159H0V3.45239H15.8888V10.0844H14.1048C13.7448 6.66839 13.4568 5.31159 10.232 5.31159H5.992V10.5396H7.2676C8.7152 10.5396 9.3632 9.78319 9.3632 7.74799V7.41999H11.1472V15.8116H9.3632V15.2116C9.3632 13.1756 8.7152 12.3964 7.2676 12.3964H5.992V18.2524H10.808C13.024 18.2524 13.888 16.8164 14.104 13.0768H15.888V20.1088L0.000399995 20.1084Z" fill="#C4C6CC"/>
</svg>
