<svg width="40" height="40" viewBox="0 0 40 40" fill="none" xmlns="http://www.w3.org/2000/svg">
<path fill-rule="evenodd" clip-rule="evenodd" d="M0 10.9091C0 4.89091 4.89091 0 10.9091 0H29.0909C35.1091 0 40 4.89091 40 10.9091V29.0909C40 35.1091 35.1091 40 29.0909 40H10.9091C4.89091 40 0 35.1091 0 29.0909V10.9091ZM32.3669 17.2446C32.2522 15.2858 30.4548 13.9128 27.9978 13.9128C25.3496 13.9128 23.5809 15.2858 23.5809 17.3544C23.5809 19.0569 24.5847 20.0729 26.7741 20.5672L28.342 20.9242C29.9481 21.2903 30.6461 21.8212 30.6461 22.6999C30.6461 23.7343 29.537 24.4848 28.0265 24.4848C26.4108 24.4848 25.2826 23.78 25.1201 22.6816H23.2558C23.3897 24.7594 25.1966 26.0867 27.8831 26.0867C30.7608 26.0867 32.5581 24.6954 32.5581 22.4711C32.5581 20.7228 31.5352 19.7617 29.0399 19.2034L27.711 18.8922C26.124 18.5352 25.493 18.0592 25.493 17.2354C25.493 16.1828 26.4777 15.5054 27.9691 15.5054C29.3841 15.5054 30.3497 16.1736 30.5313 17.2446H32.3669ZM17.2223 13.9128C20.3794 13.9128 22.3256 16.2486 22.3256 19.9951C22.3256 23.7325 20.3967 26.0867 17.2223 26.0867C14.0305 26.0867 12.093 23.7417 12.093 19.9951C12.093 16.2395 14.0738 13.9128 17.2223 13.9128ZM13.9535 19.9952C13.9535 17.3404 15.2224 15.6519 17.2176 15.6519C19.2296 15.6519 20.4651 17.3404 20.4651 19.9952C20.4651 22.6409 19.2296 24.3475 17.2176 24.3475C15.1807 24.3475 13.9535 22.6409 13.9535 19.9952ZM8.37209 16.5218H10.1112V25.2175H8.37209V16.5218ZM10.3984 14.0916C10.3984 13.4953 9.95542 13.0436 9.35915 13.0436C8.75436 13.0436 8.31141 13.4953 8.31141 14.0916C8.31141 14.6789 8.75436 15.1306 9.35915 15.1306C9.95542 15.1306 10.3984 14.6789 10.3984 14.0916Z" fill="#4E5466"/>
</svg>
