<svg width="16" height="16" viewBox="0 0 16 16" fill="none" xmlns="http://www.w3.org/2000/svg">
<path fill-rule="evenodd" clip-rule="evenodd" d="M6.8 13.6C3.04446 13.6 0 10.5555 0 6.8C0 3.04446 3.04446 0 6.8 0C10.5555 0 13.6 3.04446 13.6 6.8C13.6 8.39754 13.0491 9.86641 12.1269 11.027L15.7722 14.6723C16.0759 14.976 16.0759 15.4685 15.7722 15.7722C15.4684 16.076 14.976 16.076 14.6722 15.7722L11.027 12.1269C9.86638 13.0491 8.39752 13.6 6.8 13.6ZM12 6.79998C12 9.67186 9.67189 12 6.80001 12C3.92813 12 1.60001 9.67186 1.60001 6.79998C1.60001 3.92809 3.92813 1.59998 6.80001 1.59998C9.67189 1.59998 12 3.92809 12 6.79998Z" fill="#A8ABB3"/>
</svg>
