<svg width="40" height="40" viewBox="0 0 40 40" fill="none" xmlns="http://www.w3.org/2000/svg">
<path fill-rule="evenodd" clip-rule="evenodd" d="M0 20C0 8.97157 8.97157 0 20 0C31.0284 0 40 8.97157 40 20C40 31.0284 31.0284 40 20 40C8.97157 40 0 31.0284 0 20ZM27.6077 9.18651H26.8183V14.9118H27.6116V12.5388C27.6116 11.8602 28.0087 11.412 28.667 11.412C29.2829 11.412 29.5961 11.7937 29.5961 12.4164V14.9128H30.3894V12.2699C30.3894 11.3369 29.8458 10.7258 28.933 10.7258C28.2978 10.7258 27.8728 10.9764 27.6231 11.4641H27.6077V9.18651ZM26.1157 12.1716C26.0395 11.3899 25.3889 10.7229 24.3374 10.7229C23.1778 10.7229 22.4087 11.5605 22.4087 12.8424C22.4087 14.1561 23.1778 14.9619 24.3451 14.9619C25.3292 14.9619 26.0241 14.3904 26.1234 13.5373H25.361C25.254 14.0251 24.8925 14.2911 24.3528 14.2911C23.6742 14.2911 23.2135 13.7475 23.2135 12.8424C23.2135 11.9653 23.6704 11.3976 24.3451 11.3976C24.9243 11.3976 25.2781 11.7311 25.3533 12.1716H26.1157ZM16.5311 11.9884C16.6034 11.6231 16.9359 11.3851 17.3966 11.3851C17.9605 11.3851 18.2776 11.6511 18.2786 12.1311V12.4569L17.1557 12.5243C16.1349 12.588 15.5836 13.0092 15.5836 13.7311C15.5836 14.4646 16.1513 14.9571 16.9764 14.9571C17.5441 14.9571 18.0598 14.6708 18.294 14.2188H18.3094V14.9137H19.067V12.0723C19.067 11.2511 18.4164 10.7229 17.412 10.7229C16.4954 10.7229 15.8092 11.2627 15.7851 11.9884H16.5311ZM11.201 14.0723L10.4154 10.7701H9.62603L10.773 14.9137H11.5827L12.4752 11.7706H12.4954L13.3841 14.9137H14.2014L15.3446 10.7701H14.5629L13.7812 14.0723H13.761L12.8723 10.7701H12.106L11.2173 14.0723H11.201ZM8.42313 24.1195C8.42313 28.16 10.7075 30.6911 14.3508 30.6911C17.9933 30.6911 20.2689 28.159 20.2699 24.1195C20.2699 20.08 17.9942 17.5393 14.3508 17.5393C10.7075 17.5393 8.42313 20.08 8.42313 24.1195ZM20.24 11.4053V13.8265C20.24 14.6236 20.5571 14.9378 21.3629 14.9378C21.5422 14.9378 21.7369 14.9263 21.8236 14.9022V14.267C21.7725 14.2757 21.6251 14.2872 21.5383 14.2872C21.1933 14.2872 21.0342 14.1166 21.0342 13.7552V11.4053H21.8275V10.7701H21.0342V9.77831H20.24V10.7701H19.6366V11.4053H20.24ZM21.5383 26.9513C21.6704 29.2357 23.5576 30.6911 26.3364 30.6911C29.3176 30.6911 31.1875 29.2183 31.1884 26.8559C31.1884 25.0034 30.1128 23.9711 27.493 23.3359L26.1166 22.9918C24.4405 22.5677 23.7523 22.0212 23.7523 21.0949C23.7523 19.9219 24.8463 19.1104 26.4251 19.1104C28.0125 19.1104 29.0805 19.9133 29.2039 21.2183H30.9947C30.9243 19.0487 29.0892 17.5402 26.4607 17.5402C23.7696 17.5402 21.8824 19.04 21.8824 21.201C21.8824 22.9561 22.9504 24.0231 25.2964 24.6053L26.9282 25.0111C28.6034 25.4342 29.3272 26.052 29.3272 27.0747C29.3272 28.2564 28.1369 29.121 26.4781 29.121C24.7489 29.121 23.4872 28.2564 23.3465 26.9513H21.5383ZM16.3807 13.7143C16.3807 14.0758 16.694 14.31 17.1826 14.31C17.8101 14.31 18.2776 13.909 18.2776 13.3538V13.028L17.2578 13.0917C16.6824 13.1312 16.3807 13.3452 16.3807 13.7143ZM14.3508 19.1623C11.8544 19.1623 10.293 21.0765 10.293 24.1194C10.293 27.1536 11.8544 29.0678 14.3508 29.0678C16.8385 29.0678 18.4087 27.1536 18.4087 24.1194C18.4077 21.0765 16.8376 19.1623 14.3508 19.1623Z" fill="#4E5466"/>
</svg>
