<svg width="40" height="40" viewBox="0 0 40 40" fill="none" xmlns="http://www.w3.org/2000/svg">
<path fill-rule="evenodd" clip-rule="evenodd" d="M20 0C8.95374 0 -1.52588e-05 8.95375 -1.52588e-05 20C-1.52588e-05 31.045 8.95374 40 20 40C31.0462 40 40 31.045 40 20C40 8.95375 31.0462 0 20 0ZM10.2325 13.332C9.20639 13.332 8.37202 14.2 8.37202 15.2709V23.025C8.4121 24.0655 9.23321 24.8876 10.2325 24.8876C11.2318 24.8876 12.0529 24.0655 12.093 23.025V15.2709C12.093 14.2 11.2586 13.332 10.2325 13.332ZM27.9069 15.2709C27.9069 14.2 28.7413 13.332 29.7674 13.332C30.795 13.332 31.6278 14.2 31.6278 15.2709V23.025C31.5878 24.0655 30.7667 24.8876 29.7674 24.8876C28.7681 24.8876 27.947 24.0655 27.9069 23.025V15.2709ZM13.0247 28.2106H14.7675V32.8741C14.805 33.8752 15.5748 34.6661 16.5117 34.6661C17.4485 34.6661 18.2183 33.8752 18.2558 32.8741V28.2106H21.7442V32.8741C21.7818 33.8752 22.5516 34.6661 23.4884 34.6661C24.4252 34.6661 25.195 33.8752 25.2326 32.8741V28.2106H26.9768V14.2217H13.0247V28.2106ZM25.0161 5.99349L24.1201 7.58113C25.849 8.87997 26.9768 10.9705 26.9768 13.334H13.0233C13.0236 11.0596 14.0856 8.92202 15.8814 7.58113L14.9853 5.99349C14.8727 5.78042 14.9465 5.51432 15.1518 5.39354C15.357 5.27277 15.619 5.34132 15.7424 5.54809L16.6159 7.09693C17.6187 6.5251 18.7718 6.19751 20.0007 6.19751C21.1854 6.19649 22.3506 6.50563 23.3855 7.0955L24.2605 5.54665C24.3862 5.34484 24.645 5.28014 24.8475 5.39989C25.05 5.51965 25.1243 5.78135 25.0161 5.99349ZM17.6744 10.6674C17.1607 10.6674 16.7442 10.2695 16.7442 9.77854C16.7442 9.28762 17.1607 8.88965 17.6744 8.88965C18.1882 8.88965 18.6047 9.28762 18.6047 9.77854C18.6047 10.2695 18.1882 10.6674 17.6744 10.6674ZM21.3953 9.77854C21.3953 10.2695 21.8118 10.6674 22.3256 10.6674C22.8393 10.6674 23.2558 10.2695 23.2558 9.77854C23.2558 9.28762 22.8393 8.88965 22.3256 8.88965C21.8118 8.88965 21.3953 9.28762 21.3953 9.77854Z" fill="#4E5466"/>
</svg>
