<svg width="16" height="20" viewBox="0 0 16 20" fill="none" xmlns="http://www.w3.org/2000/svg">
<path fill-rule="evenodd" clip-rule="evenodd" d="M9.62334 18.9462C10.4946 18.2235 11.3656 17.4069 12.1808 16.5106C14.5581 13.8967 16 11.143 16 8.33333C16 3.73096 12.4183 0 8 0C3.58172 0 0 3.73096 0 8.33333C0 11.143 1.44192 13.8967 3.81924 16.5106C4.6344 17.4069 5.5054 18.2235 6.37666 18.9462C6.68208 19.1995 6.96626 19.4234 7.22223 19.616C7.37822 19.7333 7.49188 19.8153 7.55624 19.86C7.82496 20.0467 8.17504 20.0467 8.44376 19.86C8.50812 19.8153 8.62178 19.7333 8.77777 19.616C9.03374 19.4234 9.31792 19.1995 9.62334 18.9462ZM11.0191 15.3618C10.2593 16.1973 9.44278 16.9627 8.62654 17.6398C8.40374 17.8246 8.19373 17.9921 7.99988 18.1412C7.80603 17.9921 7.59602 17.8246 7.37322 17.6398C6.55698 16.9627 5.74048 16.1973 4.98064 15.3618C2.85796 13.0278 1.59988 10.6252 1.59988 8.33073C1.59988 4.64883 4.46526 1.66406 7.99988 1.66406C11.5345 1.66406 14.3999 4.64883 14.3999 8.33073C14.3999 10.6252 13.1418 13.0278 11.0191 15.3618ZM7.99997 11.6667C6.23266 11.6667 4.79997 10.1743 4.79997 8.33333C4.79997 6.49238 6.23266 5 7.99997 5C9.76728 5 11.2 6.49238 11.2 8.33333C11.2 10.1743 9.76728 11.6667 7.99997 11.6667ZM9.59985 8.33073C9.59985 9.2512 8.8835 9.9974 7.99985 9.9974C7.11619 9.9974 6.39985 9.2512 6.39985 8.33073C6.39985 7.41025 7.11619 6.66406 7.99985 6.66406C8.8835 6.66406 9.59985 7.41025 9.59985 8.33073Z" fill="#83868F"/>
</svg>
