<svg width="416" height="64" viewBox="0 0 416 64" fill="none" xmlns="http://www.w3.org/2000/svg">
<path fill-rule="evenodd" clip-rule="evenodd" d="M404.332 22.8978C397.202 22.8978 392.61 17.9107 392.61 11.4757C392.61 5.14798 397.202 0 404.224 0C411.463 0 416 5.09435 416 11.4221C416 17.6962 411.517 22.8978 404.332 22.8978ZM404.305 20.9067C410.457 20.9067 414.051 16.9121 414.051 11.3901C414.051 5.86821 410.396 1.99111 404.183 1.99111C398.214 1.99111 394.56 5.9857 394.56 11.4489C394.56 16.7946 398.214 20.9067 404.305 20.9067ZM400.227 17.6309V5.68423H405.297C408.001 5.68423 409.578 7.62003 409.578 9.66645C409.578 11.3257 408.677 12.6531 407.663 13.0956L409.973 17.6309H406.931L405.128 13.704H403.044V17.6309H400.227ZM402.928 11.1003H404.872C405.899 11.1003 406.385 10.3496 406.385 9.59883C406.385 8.74084 405.845 8.09734 404.872 8.09734H402.928V11.1003Z" fill="#131314"/>
<path fill-rule="evenodd" clip-rule="evenodd" d="M369.581 64C356.077 64 346.583 53.9589 346.583 40.9054C346.583 27.7683 356.159 17.7271 369.581 17.7271C383.086 17.7271 392.498 27.8519 392.498 40.9054C392.498 53.9589 383.004 64 369.581 64ZM369.581 52.369C375.965 52.369 380.385 47.4321 380.385 40.9054C380.385 34.295 375.965 29.3581 369.581 29.3581C363.197 29.3581 358.696 34.295 358.696 40.9054C358.696 47.4321 363.197 52.369 369.581 52.369ZM318.366 62.9122V18.8149H330.152V24.6723H330.971C332.853 20.9068 337.109 17.7271 342.02 17.7271H345.457V29.8602H341.038C334.49 29.8602 330.234 34.044 330.234 42.2442V62.9122H318.366ZM274.109 62.9122V4.33898H294.488C305.865 4.33898 313.558 11.7862 313.558 23.1661C313.558 34.4624 305.455 42.2442 294.488 42.2442H286.304V62.9122H274.109ZM286.304 30.6133H293.997C298.417 30.6133 301.281 27.4336 301.281 23.1661C301.281 18.9823 298.417 15.97 293.997 15.97H286.304V30.6133ZM242.865 64C230.13 64 222.212 54.8571 222.212 41.3526C222.212 27.4286 230.947 18.3696 242.457 18.3696C255.029 18.3696 262.376 27.3447 262.376 40.4299V42.7785H227.6C227.763 53.3473 233.722 59.135 242.947 59.135C249.396 59.135 255.029 55.2765 256.825 48.7339L261.887 49.9921C259.682 57.709 252.988 64 242.865 64ZM227.681 38.1651H257.07C256.662 28.0996 250.049 23.1507 242.457 23.1507C234.702 23.1507 228.253 28.9384 227.681 38.1651ZM199.354 64C186.619 64 178.7 54.8571 178.7 41.3526C178.7 27.4286 187.435 18.3696 198.946 18.3696C211.517 18.3696 218.865 27.3447 218.865 40.4299V42.7785H184.088C184.251 53.3473 190.211 59.135 199.435 59.135C205.885 59.135 211.517 55.2765 213.313 48.7339L218.375 49.9921C216.171 57.709 209.477 64 199.354 64ZM184.17 38.1651H213.558C213.15 28.0996 206.538 23.1507 198.946 23.1507C191.19 23.1507 184.741 28.9384 184.17 38.1651ZM157.148 62.9096V19.46H162.291V27.0092H162.699C164.414 22.983 168.251 18.3696 174.7 18.3696H177.802V23.7379H174.292C166.618 23.7379 162.373 30.1127 162.373 39.3395V62.9096H157.148ZM131.025 64C118.29 64 110.371 54.8571 110.371 41.3526C110.371 27.4286 119.106 18.3696 130.617 18.3696C143.189 18.3696 150.536 27.3447 150.536 40.4299V42.7785H115.759C115.922 53.3473 121.882 59.135 131.107 59.135C137.556 59.135 143.189 55.2765 144.985 48.7339L150.046 49.9921C147.842 57.709 141.148 64 131.025 64ZM115.841 38.1651H145.229C144.821 28.0996 138.209 23.1507 130.617 23.1507C122.861 23.1507 116.412 28.9384 115.841 38.1651ZM89.8806 62.9096V23.9056H81.7171V19.46H89.8806V12.0786C89.8806 3.52294 94.8604 0 102.289 0H107.514V4.61337H102.289C97.2278 4.61337 95.1053 6.87811 95.1053 12.1625V19.46H107.84V23.9056H95.1053V62.9096H89.8806ZM60.4919 64C47.7567 64 39.8381 54.8571 39.8381 41.3526C39.8381 27.4286 48.5731 18.3696 60.0837 18.3696C72.6556 18.3696 80.0027 27.3447 80.0027 40.4299V42.7785H45.226C45.3893 53.3473 51.3487 59.135 60.5735 59.135C67.0227 59.135 72.6556 55.2765 74.4515 48.7339L79.5129 49.9921C77.3088 57.709 70.6147 64 60.4919 64ZM45.3077 38.1651H74.6964C74.2883 28.0996 67.6758 23.1507 60.0837 23.1507C52.3283 23.1507 45.8791 28.9384 45.3077 38.1651ZM0 62.9096V4.19397H17.7965C28.899 4.19397 36.0012 10.9043 36.0012 20.9699C36.0012 29.945 30.9398 36.6553 21.8783 38.249L37.3074 62.9096H30.9398L16.0822 38.5845H5.3063V62.9096H0ZM5.3063 33.6357H17.7149C24.8988 33.6357 30.3684 29.4417 30.3684 21.0537C30.3684 14.3434 25.9601 9.22674 17.3067 9.22674H5.3063V33.6357Z" fill="#131314"/>
</svg>
