<svg width="156" height="24" viewBox="0 0 156 24" fill="none" xmlns="http://www.w3.org/2000/svg">
<path fill-rule="evenodd" clip-rule="evenodd" d="M151.625 8.58667C148.951 8.58667 147.229 6.7165 147.229 4.30339C147.229 1.93049 148.951 0 151.584 0C154.298 0 156 1.91038 156 4.28328C156 6.63606 154.319 8.58667 151.625 8.58667ZM151.614 7.84C153.921 7.84 155.269 6.34203 155.269 4.27131C155.269 2.20058 153.899 0.746667 151.569 0.746667C149.33 0.746667 147.96 2.24464 147.96 4.29333C147.96 6.29797 149.33 7.84 151.614 7.84ZM150.085 6.61158V2.13158H151.986C153 2.13158 153.592 2.85751 153.592 3.62492C153.592 4.24714 153.254 4.74492 152.874 4.91084L153.74 6.61158H152.599L151.923 5.13899H151.141V6.61158H150.085ZM151.098 4.16262H151.827C152.212 4.16262 152.394 3.88109 152.394 3.59956C152.394 3.27781 152.192 3.0365 151.827 3.0365H151.098V4.16262Z" fill="#1A1B1F"/>
<path fill-rule="evenodd" clip-rule="evenodd" d="M138.593 24C133.529 24 129.969 20.2346 129.969 15.3395C129.969 10.4131 133.559 6.64768 138.593 6.64768C143.657 6.64768 147.187 10.4445 147.187 15.3395C147.187 20.2346 143.626 24 138.593 24ZM138.593 19.6384C140.987 19.6384 142.644 17.7871 142.644 15.3395C142.644 12.8606 140.987 11.0093 138.593 11.0093C136.199 11.0093 134.511 12.8606 134.511 15.3395C134.511 17.7871 136.199 19.6384 138.593 19.6384ZM119.387 23.5921V7.0556H123.807V9.2521H124.114C124.82 7.84006 126.416 6.64768 128.257 6.64768H129.547V11.1976H127.889C125.434 11.1976 123.838 12.7665 123.838 15.8416V23.5921H119.387ZM102.791 23.5921V1.62712H110.433C114.699 1.62712 117.584 4.41981 117.584 8.68728C117.584 12.9234 114.546 15.8416 110.433 15.8416H107.364V23.5921H102.791ZM107.364 11.48H110.249C111.906 11.48 112.98 10.2876 112.98 8.68728C112.98 7.11836 111.906 5.98873 110.249 5.98873H107.364V11.48ZM91.0746 24C86.2989 24 83.3294 20.5714 83.3294 15.5072C83.3294 10.2857 86.605 6.8886 90.9215 6.8886C95.636 6.8886 98.3912 10.2543 98.3912 15.1612V16.0419H85.3499C85.4111 20.0052 87.6459 22.1756 91.1052 22.1756C93.5236 22.1756 95.636 20.7287 96.3094 18.2752L98.2075 18.7471C97.3809 21.6409 94.8706 24 91.0746 24ZM85.3805 14.3119H96.4013C96.2482 10.5374 93.7685 8.68152 90.9215 8.68152C88.0132 8.68152 85.5948 10.8519 85.3805 14.3119ZM74.7577 24C69.982 24 67.0125 20.5714 67.0125 15.5072C67.0125 10.2857 70.2881 6.8886 74.6046 6.8886C79.319 6.8886 82.0742 10.2543 82.0742 15.1612V16.0419H69.033C69.0942 20.0052 71.329 22.1756 74.7883 22.1756C77.2067 22.1756 79.319 20.7287 79.9925 18.2752L81.8906 18.7471C81.064 21.6409 78.5537 24 74.7577 24ZM69.0636 14.3119H80.0844C79.9313 10.5374 77.4516 8.68152 74.6046 8.68152C71.6963 8.68152 69.2779 10.8519 69.0636 14.3119ZM58.9306 23.5911V7.29751H60.8592V10.1284H61.0123C61.6552 8.61861 63.094 6.8886 65.5125 6.8886H66.6758V8.9017H65.3594C62.4817 8.9017 60.8898 11.2923 60.8898 14.7523V23.5911H58.9306ZM49.1343 24C44.3587 24 41.3892 20.5714 41.3892 15.5072C41.3892 10.2857 44.6648 6.8886 48.9813 6.8886C53.6957 6.8886 56.4509 10.2543 56.4509 15.1612V16.0419H43.4097C43.4709 20.0052 45.7056 22.1756 49.165 22.1756C51.5834 22.1756 53.6957 20.7287 54.3692 18.2752L56.2672 18.7471C55.4407 21.6409 52.9304 24 49.1343 24ZM43.4403 14.3119H54.461C54.308 10.5374 51.8283 8.68152 48.9813 8.68152C46.073 8.68152 43.6546 10.8519 43.4403 14.3119ZM33.7052 23.5911V8.96461H30.6439V7.29751H33.7052V4.52949C33.7052 1.3211 35.5726 0 38.3585 0H40.3177V1.73001H38.3585C36.4604 1.73001 35.6645 2.57929 35.6645 4.56094V7.29751H40.4402V8.96461H35.6645V23.5911H33.7052ZM22.6845 24C17.9088 24 14.9393 20.5714 14.9393 15.5072C14.9393 10.2857 18.2149 6.8886 22.5314 6.8886C27.2458 6.8886 30.001 10.2543 30.001 15.1612V16.0419H16.9598C17.021 20.0052 19.2558 22.1756 22.7151 22.1756C25.1335 22.1756 27.2458 20.7287 27.9193 18.2752L29.8173 18.7471C28.9908 21.6409 26.4805 24 22.6845 24ZM16.9904 14.3119H28.0112C27.8581 10.5374 25.3784 8.68152 22.5314 8.68152C19.6231 8.68152 17.2047 10.8519 16.9904 14.3119ZM0 23.5911V1.57274H6.6737C10.8371 1.57274 13.5005 4.08912 13.5005 7.8637C13.5005 11.2294 11.6024 13.7457 8.20436 14.3434L13.9903 23.5911H11.6024L6.03082 14.4692H1.98986V23.5911H0ZM1.98986 12.6134H6.64309C9.33706 12.6134 11.3881 11.0406 11.3881 7.89515C11.3881 5.37877 9.73503 3.46003 6.49002 3.46003H1.98986V12.6134Z" fill="#1A1B1F"/>
</svg>
