<svg width="117" height="20" viewBox="0 0 117 20" fill="none" xmlns="http://www.w3.org/2000/svg">
<path fill-rule="evenodd" clip-rule="evenodd" d="M17.1324 6.67404V19.5894H22.1704V0.0581665H15.17L11.1012 10.835L7.00033 0.0581665H0V19.5894H5.03799V6.67404L9.98788 19.5894H12.2145L17.1324 6.67404ZM60.2312 19.5895V11.3597C60.2312 9.63362 59.3221 9.07696 57.8884 9.07696C56.5709 9.07696 55.6938 9.80983 55.1652 10.4546V19.5895H50.6558V0.0582275H55.1652V7.17469C56.0142 6.17751 57.6842 5.09622 60.055 5.09622C63.2748 5.09622 64.7406 6.91038 64.7406 9.51748V19.5895H60.2312ZM80.6964 19.5895V0.0582324H85.2058V7.11462C86.3191 5.70895 87.8409 5.09622 89.3948 5.09622C92.939 5.09622 95.6302 7.87553 95.6302 12.505C95.6302 17.3067 92.8789 19.9419 89.3948 19.9419C87.8129 19.9419 86.3792 19.2971 85.2058 17.9515V19.5895H80.6964ZM87.901 15.9571C89.6871 15.9571 91.0327 14.6396 91.0327 12.505C91.0327 10.3945 89.6871 9.07696 87.901 9.07696C86.9358 9.07696 85.7624 9.60559 85.2058 10.3665V14.6996C85.7624 15.4605 86.9358 15.9571 87.901 15.9571ZM100.784 0.0586397H96.2745V19.5899H100.784V0.0586397ZM108.923 5.09403C104.502 5.09403 101.426 8.40196 101.426 12.5028C101.426 17.1003 104.766 19.9397 109.127 19.9397C111.294 19.9397 113.637 19.327 115.042 18.0655L113.08 15.1099C112.263 15.8708 110.621 16.3114 109.624 16.3114C107.578 16.3114 106.404 15.2541 106.084 13.9966H116.156V12.9714C116.156 8.16969 113.112 5.09403 108.923 5.09403ZM106.024 10.921C106.2 9.89574 106.961 8.72635 108.923 8.72635C111.002 8.72635 111.734 9.92377 111.851 10.921H106.024ZM74.6372 18.1838V19.5895H79.1465V10.7469C79.1465 6.35372 75.9547 5.09622 72.5587 5.09622C70.3921 5.09622 67.9612 5.73699 66.1431 7.29083L67.8131 10.4226C68.9544 9.45741 70.3601 8.90075 71.7658 8.90075C73.5839 8.90075 74.6372 9.74976 74.6372 10.9792V12.3849C73.7882 11.3316 72.1182 10.7149 70.2439 10.7149C68.0774 10.7149 65.3822 11.8603 65.3822 15.2843C65.3822 18.4481 68.0774 19.9419 70.2439 19.9419C72.0581 19.9419 73.7601 19.237 74.6372 18.1838ZM74.6372 14.6996V15.9571C74.1686 16.6339 73.1154 16.9824 72.1182 16.9824C70.9488 16.9824 69.8635 16.4577 69.8635 15.3444C69.8635 14.2311 70.9488 13.7025 72.1182 13.7025C73.1154 13.7025 74.1686 14.0268 74.6372 14.6996ZM38.8854 14.525L37.0112 17.7448C38.505 19.0904 41.1121 19.9394 43.6591 19.9394C47.6999 19.9394 50.0707 18.0091 50.0707 15.3139C50.0707 11.4913 46.5084 10.8881 44.0803 10.477C42.8251 10.2645 41.873 10.1033 41.873 9.57511C41.873 9.01845 42.5738 8.60996 43.6311 8.60996C45.3291 8.60996 46.939 9.33883 47.788 10.1598L49.5141 6.96801C47.9923 5.85468 46.0019 5.09378 43.599 5.09378C39.7064 5.09378 37.5398 7.26035 37.5398 9.75132C37.5398 13.447 40.9511 14.0104 43.3801 14.4116C44.723 14.6334 45.7656 14.8056 45.7656 15.4301C45.7656 16.0468 45.209 16.4273 43.8633 16.4273C42.1934 16.4273 39.9387 15.4621 38.8854 14.525ZM32.1815 19.5895V18.1838C31.3044 19.237 29.6024 19.9419 27.7882 19.9419C25.6217 19.9419 22.9265 18.4481 22.9265 15.2843C22.9265 11.8603 25.6217 10.7149 27.7882 10.7149C29.6625 10.7149 31.3325 11.3316 32.1815 12.3849V10.9792C32.1815 9.74976 31.1282 8.90075 29.31 8.90075C27.9044 8.90075 26.4987 9.45741 25.3573 10.4226L23.6874 7.29083C25.5055 5.73699 27.9364 5.09622 30.103 5.09622C33.499 5.09622 36.6908 6.35372 36.6908 10.7469V19.5895H32.1815ZM32.1815 15.9571V14.6996C31.7129 14.0268 30.6597 13.7025 29.6625 13.7025C28.4931 13.7025 27.4078 14.2311 27.4078 15.3444C27.4078 16.4577 28.4931 16.9824 29.6625 16.9824C30.6597 16.9824 31.7129 16.6339 32.1815 15.9571Z" fill="#C4C6CC"/>
</svg>
