<svg width="258" height="277" viewBox="0 0 258 277" fill="none" xmlns="http://www.w3.org/2000/svg">
<path fill-rule="evenodd" clip-rule="evenodd" d="M253.753 236.515C253.856 236.605 253.945 236.707 254.02 236.82C254.739 237.898 260.907 247.507 256.313 252.698C255.067 254.105 253.268 254.852 250.964 254.919C250.852 254.923 250.737 254.925 250.624 254.925C245.574 254.925 239.552 251.728 238.934 251.107C237.902 250.13 231.362 245.186 229.996 244.916C229.074 244.793 225.244 243.04 225.244 243.04L207.427 232.207C207.427 232.207 187.842 220.185 178.514 214.782L171.098 211.959C171.086 211.959 170.352 211.754 168.717 211.273C168.7 211.267 168.682 211.263 168.665 211.257C167.468 210.905 165.795 210.406 163.582 209.734C155.468 213.182 145.959 214.893 145.55 214.964C145.539 214.967 145.527 214.967 145.517 214.966C145.503 214.966 145.49 214.963 145.476 214.961C145.464 214.959 145.453 214.957 145.441 214.956C145.432 214.955 145.423 214.955 145.414 214.956C145.392 214.958 145.372 214.965 145.352 214.972C145.329 214.98 145.306 214.988 145.281 214.988C145.25 214.988 145.22 214.975 145.19 214.962C145.165 214.951 145.139 214.94 145.112 214.937C144.925 214.915 144.757 214.866 144.591 214.778C144.568 214.766 144.543 214.762 144.518 214.757C144.489 214.752 144.46 214.748 144.434 214.73C144.403 214.71 144.381 214.683 144.358 214.657C144.342 214.637 144.325 214.618 144.305 214.601C144.29 214.587 144.271 214.578 144.253 214.57L144.253 214.57L144.253 214.569C144.243 214.565 144.234 214.56 144.225 214.555C144.214 214.549 144.203 214.541 144.193 214.531L118.135 188.004L118.479 189.91L125.967 205.021C126.668 205.985 133.329 215.105 137.529 218.957C142.161 223.207 158.537 244.747 159.231 245.661C159.337 245.813 160.374 247.295 167.223 254.148C173.907 259.367 175.268 270.279 175.323 270.745C175.403 271.429 175.017 272.083 174.378 272.341L166.658 275.466C164.593 276.301 162.372 276.728 160.138 276.728C159.461 276.728 158.782 276.689 158.106 276.61C144.604 275.024 143.541 272.898 143.088 271.99C142.503 270.818 142.715 269.873 142.995 269.286C143.924 267.338 146.855 266.693 149.212 266.176L149.217 266.174L149.411 266.132C149.767 266.055 150.089 265.986 150.351 265.916C150.526 264.904 150.169 262.063 149.519 259.3C146.84 257.148 130.606 244.151 126.171 241.534C121.295 238.656 110.057 223.109 107.886 220.068C102.286 218.203 97.1867 212.266 96.8919 211.916L96.8909 211.915C96.7178 211.715 79.4015 191.861 74.6281 186.581C70.3736 181.877 66.8231 169.807 65.7167 165.752C65.493 165.49 65.3302 165.184 65.3201 164.827C65.2396 161.822 65.5529 156.483 65.8319 152.533C65.9692 150.582 65.5469 148.638 64.6129 146.912C64.3935 146.509 64.3681 146.029 64.5412 145.604L65.5171 143.219C63.7101 133.496 64.5129 126.342 64.6755 125.11L63.9235 114.952L62.2224 98.3015C61.8658 94.4984 60.4408 90.9013 58.1011 87.8896L56.503 85.8335L37.0112 96.3081C36.3457 96.659 35.5265 96.4843 35.0729 95.887L33.9297 94.3838C32.5077 96.8294 29.0491 102.759 27.5241 105.2C25.9365 107.741 20.4857 114.117 18.3265 116.615L20.2469 118.798C20.4081 118.98 20.523 119.2 20.5812 119.437C21.2332 122.041 22.1434 125.191 22.5269 125.915C23.1879 126.614 23.2491 127.81 22.7104 129.48C22.0405 131.562 20.5259 133.83 18.2877 133.949C18.2146 133.952 18.1325 133.954 18.043 133.954C15.0945 133.955 4.27649 131.874 3.01861 131.629C2.77987 131.583 2.55604 131.481 2.36505 131.33C2.12332 131.139 0 129.33 0 124.522C0 120.98 1.06091 118.839 1.65479 117.916V114.838C1.65479 114.534 1.74581 114.237 1.91591 113.983L5.44484 108.748C5.74923 107.438 7.1429 102.442 12.1819 93.9265C17.003 85.7797 22.0629 81.2465 23.8102 79.819V79.0336C23.8102 78.611 23.9847 78.2079 24.2921 77.9197C24.3697 77.8465 32.1647 70.521 41.41 62.422C51.7506 53.3675 63.9623 47.0409 76.7246 44.1292C82.1515 42.8899 85.7416 42.6435 87.2412 42.6002L89.6943 39.5078C89.1721 37.7967 88.3156 33.7113 87.3546 24.0132C86.8428 15.8246 88.5752 9.58168 92.4995 5.4023C95.8166 1.86796 100.596 0 106.32 0C116.83 0 126.701 11.2973 127.116 11.7781C127.574 12.3082 127.613 13.0802 127.211 13.6551C127.069 13.8583 125.5 16.038 122.442 18.4838C123.1 22.6884 125.208 37.9673 122.008 43.1422C121.379 44.1591 120.823 45.2257 120.308 46.2855C128.241 48.3991 138.408 55.7171 141.36 57.9336C146.254 61.6068 149.85 67.6765 153.113 73.579C156.216 79.188 165.474 86.8135 165.725 87.0199L165.725 87.0199L165.73 87.0235L175.543 93.5607C175.697 93.6637 175.831 93.7936 175.939 93.9444L175.946 93.9547C176.269 94.4067 186.171 108.26 189.737 112.445C192.545 115.737 203.729 122.686 208.306 125.391C208.879 125.397 209.778 125.506 211.027 125.94C214.754 127.23 217.746 130.357 219.027 134.306C220.961 140.258 222.598 147.961 222.667 148.287C222.777 148.81 222.607 149.353 222.216 149.719C221.828 150.085 221.278 150.222 220.758 150.076C209.59 146.94 209.366 146.38 209.057 145.604C209.018 145.507 208.958 145.318 208.884 145.057L208.883 145.055C208.492 143.705 207.303 139.607 203.928 138.601C199.413 137.258 196.896 134.33 196.262 133.51L189.807 128.535C189.771 128.537 174.296 120.018 166.455 114.702C160.498 110.664 155.094 104.778 152.491 101.944L152.491 101.944L152.491 101.944L152.484 101.936C152.369 101.811 152.26 101.692 152.158 101.581L152.154 101.576L152.153 101.575L152.152 101.574C151.672 101.049 151.336 100.683 151.163 100.535L151.165 100.534C151.161 100.532 151.156 100.528 151.152 100.526C151.139 100.517 151.124 100.509 151.109 100.501C151.092 100.492 151.074 100.483 151.058 100.47C149.851 99.775 146.869 97.6766 138.089 91.2537C137.271 93.2755 135.791 96.7351 133.751 100.705C134.15 104.42 132.295 112.272 130.616 118.365C130.285 119.572 130.372 120.869 130.863 122.018L132.819 126.602C134.072 129.54 134.101 132.827 132.923 135.765C134.937 138.3 141.755 146.902 146.463 153.109L179.546 189.879C184.327 191.777 199.407 202.194 201.161 203.412L218.819 220.798L221.361 221.116C221.404 221.122 221.439 221.146 221.481 221.155C221.519 221.163 221.555 221.153 221.592 221.164C222.197 221.337 236.442 225.442 241.984 228.279C247.563 231.136 253.503 236.297 253.753 236.515ZM152.224 97.6254C155.65 96.6314 160.572 91.7806 163.183 88.8712C162.561 88.3476 161.602 87.5221 160.457 86.4825L150.203 96.2276C151.116 96.8734 151.791 97.3397 152.224 97.6254ZM207.157 128.262C206.508 127.881 191.229 118.906 187.412 114.429C183.932 110.345 174.985 97.864 173.616 95.9497L165.685 90.6594C163.717 92.887 159.072 97.8141 154.781 99.9173C157.318 102.682 162.533 108.351 168.168 112.17C175.912 117.42 191.32 125.898 191.475 125.983L198.293 131.215C198.416 131.311 198.525 131.426 198.615 131.554C198.631 131.578 200.702 134.451 204.8 135.67C208.063 136.642 210.407 139.458 211.77 144.042C212.863 144.514 215.949 145.493 219.118 146.423C218.474 143.636 217.346 139.02 216.121 135.251C215.133 132.208 212.854 129.807 210.025 128.829C208.843 128.419 208.246 128.448 208.175 128.451L208.174 128.451L208.172 128.451C208.169 128.452 208.168 128.452 208.168 128.452C207.793 128.529 207.481 128.453 207.157 128.262ZM147.668 94.4185L158.222 84.3885C156.595 82.8143 154.864 81.0126 153.354 79.1868L142.88 90.959C144.526 92.155 146.175 93.3466 147.668 94.4185ZM90.4001 23.7668C91.6774 36.6424 92.7234 38.9733 92.7681 39.0659C93.1218 39.6168 93.0263 40.226 92.6189 40.7397L89.2204 45.0234C89.4058 45.2248 89.5576 45.4587 89.6122 45.7478C90.4687 50.2646 92.9964 54.241 96.7298 56.9466C104.647 62.6834 106.394 62.97 106.567 62.9835C106.578 62.985 106.588 62.985 106.599 62.985C107.809 62.985 111.991 59.7931 116.207 55.7448L106.863 61.4799C106.62 61.6292 106.342 61.7053 106.065 61.7053C105.869 61.7053 105.675 61.668 105.49 61.5933C105.123 61.444 96.5104 57.8111 94.7497 45.7433C94.6273 44.9071 95.2048 44.1307 96.0404 44.0097C96.87 43.8843 97.6519 44.4667 97.7728 45.3013C99.0202 53.8512 104.134 57.408 105.984 58.4323L114.31 53.3227C114.835 51.5383 116.563 46.1315 119.409 41.5326C121.558 38.057 120.526 26.7502 119.647 20.4734C115.571 23.0736 109.827 25.4649 102.281 25.6452C101.439 25.5989 100.738 24.9957 100.717 24.1521C100.697 23.3084 101.364 22.6081 102.209 22.5872C114.549 22.2931 121.701 15.408 123.939 12.8472C121.423 10.2402 113.812 3.05802 106.32 3.05802C102.931 3.05802 98.1697 3.82849 94.7258 7.49572C91.4028 11.036 89.948 16.51 90.4001 23.7668ZM24.9337 103.578C26.8079 100.577 31.8603 91.8599 31.911 91.7718C31.9133 91.7678 31.9165 91.7648 31.9198 91.7617C31.9214 91.7602 31.9231 91.7586 31.9246 91.7569C31.9259 91.7555 31.9271 91.754 31.9282 91.7522L25.0858 82.7555C23.1016 84.4956 18.8527 88.6556 14.811 95.4854C9.33933 104.733 8.38735 109.587 8.37839 109.635C8.3396 109.839 8.25902 110.041 8.14263 110.214L4.7107 115.306V118.406C4.7107 118.773 4.5779 119.128 4.33767 119.407C4.30036 119.454 3.05591 121.029 3.05591 124.522C3.05591 126.982 3.74528 128.243 4.09594 128.723C8.89915 129.645 16.5613 131.005 18.1266 130.894C18.3026 130.885 18.5563 130.709 18.807 130.421C19.5307 129.589 19.953 128.234 20.0112 127.647C19.5874 126.964 18.904 125.28 17.7073 120.539L15.1497 117.632C14.6439 117.056 14.6424 116.193 15.1468 115.615C15.2273 115.524 23.1103 106.497 24.9337 103.578ZM60.5139 86.0127C63.2102 89.4858 64.8531 93.6323 65.2634 98.0028L66.9675 114.683L67.7344 125.046C67.7434 125.159 67.7389 125.273 67.7225 125.385C67.7105 125.459 66.6452 132.93 68.6029 143.089C68.6581 143.38 68.6282 143.683 68.5163 143.958L67.6344 146.116C68.6103 148.184 69.04 150.462 68.8789 152.748C68.7088 155.172 68.4581 159.109 68.385 162.188C71.4872 160.856 77.6079 159.342 87.6322 161.245C101.669 163.909 120.598 158.546 121.28 158.353L121.298 158.348C121.737 158.16 133.714 153.285 142.221 152.59C136.896 145.659 130.194 137.245 129.96 136.95L129.954 136.943C129.817 136.772 129.722 136.576 129.67 136.372C129.587 136.47 129.489 136.561 129.376 136.641L129.314 136.686L129.314 136.686L129.313 136.687C128.468 137.294 119.459 143.763 114.844 147.595C114.52 147.866 114.103 148 113.687 148C113.239 148 112.791 147.843 112.46 147.533C111.82 146.936 111.852 145.995 112.531 145.432C117.441 141.352 126.851 134.618 127.25 134.333C127.972 133.813 129.038 133.914 129.623 134.551C129.757 134.696 129.854 134.857 129.917 135.024C130.961 132.739 130.998 130.124 130.008 127.802L128.051 123.218C127.292 121.437 127.156 119.425 127.671 117.553C129.978 109.175 131.1 102.89 130.67 100.74C130.601 100.398 130.652 100.044 130.812 99.7349C134.033 93.5338 135.934 88.3704 135.952 88.3196C136.118 87.8687 136.485 87.5208 136.945 87.3819C137.41 87.243 137.903 87.3282 138.29 87.6119C138.944 88.0906 139.656 88.6112 140.396 89.1509L151.471 76.7029C151.092 76.1477 150.736 75.5967 150.44 75.0602C147.336 69.4474 143.938 63.6898 139.527 60.3794C136.66 58.2277 126.729 51.0605 119.312 49.1701C119.251 49.1547 119.2 49.1253 119.148 49.0957C119.119 49.0795 119.091 49.0633 119.061 49.0494C117.784 52.166 117.102 54.6714 117.092 54.7113C117.068 54.7988 117.024 54.8761 116.98 54.9535C116.966 54.9779 116.952 55.0023 116.938 55.0271L117.095 54.873C117.47 54.5048 117.844 54.1365 118.214 53.7572C118.803 53.1524 119.773 53.1435 120.374 53.7303C120.979 54.3186 120.991 55.2877 120.401 55.8924C117.4 58.9758 110.126 66.04 106.529 66.04C106.459 66.04 106.391 66.037 106.324 66.0325C105.14 65.9385 102.773 65.1008 94.9362 59.4223C90.5702 56.2582 87.6128 51.604 86.6101 46.3182C86.569 46.1024 86.5795 45.8904 86.6259 45.6894C84.9928 45.782 81.8699 46.0903 77.405 47.1096C65.1336 49.9108 53.383 56.0014 43.4214 64.7245C35.5265 71.6394 28.6984 77.9854 26.8661 79.6965V80.0469L36.7157 92.9962L56.1942 82.5291C56.8537 82.1767 57.6669 82.3499 58.122 82.9367L60.5139 86.0127ZM99.4186 189.951C91.5336 194.313 98.5819 208.608 99.3144 210.043C99.818 210.625 104.121 215.454 108.577 217.069L122.747 205.404L115.804 191.392C114.436 190.367 107.331 185.576 99.4186 189.951ZM165.512 272.632L172.104 269.964C171.592 267.199 169.874 260.119 165.357 256.577C157.205 253.113 153.495 257.276 152.516 258.703C154.621 267.55 152.595 268.357 151.815 268.656C151.396 268.817 150.693 268.981 149.873 269.162L149.868 269.163C148.838 269.389 146.122 269.986 145.75 270.609C145.756 270.612 145.767 270.621 145.786 270.636C146.058 270.856 147.878 272.33 158.461 273.573C160.852 273.852 163.294 273.528 165.512 272.632ZM156.365 246.931C153.963 243.793 139.532 224.942 135.464 221.212C131.771 217.824 126.525 210.919 124.379 208.023L110.941 219.083C115.074 224.809 124.145 236.787 127.723 238.9C132.035 241.444 146.254 252.766 150.598 256.245C152.161 254.428 155.49 251.65 161.073 252.253C158.323 249.398 157.002 247.869 156.705 247.374C156.703 247.371 156.686 247.35 156.656 247.31C156.602 247.241 156.506 247.115 156.371 246.939L156.365 246.931ZM115.04 182.031C115.632 181.723 116.36 181.834 116.832 182.316L145.099 211.091C157.303 193.657 169.356 190.177 175.219 189.64L144.585 155.592C136.858 155.303 122.452 161.17 122.305 161.231C121.34 161.521 102.027 167.084 87.0622 164.249C76.5437 162.258 70.8745 164.309 68.7886 165.382C69.9726 169.627 73.2628 180.514 76.8932 184.529C79.9297 187.886 87.9963 197.091 93.547 203.44C92.0728 197.774 91.7967 190.674 97.9414 187.275C104.884 183.435 111.269 185.404 114.892 187.259L114.239 183.662C114.119 183.002 114.445 182.34 115.04 182.031ZM159.536 208.026C157.376 206.98 155.404 205.796 154.316 204.606C152.505 206.483 150.664 208.647 148.807 211.154C151.616 210.505 155.61 209.454 159.536 208.026ZM164.014 206.668C166.16 207.322 167.824 207.82 169.063 208.187C170.607 207.596 175.654 205.556 178.119 203.286C180.588 201.014 179.553 196.423 177.661 192.621C175.146 192.548 166.524 193.14 156.432 202.521C156.434 202.53 156.437 202.537 156.441 202.545L156.444 202.551C156.45 202.561 156.455 202.571 156.457 202.583C156.857 203.226 160.402 205.194 164.014 206.668ZM180.187 205.537C178.441 207.145 175.752 208.589 173.526 209.62L179.827 212.032C187.128 216.238 210.361 229.786 211.952 231.909C212.832 233.084 215.381 234.843 217.097 234.864C217.702 234.852 217.861 234.649 217.934 234.555C218.823 233.428 219.457 228.455 219.611 223.979L217.926 223.768C217.594 223.726 217.283 223.576 217.043 223.34L199.216 205.756C195.668 203.316 187.016 197.47 181.742 194.423C183.316 199.128 182.801 203.13 180.187 205.537ZM241.096 248.946C242.212 249.731 251.161 253.908 254.026 250.671C256.538 247.831 253.13 241.082 251.588 238.686C250.622 237.861 245.355 233.439 240.593 231.003C236.456 228.884 226.739 225.884 222.643 224.661C222.501 228.085 222.014 234.319 220.333 236.45C220.135 236.701 219.911 236.918 219.668 237.106L219.699 237.129L219.729 237.152L219.73 237.153C219.756 237.172 219.783 237.191 219.808 237.211C220.161 237.129 220.542 237.158 220.885 237.347C224.686 239.426 229.408 241.752 230.414 241.886C233.1 242.246 241.032 248.88 241.096 248.946ZM106.584 116C106.693 116 106.805 115.99 106.918 115.967C116.645 114.009 125.335 102.835 125.7 102.361C126.212 101.694 126.053 100.765 125.344 100.283C124.629 99.8004 123.643 99.9501 123.131 100.617C123.049 100.725 114.785 111.339 106.252 113.057C105.396 113.228 104.852 114.02 105.036 114.824C105.195 115.522 105.851 116 106.584 116ZM76.3865 137C76.108 137 75.8263 136.931 75.5682 136.787C68.9173 133.046 68.9944 127.718 69.0007 127.493C69.0274 126.645 69.8537 126.006 70.6563 126C71.5408 126.024 72.2396 126.723 72.2238 127.564C72.2238 127.757 72.2931 131.379 77.2081 134.143C77.9745 134.575 78.2279 135.516 77.7762 136.246C77.4756 136.73 76.9374 137 76.3865 137Z" fill="#D7D9E0"/>
</svg>
