<svg width="88" height="72" viewBox="0 0 88 72" fill="none" xmlns="http://www.w3.org/2000/svg">
<path fill-rule="evenodd" clip-rule="evenodd" d="M40 72H0.0237745V37.6822C-0.158494 32.7476 0.70727 28.1122 2.62109 23.7757C4.53492 19.4392 7.22334 15.6262 10.6864 12.3364C14.1496 9.04671 18.2961 6.31777 23.1262 4.14953C27.9564 1.9813 34.3497 0.598134 40 0V14.8037C33.0738 16.7477 27.1817 19.6261 24.6299 23.4393C22.0782 27.2524 20.8023 31.9252 20.8023 37.4579H40V72ZM88 72H48V37.6822C47.8177 32.7476 48.6835 28.1122 50.5973 23.7757C52.5111 19.4392 55.1996 15.6262 58.6627 12.3364C62.1258 9.04671 66.2723 6.31777 71.1025 4.14953C75.9326 1.9813 82.3497 0.598134 88 0V14.8037C81.0738 16.7477 75.1579 19.6261 72.6062 23.4393C70.0544 27.2524 68.7785 31.9252 68.7785 37.4579H88V72Z" fill="#F0F1F5"/>
</svg>
