<svg width="48" height="48" viewBox="0 0 48 48" fill="none" xmlns="http://www.w3.org/2000/svg">
<circle cx="24" cy="24" r="24" fill="#262B38"/>
<path fill-rule="evenodd" clip-rule="evenodd" d="M33.9218 3.70898L34.3909 4.00353C32.5254 4.84898 25.7509 4.58171 24.8836 4.54353V4.18898C24.8836 4.18898 31.0964 4.31989 33.9218 3.70898ZM36.42 5.27999L34.7236 4.21635C33.6873 4.83272 30.6273 4.96363 28.2218 4.96363C26.6291 4.96363 25.26 4.90908 24.8836 4.89272V6.11453C26.1054 6.26181 33.1036 7.36363 34.8273 13.2927L36.7691 13.0909C36.4582 12.1909 35.0563 7.87635 36.42 5.27999ZM36.7091 5.45455C35.3836 8.02909 36.8945 12.3982 37.1236 13.02L37.6691 12.9545C36.0327 7.91455 37.2927 5.83091 37.2927 5.83091L36.7091 5.45455ZM24.8836 6.46369V7.09096C31.8327 7.9146 33.9218 13.3855 33.9218 13.3855L34.4673 13.3255C32.8091 7.72914 26.1818 6.62187 24.8836 6.46369ZM35.7436 15.1801L37.5655 14.9619C39.8182 21.3546 43.5764 24.8019 43.6909 24.9056L42.9873 27.3492C38.0182 25.5546 33.8073 28.4019 33.2182 28.8274L31.8545 26.5583C37.1564 22.7292 36 16.3637 35.7436 15.1801ZM41.7327 22.1399C42.3547 22.9954 43.0442 23.7998 43.7945 24.5453L43.9473 23.9999C42.18 22.9744 38.2254 14.8799 38.2254 14.8799L37.9145 14.9181C38.8273 17.4991 40.1138 19.9322 41.7327 22.1399ZM34.8545 15.2892L35.4 15.2237C35.6291 16.2164 36.84 22.5055 31.6909 26.2637L31.4345 25.8437C31.4345 25.8437 36.2727 22.2819 34.8545 15.2892ZM42.8891 27.6763C37.98 25.909 33.8236 28.8163 33.3927 29.1272L33.6927 29.6181C38.9672 26.4054 42.7091 28.3308 42.7091 28.3308L42.8945 27.6818L42.8891 27.6763ZM47.6072 25.3091C47.6072 25.3091 47.5963 25.4291 47.5691 25.6363C46.5933 26.0195 45.431 25.5797 45.0545 25.4372C45.029 25.4276 45.0071 25.4193 44.9891 25.4127L45.0927 25.0581C45.0927 25.0581 45.8018 25.6691 47.6072 25.3091ZM46.6636 26.1327C46.0534 26.1185 45.4523 25.9812 44.8964 25.729L44.2145 28.1454C44.3454 28.2872 46.2982 30.529 45.3054 34.3581C46.7345 31.4072 47.3345 27.5618 47.5254 26.0018C47.2465 26.0888 46.9559 26.1329 46.6636 26.1327ZM44.4327 35.8308L44.3891 35.9345L44.3018 36.0654C44.3018 36.0654 46.0636 31.4781 43.9527 29.0945L44.1055 28.549C44.5001 29.0769 44.7958 29.672 44.9782 30.3054C45.3273 31.4672 45.5236 33.3654 44.4327 35.8308ZM17.9236 27.9655C17.9836 28.0092 24.0546 32.3292 30.3273 27.9655L29.7545 27.0983C24.1909 31.1292 18.3491 27.2837 18.3491 27.2837L17.9127 27.9655H17.9236ZM30.5454 28.2491L31.6364 29.9509C28.2477 32.5211 25.905 36.2318 25.0418 40.3964H22.6418C21.6523 34.2133 16.6399 30.5372 16.3995 30.3609L16.3909 30.3546L17.7273 28.2491C18.93 29.043 20.263 29.6191 21.6654 29.9509C22.5193 30.1567 23.3944 30.2611 24.2727 30.2618C26.5223 30.2613 28.7155 29.5576 30.5454 28.2491ZM16.2054 30.6437L15.8782 31.1892C20.7273 34.7128 21.6709 40.3965 21.6709 40.3965H22.3036C21.3054 34.3256 16.3636 30.7419 16.2054 30.6437ZM25.4073 40.3963C26.2681 36.3524 28.5472 32.7499 31.8327 30.24L32.2636 30.8891C29.2503 33.3333 27.0747 36.6568 26.04 40.3963H25.4073ZM3.81817 28.4782C3.30545 29.0563 1.63635 31.3527 3.29999 35.3836L3.33817 35.4873H3.28908C3.38726 35.64 3.48545 35.7873 3.58908 35.9291C3.58908 35.9291 1.87635 31.4563 3.98726 29.0727L3.81817 28.4782ZM3.71454 28.0909C3.20118 28.6103 2.81477 29.2412 2.58545 29.9345C2.14779 31.284 2.12499 32.7338 2.51999 34.0964C1.17817 31.2109 0.649083 27.5782 0.479992 26.0455C0.79996 26.107 1.12506 26.1381 1.4509 26.1382C2.00416 26.1356 2.55456 26.0586 3.08726 25.9091L3.71454 28.0909ZM0.430882 25.6637C1.28215 25.829 2.16037 25.7917 2.99452 25.5546L2.8527 25.0419C2.8527 25.0419 2.18179 25.6365 0.3927 25.2874C0.3927 25.2874 0.3927 25.4237 0.430882 25.6637ZM22.9636 4.909V6.16354C22.0909 6.26718 14.7273 7.31445 12.9764 13.2817L11.0236 13.0581C11.3236 12.1854 12.7091 7.83263 11.3836 5.30172L13.2491 4.12899C14.5309 4.76718 18.0709 4.909 20.8855 4.909H22.9636ZM22.9582 4.53808V4.18898C22.9582 4.18898 16.7454 4.31989 13.92 3.70898L13.5982 3.9108C15.3109 4.5708 20.3454 4.61444 22.9582 4.53808ZM11.0891 5.49263C12.3818 7.99627 10.8982 12.4035 10.6745 13.0254L10.1673 12.9654C11.7873 7.92536 10.5436 5.84172 10.5436 5.84172L11.0891 5.49263ZM13.3309 13.331L13.9254 13.3965C13.9254 13.3965 16.0091 7.92555 22.9636 7.09101V6.50737C21.9764 6.63282 15.0218 7.68555 13.3309 13.331ZM10.3636 14.9728L12.0927 15.1801C11.8745 16.1074 10.5709 22.7019 15.9873 26.5692L14.6291 28.8328C14.0127 28.4074 9.72 25.6092 4.84909 27.3165L4.16727 24.9383C6.96435 22.1314 9.08366 18.723 10.3636 14.9728ZM12.4418 15.2181C12.2727 15.8999 10.8546 22.4563 16.1673 26.2745L16.4236 25.8436C16.4236 25.8436 11.5909 22.2818 13.0091 15.2727L12.4418 15.2181ZM5.13817 28.3309L4.94181 27.6491C9.75454 25.9505 13.9587 28.7838 14.4735 29.1308L14.4763 29.1327L14.1818 29.6182C8.87999 26.4054 5.13817 28.3309 5.13817 28.3309ZM9.99273 14.9291L9.61637 14.8855C9.61637 14.8855 5.66727 22.98 3.9 24L4.05818 24.5455C6.71557 21.8124 8.74132 18.5299 9.99273 14.9291ZM30.6873 46.5927C28.8218 46.5055 27.42 45.9491 26.5145 44.9564C25.8282 44.1818 25.4329 43.1925 25.3964 42.1582H25.9145C26.0236 46.3637 31.3309 46.3637 31.3309 46.3637L30.6873 46.5927ZM21.9545 42.1744H21.48C21.48 42.1744 20.6618 46.2981 15.8782 46.2708C15.8782 46.2708 16.3254 46.4454 17.1109 46.669C18.2875 46.522 19.3881 46.009 20.2572 45.2025C21.1264 44.396 21.7201 43.3368 21.9545 42.1744ZM25.1673 42.1744C25.2011 43.2601 25.6163 44.2991 26.34 45.109C27.3461 46.1203 28.6903 46.7244 30.1145 46.8054C25.0691 48.3326 20.1382 47.4708 17.6182 46.8054C18.7437 46.5539 19.773 45.9834 20.5827 45.1621C21.3924 44.3407 21.9482 43.3035 22.1836 42.1744H25.1673Z" fill="white" fill-opacity="0.24"/>
<path fill-rule="evenodd" clip-rule="evenodd" d="M31.7947 1.59664L31.6582 1.55047L31.6551 1.54943L31.6462 1.54644L31.6116 1.53501C31.5812 1.52505 31.5364 1.51052 31.4783 1.49212C31.3622 1.45534 31.1929 1.40308 30.9798 1.34097C30.5536 1.21677 29.9514 1.05305 29.2472 0.894808C27.8428 0.579216 26.0231 0.283258 24.3808 0.370445L24.3733 0.370171L24.3331 0.368864C24.2979 0.367796 24.246 0.366399 24.1791 0.365068C24.0451 0.362406 23.8506 0.360009 23.6076 0.361037C23.1217 0.363092 22.4416 0.378845 21.6641 0.433646C20.1122 0.543033 18.1601 0.808732 16.5911 1.43858L16.4474 1.49625L16.5227 1.63149C16.6263 1.81739 16.7645 1.98027 16.9288 2.11196C13.5036 2.95118 11.2208 4.47665 9.78608 5.80987C9.05065 6.4933 8.53855 7.12573 8.20971 7.58851C8.04529 7.8199 7.92664 8.00893 7.84877 8.14079C7.83168 8.16973 7.81655 8.19592 7.80333 8.21919C7.75863 8.19061 7.70381 8.16222 7.63717 8.13726C7.40158 8.04901 7.02697 8.00664 6.4398 8.13587L6.44026 8.13799C6.4218 8.14262 6.40486 8.14884 6.39905 8.15203C6.39471 8.15473 6.38802 8.15935 6.38552 8.16123C6.38114 8.16461 6.37779 8.1676 6.37652 8.16875C6.37342 8.17154 6.3706 8.17429 6.36875 8.17612L6.35414 8.19106C6.34288 8.20284 6.32704 8.21978 6.30703 8.24164C6.26692 8.28546 6.20901 8.35015 6.13569 8.43475C5.98902 8.60399 5.78019 8.85345 5.52816 9.17583C5.02413 9.82051 4.34679 10.7574 3.64793 11.928C2.25094 14.268 0.764096 17.5482 0.409714 21.298L0.402588 21.3734L0.463248 21.4196L0.464286 21.4204L0.468222 21.4234L0.483322 21.4348C0.496517 21.4447 0.515862 21.4592 0.540692 21.4775C0.590346 21.5142 0.661971 21.5665 0.750237 21.6291C0.926642 21.7544 1.17013 21.9217 1.43793 22.0892C1.70527 22.2564 1.9993 22.4254 2.2764 22.5531C2.49488 22.6537 2.71436 22.7342 2.90677 22.7621C2.91279 22.8051 2.92068 22.8603 2.93051 22.9266C2.95639 23.1014 2.99568 23.3538 3.04941 23.6651C3.15684 24.2876 3.32211 25.1459 3.5535 26.0897C4.01465 27.9704 4.74395 30.2144 5.81597 31.5947L5.89962 31.7024L6.11501 31.5351L6.03137 31.4274C4.99793 30.0968 4.27905 27.9035 3.81838 26.0247C3.58886 25.0886 3.42482 24.2367 3.31816 23.6187C3.26484 23.3098 3.22589 23.0595 3.20029 22.8867C3.18756 22.8007 3.17813 22.7338 3.17188 22.6885L3.17695 22.6651L3.17707 22.6645L3.17765 22.6619L3.1801 22.651L3.19027 22.6069C3.19944 22.568 3.21344 22.5101 3.23259 22.4352C3.2709 22.2855 3.32981 22.0678 3.41192 21.7972C3.5762 21.256 3.83314 20.5041 4.20347 19.6626C4.94357 17.9808 6.13157 15.9524 7.92754 14.527C7.94572 14.5222 7.96907 14.5161 7.99758 14.5093C8.07914 14.4897 8.2029 14.4633 8.36857 14.437C8.69988 14.3842 9.19895 14.3317 9.86337 14.3343C11.1764 14.3397 13.1368 14.561 15.7259 15.4253C15.7411 15.9426 15.9447 16.7208 16.2348 17.5904C16.5468 18.5255 16.9662 19.5871 17.3861 20.5857C17.8062 21.5846 18.2275 22.5224 18.5438 23.2103C18.7019 23.5542 18.8338 23.8359 18.9262 24.0315C18.9724 24.1294 19.0088 24.2057 19.0336 24.2577L19.0375 24.266L19.0351 24.2696L18.9012 24.4657C18.7854 24.6357 18.6187 24.8808 18.4153 25.1816C18.0086 25.7832 17.455 26.6074 16.8676 27.4981C15.6947 29.2764 14.3809 31.3288 13.8367 32.3979L13.7748 32.5195L14.0179 32.6432L14.0798 32.5216C14.6156 31.469 15.9199 29.4304 17.0952 27.6483C17.6819 26.7587 18.2349 25.9354 18.6412 25.3344C18.8444 25.0339 19.0109 24.789 19.1266 24.6193L19.2602 24.4235L19.2664 24.4144H28.9055L28.9091 24.4194C28.9382 24.4591 28.981 24.5177 29.0359 24.5933C29.1457 24.7446 29.3037 24.9642 29.4967 25.2367C29.8828 25.7819 30.4084 26.5389 30.9668 27.3866C32.0863 29.0859 33.328 31.1353 33.8481 32.5718L33.8946 32.7L34.151 32.6072L34.1046 32.479C33.572 31.0082 32.3128 28.9339 31.1945 27.2365C30.6341 26.3857 30.1066 25.6261 29.7193 25.0791C29.5256 24.8056 29.367 24.5852 29.2567 24.4332C29.2054 24.3625 29.1645 24.3065 29.1355 24.2669C30.7817 21.2078 31.5 18.845 31.8058 17.2392C31.9599 16.4298 32.0091 15.813 32.0195 15.3968C32.0247 15.1887 32.0202 15.0307 32.0143 14.9239L32.0116 14.879C32.0461 14.8701 32.0883 14.8594 32.1377 14.8471C32.2906 14.8089 32.5121 14.7556 32.7858 14.6953C33.3333 14.5745 34.0886 14.4258 34.9205 14.3136C35.7528 14.2014 36.6588 14.1261 37.5084 14.1511C38.3602 14.1762 39.1437 14.3019 39.738 14.5833L39.7562 14.5919L39.7632 14.5992C39.791 14.6282 39.8322 14.6716 39.885 14.7285C39.9905 14.8424 40.1426 15.0105 40.3276 15.2266C40.6977 15.6589 41.1996 16.2827 41.7254 17.0478C42.7309 18.5107 43.8183 20.4816 44.2474 22.6124L44.2228 22.6174L44.25 22.751L44.2522 22.7618C44.3105 23.0474 44.4387 23.6758 44.1756 24.9858C43.9082 26.3177 43.2359 28.3553 41.671 31.4496L41.6095 31.5712L41.8529 31.6943L41.9144 31.5726C43.4859 28.4651 44.1691 26.4035 44.443 25.0395C44.6527 23.9952 44.6223 23.3605 44.5681 22.9811C45.8604 22.3398 46.873 21.2456 47.412 19.9055L47.2855 19.8546H47.4219V19.1502L47.3192 19.4055L47.3123 19.3781C47.2413 19.0933 47.1342 18.685 46.99 18.1902C46.7017 17.201 46.2644 15.8647 45.6687 14.4778C45.0734 13.0917 44.3179 11.6503 43.3916 10.4538C42.4677 9.26035 41.3657 8.29981 40.0729 7.89021C37.95 5.06227 34.9199 3.05162 31.4924 2.19346C31.5278 2.15029 31.5581 2.10569 31.5837 2.06361C31.6594 1.93952 31.7091 1.81242 31.7333 1.75028L31.7333 1.75026L31.7412 1.73032L31.7947 1.59664ZM31.1782 2.11774L31.1697 2.11572L31.1676 2.12456C31.1462 2.13772 31.1244 2.1477 31.1022 2.1541L31.0982 2.15535C30.6904 2.28688 30.0377 2.38814 29.2778 2.46479C28.521 2.54113 27.6686 2.59212 26.8674 2.62616C26.0665 2.66018 25.3181 2.6772 24.7699 2.68571C24.4958 2.68997 24.2719 2.69209 24.1165 2.69315L24.0093 2.69379L24.0093 2.69287L23.9015 2.69417L23.8904 2.6942L23.8772 2.69422C19.2273 2.51468 17.9773 2.28627 17.3447 2.05596L17.3354 2.05127L17.3277 2.01807L17.2895 2.02688C17.114 1.92929 16.9625 1.7943 16.8456 1.63192C18.3482 1.06063 20.1908 0.810895 21.6833 0.705698C22.4535 0.651408 23.1275 0.635797 23.6087 0.633761C23.8493 0.632744 24.0417 0.635119 24.1736 0.637741C24.2396 0.639053 24.2905 0.640425 24.3248 0.641466L24.3636 0.642729L24.3734 0.643082L24.3764 0.643199L24.3828 0.643454L24.3892 0.643112C25.9961 0.556834 27.79 0.84689 29.1874 1.1609C29.885 1.31765 30.4815 1.47985 30.9035 1.60281C31.1144 1.66427 31.2816 1.71591 31.396 1.75212L31.4327 1.76381C31.4109 1.81276 31.3839 1.86753 31.3509 1.92165C31.2987 2.00726 31.2405 2.07597 31.1782 2.11774ZM31.2102 2.40561L31.2395 2.41254C34.7014 3.23279 37.7637 5.24626 39.8889 8.09949L39.8907 8.10194L39.8939 8.28587C39.8967 8.45475 39.9003 8.69636 39.9035 8.98719C39.9101 9.56891 39.9154 10.3472 39.9103 11.1339C39.9052 11.9212 39.8897 12.715 39.8548 13.3284C39.8374 13.6356 39.8153 13.8945 39.7877 14.0837C39.7752 14.1697 39.762 14.2382 39.7486 14.2889C39.1212 14.0184 38.3369 13.9026 37.5165 13.8785C36.6468 13.8529 35.7249 13.9299 34.884 14.0433C34.0427 14.1568 33.2797 14.3071 32.7271 14.4289C32.4507 14.4899 32.2267 14.5438 32.0717 14.5824C32.0044 14.5992 31.9501 14.6132 31.9101 14.6236C30.4292 13.0296 28.4667 11.7496 26.8724 10.8667C26.0642 10.4191 25.3485 10.0724 24.8346 9.83745C24.5777 9.71997 24.3711 9.63041 24.2285 9.57012C24.1729 9.5466 24.127 9.52754 24.0917 9.51301L24.0126 2.9665L24.1184 2.96588C24.2744 2.96481 24.4992 2.96267 24.7741 2.95841C25.324 2.94987 26.0749 2.9328 26.879 2.89864C27.6828 2.86449 28.5411 2.81322 29.3051 2.73614C30.065 2.6595 30.7422 2.5564 31.18 2.41552C31.1903 2.41251 31.2003 2.4092 31.2102 2.40561ZM17.2561 2.31446L17.257 2.31426C17.9326 2.5589 19.2161 2.78402 23.7398 2.9619L23.8189 9.50916C20.6815 10.6234 17.9121 12.5814 15.8153 15.1676C13.1983 14.2936 11.2082 14.0671 9.86448 14.0616C9.18504 14.0589 8.67127 14.1126 8.3257 14.1676C8.16248 14.1936 8.03681 14.2199 7.94898 14.2405C7.4411 12.3552 7.45336 10.3665 7.98577 8.4862L8.00134 8.43121L7.99947 8.42792L8.00184 8.42352C8.01944 8.39095 8.04648 8.34233 8.0836 8.27948C8.15784 8.15378 8.27234 7.97122 8.43203 7.74648C8.75143 7.29698 9.25149 6.67896 9.97174 6.00966C11.4116 4.67165 13.7333 3.1268 17.2561 2.31446ZM7.67188 8.47235L7.67667 8.46268C7.64628 8.44086 7.60251 8.41551 7.5415 8.39266C7.3735 8.32972 7.06644 8.28284 6.53783 8.39375L6.50821 8.42579C6.46995 8.46758 6.41369 8.5304 6.34179 8.61337C6.19801 8.77926 5.99212 9.02518 5.74302 9.3438C5.24477 9.9811 4.57416 10.9086 3.8821 12.0678C2.50679 14.3715 1.05062 17.5836 0.688582 21.2477L0.702747 21.2581C0.751211 21.2939 0.821447 21.3452 0.908152 21.4068C1.08169 21.53 1.32059 21.6941 1.58256 21.858C1.84499 22.0221 2.12812 22.1845 2.39051 22.3054C2.60275 22.4031 2.79023 22.4684 2.93757 22.4911C2.94586 22.4569 2.9561 22.4156 2.96837 22.3677C3.00758 22.2144 3.06756 21.9928 3.15095 21.718C3.3177 21.1687 3.57826 20.4062 3.95384 19.5528C4.69218 17.875 5.87986 15.8342 7.68314 14.3734L7.66681 14.3224L7.68686 14.316C7.17173 12.4069 7.17686 10.3944 7.70227 8.48741L7.67188 8.47235ZM40.1654 8.20958L40.1666 8.28138C40.1694 8.45066 40.173 8.69275 40.1762 8.98411C40.1828 9.56677 40.1881 10.3468 40.183 11.1357C40.1779 11.9242 40.1623 12.7234 40.1271 13.3439C40.1095 13.6537 40.0869 13.9219 40.0576 14.123C40.043 14.2232 40.0262 14.3106 40.0064 14.3795C40.0006 14.3999 39.9942 14.4198 39.987 14.4386C40.0131 14.4661 40.046 14.5011 40.085 14.5431C40.1927 14.6594 40.3472 14.8302 40.5348 15.0493C40.9098 15.4873 41.4178 16.1188 41.9501 16.8933C42.9856 18.3997 44.1196 20.4564 44.5403 22.6894C45.7156 22.0785 46.6385 21.0706 47.1431 19.8427L47.1264 19.77C47.1091 19.6952 47.0829 19.585 47.0477 19.4441C46.9774 19.1623 46.8713 18.7574 46.7282 18.2665C46.4419 17.2844 46.0082 15.9592 45.4181 14.5855C44.8278 13.211 44.083 11.7924 43.176 10.6208C42.3133 9.50635 41.3113 8.62498 40.1654 8.20958ZM16.4935 17.5041C16.1924 16.6015 16.0005 15.8406 15.9978 15.3756C18.076 12.7986 20.8306 10.851 23.953 9.75099L23.9613 9.75434C23.9979 9.76926 24.0521 9.79165 24.1223 9.82132C24.2627 9.88068 24.4669 9.96919 24.7213 10.0855C25.2301 10.3181 25.9394 10.6617 26.7403 11.1053C28.333 11.9873 30.2795 13.26 31.7346 14.8354C31.7368 14.8595 31.7395 14.894 31.742 14.939C31.7475 15.0386 31.7519 15.1892 31.7469 15.3899C31.7368 15.7914 31.6892 16.3934 31.5379 17.1882C31.2376 18.7654 30.5286 21.1034 28.8932 24.1417H19.2804L19.2797 24.1402C19.255 24.0885 19.2189 24.0125 19.1729 23.9151C19.0808 23.7201 18.9493 23.4394 18.7916 23.0963C18.4761 22.4102 18.0561 21.4753 17.6375 20.4799C17.2188 19.4842 16.8023 18.4298 16.4935 17.5041ZM29.2413 40.648L29.1101 40.6854C26.636 41.3899 24.047 41.389 22.0809 41.2137C21.097 41.126 20.2671 40.9944 19.6827 40.8846C19.3905 40.8297 19.1597 40.7803 19.0015 40.7445C18.9224 40.7266 18.8616 40.7121 18.8203 40.7021L18.7732 40.6904L18.7611 40.6874L18.7579 40.6865L18.757 40.6863L18.791 40.5542C18.7567 40.6862 18.757 40.6863 18.757 40.6863L18.6247 40.652L18.6932 40.388L18.8252 40.4223L18.826 40.4224L18.8287 40.4231L18.8398 40.426L18.8848 40.4371C18.9247 40.4468 18.9842 40.461 19.0617 40.4785C19.2169 40.5136 19.4445 40.5624 19.7331 40.6166C20.3104 40.725 21.1315 40.8552 22.1051 40.9421C24.054 41.1158 26.6059 41.1149 29.0354 40.4231L29.1666 40.3857L29.2413 40.648Z" fill="white" fill-opacity="0.48"/>
<path fill-rule="evenodd" clip-rule="evenodd" d="M41.8712 31.3306L41.9206 31.4635C42.0993 31.9442 42.2097 32.6596 42.2774 33.4505C42.3453 34.2448 42.3709 35.1278 42.375 35.951C42.3791 36.7744 42.3617 37.5397 42.3433 38.099C42.334 38.3787 42.3245 38.607 42.3174 38.7655C42.3138 38.8447 42.3108 38.9065 42.3086 38.9485L42.3062 38.9965L42.3053 39.0119L42.3053 39.0127C42.3053 39.0128 42.3053 39.013 42.1691 39.0055L42.3053 39.0127L42.3029 39.0563L42.276 39.0902C40.8022 40.9489 38.8644 42.4933 37.2992 43.5715C36.5159 44.111 35.8243 44.5349 35.3283 44.824C35.0802 44.9686 34.881 45.0795 34.7436 45.1544C34.6749 45.1918 34.6216 45.2203 34.5854 45.2394C34.5673 45.249 34.5535 45.2562 34.5441 45.2611L34.5334 45.2667L34.5307 45.2681L34.5299 45.2685C34.5299 45.2685 34.5296 45.2686 34.4673 45.1473L34.5299 45.2685L34.4741 45.2971L34.4163 45.2738C32.7549 44.6037 31.3906 43.4405 30.4442 42.4502C29.9703 41.9543 29.5996 41.5 29.3471 41.1694C29.2208 41.004 29.124 40.8695 29.0586 40.776C29.0259 40.7292 29.001 40.6927 28.9842 40.6678C28.9759 40.6553 28.9695 40.6457 28.9651 40.6392L28.9602 40.6316L28.9589 40.6296L28.9585 40.6291C28.9585 40.629 28.9583 40.6288 29.0728 40.5546L28.9585 40.6291L28.8979 40.5356L28.9769 40.4576C30.5605 38.893 31.7786 36.9 32.6019 35.2936C33.0131 34.4911 33.3249 33.787 33.5337 33.2837C33.6382 33.0321 33.7168 32.8307 33.7693 32.6926C33.7956 32.6235 33.8152 32.5702 33.8283 32.5343L33.843 32.4937L33.8466 32.4836L33.8475 32.4811L33.8477 32.4805L33.8802 32.3877L33.9784 32.3892C36.5675 32.4272 38.5119 32.1745 39.8069 31.9132C40.4545 31.7826 40.9397 31.6497 41.2621 31.55C41.4234 31.5001 41.5439 31.4585 41.6236 31.4295C41.6634 31.415 41.6931 31.4037 41.7126 31.3962L41.7341 31.3876L41.7391 31.3856L41.7402 31.3851M41.7402 31.3851L41.8712 31.3306L41.7402 31.3851ZM34.0716 32.6632C34.0592 32.6967 34.0434 32.739 34.0243 32.7894C33.9709 32.9299 33.8912 33.1338 33.7856 33.3882C33.5745 33.8969 33.2597 34.6079 32.8446 35.4179C32.0289 37.0095 30.8224 38.9909 29.2488 40.5717C29.2587 40.5861 29.2698 40.6021 29.2821 40.6196C29.3455 40.7103 29.44 40.8417 29.5638 41.0038C29.8114 41.3281 30.1757 41.7745 30.6414 42.2618C31.5628 43.226 32.8749 44.3437 34.4602 44.9972C34.4953 44.9785 34.5468 44.951 34.6131 44.9149C34.7484 44.8412 34.9453 44.7315 35.1909 44.5884C35.6822 44.302 36.3678 43.8818 37.1445 43.3469C38.6896 42.2826 40.5887 40.7683 42.0352 38.9548L42.0363 38.9348C42.0384 38.8932 42.0414 38.8319 42.0449 38.7532C42.0521 38.5957 42.0615 38.3685 42.0707 38.09C42.089 37.533 42.1064 36.7714 42.1023 35.9523C42.0982 35.133 42.0727 34.2579 42.0056 33.4737C41.9446 32.7593 41.8497 32.1304 41.7095 31.6885C41.6259 31.7187 41.5036 31.7607 41.3428 31.8105C41.0118 31.9129 40.5177 32.048 39.8609 32.1805C38.5636 32.4423 36.6322 32.6939 34.0716 32.6632Z" fill="white" fill-opacity="0.48"/>
<path fill-rule="evenodd" clip-rule="evenodd" d="M5.98623 31.3306L5.93684 31.4635C5.75814 31.9442 5.64767 32.6596 5.58004 33.4505C5.51211 34.2448 5.48649 35.1278 5.48239 35.951C5.47828 36.7744 5.49572 37.5397 5.51416 38.099C5.52339 38.3787 5.53287 38.607 5.54005 38.7655C5.54364 38.8447 5.54666 38.9065 5.54878 38.9485L5.55125 38.9965L5.55208 39.0119L5.55212 39.0127C5.55212 39.0128 5.55214 39.013 5.6883 39.0055L5.55212 39.0127L5.55452 39.0563L5.58144 39.0902C7.0552 40.9489 8.99298 42.4933 10.5582 43.5715C11.3415 44.111 12.0332 44.5349 12.5292 44.824C12.7772 44.9686 12.9764 45.0795 13.1138 45.1544C13.1825 45.1918 13.2358 45.2203 13.272 45.2394C13.2901 45.249 13.3039 45.2562 13.3133 45.2611L13.324 45.2667L13.3268 45.2681L13.3275 45.2685C13.3276 45.2685 13.3278 45.2686 13.3901 45.1473L13.3275 45.2685L13.3833 45.2971L13.4411 45.2738C15.1025 44.6037 16.4668 43.4405 17.4132 42.4502C17.8871 41.9543 18.2579 41.5 18.5104 41.1694C18.6366 41.004 18.7334 40.8695 18.7988 40.776C18.8315 40.7292 18.8564 40.6927 18.8732 40.6678C18.8816 40.6553 18.8879 40.6457 18.8923 40.6392L18.8972 40.6316L18.8985 40.6296L18.8989 40.6291C18.8989 40.629 18.8991 40.6288 18.7847 40.5546L18.8989 40.6291L18.9595 40.5356L18.8805 40.4576C17.297 38.893 16.0788 36.9 15.2556 35.2936C14.8443 34.4911 14.5326 33.787 14.3237 33.2837C14.2192 33.0321 14.1406 32.8307 14.0881 32.6926C14.0619 32.6235 14.0422 32.5702 14.0291 32.5343L14.0144 32.4937L14.0108 32.4836L14.01 32.4811L14.0098 32.4805L13.9772 32.3877L13.879 32.3892C11.2899 32.4272 9.3455 32.1745 8.05049 31.9132C7.40296 31.7826 6.91769 31.6497 6.59528 31.55C6.43407 31.5001 6.31357 31.4585 6.23385 31.4295C6.19399 31.415 6.16432 31.4037 6.14486 31.3962L6.12333 31.3876L6.1183 31.3856L6.11722 31.3851M6.11722 31.3851L5.98623 31.3306L6.11722 31.3851ZM13.7859 32.6632C13.7982 32.6967 13.814 32.739 13.8331 32.7894C13.8865 32.9299 13.9662 33.1338 14.0718 33.3882C14.2829 33.8969 14.5977 34.6079 15.0128 35.4179C15.8285 37.0095 17.0351 38.9909 18.6086 40.5717C18.5987 40.5861 18.5876 40.6021 18.5754 40.6196C18.5119 40.7103 18.4174 40.8417 18.2936 41.0038C18.046 41.3281 17.6817 41.7745 17.2161 42.2618C16.2946 43.226 14.9825 44.3437 13.3973 44.9972C13.3621 44.9785 13.3106 44.951 13.2443 44.9149C13.109 44.8412 12.9121 44.7315 12.6665 44.5884C12.1753 44.302 11.4896 43.8818 10.7129 43.3469C9.1678 42.2826 7.26876 40.7683 5.82219 38.9548L5.82116 38.9348C5.81906 38.8932 5.81607 38.8319 5.8125 38.7532C5.80537 38.5957 5.79593 38.3685 5.78674 38.09C5.76837 37.533 5.75103 36.7714 5.75511 35.9523C5.75919 35.133 5.78471 34.2579 5.85177 33.4737C5.91287 32.7593 6.00772 32.1304 6.1479 31.6885C6.23155 31.7187 6.35382 31.7607 6.51466 31.8105C6.8456 31.9129 7.33977 32.048 7.99655 32.1805C9.29382 32.4423 11.2252 32.6939 13.7859 32.6632Z" fill="white" fill-opacity="0.48"/>
</svg>
