<svg width="368" height="240" viewBox="0 0 368 240" fill="none" xmlns="http://www.w3.org/2000/svg">
<g opacity="0.16">
<mask id="mask0" mask-type="alpha" maskUnits="userSpaceOnUse" x="0" y="0" width="368" height="240">
<rect width="368" height="240" fill="white"/>
</mask>
<g mask="url(#mask0)">
<path d="M277.745 83.6947C286.925 105.4 280.222 147.543 245.25 159.053C221.593 166.839 105.82 168.462 103.67 149.781C101.519 131.1 88.3955 51.1554 118.256 38.0478C163.048 18.3864 268.564 61.989 277.745 83.6947Z" fill="#CCFFDA"/>
<path d="M293.962 87.5215L293.206 87.2602L293.203 87.2688L293.2 87.2775L293.962 87.5215ZM293.962 87.5215C293.2 87.2775 293.2 87.2776 293.2 87.2779L293.2 87.279L293.199 87.2833L293.193 87.3005L293.171 87.3684L293.123 87.5188L292.936 87.4636L257.498 77.0179L256.756 76.799L256.513 77.5342L247.899 103.595C247.63 103.644 247.27 103.724 246.838 103.852C245.882 104.134 244.574 104.65 243.127 105.587C240.221 107.47 236.805 111.018 234.52 117.654C230.895 128.023 234.928 134.498 236.546 136.078C236.795 136.321 237.138 136.405 237.464 136.319C237.72 136.25 237.905 136.094 238.013 135.987C238.241 135.764 238.455 135.434 238.652 135.086C238.745 134.922 238.842 134.739 238.942 134.54C238.684 135.254 238.431 135.945 238.184 136.608C236.849 140.177 234.421 146.775 232.327 152.546C231.28 155.432 230.316 158.114 229.613 160.107C229.262 161.104 228.974 161.931 228.775 162.528C228.675 162.826 228.595 163.071 228.54 163.253C228.528 163.293 228.517 163.33 228.507 163.366C228.493 163.412 228.481 163.455 228.471 163.494C228.462 163.528 228.453 163.566 228.446 163.604C228.441 163.628 228.426 163.705 228.426 163.797C228.426 164.016 228.512 164.175 228.563 164.252C228.617 164.333 228.675 164.39 228.71 164.422C228.781 164.485 228.853 164.53 228.896 164.556C228.99 164.612 229.103 164.665 229.212 164.713C229.439 164.813 229.755 164.935 230.136 165.074C230.905 165.353 231.997 165.72 233.306 166.145C235.926 166.997 239.442 168.09 243.037 169.191C247.544 170.572 252.164 171.962 255.314 172.91C257.199 173.477 258.558 173.886 259.051 174.04L259.077 174.048L259.103 174.054C260.002 174.269 260.868 174.591 261.684 175.013L256.171 189.984L255.944 189.914L253.25 189.071C250.928 188.344 247.61 187.305 243.623 186.056C235.65 183.557 225.004 180.217 214.314 176.851C203.623 173.485 192.89 170.094 184.741 167.493C182.792 166.871 180.992 166.294 179.375 165.774L185.476 125.199C188.811 125.494 191.684 125.027 193.443 124.736C195.735 124.356 198.581 122.894 201.185 120.729C203.801 118.553 206.248 115.603 207.691 112.159L207.692 112.158C209.754 107.215 210.369 103.73 209.973 100.731C209.579 97.7412 208.188 95.3395 206.509 92.5957L206.506 92.5923C204.887 89.9756 201.94 87.6976 199.484 86.1015C198.242 85.2947 197.098 84.6451 196.265 84.197C195.848 83.9728 195.507 83.7986 195.27 83.6798C195.151 83.6205 195.059 83.5749 194.995 83.544L194.921 83.5085L194.901 83.4991L194.896 83.4965L194.894 83.4957L194.894 83.4955C194.894 83.4954 194.893 83.4953 194.552 84.219L194.893 83.4953L194.081 83.1125L193.794 83.9637L189.969 95.3237L191.713 83.7278C192.405 83.6807 192.996 83.5425 193.51 83.2942C194.733 82.7033 195.34 81.5767 195.922 80.2768L195.923 80.2742C197.111 77.5915 200.081 68.3923 202.734 59.9375C204.066 55.6941 205.325 51.6155 206.25 48.5979C206.713 47.089 207.093 45.8453 207.357 44.9787C207.489 44.5454 207.592 44.2064 207.662 43.9757L207.742 43.7126L207.762 43.6452L207.768 43.6281L207.769 43.6238L207.769 43.6227C207.769 43.6226 207.769 43.6225 207.698 43.6009L207.769 43.6223L208 42.8624L207.241 42.6265L198.311 39.8481L207.101 -18.6034C207.113 -17.6815 207.127 -16.6514 207.143 -15.5319C207.212 -10.698 207.319 -4.19383 207.474 2.48601C207.628 9.16482 207.829 16.0238 208.085 21.5656C208.213 24.336 208.355 26.7831 208.512 28.7166C208.667 30.6238 208.841 32.0999 209.049 32.8814C210.908 39.9165 215.685 46.0806 220.803 48.0977C223.248 49.0615 235.74 52.8735 247.728 56.4902C252.34 57.8817 256.879 59.2445 260.761 60.4104C267.021 62.2899 271.576 63.6578 271.991 63.8098C272.254 63.9059 273.351 64.2621 274.959 64.784C277.696 65.6722 281.911 67.0403 286.006 68.4232C289.275 69.5272 292.481 70.6449 294.849 71.5511C296.036 72.0054 296.995 72.3999 297.641 72.7086C297.823 72.7952 297.97 72.8707 298.086 72.9348C297.708 74.1195 296.661 77.2014 295.62 80.243C295.008 82.0305 294.404 83.7848 293.954 85.0923C293.765 85.6408 293.603 86.1106 293.479 86.4712L293.411 86.6666L293.26 87.1054L293.22 87.2207L293.21 87.2502L293.207 87.2577L293.206 87.2595L293.206 87.26C293.206 87.2601 293.206 87.2602 293.962 87.5215ZM259.826 190.969C259.812 190.988 259.797 191.007 259.782 191.027C260.006 190.099 260.382 188.792 260.965 186.989C262.51 182.211 263.494 179.332 264.091 177.65C264.389 176.81 264.59 176.269 264.715 175.941C264.751 175.847 264.781 175.77 264.805 175.709C264.823 175.664 264.837 175.628 264.849 175.599C264.862 175.565 264.872 175.542 264.878 175.528L264.884 175.514L264.884 175.513L264.884 175.512L264.885 175.512L264.885 175.512L264.885 175.512L264.897 175.482L264.908 175.451L271.017 157.237C270.678 158.289 270.338 159.342 269.999 160.392C267.502 168.12 265.04 175.675 263.151 181.365C262.206 184.211 261.405 186.587 260.815 188.285C260.52 189.135 260.279 189.81 260.099 190.288C260.01 190.527 259.938 190.711 259.884 190.839C259.858 190.9 259.839 190.942 259.826 190.969ZM281.107 125.504C280.332 128.109 276.956 138.757 273.105 150.749L272.403 150.532L262.071 147.336L274.506 109.723L284.435 112.917L284.979 113.092C283.247 118.571 281.748 123.355 281.107 125.504ZM176.232 186.673L179.134 167.377C177.264 166.776 175.632 166.247 174.289 165.808C173.061 165.406 172.073 165.078 171.369 164.837C171.018 164.716 170.733 164.617 170.523 164.539C170.349 164.475 170.144 164.399 170.026 164.33C169.994 164.312 169.959 164.292 169.921 164.27C169.791 164.197 169.633 164.107 169.502 164.017C169.312 163.887 169.103 163.711 168.939 163.448C168.612 162.923 168.597 162.267 168.709 161.478C168.936 159.888 169.826 156.926 171.693 151.054C173.572 145.146 175.765 138.271 177.487 132.874C178.348 130.175 179.092 127.846 179.621 126.191L180.24 124.253L180.29 124.097C176.977 122.937 173.548 120.76 170.498 116.856C164.996 109.817 166.363 102.022 168.028 96.1585C169.856 89.7154 174.057 85.9875 178.265 83.9614C182.437 81.953 186.669 81.5902 188.702 81.9121C190.231 82.1534 191.246 82.1954 191.958 82.096L198.07 41.4489L115.25 15.6816L110.364 30.6971L110.761 30.8265L145.647 42.214L146.393 42.4576L146.164 43.2082L137.843 70.4503C137.844 70.4515 137.845 70.4527 137.846 70.4539C138.016 70.68 138.25 71.0103 138.519 71.4399C139.055 72.2987 139.731 73.5572 140.303 75.1747C141.449 78.4165 142.173 83.0877 140.544 88.8396C138.622 95.6759 135.528 99.1971 132.678 100.933C131.26 101.796 129.924 102.205 128.86 102.367C128.329 102.448 127.862 102.468 127.481 102.451C127.125 102.435 126.776 102.383 126.521 102.275L126.274 102.169C125.822 103.664 125.369 105.163 124.921 106.648C123.119 112.63 121.399 118.372 120.13 122.619C119.496 124.743 118.974 126.492 118.611 127.711L118.191 129.122L118.081 129.491L118.053 129.586L118.046 129.61L118.044 129.616L118.044 129.617C118.044 129.618 118.044 129.618 117.277 129.39L118.044 129.618L117.811 130.399L117.035 130.152L81.9608 119.022L81.4611 118.863C80.0785 123.1 78.7419 127.201 77.7109 130.365C77.1245 132.165 76.637 133.662 76.2961 134.709L76.0106 135.585L168.482 164.814L168.488 164.816C168.506 164.82 168.531 164.827 168.562 164.836C168.624 164.854 168.713 164.88 168.823 164.916C169.043 164.987 169.353 165.096 169.722 165.251C170.458 165.56 171.442 166.055 172.43 166.8C174.42 168.301 176.437 170.835 176.437 174.854C176.437 178.477 176.336 182.996 176.232 186.673ZM185.715 123.614C184.626 123.523 183.487 123.345 182.323 123.043L188.607 104.383L195.017 85.347C195.164 85.4233 195.328 85.5099 195.507 85.6063C196.312 86.0389 197.416 86.666 198.612 87.4432C201.03 89.0145 203.72 91.1327 205.145 93.4322C206.834 96.192 208.042 98.328 208.387 100.94C208.73 103.543 208.225 106.724 206.215 111.542C204.89 114.702 202.622 117.452 200.162 119.499C197.688 121.556 195.098 122.84 193.182 123.158C191.458 123.443 188.784 123.872 185.715 123.614ZM89.5672 94.6089L103.957 50.386L102.432 55.4012L102.205 56.1453L102.943 56.3926L112.863 59.7198L100.101 96.7384L89.5672 94.6089Z" stroke="#00CC36" stroke-width="1.6" stroke-miterlimit="10"/>
<g opacity="0.48" filter="url(#filter0_f)">
<path d="M293.962 87.5215L293.206 87.2602L293.203 87.2688L293.2 87.2775L293.962 87.5215ZM293.962 87.5215C293.2 87.2775 293.2 87.2776 293.2 87.2779L293.2 87.279L293.199 87.2833L293.193 87.3005L293.171 87.3684L293.123 87.5188L292.936 87.4636L257.498 77.0179L256.756 76.799L256.513 77.5342L247.899 103.595C247.63 103.644 247.27 103.724 246.838 103.852C245.882 104.134 244.574 104.65 243.127 105.587C240.221 107.47 236.805 111.018 234.52 117.654C230.895 128.023 234.928 134.498 236.546 136.078C236.795 136.321 237.138 136.405 237.464 136.319C237.72 136.25 237.905 136.094 238.013 135.987C238.241 135.764 238.455 135.434 238.652 135.086C238.745 134.922 238.842 134.739 238.942 134.54C238.684 135.254 238.431 135.945 238.184 136.608C236.849 140.177 234.421 146.775 232.327 152.546C231.28 155.432 230.316 158.114 229.613 160.107C229.262 161.104 228.974 161.931 228.775 162.528C228.675 162.826 228.595 163.071 228.54 163.253C228.528 163.293 228.517 163.33 228.507 163.366C228.493 163.412 228.481 163.455 228.471 163.494C228.462 163.528 228.453 163.566 228.446 163.604C228.441 163.628 228.426 163.705 228.426 163.797C228.426 164.016 228.512 164.175 228.563 164.252C228.617 164.333 228.675 164.39 228.71 164.422C228.781 164.485 228.853 164.53 228.896 164.556C228.99 164.612 229.103 164.665 229.212 164.713C229.439 164.813 229.755 164.935 230.136 165.074C230.905 165.353 231.997 165.72 233.306 166.145C235.926 166.997 239.442 168.09 243.037 169.191C247.544 170.572 252.164 171.962 255.314 172.91C257.199 173.477 258.558 173.886 259.051 174.04L259.077 174.048L259.103 174.054C260.002 174.269 260.868 174.591 261.684 175.013L256.171 189.984L255.944 189.914L253.25 189.071C250.928 188.344 247.61 187.305 243.623 186.056C235.65 183.557 225.004 180.217 214.314 176.851C203.623 173.485 192.89 170.094 184.741 167.493C182.792 166.871 180.992 166.294 179.375 165.774L185.476 125.199C188.811 125.494 191.684 125.027 193.443 124.736C195.735 124.356 198.581 122.894 201.185 120.729C203.801 118.553 206.248 115.603 207.691 112.159L207.692 112.158C209.754 107.215 210.369 103.73 209.973 100.731C209.579 97.7412 208.188 95.3395 206.509 92.5957L206.506 92.5923C204.887 89.9756 201.94 87.6976 199.484 86.1015C198.242 85.2947 197.098 84.6451 196.265 84.197C195.848 83.9728 195.507 83.7986 195.27 83.6798C195.151 83.6205 195.059 83.5749 194.995 83.544L194.921 83.5085L194.901 83.4991L194.896 83.4965L194.894 83.4957L194.894 83.4955C194.894 83.4954 194.893 83.4953 194.552 84.219L194.893 83.4953L194.081 83.1125L193.794 83.9637L189.969 95.3237L191.713 83.7278C192.405 83.6807 192.996 83.5425 193.51 83.2942C194.733 82.7033 195.34 81.5767 195.922 80.2768L195.923 80.2742C197.111 77.5915 200.081 68.3923 202.734 59.9375C204.066 55.6941 205.325 51.6155 206.25 48.5979C206.713 47.089 207.093 45.8453 207.357 44.9787C207.489 44.5454 207.592 44.2064 207.662 43.9757L207.742 43.7126L207.762 43.6452L207.768 43.6281L207.769 43.6238L207.769 43.6227C207.769 43.6226 207.769 43.6225 207.698 43.6009L207.769 43.6223L208 42.8624L207.241 42.6265L198.311 39.8481L207.101 -18.6034C207.113 -17.6815 207.127 -16.6514 207.143 -15.5319C207.212 -10.698 207.319 -4.19383 207.474 2.48601C207.628 9.16482 207.829 16.0238 208.085 21.5656C208.213 24.336 208.355 26.7831 208.512 28.7166C208.667 30.6238 208.841 32.0999 209.049 32.8814C210.908 39.9165 215.685 46.0806 220.803 48.0977C223.248 49.0615 235.74 52.8735 247.728 56.4902C252.34 57.8817 256.879 59.2445 260.761 60.4104C267.021 62.2899 271.576 63.6578 271.991 63.8098C272.254 63.9059 273.351 64.2621 274.959 64.784C277.696 65.6722 281.911 67.0403 286.006 68.4232C289.275 69.5272 292.481 70.6449 294.849 71.5511C296.036 72.0054 296.995 72.3999 297.641 72.7086C297.823 72.7952 297.97 72.8707 298.086 72.9348C297.708 74.1195 296.661 77.2014 295.62 80.243C295.008 82.0305 294.404 83.7848 293.954 85.0923C293.765 85.6408 293.603 86.1106 293.479 86.4712L293.411 86.6666L293.26 87.1054L293.22 87.2207L293.21 87.2502L293.207 87.2577L293.206 87.2595L293.206 87.26C293.206 87.2601 293.206 87.2602 293.962 87.5215ZM259.826 190.969C259.812 190.988 259.797 191.007 259.782 191.027C260.006 190.099 260.382 188.792 260.965 186.989C262.51 182.211 263.494 179.332 264.091 177.65C264.389 176.81 264.59 176.269 264.715 175.941C264.751 175.847 264.781 175.77 264.805 175.709C264.823 175.664 264.837 175.628 264.849 175.599C264.862 175.565 264.872 175.542 264.878 175.528L264.884 175.514L264.884 175.513L264.884 175.512L264.885 175.512L264.885 175.512L264.885 175.512L264.897 175.482L264.908 175.451L271.017 157.237C270.678 158.289 270.338 159.342 269.999 160.392C267.502 168.12 265.04 175.675 263.151 181.365C262.206 184.211 261.405 186.587 260.815 188.285C260.52 189.135 260.279 189.81 260.099 190.288C260.01 190.527 259.938 190.711 259.884 190.839C259.858 190.9 259.839 190.942 259.826 190.969ZM281.107 125.504C280.332 128.109 276.956 138.757 273.105 150.749L272.403 150.532L262.071 147.336L274.506 109.723L284.435 112.917L284.979 113.092C283.247 118.571 281.748 123.355 281.107 125.504ZM176.232 186.673L179.134 167.377C177.264 166.776 175.632 166.247 174.289 165.808C173.061 165.406 172.073 165.078 171.369 164.837C171.018 164.716 170.733 164.617 170.523 164.539C170.349 164.475 170.144 164.399 170.026 164.33C169.994 164.312 169.959 164.292 169.921 164.27C169.791 164.197 169.633 164.107 169.502 164.017C169.312 163.887 169.103 163.711 168.939 163.448C168.612 162.923 168.597 162.267 168.709 161.478C168.936 159.888 169.826 156.926 171.693 151.054C173.572 145.146 175.765 138.271 177.487 132.874C178.348 130.175 179.092 127.846 179.621 126.191L180.24 124.253L180.29 124.097C176.977 122.937 173.548 120.76 170.498 116.856C164.996 109.817 166.363 102.022 168.028 96.1585C169.856 89.7154 174.057 85.9875 178.265 83.9614C182.437 81.953 186.669 81.5902 188.702 81.9121C190.231 82.1534 191.246 82.1954 191.958 82.096L198.07 41.4489L115.25 15.6816L110.364 30.6971L110.761 30.8265L145.647 42.214L146.393 42.4576L146.164 43.2082L137.843 70.4503C137.844 70.4515 137.845 70.4527 137.846 70.4539C138.016 70.68 138.25 71.0103 138.519 71.4399C139.055 72.2987 139.731 73.5572 140.303 75.1747C141.449 78.4165 142.173 83.0877 140.544 88.8396C138.622 95.6759 135.528 99.1971 132.678 100.933C131.26 101.796 129.924 102.205 128.86 102.367C128.329 102.448 127.862 102.468 127.481 102.451C127.125 102.435 126.776 102.383 126.521 102.275L126.274 102.169C125.822 103.664 125.369 105.163 124.921 106.648C123.119 112.63 121.399 118.372 120.13 122.619C119.496 124.743 118.974 126.492 118.611 127.711L118.191 129.122L118.081 129.491L118.053 129.586L118.046 129.61L118.044 129.616L118.044 129.617C118.044 129.618 118.044 129.618 117.277 129.39L118.044 129.618L117.811 130.399L117.035 130.152L81.9608 119.022L81.4611 118.863C80.0785 123.1 78.7419 127.201 77.7109 130.365C77.1245 132.165 76.637 133.662 76.2961 134.709L76.0106 135.585L168.482 164.814L168.488 164.816C168.506 164.82 168.531 164.827 168.562 164.836C168.624 164.854 168.713 164.88 168.823 164.916C169.043 164.987 169.353 165.096 169.722 165.251C170.458 165.56 171.442 166.055 172.43 166.8C174.42 168.301 176.437 170.835 176.437 174.854C176.437 178.477 176.336 182.996 176.232 186.673ZM185.715 123.614C184.626 123.523 183.487 123.345 182.323 123.043L188.607 104.383L195.017 85.347C195.164 85.4233 195.328 85.5099 195.507 85.6063C196.312 86.0389 197.416 86.666 198.612 87.4432C201.03 89.0145 203.72 91.1327 205.145 93.4322C206.834 96.192 208.042 98.328 208.387 100.94C208.73 103.543 208.225 106.724 206.215 111.542C204.89 114.702 202.622 117.452 200.162 119.499C197.688 121.556 195.098 122.84 193.182 123.158C191.458 123.443 188.784 123.872 185.715 123.614ZM89.5672 94.6089L103.957 50.386L102.432 55.4012L102.205 56.1453L102.943 56.3926L112.863 59.7198L100.101 96.7384L89.5672 94.6089Z" stroke="#00CC36" stroke-width="1.6" stroke-miterlimit="10"/>
</g>
</g>
</g>
<defs>
<filter id="filter0_f" x="71.0001" y="-27.5391" width="232" height="225" filterUnits="userSpaceOnUse" color-interpolation-filters="sRGB">
<feFlood flood-opacity="0" result="BackgroundImageFix"/>
<feBlend mode="normal" in="SourceGraphic" in2="BackgroundImageFix" result="shape"/>
<feGaussianBlur stdDeviation="2" result="effect1_foregroundBlur"/>
</filter>
</defs>
</svg>
