<svg width="368" height="240" viewBox="0 0 368 240" fill="none" xmlns="http://www.w3.org/2000/svg">
<g opacity="0.24">
<mask id="mask0" mask-type="alpha" maskUnits="userSpaceOnUse" x="0" y="0" width="368" height="240">
<rect width="368" height="240" fill="white"/>
</mask>
<g mask="url(#mask0)">
<path opacity="0.16" d="M166.455 191.673C133.712 197.218 106.201 163.311 118.394 105.742C122.861 61.0583 152.681 15.6983 185.115 18.9407C217.55 22.1831 255.521 56.3224 251.054 101.006C246.587 145.69 198.889 194.916 166.455 191.673Z" fill="url(#paint0_linear)"/>
<path d="M162.501 196.576C162.501 196.576 162.501 186.141 153.412 181.691L153.201 181.601C141.942 176.811 136.874 173.831 134.605 172.174C129.589 168.51 117.745 157.641 115.309 153.181C114.851 152.344 114.459 151.696 114.114 151.123C113.641 150.34 113.245 149.683 112.861 148.847L113.14 149.678L111.812 147.493C110.012 144.532 104.528 132.126 104.295 131.599C99.5454 117.535 97.7638 105.391 98.8396 94.4487C99.7823 84.8673 100.744 80.3544 104.58 72.5187C107.845 65.8512 110.099 62.1273 115.614 56.3224C121.14 50.505 121.216 50.5722 121.495 50.8165C121.749 51.0395 121.499 51.3501 121.152 51.78L121.104 51.8269C119.655 52.9425 116.755 57.3181 113.951 61.5497C112.066 64.394 110.117 67.3353 108.533 69.4103C104.441 74.7724 101.778 90.6207 101.668 91.2928C101.45 92.6051 102.517 94.2054 103.064 94.9239C103.645 93.3503 105.523 88.2145 106.243 85.4925C107.111 82.2083 115.326 70.0857 115.675 69.5717L115.739 69.4769L115.851 69.453C116.982 69.208 118.644 69.2016 120.55 69.3435C118.52 69.0837 117.135 68.9134 116.953 68.9076C116.816 68.9033 116.698 68.8149 116.646 68.6772C116.215 67.538 121.999 50.2049 124.007 48.3205C126.855 45.6469 141.038 33.8727 153.407 29.3736C153.614 29.2925 174.857 21.1701 200.159 28.1879C199.99 28.0057 199.807 27.8205 199.609 27.6332C197.625 25.7535 193.624 24.9108 188.993 23.935C186.108 23.3273 182.838 22.6377 179.714 21.6014C170.642 18.5922 166.53 -0.298063 168.982 -27.6978L169.551 -27.647C168.304 -13.714 168.736 -1.7764 170.802 6.87604C172.696 14.8101 175.839 19.7144 179.894 21.0595C182.987 22.0857 186.241 22.7713 189.111 23.3759C193.827 24.3696 197.9 25.228 200.001 27.2184C200.456 27.6489 200.837 28.0684 201.158 28.4725L201.218 28.4901L201.436 28.8399C201.687 29.1893 201.893 29.5258 202.061 29.8455L203.812 32.6617L203.145 32.5106C203.132 32.5075 203.005 32.4795 202.772 32.4333C202.774 32.8765 202.703 33.1414 202.694 33.175L202.61 33.4714L202.32 33.3647C200.866 32.8279 196.749 32.443 196.707 32.439C183.976 31.3225 173.733 34.6185 170.354 35.889C169.4 38.7163 166.224 48.2666 165.821 51.2284C167.945 52.7673 189.363 68.3089 191.438 70.6758C193.322 70.4775 211.602 68.5967 221.005 69.0854C223.372 61.6814 226.715 50.4208 226.402 49.1759C226.345 48.9504 226.437 48.7545 226.636 48.6754C228.307 48.0253 245.38 59.8447 248.385 65.2704C251.922 71.6603 255.279 85.8911 255.546 93.0592L255.554 93.285L239.491 97.7365L239.38 97.5451C239.254 97.327 226.748 75.7272 223.225 72.2094C222.832 71.9142 222.401 71.6487 222.141 71.533C222.147 71.545 222.152 71.5578 222.158 71.5713C222.396 72.0868 225.375 76.9145 228.528 82.0256C234.55 91.7854 238.824 98.7408 238.954 99.3436C239.21 100.52 231.016 122.396 227.086 128.026L227.011 128.133L226.881 128.146C225.76 128.261 199.413 130.958 197.252 130.509C196.139 130.275 191.768 124.256 187.503 118.029C190.26 122.128 192.982 126.163 194.473 128.373C195.234 129.502 195.719 130.221 195.794 130.333C195.901 130.494 196.228 130.984 190.017 143.246C186.955 149.291 183.309 156.115 182.066 157.731L181.982 157.84L181.844 157.842C177.098 157.918 154.031 158.215 151.214 156.927C151.068 157.047 150.961 157.183 150.97 157.234C150.97 157.234 151.031 157.379 151.598 157.492C153.319 157.835 180.261 158.58 182.743 158.475C184.081 158.414 187.974 161.107 192.489 164.221C196.87 167.241 201.829 170.659 203.644 170.85C205.085 170.126 227.523 158.775 230.566 152.706C230.421 151.315 228.479 132.851 227.247 128.922L227.211 128.807L227.269 128.701C227.292 128.657 227.512 128.268 227.902 128.314C228.285 128.356 228.566 128.768 228.814 129.649C229.324 131.462 231.924 146.914 232.171 152.966C236.899 154.6 242.089 156.039 242.912 155.72C243.721 154.493 256.064 135.577 258.305 122.342C258.456 121.45 258.6 120.613 258.736 119.821C259.019 118.173 259.268 116.726 259.478 115.391C259.503 110.966 259.035 107.715 259.026 107.656L259.023 107.617C258.993 104.641 255.821 93.9824 255.789 93.8755L255.773 93.8216L255.778 93.7662C256.304 88.2781 253.788 78.5246 251.474 71.8397C249.432 65.9396 246.668 62.4923 244.233 59.8983C242.327 57.8672 237.61 54.7277 234.166 52.4351C232.75 51.4933 231.528 50.6799 230.741 50.1059C228.13 48.2022 225.607 48.2766 225.582 48.2766L225.441 48.282L224.862 47.5869C222.524 45.0109 215.082 40.0265 210.157 36.728C207.25 34.7814 205.718 33.749 205.382 33.3916C204.292 32.2291 205.27 29.5276 205.313 29.4131L205.405 29.1619L205.662 29.2386C208.433 30.0621 225.378 37.0588 239.022 50.4299C242.785 54.1169 246.29 58.7231 249.438 64.1206C255.702 74.862 258.482 85.24 258.509 85.3433C261.153 103.505 261.308 107.418 260.048 115.446C260.022 119.176 259.648 123.722 258.37 127.919C255.544 137.199 248.919 154.219 236.306 163.947C223.587 173.756 206.268 184.022 196.25 184.843L196.207 184.846L191.386 183.783L192.053 183.417C192.125 183.379 199.21 179.438 201.774 172.984C201.647 173.097 201.455 173.291 201.179 173.62C200.56 174.355 199.724 175.42 198.839 176.546C197.626 178.091 196.371 179.689 195.618 180.503C194.372 181.853 191.376 183.36 190.096 184.003L190.075 184.013C190.442 184.077 191.045 184.12 191.567 184.125L191.618 184.691C191.292 184.754 183.603 186.223 181.031 186.141C177.582 186.032 165.879 185.509 160.073 183.367C154.228 181.21 140.645 171.401 139.78 170.248C139.577 169.977 139.2 169.474 143.161 163.71C144.883 161.205 146.699 158.769 147.045 158.306C147.039 158.192 147.016 158.075 146.988 158.02C146.932 158.042 146.781 158.129 146.507 158.456C145.44 159.728 139.003 169.335 138.938 169.432L138.785 169.66L138.55 169.516C137.712 168.998 117.979 156.737 115.145 149.878C112.708 143.98 109.689 134.473 109.621 128.534C109.532 130.841 109.727 134.008 110.591 138.213C112.45 147.26 113.125 148.377 114.604 150.827C114.952 151.405 115.347 152.06 115.81 152.907C118.213 157.306 129.961 168.074 134.942 171.713C137.187 173.352 142.215 176.306 153.424 181.075L153.636 181.165C163.501 186.641 163.07 196.623 163.07 196.623L162.501 196.576ZM147.029 157.441C147.084 157.443 147.14 157.452 147.195 157.474C147.619 157.636 147.621 158.282 147.617 158.41L147.614 158.5L147.559 158.572C143.804 163.561 140.043 169.173 140.249 169.928C140.9 170.79 154.421 180.673 160.27 182.831C166.143 184.998 178.609 185.493 181.048 185.57C182.785 185.625 187.092 184.921 189.605 184.478C189.308 184.365 189.277 184.232 189.257 184.146C189.207 183.932 189.337 183.745 189.642 183.591L189.838 183.493C190.982 182.917 194.022 181.39 195.198 180.115C195.935 179.318 197.183 177.729 198.389 176.193C199.277 175.062 200.116 173.995 200.742 173.252C201.465 172.393 201.849 172.135 202.161 172.3C202.465 172.462 202.396 172.893 202.326 173.135C200.144 178.67 194.786 182.397 192.954 183.544L196.246 184.27C206.155 183.433 223.322 173.238 235.957 163.495C248.446 153.864 255.017 136.968 257.824 127.753C258.57 125.302 259.004 122.729 259.239 120.272C259.121 120.957 258.997 121.677 258.869 122.438C256.542 136.173 243.479 155.901 243.347 156.099L243.313 156.151L243.26 156.183C242.038 156.942 233.499 154.032 231.8 153.442L231.614 153.378L231.608 153.182C231.411 147.306 228.777 131.625 228.265 129.804C228.028 128.963 227.835 128.881 227.832 128.881L227.832 128.883C229.124 133.256 231.06 151.928 231.143 152.729L231.151 152.81L231.116 152.882C228.049 159.278 204.815 170.905 203.827 171.397L203.759 171.431L203.684 171.427C201.773 171.314 196.888 167.948 192.166 164.691C188.105 161.892 183.896 158.984 182.767 159.046C180.277 159.151 153.22 158.397 151.487 158.053C151.243 158.004 150.503 157.856 150.409 157.336C150.316 156.828 150.925 156.421 151.048 156.344L151.252 156.217L151.412 156.396C152.372 157.368 170.435 157.45 181.696 157.274C184.345 153.67 195.081 132.143 195.281 130.594C195.138 130.38 194.679 129.699 194 128.692C189.919 122.643 179.08 106.571 178.413 105.428C178.01 104.739 177.93 104.337 178.143 104.084C178.313 103.882 178.6 103.896 178.794 103.97L178.882 104.003L178.933 104.082C185.277 113.919 195.893 129.641 197.37 129.95C199.024 130.299 217.195 128.567 226.693 127.591C230.72 121.699 238.467 100.508 238.395 99.452C238.207 98.7975 232.332 89.2775 228.043 82.3258C224.607 76.7569 221.893 72.3582 221.641 71.8106C221.574 71.6663 221.372 71.2278 221.661 70.9946C221.781 70.8978 222.099 70.6423 223.587 71.7648L223.615 71.7901C227.036 75.1827 238.432 94.7665 239.765 97.0673L254.965 92.8552C254.643 85.8157 251.289 71.6959 247.885 65.5473C244.787 59.9509 229.138 49.6078 226.98 49.2205C227.121 51.7727 222.074 67.6228 221.482 69.4701L221.415 69.681L221.194 69.6683C211.445 69.1096 191.543 71.2393 191.344 71.2608L191.172 71.2793L191.076 71.1357C190.139 69.7327 173.838 57.7384 165.35 51.593L165.215 51.4957L165.233 51.3305C165.529 48.6139 168.527 39.5247 169.659 36.1592C169.459 36.2398 169.318 36.2993 169.239 36.333C166.803 40.0161 165.315 48.9504 164.785 52.6413C164.793 52.6366 164.8 52.6322 164.806 52.6282L164.941 52.5407L165.086 52.6108C171.798 55.8523 189.451 71.0888 190.199 71.7359L190.354 71.87L177.806 102.716L145.03 101.678C143.832 103.448 130.942 122.609 130.574 128.177C131.868 131.795 134.661 136.117 140.823 144.395C143.967 148.618 149.138 155.83 148.437 156.675L148.209 156.95L147.991 156.665C147.282 155.738 130.619 133.895 130.016 128.777C129.999 128.637 129.994 128.485 129.999 128.322C129.925 128.108 129.856 127.898 129.792 127.689C129.473 128.534 129.302 129.022 129.293 129.05L129.234 129.217L129.059 129.239C125.196 129.742 112.549 126.331 110.469 125.759C109.13 130.744 112.917 142.988 115.673 149.659C118.275 155.958 136.343 167.456 138.617 168.884C139.63 167.374 145.063 159.288 146.069 158.089C146.316 157.794 146.669 157.43 147.029 157.441ZM134.407 136.408C138.398 142.797 144.429 150.973 147.095 154.532C146.18 152.924 144.285 150.002 140.364 144.736C137.84 141.345 135.903 138.643 134.407 136.408ZM117.811 54.8488C117.294 55.3864 116.703 56.0048 116.028 56.7158C110.31 62.7349 108.213 66.3967 105.093 72.7697C101.296 80.5266 100.343 85.0001 99.4086 94.5048C98.3408 105.365 100.113 117.43 104.827 131.392C104.865 131.477 108.546 139.803 110.903 144.557C109.442 139.46 106.924 128.988 109.3 124.257C108.643 122.427 102.038 103.775 103.327 97.2311C103.459 95.9687 103.754 95.9685 103.912 95.969C104.215 95.9686 104.476 95.9685 104.838 99.4464C105.448 105.293 108.862 120.361 110.645 122.999L110.749 123.153L110.651 123.311C110.642 123.325 110.269 123.962 109.97 125.425C109.98 125.39 109.991 125.356 110.002 125.322L110.086 125.061L110.351 125.135C110.494 125.175 124.579 129.087 128.812 128.693C128.919 128.396 129.163 127.724 129.534 126.76C129.416 126.287 129.32 125.817 129.237 125.338L129.222 125.25L129.26 125.169C129.669 124.29 138.554 105.28 143.742 99.48C142.525 95.6679 137.584 79.8292 137.261 72.8049C135.341 72.3562 120.883 69.0492 116.082 69.9889C115.291 71.1588 107.598 82.5971 106.795 85.6392C105.935 88.8905 103.448 95.5278 103.423 95.5945L103.257 96.0389L102.943 95.6841C102.854 95.5837 100.772 93.2067 101.104 91.2003C101.216 90.5225 103.902 74.5386 108.079 69.0644C109.651 67.0047 111.595 64.0712 113.475 61.2351C115.016 58.9061 116.515 56.6463 117.811 54.8488ZM109.26 126.062C108.221 130.345 109.63 137.407 110.863 142.19C110.61 141.085 110.336 139.812 110.031 138.329C108.802 132.344 108.892 128.434 109.26 126.062ZM130.138 126.781C130.159 126.858 130.18 126.934 130.201 127.011C130.368 126.329 130.63 125.549 130.97 124.693C130.648 125.48 130.37 126.182 130.138 126.781ZM129.816 125.328C129.845 125.487 129.875 125.645 129.907 125.804C130.447 124.441 131.165 122.693 132.047 120.704C130.835 123.164 130.001 124.933 129.816 125.328ZM103.929 97.0357C103.915 97.1274 103.901 97.223 103.892 97.3168C102.676 103.492 108.896 121.402 109.778 123.893C109.897 123.55 110.005 123.313 110.077 123.171C108.094 119.914 104.83 104.878 104.27 99.5058C104.134 98.2067 104.017 97.4622 103.929 97.0357ZM144.387 99.6178C144.489 99.9373 144.549 100.119 144.555 100.137L144.603 100.285L144.505 100.406C138.469 107.839 133.781 117.915 131.286 123.923C134.771 115.745 144.15 101.953 144.646 101.226L144.734 101.097L177.428 102.132L189.67 72.0339C187.89 70.5036 171.403 56.3897 164.981 53.1954C164.908 53.2427 164.807 53.3084 164.681 53.3909C164.607 53.9366 164.569 54.2569 164.566 54.2774L164.546 54.4513L164.381 54.512C162.895 55.0609 147.001 66.3154 138.711 72.2564C138.018 78.3347 145.42 98.1759 145.496 98.3768L145.573 98.5827L145.393 98.7104C145.082 98.9303 144.746 99.2363 144.387 99.6178ZM178.748 104.851C178.789 104.933 178.84 105.029 178.905 105.14C179.114 105.498 180.388 107.419 182.148 110.052C180.605 107.714 179.375 105.819 178.748 104.851ZM259.593 107.592C259.621 107.79 259.842 109.399 259.965 111.811C260.619 105.809 260.159 100.642 257.95 85.4578C257.929 85.3867 255.167 75.0801 248.943 64.4086C245.82 59.0554 242.348 54.4898 238.622 50.8383C225.439 37.9196 209.182 30.9954 205.761 29.8689C205.502 30.6979 205.167 32.3285 205.798 33.0008C206.105 33.3276 208.13 34.6835 210.474 36.2534C215.422 39.5675 222.9 44.5758 225.292 47.2123L225.703 47.705C226.303 47.7076 228.631 47.861 231.076 49.6448C231.854 50.2117 233.071 51.0218 234.481 51.9601C237.948 54.2682 242.698 57.4285 244.649 59.508C247.125 62.1459 249.936 65.6518 252.014 71.6537C254.338 78.3706 256.864 88.1762 256.352 93.7653C256.624 94.6789 259.551 104.592 259.593 107.592ZM143.945 100.11C143.2 100.979 142.378 102.119 141.514 103.437C142.303 102.309 143.119 101.212 143.963 100.167C143.958 100.149 143.952 100.13 143.945 100.11ZM127.583 70.2586C132.622 71.1128 137.247 72.2123 137.605 72.2983L137.817 72.3489L137.824 72.5667C138.042 79.2359 142.819 94.6907 144.19 99.0027C144.432 98.7592 144.664 98.5494 144.885 98.3765C144.049 96.1247 137.367 77.8763 138.159 72.0587L138.176 71.9369L138.276 71.8654C139.231 71.1804 161.205 55.4376 164.018 54.0497C164.026 53.9845 164.036 53.9017 164.048 53.803C159.372 56.8531 140.823 68.9887 137.893 71.5274L137.795 71.6116L137.668 71.5946C134.911 71.2269 131.148 70.7274 127.583 70.2586ZM117.177 68.3542C119.328 68.5747 135.85 70.7757 137.617 71.0111C141.006 68.1577 160.245 55.5966 164.147 53.0562C164.607 49.6771 166.128 39.9086 168.811 35.9445L168.856 35.8774L168.93 35.8439C168.95 35.8354 169.284 35.6874 169.897 35.4519C169.941 35.3207 169.979 35.2106 170.009 35.1243C162.903 30.7401 156.971 31.8333 154.425 32.3029C153.884 32.4028 153.526 32.4684 153.287 32.4609C152.9 32.4486 152.669 32.3209 152.599 32.0809C152.461 31.6097 153.183 30.9959 153.813 30.5643L153.88 30.5187L153.961 30.5144C153.961 30.5144 154.558 30.4857 155.621 30.4146C164.41 29.8276 170.093 32.7225 170.944 33.1881C184.871 29.202 198.206 31.0396 202.121 31.7317C202.035 31.2649 201.857 30.6903 201.508 30.0391L200.99 29.2061C200.934 29.1274 200.876 29.0482 200.815 28.9681C175.348 21.5991 153.823 29.8238 153.607 29.908C141.323 34.3767 127.228 46.0798 124.397 48.7372C122.477 50.5393 117.265 66.4395 117.177 68.3542ZM159.585 31.2672C162.561 31.3614 166.34 32.14 170.505 34.7605L170.696 34.8809L170.623 35.0946C170.621 35.101 170.609 35.1346 170.589 35.1945C174.405 33.8113 184.432 30.7886 196.758 31.8705C196.92 31.8856 200.475 32.2184 202.185 32.7207C202.193 32.6146 202.197 32.4814 202.19 32.3242C198.552 31.6659 185.061 29.7103 170.987 33.7706L170.868 33.8049L170.762 33.7413C170.705 33.7075 164.971 30.3616 155.659 30.9851C154.819 31.0412 154.269 31.0714 154.071 31.0815C153.676 31.3613 153.306 31.6993 153.188 31.8808C153.217 31.8852 153.256 31.8891 153.305 31.8906C153.483 31.8963 153.853 31.828 154.321 31.7418C155.469 31.5293 157.288 31.1944 159.585 31.2672Z" stroke="url(#paint1_linear)" stroke-width="0.8" stroke-miterlimit="10"/>
<g opacity="0.24" filter="url(#filter0_f)">
<path d="M153.412 181.691L153.201 181.601C141.942 176.811 136.874 173.831 134.605 172.174C129.589 168.51 117.745 157.641 115.309 153.181C114.851 152.344 114.459 151.695 114.114 151.123C113.641 150.34 113.245 149.683 112.861 148.847L113.14 149.678L111.812 147.493C110.012 144.532 104.528 132.126 104.295 131.599C99.5454 117.535 97.7638 105.391 98.8396 94.4487C99.7823 84.8672 100.744 80.3544 104.58 72.5187C107.845 65.8512 110.099 62.1273 115.614 56.3224C121.14 50.505 121.216 50.5722 121.495 50.8165C121.749 51.0395 121.499 51.3501 121.152 51.78L121.104 51.8269C119.655 52.9424 116.755 57.3181 113.951 61.5496C112.066 64.394 110.117 67.3353 108.533 69.4103C104.441 74.7724 101.778 90.6207 101.668 91.2928C101.45 92.6051 102.517 94.2054 103.064 94.9239C103.645 93.3503 105.523 88.2144 106.243 85.4925C107.111 82.2083 115.326 70.0857 115.675 69.5717L115.739 69.4769L115.851 69.453C116.982 69.208 118.644 69.2016 120.55 69.3435C118.52 69.0837 117.135 68.9134 116.953 68.9076C116.816 68.9032 116.698 68.8149 116.646 68.6772C116.215 67.538 121.999 50.2049 124.007 48.3205C126.855 45.6469 141.038 33.8727 153.407 29.3736C153.614 29.2925 174.857 21.1701 200.159 28.1879C199.99 28.0057 199.807 27.8204 199.609 27.6332C197.625 25.7535 193.624 24.9108 188.993 23.935C186.108 23.3273 182.838 22.6377 179.715 21.6013C170.642 18.5922 166.53 -0.298066 168.982 -27.6978L169.551 -27.647C168.304 -13.714 168.736 -1.7764 170.802 6.87603C172.696 14.8101 175.839 19.7144 179.894 21.0594C182.987 22.0857 186.241 22.7713 189.111 23.3759C193.827 24.3696 197.9 25.228 200.001 27.2184C200.456 27.6489 200.837 28.0684 201.158 28.4725L201.218 28.4901L201.436 28.8399C201.687 29.1893 201.893 29.5258 202.061 29.8455L203.812 32.6617L203.145 32.5106C203.132 32.5075 203.005 32.4795 202.772 32.4333C202.774 32.8765 202.703 33.1414 202.694 33.175L202.609 33.4714L202.32 33.3647C200.866 32.8279 196.749 32.443 196.707 32.439C183.976 31.3225 173.733 34.6185 170.354 35.889C169.4 38.7163 166.224 48.2666 165.821 51.2284C167.945 52.7673 189.363 68.3089 191.438 70.6758C193.322 70.4775 211.602 68.5966 221.005 69.0854C223.372 61.6814 226.715 50.4208 226.402 49.1759C226.345 48.9504 226.437 48.7544 226.636 48.6754C228.307 48.0253 245.38 59.8447 248.385 65.2704C251.922 71.6603 255.279 85.8911 255.546 93.0592L255.554 93.285L239.491 97.7365L239.38 97.5451C239.254 97.327 226.748 75.7272 223.225 72.2094C222.832 71.9142 222.401 71.6487 222.141 71.533C222.147 71.545 222.152 71.5578 222.158 71.5713C222.396 72.0868 225.375 76.9145 228.528 82.0256C234.55 91.7854 238.824 98.7408 238.954 99.3435C239.21 100.52 231.016 122.396 227.086 128.026L227.011 128.133L226.881 128.146C225.76 128.261 199.413 130.958 197.252 130.509C196.139 130.275 191.768 124.256 187.503 118.029C190.26 122.128 192.982 126.163 194.473 128.373C195.234 129.502 195.719 130.221 195.794 130.333C195.901 130.494 196.228 130.984 190.017 143.246C186.955 149.291 183.309 156.115 182.066 157.731L181.982 157.84L181.844 157.842C177.098 157.918 154.031 158.215 151.214 156.927C151.068 157.047 150.961 157.183 150.97 157.234C150.97 157.234 151.031 157.379 151.598 157.492C153.319 157.835 180.261 158.58 182.743 158.475C184.081 158.414 187.973 161.107 192.489 164.221C196.87 167.241 201.829 170.659 203.644 170.85C205.085 170.126 227.523 158.775 230.566 152.706C230.421 151.315 228.479 132.851 227.247 128.922L227.211 128.807L227.269 128.701C227.292 128.657 227.512 128.268 227.902 128.314C228.285 128.356 228.566 128.768 228.814 129.649C229.324 131.462 231.924 146.914 232.171 152.966C236.899 154.6 242.089 156.039 242.912 155.72C243.721 154.493 256.064 135.577 258.305 122.342C258.456 121.45 258.6 120.613 258.736 119.821C259.019 118.173 259.268 116.726 259.478 115.391C259.503 110.966 259.035 107.715 259.026 107.656L259.023 107.617C258.993 104.641 255.821 93.9824 255.789 93.8755L255.773 93.8216L255.778 93.7661C256.304 88.2781 253.788 78.5246 251.474 71.8397C249.432 65.9396 246.668 62.4923 244.233 59.8983C242.327 57.8671 237.61 54.7277 234.166 52.4351C232.75 51.4933 231.528 50.6799 230.741 50.1059C228.13 48.2022 225.607 48.2766 225.582 48.2766L225.441 48.282L224.862 47.5869C222.524 45.0109 215.082 40.0265 210.157 36.728C207.25 34.7814 205.718 33.749 205.382 33.3916C204.292 32.2291 205.27 29.5276 205.313 29.4131L205.405 29.1619L205.662 29.2386C208.433 30.0621 225.378 37.0588 239.022 50.4299C242.785 54.1169 246.29 58.7231 249.438 64.1206C255.702 74.862 258.482 85.24 258.509 85.3433C261.153 103.505 261.308 107.418 260.048 115.446C260.022 119.176 259.648 123.722 258.37 127.919C255.544 137.199 248.919 154.219 236.306 163.947C223.587 173.756 206.268 184.022 196.25 184.843L196.207 184.846L191.386 183.783L192.053 183.417C192.125 183.379 199.21 179.438 201.774 172.984C201.647 173.097 201.455 173.291 201.179 173.62C200.56 174.355 199.724 175.42 198.839 176.546C197.626 178.091 196.371 179.689 195.618 180.503C194.372 181.853 191.376 183.36 190.096 184.003L190.075 184.013C190.442 184.077 191.045 184.12 191.567 184.125L191.618 184.691C191.292 184.754 183.603 186.223 181.031 186.141C177.582 186.032 165.879 185.509 160.073 183.367C154.228 181.21 140.645 171.401 139.78 170.248C139.577 169.977 139.2 169.474 143.161 163.71C144.883 161.205 146.699 158.769 147.045 158.306C147.039 158.192 147.016 158.075 146.988 158.02C146.932 158.042 146.781 158.129 146.507 158.456C145.44 159.728 139.003 169.335 138.938 169.432L138.785 169.66L138.55 169.516C137.712 168.998 117.979 156.737 115.145 149.878C112.708 143.98 109.689 134.473 109.621 128.534C109.532 130.841 109.727 134.008 110.591 138.213C112.45 147.26 113.125 148.377 114.604 150.827C114.952 151.405 115.347 152.06 115.81 152.907C118.213 157.306 129.961 168.074 134.942 171.713C137.187 173.352 142.215 176.306 153.424 181.075L153.636 181.165C167.429 187.986 165.821 186.141 153.412 181.691ZM147.029 157.441C147.084 157.443 147.14 157.452 147.195 157.474C147.619 157.636 147.621 158.282 147.617 158.41L147.614 158.5L147.559 158.572C143.804 163.561 140.043 169.173 140.249 169.928C140.9 170.79 154.421 180.673 160.27 182.831C166.143 184.998 178.609 185.493 181.048 185.57C182.785 185.625 187.092 184.921 189.605 184.478C189.308 184.365 189.277 184.232 189.257 184.146C189.207 183.932 189.337 183.745 189.642 183.591L189.838 183.493C190.982 182.917 194.022 181.39 195.198 180.115C195.935 179.318 197.183 177.729 198.389 176.193C199.277 175.062 200.116 173.995 200.742 173.252C201.465 172.393 201.849 172.135 202.161 172.3C202.465 172.462 202.396 172.893 202.326 173.135C200.144 178.67 194.786 182.397 192.954 183.544L196.246 184.27C206.155 183.433 223.322 173.238 235.957 163.495C248.446 153.864 255.017 136.968 257.824 127.753C258.57 125.302 259.004 122.728 259.239 120.272C259.121 120.957 258.997 121.677 258.869 122.438C256.542 136.173 243.479 155.901 243.347 156.099L243.313 156.151L243.26 156.183C242.038 156.942 233.499 154.032 231.8 153.442L231.614 153.378L231.608 153.182C231.411 147.306 228.777 131.625 228.265 129.804C228.028 128.963 227.832 128.881 227.832 128.881C229.124 133.254 231.06 151.928 231.143 152.729L231.151 152.81L231.116 152.882C228.049 159.278 204.815 170.905 203.827 171.397L203.759 171.431L203.684 171.427C201.773 171.314 196.888 167.948 192.166 164.691C188.105 161.892 183.896 158.984 182.767 159.046C180.277 159.151 153.22 158.397 151.487 158.053C151.243 158.004 150.503 157.856 150.409 157.336C150.316 156.828 150.925 156.421 151.048 156.344L151.252 156.217L151.412 156.396C152.372 157.368 170.435 157.45 181.696 157.274C184.345 153.67 195.081 132.143 195.281 130.594C195.138 130.38 194.679 129.699 194 128.692C189.919 122.643 179.08 106.571 178.413 105.428C178.01 104.739 177.93 104.337 178.143 104.084C178.313 103.882 178.6 103.896 178.794 103.97L178.882 104.003L178.933 104.082C185.277 113.919 195.893 129.641 197.37 129.95C199.024 130.299 217.195 128.567 226.693 127.591C230.72 121.699 238.467 100.508 238.395 99.452C238.207 98.7974 232.332 89.2775 228.043 82.3258C224.607 76.7569 221.893 72.3581 221.641 71.8106C221.574 71.6663 221.372 71.2278 221.661 70.9946C221.781 70.8978 222.099 70.6423 223.587 71.7648L223.615 71.7901C227.036 75.1827 238.432 94.7665 239.765 97.0673L254.965 92.8552C254.643 85.8157 251.289 71.6959 247.885 65.5473C244.787 59.9509 229.138 49.6078 226.98 49.2205C227.121 51.7727 222.074 67.6228 221.482 69.4701L221.415 69.681L221.194 69.6682C211.445 69.1095 191.543 71.2393 191.344 71.2608L191.172 71.2793L191.076 71.1357C190.139 69.7327 173.838 57.7384 165.35 51.593L165.215 51.4957L165.233 51.3305C165.529 48.6138 168.527 39.5247 169.659 36.1592C169.459 36.2398 169.318 36.2993 169.239 36.333C166.803 40.0161 165.315 48.9504 164.785 52.6413C164.793 52.6366 164.8 52.6322 164.806 52.6282L164.941 52.5407L165.086 52.6108C171.798 55.8523 189.451 71.0888 190.199 71.7359L190.354 71.87L177.806 102.716L145.03 101.678C143.832 103.448 130.942 122.609 130.574 128.177C131.868 131.795 134.661 136.117 140.823 144.395C143.967 148.618 149.138 155.83 148.437 156.675L148.209 156.95L147.991 156.665C147.282 155.738 130.619 133.895 130.016 128.777C129.999 128.637 129.994 128.485 129.999 128.322C129.925 128.108 129.856 127.898 129.792 127.689C129.473 128.534 129.302 129.022 129.293 129.05L129.234 129.217L129.059 129.239C125.196 129.742 112.549 126.331 110.469 125.759C109.13 130.744 112.917 142.988 115.673 149.659C118.275 155.958 136.343 167.456 138.617 168.884C139.63 167.374 145.063 159.288 146.069 158.089C146.316 157.794 146.669 157.43 147.029 157.441ZM134.407 136.408C138.398 142.797 144.429 150.972 147.095 154.532C146.18 152.924 144.285 150.002 140.364 144.736C137.84 141.345 135.903 138.643 134.407 136.408ZM117.811 54.8488C117.294 55.3864 116.703 56.0048 116.028 56.7158C110.31 62.7349 108.213 66.3967 105.093 72.7697C101.296 80.5266 100.343 85.0001 99.4086 94.5048C98.3408 105.365 100.113 117.43 104.827 131.392C104.865 131.477 108.546 139.803 110.903 144.557C109.442 139.459 106.924 128.988 109.3 124.257C108.643 122.427 102.038 103.775 103.327 97.2311C103.459 95.9687 103.754 95.9685 103.912 95.9689C104.215 95.9686 104.476 95.9685 104.838 99.4464C105.448 105.293 108.862 120.361 110.645 122.999L110.749 123.153L110.651 123.311C110.642 123.325 110.269 123.962 109.97 125.425C109.98 125.39 109.991 125.356 110.002 125.321L110.086 125.061L110.351 125.135C110.494 125.175 124.579 129.087 128.812 128.693C128.919 128.395 129.163 127.724 129.534 126.76C129.416 126.287 129.32 125.817 129.237 125.338L129.222 125.25L129.26 125.169C129.669 124.29 138.554 105.28 143.742 99.48C142.525 95.6679 137.584 79.8292 137.261 72.8049C135.341 72.3562 120.883 69.0492 116.082 69.9889C115.291 71.1588 107.598 82.5971 106.795 85.6392C105.935 88.8905 103.448 95.5278 103.423 95.5945L103.257 96.0389L102.943 95.684C102.854 95.5837 100.772 93.2067 101.104 91.2003C101.216 90.5225 103.902 74.5385 108.079 69.0644C109.651 67.0047 111.595 64.0712 113.475 61.2351C115.016 58.9061 116.515 56.6463 117.811 54.8488ZM109.26 126.062C108.221 130.345 109.63 137.407 110.863 142.19C110.61 141.085 110.336 139.812 110.031 138.329C108.802 132.344 108.892 128.434 109.26 126.062ZM130.138 126.781C130.159 126.858 130.18 126.934 130.201 127.011C130.368 126.329 130.63 125.549 130.97 124.693C130.648 125.48 130.37 126.182 130.138 126.781ZM129.816 125.328C129.845 125.487 129.875 125.645 129.907 125.804C130.447 124.441 131.165 122.693 132.047 120.704C130.835 123.164 130.001 124.933 129.816 125.328ZM103.929 97.0357C103.915 97.1274 103.901 97.223 103.892 97.3168C102.676 103.492 108.896 121.402 109.778 123.893C109.897 123.55 110.005 123.313 110.077 123.171C108.094 119.914 104.83 104.878 104.27 99.5058C104.134 98.2066 104.017 97.4622 103.929 97.0357ZM144.387 99.6178C144.489 99.9373 144.549 100.119 144.555 100.137L144.603 100.285L144.505 100.406C138.469 107.839 133.781 117.915 131.286 123.923C134.771 115.745 144.15 101.953 144.646 101.226L144.734 101.097L177.428 102.132L189.67 72.0339C187.89 70.5036 171.403 56.3897 164.981 53.1954C164.908 53.2427 164.807 53.3084 164.681 53.3909C164.607 53.9365 164.569 54.2569 164.566 54.2774L164.546 54.4513L164.381 54.512C162.895 55.0609 147.001 66.3154 138.711 72.2564C138.018 78.3347 145.42 98.1758 145.496 98.3768L145.573 98.5827L145.393 98.7104C145.082 98.9303 144.746 99.2363 144.387 99.6178ZM178.748 104.851C178.789 104.933 178.84 105.028 178.905 105.14C179.114 105.498 180.388 107.419 182.148 110.051C180.605 107.714 179.375 105.819 178.748 104.851ZM259.593 107.592C259.621 107.79 259.842 109.399 259.965 111.811C260.619 105.809 260.159 100.642 257.95 85.4578C257.929 85.3867 255.167 75.0801 248.943 64.4086C245.82 59.0554 242.348 54.4898 238.622 50.8383C225.439 37.9196 209.182 30.9954 205.761 29.8689C205.502 30.6979 205.167 32.3285 205.798 33.0008C206.105 33.3276 208.13 34.6835 210.474 36.2534C215.422 39.5675 222.9 44.5758 225.292 47.2123L225.703 47.705C226.303 47.7076 228.631 47.861 231.076 49.6448C231.854 50.2116 233.071 51.0218 234.481 51.9601C237.948 54.2681 242.698 57.4285 244.649 59.508C247.125 62.1459 249.936 65.6518 252.014 71.6537C254.338 78.3706 256.864 88.1762 256.352 93.7653C256.624 94.6789 259.551 104.592 259.593 107.592ZM143.945 100.11C143.2 100.979 142.378 102.119 141.514 103.437C142.303 102.309 143.119 101.212 143.963 100.167C143.958 100.149 143.952 100.13 143.945 100.11ZM127.583 70.2586C132.622 71.1128 137.247 72.2123 137.605 72.2983L137.817 72.3489L137.824 72.5667C138.042 79.2359 142.819 94.6907 144.19 99.0027C144.432 98.7592 144.664 98.5493 144.885 98.3765C144.049 96.1247 137.367 77.8763 138.159 72.0587L138.176 71.9369L138.276 71.8654C139.231 71.1804 161.205 55.4376 164.018 54.0497C164.026 53.9845 164.036 53.9017 164.048 53.803C159.372 56.8531 140.823 68.9887 137.893 71.5274L137.795 71.6116L137.668 71.5946C134.911 71.2268 131.148 70.7274 127.583 70.2586ZM117.177 68.3542C119.328 68.5747 135.85 70.7757 137.617 71.0111C141.006 68.1577 160.245 55.5966 164.147 53.0562C164.607 49.6771 166.128 39.9086 168.811 35.9445L168.856 35.8774L168.93 35.8439C168.95 35.8353 169.284 35.6874 169.897 35.4519C169.941 35.3207 169.979 35.2106 170.009 35.1243C162.903 30.7401 156.971 31.8333 154.425 32.3029C153.884 32.4028 153.526 32.4684 153.287 32.4609C152.9 32.4486 152.669 32.3209 152.599 32.0809C152.461 31.6097 153.183 30.9958 153.813 30.5643L153.88 30.5187L153.961 30.5144C153.961 30.5144 154.558 30.4857 155.621 30.4146C164.41 29.8276 170.093 32.7225 170.944 33.1881C184.871 29.202 198.206 31.0396 202.121 31.7317C202.035 31.2649 201.857 30.6903 201.508 30.0391L200.99 29.2061C200.934 29.1273 200.876 29.0482 200.815 28.9681C175.348 21.5991 153.823 29.8238 153.607 29.908C141.323 34.3767 127.228 46.0798 124.397 48.7372C122.477 50.5393 117.265 66.4395 117.177 68.3542ZM159.585 31.2672C162.561 31.3614 166.34 32.14 170.505 34.7605L170.696 34.8809L170.623 35.0946C170.621 35.101 170.609 35.1346 170.589 35.1945C174.405 33.8113 184.432 30.7886 196.758 31.8705C196.92 31.8856 200.475 32.2184 202.185 32.7207C202.193 32.6146 202.197 32.4814 202.19 32.3241C198.552 31.6659 185.061 29.7103 170.987 33.7705L170.868 33.8049L170.762 33.7413C170.705 33.7075 164.971 30.3616 155.659 30.9851C154.819 31.0412 154.269 31.0714 154.071 31.0815C153.676 31.3613 153.306 31.6993 153.188 31.8808C153.217 31.8852 153.256 31.8891 153.305 31.8906C153.483 31.8963 153.853 31.8279 154.321 31.7418C155.469 31.5293 157.288 31.1944 159.585 31.2672Z" stroke="url(#paint2_linear)" stroke-width="0.8" stroke-miterlimit="10"/>
</g>
</g>
</g>
<defs>
<filter id="filter0_f" x="94.1366" y="-32.1309" width="171.076" height="222.676" filterUnits="userSpaceOnUse" color-interpolation-filters="sRGB">
<feFlood flood-opacity="0" result="BackgroundImageFix"/>
<feBlend mode="normal" in="SourceGraphic" in2="BackgroundImageFix" result="shape"/>
<feGaussianBlur stdDeviation="2" result="effect1_foregroundBlur"/>
</filter>
<linearGradient id="paint0_linear" x1="65" y1="29" x2="240" y2="207" gradientUnits="userSpaceOnUse">
<stop stop-color="#21A2FF"/>
<stop offset="0.500035" stop-color="#0D1151"/>
<stop offset="1" stop-color="#FF00C9"/>
</linearGradient>
<linearGradient id="paint1_linear" x1="265.001" y1="-24.657" x2="101.429" y2="-28.9715" gradientUnits="userSpaceOnUse">
<stop stop-color="#21A2FF"/>
<stop offset="0.500035" stop-color="#0D1151"/>
<stop offset="1" stop-color="#FF00C9"/>
</linearGradient>
<linearGradient id="paint2_linear" x1="265.001" y1="-24.657" x2="101.428" y2="-28.9271" gradientUnits="userSpaceOnUse">
<stop stop-color="#21A2FF"/>
<stop offset="0.500035" stop-color="#0D1151"/>
<stop offset="1" stop-color="#FF00C9"/>
</linearGradient>
</defs>
</svg>
