<svg width="368" height="240" viewBox="0 0 368 240" fill="none" xmlns="http://www.w3.org/2000/svg">
<g opacity="0.16">
<mask id="mask0" mask-type="alpha" maskUnits="userSpaceOnUse" x="0" y="0" width="368" height="240">
<rect width="368" height="240" fill="white"/>
</mask>
<g mask="url(#mask0)">
<path opacity="0.64" d="M259.29 152.741C259.447 152.992 259.546 153.248 259.542 153.544C259.439 162.402 227.987 190.918 201.284 182.734C167.366 147.898 63.6055 112.496 70.4926 83.9366C79.368 47.1321 98.224 30.2773 135.926 22.7349C195.251 35.0885 237.82 118.435 259.29 152.741Z" fill="#C1C2C6"/>
<path d="M231.303 12.7387C231.303 12.7387 193.775 53.0589 218.534 77.7724C234.993 94.1942 252.66 112.192 262.686 122.428C267.725 127.578 270.81 130.76 270.81 130.76C270.81 130.76 276.516 136.475 279.993 138.335C283.47 140.194 284.991 140.233 282.955 144.501C280.919 148.768 276.966 153.077 276.453 154.906C275.941 156.736 274.358 161.287 271.738 162.74C269.119 164.194 263.469 167.831 250.128 178.248C245.06 182.204 240.417 185.334 235.638 189.426C230.86 193.517 225.837 198.696 231.73 189.746C237.623 180.796 243.637 175.64 241.574 171.589C239.512 167.538 237.186 168.235 248.098 159.66C259.011 151.084 271.656 141.755 273.622 139.594C275.588 137.433 276.046 140.183 262.212 125.686C248.378 111.188 214.815 77.2852 214.815 77.2852C214.815 77.2852 199.955 62.4601 196.906 62.3912C193.856 62.3223 187.611 66.647 174.182 76.7259L155.923 90.3559C155.923 90.3559 123.697 59.7668 124.26 58.8648C124.824 57.9628 163.859 35.5897 164.918 34.3998C165.977 33.2099 167.124 32.9114 186.603 49.593C202.389 63.1298 206.029 66.5539 207.108 67.2286C208.188 67.9032 214.097 67.191 184.894 43.7765C154.539 19.4183 153.916 17.5806 144.091 16.055C134.265 14.5294 130.729 16.3211 115.451 25.0354C107.959 29.3128 106.467 30.5004 105.474 31.1043C100.373 28.3604 95.5749 25.087 91.1599 21.3388C84.481 15.5229 81.695 14.0956 73.4946 17.2732C65.0572 20.5417 62.7118 22.8537 62.7118 22.8537C62.7118 22.8537 72.0234 21.6695 77.8908 26.2616C83.5073 30.7267 90.5555 39.2669 90.5555 39.2669C90.5555 39.2669 101.59 34.8444 102.922 34.0342C104.254 33.2241 107.819 33.4057 105.509 34.8441C101.109 37.1696 96.5637 39.2119 91.9004 40.9584C89.7296 41.4534 90.1498 41.3576 87.9035 38.6102C84.6595 34.5524 79.3842 27.5233 71.5134 25.1284C67.2793 23.8563 63.1664 23.6156 61.6002 24.4884C60.034 25.3612 58.1237 28.7067 59.3221 33.7557C60.5205 38.8048 62.5172 44.1138 65.617 47.081C67.4205 48.8187 69.4628 50.291 71.6819 51.4531C71.6819 51.4531 80.3068 42.9116 90.6984 46.8219C101.422 50.8499 113.366 55.0139 127.23 70.7844C141.094 86.5549 183.722 127.212 189.542 133.731C195.362 140.249 226.233 169.379 228.014 170.492C229.795 171.605 237.951 175.059 229.598 165.315C221.245 155.571 231.168 161.817 233.85 165.717C236.532 169.618 240.025 172.652 237.978 176.912C235.931 181.173 226.008 195.084 225.545 195.825C225.082 196.566 221.824 197.816 220.654 192.769C219.484 187.723 218.275 186.967 215.311 184.503C212.347 182.039 196.227 167.86 183.131 161.528C170.034 155.196 147.88 144.428 130.233 143.241C118.516 142.459 125.132 136.052 130.359 126.701C135.587 117.351 134.032 97.6407 126.847 84.804C120.912 74.2419 111.527 64.7795 99.6201 62.5501C87.7128 60.3206 74.1982 66.7174 74.5176 78.5784C74.8371 90.4394 85.8489 115.387 95.7924 123.81C105.736 132.234 118.707 133.65 121.235 132.079C123.763 130.508 125.742 134.283 120.213 134.218C114.685 134.152 99.0618 136.38 84.623 114.442C70.1843 92.5042 70.0381 72.3899 77.4627 65.0245C84.8873 57.6591 96.7176 56.048 107.592 60.0508C119.093 64.2513 114.289 60.3836 111.604 58.2427C108.919 56.1018 93.8553 48.3765 86.9553 47.8873C81.6079 47.5321 73.7625 51.0063 70.2406 55.8979C66.7186 60.7895 63.3202 71.4172 64.9721 82.1548C66.6241 92.8924 72.4343 114.441 90.74 128.268C110.77 143.397 119.44 143.216 121.845 144.315C124.25 145.415 155.552 150.095 136.132 184.128" stroke="#435568" stroke-width="1.6" stroke-miterlimit="10"/>
<g opacity="0.64" filter="url(#filter0_f)">
<path d="M231.385 12.4829C231.385 12.4829 193.732 53.0033 218.478 77.7366C234.93 94.1715 252.587 112.184 262.608 122.429C267.644 127.583 270.728 130.768 270.728 130.768C270.728 130.768 276.431 136.488 279.908 138.346C283.386 140.205 284.908 140.242 282.865 144.522C280.821 148.801 276.859 153.124 276.343 154.958C275.828 156.792 274.238 161.355 271.614 162.815C268.99 164.276 263.33 167.927 249.965 178.385C244.887 182.356 240.236 185.499 235.448 189.606C230.66 193.713 225.626 198.909 231.536 189.932C237.445 180.956 243.471 175.781 241.413 171.724C239.354 167.667 237.025 168.368 247.958 159.76C258.891 151.151 271.559 141.785 273.53 139.617C275.5 137.449 275.955 140.204 262.129 125.694C248.303 111.184 214.757 77.2534 214.757 77.2534C214.757 77.2534 199.905 62.4164 196.853 62.3514C193.801 62.2864 187.545 66.6287 174.091 76.7472L155.798 90.4307C155.798 90.4307 123.586 59.8194 124.152 58.9146C124.717 58.0099 163.814 35.5367 164.876 34.3429C165.937 33.149 167.085 32.8484 186.559 49.5395C202.339 63.0842 205.978 66.5109 207.057 67.1855C208.137 67.8601 214.052 67.1385 184.856 43.7129C154.508 19.3432 153.887 17.5024 144.056 15.9867C134.224 14.4709 130.682 16.2712 115.38 25.0245C107.876 29.3212 106.381 30.5133 105.386 31.1199C100.285 28.3769 95.4873 25.1029 91.0736 21.3526C84.3969 15.5332 81.6105 14.1065 73.3989 17.3019C64.9501 20.5886 62.5996 22.9087 62.5996 22.9087C62.5996 22.9087 71.9207 21.7096 77.7868 26.3036C83.402 30.7708 90.4447 39.3199 90.4447 39.3199C90.4447 39.3199 101.495 34.8731 102.829 34.0594C104.163 33.2458 107.73 33.423 105.416 34.8676C101.01 37.204 96.458 39.2567 91.7885 41.0132C89.6152 41.5122 90.0359 41.4156 87.7914 38.6653C84.5501 34.6032 79.2798 27.566 71.4056 25.1765C67.1697 23.9074 63.0536 23.6717 61.485 24.5485C59.9163 25.4252 57.9999 28.7804 59.1926 33.8387C60.3852 38.8969 62.3765 44.2146 65.4749 47.1841C67.2775 48.9231 69.3197 50.3958 71.539 51.5574C71.539 51.5574 80.1826 42.9861 90.5776 46.8908C101.305 50.9131 113.254 55.07 127.108 70.8558C140.963 86.6415 183.572 127.329 189.388 133.853C195.203 140.378 226.061 169.529 227.843 170.642C229.624 171.755 237.781 175.205 229.435 165.452C221.088 155.698 231.011 161.944 233.69 165.849C236.368 169.755 239.861 172.79 237.806 177.063C235.752 181.335 225.802 195.29 225.337 196.033C224.873 196.776 221.611 198.032 220.446 192.977C219.282 187.921 218.073 187.166 215.11 184.7C212.147 182.235 196.033 168.047 182.934 161.719C169.835 155.391 147.676 144.63 130.016 143.463C118.291 142.696 124.921 136.266 130.165 126.888C135.409 117.511 133.88 97.7604 126.705 84.9058C120.779 74.3291 111.4 64.859 99.4857 62.6407C87.5715 60.4224 74.037 66.851 74.3409 78.7369C74.6448 90.6229 85.6323 115.609 95.5729 124.037C105.513 132.465 118.493 133.867 121.025 132.289C123.558 130.712 125.534 134.492 120 134.434C114.467 134.376 98.8282 136.629 84.4067 114.664C69.9853 92.6983 69.8659 72.5412 77.3065 65.1501C84.7472 57.7591 96.5895 56.1286 107.467 60.1254C118.973 64.3196 114.17 60.45 111.485 58.3081C108.801 56.1662 93.7351 48.4445 86.83 47.9635C81.4785 47.6147 73.622 51.1068 70.0905 56.0136C66.5591 60.9204 63.1436 71.5754 64.7826 82.3338C66.4216 93.0922 72.2079 114.679 90.5103 128.512C110.536 143.646 119.214 143.452 121.62 144.551" stroke="#435568" stroke-width="1.6" stroke-miterlimit="10"/>
</g>
</g>
</g>
<defs>
<filter id="filter0_f" x="17.1189" y="-65.2715" width="316.135" height="290.792" filterUnits="userSpaceOnUse" color-interpolation-filters="sRGB">
<feFlood flood-opacity="0" result="BackgroundImageFix"/>
<feBlend mode="normal" in="SourceGraphic" in2="BackgroundImageFix" result="shape"/>
<feGaussianBlur stdDeviation="2" result="effect1_foregroundBlur"/>
</filter>
</defs>
</svg>
