<svg width="725" height="1984" viewBox="0 0 725 1984" fill="none" xmlns="http://www.w3.org/2000/svg">
<path d="M323 184.5C323 184.5 302.764 417.33 340.209 485.592C377.655 553.853 466.442 569.556 464.632 687.351C462.822 805.145 463.424 893.945 469.467 899.376L468.125 839.947C466.588 812.617 466.102 622.279 468.022 608.805C469.947 595.331 470.658 588.789 485.697 588.4C500.736 588.017 601.58 598.794 616.595 606.879C631.603 614.965 630.066 634.981 625.833 630.364C621.6 625.747 630.838 614.582 612.744 609.959C594.656 605.342 589.262 602.645 586.183 605.342C583.103 608.04 583.103 625.747 570.403 623.433C557.702 621.124 526.908 619.581 526.136 616.502C525.365 613.422 521.903 611.885 521.132 605.725C520.36 599.565 516.515 593.406 500.729 593.023C484.95 592.64 477.679 591.128 472.632 604.188C467.584 617.243 519.589 584.937 576.556 592.251C633.523 599.565 625.056 621.124 626.981 639.604C628.906 658.083 622.747 841.709 622.747 841.709C622.747 841.709 619.577 842.043 614.87 842.73C602.843 844.485 580.765 848.543 575.784 855.183C568.854 864.422 568.854 883.284 570.779 888.29C572.705 893.295 576.938 902.535 581.943 904.461C586.948 906.386 598.592 904.843 609.13 904.843C619.668 904.843 626.21 901.381 640.453 899.066C654.696 896.758 677.018 898.684 676.252 901.764C675.487 904.843 645.458 898.301 650.851 902.918C656.239 907.534 676.641 908.306 672.79 910.232C668.939 912.157 623.136 908.306 611.972 909.46C600.809 910.614 581.949 909.077 580.795 932.556C579.641 956.041 581.567 963.738 586.954 969.126C592.342 974.514 616.206 971.823 628.524 971.823C640.841 971.823 679.332 963.932 690.107 972.497C700.882 981.063 649.309 972.497 649.309 972.497C649.309 972.497 595.804 970.39 591.188 976.306C586.571 982.217 584.646 1003 587.337 1011.09C590.034 1019.18 593.21 1025.34 609.136 1025.34C625.062 1025.34 649.308 1023.41 658.93 1025.34C668.551 1027.26 683.176 1028.03 676.252 1031.11C669.328 1034.19 647.383 1026.88 633.14 1028.03C618.897 1029.19 594.267 1021.86 592.724 1031.88C591.188 1041.89 590.799 1057.29 600.809 1063.84C610.818 1070.38 647.766 1068.84 660.855 1070C673.944 1071.15 682.794 1071.92 665.471 1074.23C648.148 1076.54 643.915 1074.61 651.999 1083.09C660.084 1091.56 647.383 1086.55 643.915 1080.78C640.453 1075 626.592 1072.31 620.051 1073.47C613.509 1074.62 619.668 1031.12 632.751 1033.04C645.84 1034.97 634.677 1075 631.214 1063.84C627.752 1052.68 660.563 1036.22 659.695 1002.63C658.826 969.047 633.905 954.899 637.756 981.846C641.607 1008.79 640.453 1056.53 648.148 1008.79C655.844 961.059 646.223 887.148 633.523 920.255C620.822 953.362 637.373 997.246 642.761 951.819C648.148 906.392 605.042 870.206 618.897 921.409C632.751 972.607 632.751 972.607 632.751 972.607C632.751 972.607 658.158 1089.25 635.059 1085.01C611.96 1080.78 594.261 1073.47 581.554 1052.68C568.854 1031.89 562.306 1038.43 577.704 1058.07C593.101 1077.7 602.339 1071.16 605.03 1085.78C607.721 1100.41 613.497 1118.89 631.202 1134.67C648.908 1150.46 660.071 1150.07 678.548 1132.37C697.025 1114.66 698.562 1103.88 700.487 1087.33C702.412 1070.77 713.959 1075.78 715.113 1065.39C716.267 1054.99 703.178 1038.06 710.497 1029.58C717.816 1021.11 723.586 1015.72 722.814 1000.71C722.043 985.698 722.814 992.623 717.81 983.001C712.805 973.378 724.874 950.665 722.881 937.574C720.889 924.483 702.03 926.409 698.179 911.781C698.179 911.781 689.645 903.592 697 898.684C704.362 893.775 716.133 886.419 710.74 863.359C705.346 840.3 683.759 834.899 670.512 834.899C657.265 834.899 590.088 847.012 580.249 858.451C573.725 866.032 580.072 881.675 586.626 890.932C589.955 895.634 593.338 898.69 595.111 898.192C600.365 896.722 596.927 856.975 590.55 858.451C584.172 859.921 570.925 879.548 582.702 893.775C582.702 893.775 621.593 927.034 592.706 922.964C563.819 918.894 463.867 906.733 496.028 913.275C509.755 916.07 642.026 932.167 548.045 923.918C548.045 923.918 544.492 902.146 521.545 925.892C494.346 954.03 549.782 948.308 546.156 960.992C542.53 973.676 514.147 999.05 533.474 1019.59C552.801 1040.13 552.199 1035.9 554.611 1052.21C557.028 1068.52 587.227 1073.96 588.436 1083.01C589.645 1092.07 554.009 1058.25 547.365 1058.25C540.72 1058.25 505.692 1068.58 505.692 1084.56C505.692 1100.53 506.9 1128.32 518.374 1139.8C529.848 1151.28 510.521 1139.8 510.521 1139.8C510.521 1139.8 496.022 1115.64 500.256 1088.46C504.483 1061.27 490.592 1096.91 490.592 1096.91C490.592 1096.91 466.43 1159.74 485.156 1192.36C503.882 1224.98 546.156 1238.87 561.256 1238.87C576.355 1238.87 604.137 1226.19 605.953 1228.61C607.763 1231.02 583.607 1249.15 570.318 1248.54C557.028 1247.94 513.545 1231.02 499.047 1220.76C484.549 1210.49 462.391 1186.93 460.788 1197.8C459.184 1208.68 493.01 1233.44 500.256 1235.25C507.502 1237.06 536.492 1251.56 547.365 1252.77C558.237 1253.98 573.337 1261.23 594.474 1249.15C615.611 1237.06 611.383 1248.41 597.492 1256.03C583.601 1263.65 564.274 1273.64 546.757 1269.25C529.24 1264.85 501.458 1250.35 483.34 1234.65C465.222 1218.94 454.349 1194.78 446.496 1209.88C438.642 1224.98 480.923 1238.87 487.567 1249.75C494.212 1260.62 453.141 1223.77 438.642 1224.98C424.144 1226.19 500.851 1268.55 516.558 1270.32C532.259 1272.1 538.904 1273.3 525.62 1275.12C512.331 1276.93 448.312 1247.34 452.539 1257.6C456.767 1267.87 509.919 1285.39 511.128 1295.05C512.337 1304.72 482.137 1314.38 488.175 1328.27C494.212 1342.17 506.9 1343.98 493.611 1357.27C480.321 1370.56 464.013 1377.21 470.056 1387.47C476.094 1397.74 467.639 1405.59 452.539 1394.12C437.44 1382.64 379.459 1339.75 372.814 1346.4C366.169 1353.04 447.103 1397.14 430.194 1403.18C413.284 1409.21 315.434 1357.87 323.895 1368.74C332.35 1379.62 428.384 1418.88 422.947 1423.71C417.511 1428.55 325.103 1380.22 332.35 1388.68C339.596 1397.13 409.658 1419.56 399.393 1424.05C389.128 1428.55 314.833 1391.09 320.876 1399.55C326.913 1408 365.574 1432.77 360.739 1436.4C355.904 1440.02 262.895 1363.31 248.397 1362.1C233.898 1360.89 358.929 1444.85 349.259 1450.29C339.596 1455.73 261.68 1405.59 262.889 1412.84C264.097 1420.09 311.206 1444.85 301.543 1444.85C291.879 1444.85 215.78 1389.88 221.21 1399.55C226.646 1409.21 279.798 1443.04 273.154 1444.25C266.509 1445.46 154.167 1468.04 158.394 1450.7C162.621 1433.38 176.512 1429.75 154.768 1412.23C133.023 1394.71 107.051 1404.38 125.17 1382.03C143.288 1359.68 142.687 1337.93 136.042 1334.91C129.397 1331.89 129.397 1331.9 129.397 1331.9C129.397 1331.9 120.335 1328.88 110.672 1335.52C101.008 1342.17 50.8743 1345.79 35.1733 1357.87C19.4723 1369.95 -2.87951 1328.88 1.9553 1314.38C6.7901 1299.88 23.0924 1255.78 36.9894 1244.3C50.8803 1232.83 76.8522 1217.12 122.151 1205.04C167.45 1192.95 196.441 1169.4 201.877 1165.77C207.313 1162.14 232.076 1184.5 237.512 1190.54C242.948 1196.57 248.384 1205.04 244.758 1211.08C241.132 1217.11 207.313 1260.61 191.005 1275.11C174.696 1289.61 124.569 1325.85 133.023 1327.66C141.478 1329.47 209.123 1270.88 221.811 1251.55C234.493 1232.22 259.257 1208.66 255.029 1202.02C250.802 1195.37 213.356 1160.94 213.356 1160.94C213.356 1160.94 192.219 1161.54 203.092 1132.55C213.964 1103.55 233.291 1113.82 237.518 1119.86C241.746 1125.91 233.291 1144.63 224.836 1151.28C216.381 1157.92 222.206 1156.86 226.421 1154.42C232.021 1151.18 239.936 1127.11 242.353 1136.17C244.77 1145.24 244.77 1160.34 252.017 1165.17C259.263 1170 278.59 1184.5 281.615 1178.46C284.633 1172.42 288.259 1165.17 294.297 1161.55C300.334 1157.92 313.023 1151.28 316.041 1141.01C319.06 1130.74 310.004 1105.37 313.023 1096.31C316.041 1087.24 329.331 1069.12 331.141 1069.12C332.951 1069.12 324.496 1084.22 324.496 1084.22C324.496 1084.22 332.35 1075.77 335.97 1076.37C339.59 1076.97 331.135 1088.45 326.306 1093.28C321.471 1098.12 325.097 1105.96 329.325 1105.96C333.552 1105.96 352.879 1090.26 350.462 1077.57C348.044 1064.89 349.697 1054.62 344.042 1051.6C338.387 1048.58 315.434 1054.62 318.453 1050.99C321.471 1047.37 334.761 1047.37 334.761 1044.35C334.761 1041.33 314.225 1037.7 300.936 1043.75C287.646 1049.79 305.77 1036.5 317.244 1037.1C328.717 1037.7 329.325 1030.46 322.079 1028.65C314.833 1026.84 292.803 1030.97 288.575 1036.4C284.348 1041.84 283.425 1049.18 281.615 1049.18C279.805 1049.18 268.325 1057.63 263.496 1064.88C258.661 1072.13 254.543 1112.56 246.587 1118.04C238.63 1123.52 234.506 1104.89 232.696 1099.68C230.886 1094.48 216.995 1090.86 212.16 1090.25C207.325 1089.64 206.122 1068.5 212.761 1061.25C219.406 1054.01 248.998 1040.72 247.795 1035.89C246.587 1031.05 213.97 1050.39 206.724 1058.84C199.478 1067.3 191.624 1075.15 183.169 1071.53C174.714 1067.9 181.961 1064.88 174.714 1067.9C167.468 1070.92 157.197 1076.36 151.16 1077.57C145.123 1078.77 142.705 1080.58 136.662 1079.38C130.624 1078.17 126.998 1078.17 119.752 1087.83C112.506 1097.5 99.8175 1111.39 101.026 1113.2C102.235 1115.01 91.3627 1134.95 69.0169 1151.26C46.6712 1167.57 31.5715 1195.35 33.9828 1206.23C36.4002 1217.1 27.0708 1230.39 20.262 1241.87C13.4531 1253.34 0.16351 1285.09 10.4284 1269.22C20.6932 1253.34 38.2102 1218.91 50.2912 1201.39C62.3721 1183.87 84.7179 1159.11 94.3814 1167.56C104.045 1176.02 29.7554 1225.55 42.4377 1223.13C55.1199 1220.72 91.3627 1177.23 107.671 1178.43C123.979 1179.64 62.038 1203.21 74.453 1209.84C86.8619 1216.48 168.677 1183.27 198.269 1159.1C227.867 1134.93 272.558 1057.62 264.104 1047.35C255.649 1037.08 252.023 1032.25 246.587 1020.77C241.15 1009.3 236.923 983.323 236.923 983.323C236.923 983.323 224.842 982.721 221.823 965.803C218.805 948.891 224.842 919.897 226.658 915.662C228.468 911.434 233.904 928.346 233.904 928.346L232.094 909.618L233.904 903.58L233.303 898.744L236.929 899.346L230.892 887.871L236.328 888.472V878.807L240.555 881.225V873.37L236.929 867.934L247.194 864.914L244.175 860.686L245.985 857.06L247.194 844.376L247.795 841.357C247.795 841.357 244.169 835.92 247.795 836.521C251.421 837.123 251.421 837.123 251.421 837.123L252.63 831.084V824.439L256.256 820.35L261.091 814.166L264.717 802.084L270.754 806.919L275.589 796.653L281.627 799.672C281.627 799.672 282.228 794.235 284.044 794.235C285.86 794.235 288.272 794.235 288.272 794.235L288.873 788.197L293.708 791.216L305.23 787.59C305.23 787.59 298.627 782.153 305.23 783.963C311.832 785.773 319.679 786.982 319.679 786.982L330.552 783.963L337.197 780.336C337.197 780.336 342.475 779.735 344.06 781.545C345.651 783.355 345.651 783.355 345.651 783.355L350.486 786.375C355.922 785.166 358.34 789.394 358.34 789.394L363.174 792.413L372.838 789.995C372.838 789.995 377.673 782.748 381.293 785.767C384.919 788.786 387.938 793.014 387.938 793.014L392.772 796.033L392.171 803.28L401.233 804.489H404.859L403.049 812.945H415.732L415.13 820.338C415.13 820.338 418.149 822.61 418.756 824.427C419.364 826.243 416.946 834.693 416.946 834.693L422.984 839.528L422.383 846.174C422.383 846.174 417.548 840.737 420.573 849.801C423.591 858.864 429.027 866.111 429.027 866.111L422.383 864.902L427.819 874.567L423.591 889.067L424.193 895.713L419.965 902.96L424.193 912.625L417.548 916.853L418.149 931.353L416.339 936.79C416.339 936.79 409.129 932.994 392.785 924.106C381.426 917.934 381.038 911.842 364.146 911.009C350.656 910.347 345.068 916.859 340.841 929.543C336.613 942.227 331.177 963.975 332.987 966.994C334.797 970.013 339.632 973.032 340.841 976.659C342.05 980.285 340.841 986.323 338.423 988.741C338.423 988.741 335.077 986.712 332.35 986.214C329.622 985.716 326.403 990.181 323.427 990.43C320.451 990.679 311.777 990.679 310.787 989.191C309.797 987.702 307.143 984.726 305.248 983.736C303.353 982.745 299.162 984.55 299.162 984.55C298.913 982.071 298.16 979.477 298.646 976.276C299.478 970.833 308.552 967.376 309.791 965.639C311.03 963.902 318.714 942.336 318.465 934.154C318.216 925.971 317.475 916.555 314.747 915.067C312.02 913.579 304.835 908.124 297.893 906.885C290.95 905.645 267.657 905.645 271.617 903.416C275.583 901.186 291.77 900.688 305.242 906.143C318.714 911.599 315.987 906.393 309.542 904.163C303.098 901.934 283.765 896.23 273.603 897.469C263.442 898.708 264.432 899.947 258.236 901.685C252.041 903.422 248.075 899.947 254.768 897.22C261.461 894.492 251.792 890.033 254.27 885.319C256.748 880.605 267.408 851.605 271.374 846.15C275.34 840.695 278.067 836.977 278.808 835.738C279.549 834.498 279.549 833.01 286.243 833.508C292.936 834.006 290.209 837.226 296.902 833.508C303.596 829.79 306.074 828.8 309.05 829.043C312.026 829.292 318.714 834.249 322.437 837.226C326.16 840.202 318.72 843.173 329.622 844.169C340.525 845.166 336.723 844.418 344.078 844.418C351.434 844.418 353.414 841.691 360.605 841.442C367.797 841.193 371.016 839.461 377.211 841.442C383.406 843.422 382.915 842.183 387.373 844.661C391.831 847.14 391.09 845.402 394.807 848.628C398.524 851.854 396.544 850.116 398.773 854.575C401.003 859.04 400.511 854.575 401.993 861.021C403.481 867.466 402.242 864.24 403.232 869.695C404.222 875.15 404.969 874.403 403.73 878.868C402.491 883.333 400.262 883.576 401.75 886.802C403.238 890.027 403.487 888.539 405.218 892.506C406.955 896.472 400.511 898.951 400.012 901.18C399.514 903.41 404.228 904.898 405.218 907.875C406.208 910.851 408.935 913.579 409.925 914.569C410.915 915.559 411.413 917.297 409.676 920.024C407.939 922.752 405.959 924.981 405.959 927.21C405.959 929.44 401.191 921.087 387.865 913.33C376.756 906.86 252.284 877.137 245.839 904.655C239.395 932.173 239.644 978.281 245.098 990.673C250.553 1003.07 257.987 1022.16 263.442 1033.06C268.896 1043.97 269.637 1042.48 269.886 1048.18C270.135 1053.89 268.647 1063.55 276.33 1064.29C284.014 1065.03 289.219 1009.26 291.946 1005.29C294.673 1001.33 307.064 1007.28 306.572 1015.71C306.08 1024.14 301.616 1032.31 303.353 1033.31C305.09 1034.3 305.582 1019.67 309.299 1017.69C313.016 1015.71 325.656 1010.25 338.794 1018.68C351.932 1027.1 337.306 1035.29 335.818 1037.02C334.33 1038.76 313.266 1077.43 318.963 1110.4C324.666 1143.37 332.252 1269.19 326.944 1299.83C322.528 1325.3 294.922 1337.71 283.024 1300.78C271.125 1263.85 287.488 1232.61 287.98 1204.6C288.478 1176.59 296.404 1149.57 287.482 1113.62C287.482 1113.62 273.992 1063.03 276.409 1059.01C278.827 1054.98 291.308 1100.49 293.726 1137.94C296.143 1175.39 262.719 1270.83 278.025 1302.24C293.325 1333.66 291.715 1434.33 217.626 1451.25C143.537 1468.16 102.867 1473.4 141.928 1491.52C180.989 1509.64 276.014 1517.29 265.543 1546.29C255.072 1575.28 107.701 1605.49 67.4377 1647.77C27.174 1690.06 32.0027 1726.3 88.7813 1727.11C145.56 1727.92 346.083 1757.69 348.5 1983.5" stroke="#31F565" stroke-width="2" stroke-miterlimit="10"/>
<path d="M346.732 65.6658C357.14 71.1833 368.366 77.2853 374.74 80.7594C377.945 82.5077 379.911 83.5923 379.911 83.5923C379.911 83.5923 383.522 85.516 385.482 85.9018C387.442 86.2875 388.185 86.0816 387.831 88.45C387.477 90.8183 386.2 93.4904 386.223 94.4526C386.245 95.4147 386.153 97.8532 385.099 98.9451C384.045 100.037 381.847 102.635 376.927 109.656C375.058 112.322 373.272 114.526 371.563 117.215C369.854 119.904 368.188 123.156 369.717 117.949C371.246 112.741 373.396 109.354 371.796 107.697C370.197 106.04 369.173 106.722 373.189 100.953C377.206 95.1835 381.95 88.7928 382.582 87.4551C383.214 86.1173 383.844 87.3815 374.993 82.4074C366.143 77.4332 344.858 65.9803 344.858 65.9803C344.858 65.9803 335.462 60.9994 333.974 61.4174C332.487 61.8355 330.102 64.8547 325.089 71.7246L318.262 81.0295C318.262 81.0295 298.116 70.9839 298.256 70.4635C298.395 69.9432 313.992 53.3278 314.329 52.5947C314.665 51.8616 315.177 51.5473 327.087 56.7435C336.74 60.9635 339.011 62.0832 339.634 62.2501C340.257 62.4171 343.015 61.1973 325.396 54.1793C307.08 46.8747 306.506 46.0768 301.52 46.7923C296.534 47.5078 295.086 48.8992 288.975 55.3818C285.979 58.5627 285.432 59.3589 285.04 59.7984C282.162 59.2245 279.353 58.3492 276.658 57.1873C272.561 55.359 270.999 55.0801 267.497 57.8332C263.894 60.6654 263.1 62.1325 263.1 62.1325C263.1 62.1325 267.436 60.1804 270.959 61.5361C274.342 62.8674 279.022 65.9606 279.022 65.9606C279.022 65.9606 283.713 62.1849 284.238 61.5953C284.764 61.0057 286.517 60.566 285.611 61.6047C283.824 63.3824 281.925 65.0445 279.924 66.5808C278.946 67.1419 279.135 67.0333 277.64 66.035C275.467 64.5499 271.869 61.9261 267.701 61.9313C265.461 61.9419 263.433 62.4342 262.804 63.0888C262.174 63.7434 261.744 65.6466 263.073 67.9148C264.402 70.183 266.156 72.4589 268.097 73.4373C269.228 74.012 270.436 74.4228 271.683 74.6571C271.683 74.6571 274.597 69.2431 280.211 69.5988C286.003 69.9624 292.407 70.211 301.461 75.7973C310.515 81.3836 337.192 94.7662 340.977 97.0619C344.763 99.3576 364.036 108.897 365.064 109.173C366.092 109.448 370.554 109.914 365.064 106.431C359.573 102.948 365.306 104.504 367.184 105.996C369.061 107.488 371.203 108.441 370.842 110.807C370.482 113.174 367.735 121.381 367.621 121.809C367.506 122.236 366.113 123.324 364.799 121.052C363.484 118.781 362.786 118.594 360.985 117.84C359.184 117.085 349.273 112.603 341.99 111.475C334.706 110.347 322.377 108.411 313.651 110.448C307.859 111.804 310.115 107.721 311.262 102.418C312.409 97.1155 308.736 87.7986 303.352 82.6447C298.912 78.4074 292.963 75.2134 286.864 75.8962C280.764 76.5791 275.164 81.6781 277.077 87.3759C278.989 93.0737 288.021 103.527 294.086 106.135C300.152 108.743 306.646 107.509 307.638 106.374C308.63 105.239 310.148 106.774 307.46 107.561C304.772 108.348 297.533 111.74 287.287 103.251C277.041 94.7625 273.989 85.0415 276.495 80.3749C279.001 75.7082 284.494 73.1765 290.356 73.5055C296.55 73.8375 293.65 72.6753 292.031 72.0358C290.413 71.3964 281.97 69.8844 278.555 70.6689C275.912 71.2885 272.625 74.1327 271.644 77.0234C270.662 79.9141 270.59 85.5649 272.982 90.5213C275.373 95.4777 281.381 105.055 292.299 109.043C298.404 111.272 302.48 112.004 305.183 112.21C322.5 123.001 323 150.001 323 185.501" stroke="#31F565" stroke-width="2" stroke-miterlimit="10"/>
<path d="M354.5 7.00098L342 29.501" stroke="#31F565" stroke-width="2"/>
<path d="M324 1.00098L322.5 29.501" stroke="#31F565" stroke-width="2"/>
<path d="M291 6.00098L304.5 29.501" stroke="#31F565" stroke-width="2"/>
<g filter="url(#filter0_d)">
<path d="M481.835 613.103C481.835 612.166 482.485 611.355 483.4 611.151L509.581 605.316C510.427 605.128 511.298 605.506 511.739 606.252L521.994 623.642C522.313 624.182 522.867 624.542 523.49 624.613L582.512 631.331C583.394 631.431 584.237 630.938 584.581 630.12L591.358 614.024C591.731 613.14 592.679 612.644 593.618 612.844L613.871 617.154C614.815 617.354 615.481 618.2 615.454 619.164L609.547 835.287C609.52 836.273 608.796 837.091 607.82 837.236C601.186 838.219 576.818 842.321 569.5 850.5C561.99 858.894 558.383 885.633 565.922 896.92C566.932 898.432 566.261 900.667 564.444 900.573C546.559 899.647 493.458 890.93 483.466 889.272C482.502 889.112 481.835 888.285 481.835 887.308V613.103Z" fill="white"/>
</g>
<defs>
<filter id="filter0_d" x="465.835" y="589.268" width="165.62" height="327.308" filterUnits="userSpaceOnUse" color-interpolation-filters="sRGB">
<feFlood flood-opacity="0" result="BackgroundImageFix"/>
<feColorMatrix in="SourceAlpha" type="matrix" values="0 0 0 0 0 0 0 0 0 0 0 0 0 0 0 0 0 0 127 0"/>
<feOffset/>
<feGaussianBlur stdDeviation="8"/>
<feColorMatrix type="matrix" values="0 0 0 0 0 0 0 0 0 0.88 0 0 0 0 0.232941 0 0 0 1 0"/>
<feBlend mode="normal" in2="BackgroundImageFix" result="effect1_dropShadow"/>
<feBlend mode="normal" in="SourceGraphic" in2="effect1_dropShadow" result="shape"/>
</filter>
</defs>
</svg>
