<svg width="580" height="1655" viewBox="0 0 580 1655" fill="none" xmlns="http://www.w3.org/2000/svg">
<path d="M557.218 10C557.218 10 513.414 181.401 538.775 318.213C564.136 455.024 594.873 625.655 569.513 734.802C544.152 843.942 520.326 899.284 521.868 884.681C523.403 870.077 571.054 741.721 562.601 736.337C554.147 730.96 415.812 706.36 400.447 710.202C385.075 714.044 319.752 933.867 315.14 943.093C310.528 952.318 305.915 954.625 302.845 955.39C299.768 956.16 270.566 969.993 261.348 969.993C252.123 969.993 245.037 971.845 237.354 978.764C229.671 985.684 216.009 988.438 210.626 990.744C205.249 993.05 195.254 994.586 192.948 1000.73C190.642 1006.88 179.118 1025.33 183.724 1036.86C188.336 1048.39 199.86 1059.15 196.019 1063.76C192.177 1068.37 187.714 1073.75 182.642 1069.14C177.57 1064.52 173.728 1049.92 172.193 1042.24C170.658 1034.55 166.816 1013.03 176.034 1007.65C185.259 1002.27 200.625 993.044 190.636 993.815C180.647 994.586 176.805 1005.35 166.81 1007.65C156.821 1009.95 102.258 1028.4 77.6618 1060.68C53.0718 1092.97 69.979 1112.95 77.6618 1118.33C85.3447 1123.71 114.553 1138.32 132.225 1118.33C149.903 1098.34 154.509 1075.29 162.962 1075.29C171.416 1075.29 145.284 1117.56 132.989 1125.24C120.694 1132.93 82.7029 1143.69 64.8136 1108.33C46.9181 1072.98 88.4216 1037.62 94.5691 1032.24C100.717 1026.86 128.383 1019.17 133.76 1015.33C139.137 1011.49 140.679 1003.03 133.76 996.115C126.842 989.196 99.175 866.217 92.263 815.488C85.3447 764.76 77.6618 744.773 70.7436 744.773C63.8253 744.773 29.2463 771.673 11.5683 832.398C-6.10969 893.117 1.57936 1060.68 11.5683 1080.66C21.5572 1100.64 60.7546 1157.52 103.787 1144.45C146.82 1131.38 168.339 1112.94 150.667 1119.09C132.989 1125.24 92.263 1161.36 62.29 1118.32C32.3169 1075.27 75.3558 1031.46 97.6397 1018.4C119.924 1005.33 132.989 1006.1 110.706 886.962C88.4216 767.825 44.612 744.002 87.6508 741.696C130.69 739.389 146.826 740.925 150.667 734.777C154.509 728.628 163.733 703.264 166.039 697.88C168.345 692.503 179.105 695.574 185.253 704.029C191.4 712.484 190.629 730.164 198.318 737.077C206.001 743.996 219.838 756.293 229.827 760.135C239.816 763.977 242.893 767.054 242.893 772.431C242.893 777.809 234.439 783.752 238.28 808.066C242.122 832.379 252.882 870.811 255.188 896.946C257.494 923.081 259.8 975.345 258.264 979.187C256.729 983.029 246.734 905.401 246.734 905.401C246.734 905.401 236.745 847.753 232.133 827.773C227.521 807.786 232.133 778.58 225.215 775.509C218.296 772.431 210.613 777.815 202.16 767.825C193.706 757.835 182.176 748.609 179.105 747.838C176.028 747.067 159.892 783.963 158.357 776.28C156.821 768.596 160.663 723.245 165.275 714.79C169.887 706.335 176.805 700.187 181.411 690.961C186.023 681.736 192.942 662.52 190.636 651.765C188.33 641.004 188.33 634.855 183.717 631.778C179.105 628.701 166.81 617.946 163.733 607.949C160.656 597.959 154.509 587.59 158.357 578.171C162.198 568.753 166.039 563.369 170.652 563.369C175.264 563.369 182.947 573.359 186.788 581.814C190.629 590.269 196.777 609.485 190.629 614.098C184.482 618.71 176.028 607.178 177.564 584.121C177.564 584.121 179.422 574.584 175.04 562.667L173.579 560.478L175.767 558.775L173.094 557.805L172.852 554.883L174.07 552.695L171.155 550.749L174.561 546.858L167.755 544.427C167.755 544.427 165.567 541.263 166.779 540.293C167.997 539.317 168.725 538.104 168.725 538.104L165.318 531.54L163.13 528.624C163.13 528.624 160.942 528.866 161.67 527.163C162.397 525.46 164.1 521.81 164.1 521.81L163.124 518.646L168.234 510.863L168.961 506.001L167.742 499.194C167.742 499.194 171.876 502.843 173.337 499.194C174.798 495.545 174.555 492.138 174.555 492.138C174.555 492.138 172.125 487.276 173.094 487.276C174.064 487.276 180.392 485.573 180.392 485.573L181.362 480.463L185.495 476.329L192.059 477.056L193.035 470.249L196.926 469.03L200.575 467.327L203.739 465.139L204.715 460.762L209.824 459.544L209.339 454.434L213.715 446.893L219.552 443.243L220.528 439.352C220.528 439.352 227.092 441.783 227.825 441.298C228.553 440.813 231.716 438.867 231.716 438.867L235.123 441.783L238.771 439.109C238.771 439.109 241.935 436.921 242.905 436.921C243.881 436.921 247.766 439.837 247.766 439.837L254.572 435.945L265.027 435.218L273.779 431.326V433.514L278.889 432.296C278.889 432.296 283.507 432.296 283.75 433.023C283.992 433.75 287.641 434.484 287.641 434.484L294.447 433.266L299.799 433.508L300.526 438.618L308.066 438.861L313.418 442.51L320.224 443.971L324.358 443.001L325.085 447.378L333.837 449.081L336.268 451.269L339.674 454.918L342.347 460.514L349.644 461.483L353.778 466.102L355.723 470.964L361.56 472.91L364.966 476.074L365.209 482.154L371.53 485.318L375.906 487.507L378.337 492.859H374.203L380.767 497.721L385.386 501.855L381.252 506.474L382.47 510.608L379.797 510.365L383.689 518.634L377.852 516.445C377.852 516.445 380.767 521.307 380.767 522.04C380.767 522.768 381.01 528.12 379.064 528.363C377.118 528.605 377.118 528.605 377.118 528.605L376.634 532.012C376.634 532.012 374.688 536.146 373.961 536.146C373.234 536.146 372.015 536.874 372.5 538.819C372.985 540.765 374.203 541.984 373.961 542.711C373.718 543.438 370.554 544.657 370.07 545.384C369.585 546.112 366.906 553.41 365.694 549.033C364.475 544.657 367.397 540.032 366.421 534.443C365.445 528.848 365.203 527.635 365.203 527.635C365.203 527.635 366.172 519.852 359.608 517.906C353.044 515.96 352.802 516.93 349.153 513.287C345.504 509.644 342.347 505.504 342.347 505.504C342.347 505.504 340.159 500.151 335.292 497.236C330.431 494.32 327.509 491.156 327.509 491.156L324.346 486.294C324.346 486.294 314.133 489.216 311.945 489.459C309.757 489.701 304.647 486.543 302.702 485.324C300.756 484.106 297.108 482.894 297.108 482.894C297.108 482.894 295.075 484.84 292.079 483.136C289.083 481.433 285.434 479.972 285.434 479.972C285.434 479.972 278.628 478.753 277.894 478.753C277.167 478.753 275.464 477.535 273.518 477.05C271.573 476.565 265.494 478.753 264.033 474.134C262.572 469.515 258.439 470 258.439 470L243.116 478.268C243.116 478.268 235.092 482.887 231.928 485.324C228.764 487.755 226.333 489.701 222.685 491.162C219.036 492.623 217.333 492.623 216.121 496.999C214.902 501.376 215.145 504.783 211.987 506.486C208.823 508.19 205.666 509.402 204.205 513.051C202.744 516.7 199.344 522.295 200.799 525.696C202.259 529.103 200.071 532.752 199.58 533.722C199.095 534.698 198.362 536.395 198.604 537.371C198.847 538.347 200.065 541.505 199.332 542.723C198.604 543.942 197.871 546.858 197.871 546.858C197.871 546.858 197.871 554.883 199.089 555.859C200.308 556.829 198.604 558.048 198.604 558.048L195.932 560.236C195.932 560.236 196.416 566.558 196.907 568.019C197.392 569.48 197.392 569.48 197.392 569.48C197.392 569.48 194.477 574.945 194.228 578.171C193.986 581.398 192.283 587.963 193.744 588.454C195.204 588.939 210.035 555.132 253.565 552.459C297.095 549.786 293.689 572.16 294.422 586.999C295.15 601.838 292.066 573.621 292.066 573.621C292.066 573.621 291.258 547.84 247.244 555.866C203.229 563.891 215.63 574.105 233.867 566.08C252.105 558.054 275.694 550.755 285.664 564.619C294.043 576.269 292.135 610.567 290.401 623.18L288.586 627.613C288.586 627.613 278.876 630.504 277.248 633.718C274.277 639.574 276.85 642.763 276.85 642.763C276.85 642.763 284.036 641.01 285.583 643.242L289.313 647.699C292.595 648.669 298.717 648.868 301.328 649.253C302.671 649.452 305.145 644.124 305.145 644.124L311.591 645.797C311.591 645.797 314.953 641.078 314.245 638.579C313.536 636.086 308.825 632.53 308.197 632.561L306.189 627.75L313.629 593.309C320.193 568.747 323.6 563.152 335.516 561.448C347.431 559.745 356.674 575.069 356.674 575.069C356.674 575.069 361.05 587.471 359.838 598.662C358.62 609.852 342.813 645.604 341.358 642.44C339.898 639.275 349.383 627.849 352.056 614.713C354.729 601.577 358.378 584.313 355.22 584.065C352.056 583.822 340.874 606.681 341.843 614.713C342.813 622.739 343.304 640.979 337.467 651.199C331.631 661.413 326.279 681.114 325.794 687.194C325.309 693.274 319.23 701.542 314.363 706.652C309.496 711.762 288.101 730.972 277.639 733.409C267.178 735.846 254.777 740.465 246.025 737.786C237.273 735.106 210.035 713.951 207.847 708.841C205.659 703.73 201.041 694.25 206.629 699.111C212.223 703.973 216.599 707.137 219.272 710.059C221.945 712.981 232.406 722.952 238.243 725.141C244.08 727.329 257.214 734.143 264.748 731.463C272.287 728.79 279.094 720.764 279.094 716.139C279.094 711.52 277.633 701.548 277.876 698.869C278.118 696.196 281.524 690.843 283.955 688.17C286.385 685.497 286.385 682.332 284.44 682.09C282.494 681.847 270.093 677.956 265.96 676.252C261.826 674.549 256.474 669.93 256.717 667.984C256.959 666.038 262.311 671.391 271.063 674.307C279.815 677.222 283.464 679.168 288.573 680.144C293.683 681.114 295.38 683.308 297.574 680.871C299.762 678.441 299.277 669.924 291.01 669.196C282.743 668.469 267.048 668.227 263.772 668.712C260.496 669.196 298.792 682.575 294.416 684.036C290.04 685.497 269.608 692.062 275.688 708.598C281.767 725.135 314.841 702.761 313.138 712.247C311.435 721.734 310.223 739.247 305.841 741.192C301.459 743.138 278.36 753.352 271.554 759.675C264.748 765.997 253.317 779.133 251.613 783.025C249.91 786.916 245.049 804.429 244.316 811.236C243.589 818.043 243.346 828.991 245.534 832.883C247.722 836.774 244.565 807.587 253.074 795.185C261.584 782.782 289.549 759.675 297.822 758.214C306.096 756.753 306.332 763.809 307.308 771.35C308.277 778.891 304.635 792.996 306.089 792.754C307.55 792.511 312.411 778.648 316.545 767.458C320.678 756.268 338.916 755.783 334.54 747.03C330.164 738.277 316.545 719.546 316.787 715.169C317.029 710.793 323.842 716.873 326.757 717.6C329.673 718.327 344.267 726.353 355.456 730.493C366.645 734.627 375.397 735.846 377.585 736.331C379.773 736.816 407.98 735.361 415.763 741.683C423.545 748.006 406.52 757.493 402.628 749.952C398.737 742.411 406.52 734.627 411.871 736.088C417.223 737.549 419.896 748.491 409.441 748.491C398.986 748.491 395.822 738.034 380.015 740.707C364.208 743.381 331.736 738.544 329.673 747.763C327.609 756.983 299.028 757.977 284.44 775.732C269.851 793.487 184.488 880.801 175.979 899.047C167.469 917.293 211.484 897.829 266.929 866.211C322.375 834.592 337.94 832.162 317.272 860.131C296.604 888.1 175.009 968.606 185.222 981.5C195.434 994.393 198.598 997.551 192.761 1012.15C186.925 1026.74 189.846 1040.85 191.543 1044.01C193.246 1047.17 200.544 1058.11 200.786 1062.49C201.029 1066.87 203.459 1062.01 200.786 1052.28C198.113 1042.55 202.489 1039.38 203.217 1046.92C203.944 1054.47 202.247 1070.52 204.435 1074.41C206.623 1078.3 211.241 1084.14 220.969 1083.65C230.697 1083.17 233.127 1080.49 233.127 1075.14C233.127 1069.79 228.751 1038.17 230.455 1035.98C232.158 1033.79 233.37 1075.87 235.564 1076.85C237.752 1077.82 255.505 1082.44 259.396 1076.36C263.287 1070.28 264.014 1055.44 262.802 1046.93C261.584 1038.42 262.075 1030.64 263.772 1031.36C265.469 1032.09 266.445 1053.01 265.717 1057.87C264.99 1062.73 263.529 1072.46 266.202 1073.68C268.875 1074.9 281.282 1077.33 285.173 1074.41C289.064 1071.49 292.713 1049.6 291.01 1039.38C289.307 1029.17 284.688 1016.52 284.688 1015.55C284.688 1014.58 288.915 1020.66 289.965 1026.01C291.016 1031.36 293.689 1039.87 293.204 1044.49C292.719 1049.11 294.528 1050.47 299.631 1050.96C304.741 1051.44 306.096 1054.66 312.902 1044.49C316.657 1038.87 304.691 1033.85 298.811 1025.15C293.347 1017.07 288.573 1015.8 284.694 1009.95C281.282 1004.82 276.893 994.107 292.495 983.408C303.106 976.135 266.942 992.199 263.778 993.896C260.614 995.599 259.16 1001.44 253.323 1002.16C247.486 1002.89 240.922 999 236.54 1002.89C232.164 1006.78 231.679 1008.73 227.539 1008.73C223.406 1008.73 215.866 1006.54 211.732 1012.62C207.599 1018.7 201.52 1028.43 205.411 1026C209.302 1023.57 209.302 1014.81 219.03 1012.14C228.758 1009.46 232.891 1001.92 243.837 1003.38C254.784 1004.84 268.639 992.97 277.397 988.351C286.155 983.732 301.962 978.087 302.932 977.359C303.902 976.632 307.793 966.412 309.987 960.823C312.181 955.234 314.605 956.204 311.448 963.254C308.284 970.31 302.938 979.548 305.368 982.227C307.799 984.9 328.231 993.417 360.087 997.551C391.943 1001.69 450.795 1003.63 452.741 1005.58C454.686 1007.52 459.796 1010.93 463.687 1013.6C467.578 1016.28 474.142 1021.14 474.876 1028.68C475.603 1036.23 471.712 1048.39 469.524 1039.87C467.336 1031.36 472.688 1018.96 469.524 1012.15C466.36 1005.34 461.984 1013.12 456.881 1011.42C451.771 1009.72 455.911 1002.42 451.286 997.8C446.668 993.181 436.449 989.289 427.94 986.61C419.43 983.937 418.696 983.203 418.696 979.803C418.696 976.396 421.369 971.292 424.291 971.049C427.206 970.807 447.395 973.48 453.232 974.456C459.069 975.426 463.687 974.456 466.124 972.268C468.56 970.08 468.554 966.188 461.014 962.296C453.474 958.405 437.667 954.998 434.019 952.325C430.37 949.652 410.187 946.487 412.375 939.431C414.563 932.375 415.048 930.678 423.321 930.429C431.588 930.187 446.91 930.429 451.771 932.86C456.632 935.291 468.063 937.237 472.439 939.425C476.815 941.613 485.082 947.208 486.3 944.778C487.519 942.347 488.973 937.722 479.737 932.618C470.5 927.514 456.147 918.512 452.014 916.324C447.88 914.135 436.207 907.571 438.152 901.484C440.098 895.398 442.043 891.998 445.207 891.998C448.371 891.998 457.608 894.428 464.663 897.108C471.718 899.781 471.469 899.296 479.252 903.188C487.034 907.079 486.549 905.134 492.143 909.51C497.738 913.887 501.871 917.051 504.302 916.317C506.732 915.584 498.707 906.346 498.707 906.346C498.707 906.346 492.871 900.508 489.707 898.32C486.543 896.132 476.088 892.725 474.385 891.022C472.682 889.318 470.493 879.832 471.221 877.886C471.948 875.94 474.385 869.375 478.027 870.83C481.67 872.284 498.21 879.098 503.804 880.074C509.399 881.044 518.642 885.427 523.745 889.803C528.854 894.18 536.637 910.965 540.279 915.826C543.922 920.688 542.952 931.393 539.794 933.824C536.637 936.254 532.988 935.77 532.739 937.715C532.497 939.661 520.581 942.577 514.744 946.226C508.908 949.875 508.423 952.306 505.744 956.198C503.071 960.089 496.016 958.144 492.125 963.981C488.234 969.819 484.827 980.766 484.827 980.766C484.827 980.766 486.046 984.415 488.476 977.602C490.906 970.795 494.313 962.278 500.877 961.065C507.441 959.847 510.12 954.009 512.308 951.336C514.496 948.663 529.576 939.419 531.03 942.092C532.491 944.765 526.169 961.55 521.787 969.091C517.411 976.632 513.52 989.519 514.49 998.036C515.459 1006.55 511.326 1033.55 516.92 1036.22C522.514 1038.89 518.138 1016.52 518.381 1009.22C518.623 1001.92 517.896 996.818 520.326 993.896C522.757 990.974 524.945 1003.14 529.569 1005.81C534.188 1008.49 545.861 1025.76 553.643 1033.54C561.426 1041.32 561.426 1058.84 562.644 1071.72C563.862 1084.62 568.238 1091.42 569.699 1098.96C571.16 1106.51 568.238 1128.39 565.808 1133.99C563.378 1139.58 542.946 1153.21 536.382 1154.18C529.818 1155.15 500.392 1153.93 490.422 1151.01C480.451 1148.1 462.214 1150.53 459.535 1139.09C456.856 1127.66 453.213 1117.45 456.371 1112.34C459.535 1107.23 455.153 1128.15 479.96 1130.58C504.768 1133.01 522.52 1121.33 527.624 1114.04C532.733 1106.74 542.461 1092.64 545.376 1082.18C548.292 1071.72 546.346 1059.31 542.946 1068.56C539.54 1077.8 541 1090.93 532 1100.42C522.999 1109.91 515.223 1124.98 499.167 1125.23C483.112 1125.48 471.202 1124.5 467.796 1121.1C464.389 1117.69 456.607 1111.61 456.365 1105.53C456.122 1099.45 456.607 1097.5 462.444 1105.53C468.281 1113.56 466.335 1116.96 475.336 1119.88C484.336 1122.79 488.47 1126.44 495.761 1123.04C503.059 1119.64 508.162 1118.91 514.49 1113.8C520.811 1108.69 522.999 1104.07 527.624 1099.45C532.242 1094.83 532.976 1098.23 534.188 1087.05C535.406 1075.86 538.564 1075.13 535.406 1066.62C532.242 1058.11 532.242 1045.46 528.842 1050.08C525.436 1054.7 529.569 1050.81 529.327 1059.81C529.085 1068.81 532.733 1072.95 532 1078.05C531.266 1083.16 532.969 1085.59 528.836 1090.7C524.702 1095.81 521.781 1101.64 516.435 1105.78C511.083 1109.91 509.138 1113.56 503.301 1115.51C497.464 1117.45 494.3 1117.94 490.9 1117.94C487.5 1117.94 487.736 1122.31 480.93 1116.72C474.124 1111.12 473.148 1110.64 470.475 1107.97C467.802 1105.29 459.044 1101.89 459.044 1097.02C459.044 1092.16 467.796 1063.45 460.989 1046.67C454.183 1029.88 456.371 1016.51 456.371 1016.51C456.371 1016.51 461.48 985.864 451.753 986.355C442.025 986.84 304.871 1040.84 339.885 1056.65C374.906 1072.46 429.866 1046.92 431.321 1065.89C432.776 1084.87 378.791 1104.81 305.835 1118.43C232.879 1132.05 169.408 1145.67 172.815 1152.97C176.221 1160.27 300.974 1144.7 309.726 1159.78C318.478 1174.86 165.275 1172.67 146.789 1191.88C136.365 1202.72 172.442 1206.9 216.264 1211.06C219.185 1211.34 222.144 1211.62 225.115 1211.9C244.509 1214.01 263.902 1217.31 283.29 1219.36C287.168 1219.77 291.047 1220.12 294.944 1220.42C311.261 1222.3 330.81 1223.63 348.917 1226.72C352.541 1227.33 356.103 1228.02 359.546 1228.79C370.592 1230.6 384.783 1234.7 391.844 1243.07C393.609 1245.17 394.933 1247.53 395.667 1250.16C399.067 1272.91 375.931 1276.71 357.116 1280.8C353.355 1281.62 349.762 1282.45 346.592 1283.45C316.327 1286.85 286.739 1294.08 258.221 1305.51C254.131 1307.14 250.066 1308.85 245.895 1310.66C241.848 1312.33 237.615 1313.96 233.277 1315.61C228.938 1317.26 224.494 1318.91 220.018 1320.62C212.08 1324.62 203.273 1328.41 194.446 1332.48C191.506 1333.83 188.56 1335.22 185.644 1336.65C171.298 1343.13 158.17 1352.32 147.665 1366.76C139.79 1378.58 148.977 1389.09 160.911 1391.4C164.025 1392.49 167.189 1393.49 170.378 1394.4C183.133 1398.01 196.298 1400.1 209.544 1401.12C214.225 1401.64 218.881 1402.17 223.53 1402.74C246.765 1405.56 269.969 1409.48 292.191 1417.22C296.567 1418.69 300.862 1420.27 305.101 1422.04C309.347 1423.8 313.536 1425.77 317.67 1427.94C321.132 1430.41 324.414 1433.24 327.534 1436.36C336.721 1444.24 343.292 1456.05 340.662 1467.87C328.846 1505.95 317.029 1542.72 316.706 1581.74C316.538 1585.75 316.439 1589.75 316.402 1593.75C316.296 1605.76 316.768 1617.75 317.782 1629.65C317.719 1632.49 317.695 1635.29 317.701 1638.05C317.719 1643.56 317.887 1648.9 318.229 1654" stroke="#31F565" stroke-width="2" stroke-miterlimit="10"/>
<circle opacity="0.24" cx="557" cy="10" r="10" fill="#00CC36"/>
<circle cx="557" cy="10" r="4" fill="#00CC36"/>
</svg>
