<svg width="1228" height="1589" viewBox="0 0 1228 1589" fill="none" xmlns="http://www.w3.org/2000/svg">
<path d="M792 1C736 332 421 432 238 466C55 500 7.45245 762.953 94.7424 868.171C117 895 204.76 893.625 198.199 982.684C191.638 1071.74 259.738 1036.45 272.07 1032.32C284.402 1028.19 288.047 1037.66 283.127 1062.69C278.206 1087.72 251.112 1135.77 255.243 1155.88C259.374 1175.99 260.163 1194.03 254.817 1205.51C249.472 1216.99 256.883 1227.26 251.962 1230.97C247.042 1234.67 251.112 1244.09 242.911 1252.72C234.709 1261.34 231.854 1272.4 209.681 1272.82C187.507 1273.25 181.371 1265.84 183.437 1261.34C185.502 1256.85 195.769 1235.1 201.905 1235.46C208.04 1235.89 224.503 1252.72 231.064 1252.72C237.625 1252.72 247.042 1243.3 245.037 1239.17C242.971 1235.04 240.116 1251.08 232.34 1246.15C224.564 1241.23 204.456 1232.61 205.246 1230.97C206.096 1229.33 219.583 1212.5 220.008 1207.15C220.433 1201.81 217.153 1187.05 224.503 1189.11C231.854 1191.18 228.634 1219.91 236.836 1218.27C245.037 1216.63 224.503 1187.11 228.634 1166.94C232.765 1146.83 235.621 1131.22 232.765 1107.4C229.91 1083.59 223.349 1023.26 233.98 1009.72C244.672 996.17 261.075 1013.42 254.514 1021.62C247.953 1029.83 223.349 1015.49 232.34 1003.95C241.331 992.404 261.864 979.343 269.276 959.234C276.687 939.126 302.931 891.499 330.815 883.723C358.699 875.947 372.672 874.307 375.527 898.485C378.382 922.724 369.756 949.393 350.073 962.515C330.39 975.637 301.23 987.969 297.524 1000.67C293.819 1013.36 274.926 1034.75 258.098 1034.32C241.27 1033.9 278.206 975.212 266.299 955.529C254.392 935.846 246.616 908.326 243.7 878.377C243.7 878.377 252.327 895.63 269.58 900.55C286.832 905.471 293.393 902.616 306.09 894.415C318.787 886.213 326.198 875.947 340.96 875.521C355.723 875.096 365.564 881.657 371.76 877.162C377.896 872.666 377.896 870.601 365.625 861.549C353.293 852.497 348.372 848.002 348.797 843.081C349.222 838.161 338.105 841.016 318.848 858.269C299.529 875.521 290.113 888.218 274.926 879.592C259.738 870.965 291.753 873.456 296.674 863.615C301.595 853.773 340.596 843.506 339.745 838.586C338.895 833.665 327.049 820.908 324.558 813.982C322.067 806.996 321.703 791.383 326.623 783.607C331.544 775.831 336.89 753.233 336.89 753.233C336.89 753.233 341.021 724.498 338.105 712.166C335.25 699.834 329.539 754.144 342.601 755.237C359.671 756.756 379.536 766.719 385.672 764.654C391.808 762.588 404.14 741.69 401.285 736.344C398.429 730.998 388.588 763.439 392.233 766.719C395.939 770 408.271 772.49 408.271 772.49C408.271 772.49 404.565 783.972 408.271 792.173C411.977 800.374 421.393 809.851 421.818 823.338C422.243 836.885 421.393 850.857 423.458 859.848C423.458 859.848 420.968 865.619 420.968 870.905C420.968 876.19 423.458 882.386 423.458 882.386C423.458 882.386 421.818 895.083 423.458 900.064C425.099 905.046 429.594 909.481 431.66 908.691C433.725 907.84 430.809 898.849 431.66 895.144C432.51 891.438 431.66 876.615 434.15 873.76C436.641 870.905 440.711 886.092 438.646 888.157C436.58 890.223 424.673 872.18 420.178 881.596C415.682 891.013 417.323 897.209 419.327 899.639C421.393 902.13 436.459 903.345 439.192 902.494C441.926 901.644 451.768 891.802 451.768 888.522C451.768 885.241 449.702 863.068 446.847 856.932C446.847 856.932 447.272 847.516 445.632 841.745C443.992 835.974 443.141 807.664 446.057 791.262C448.912 774.859 444.417 757.181 436.216 750.62C428.015 744.059 434.15 762.831 439.496 764.168C444.842 765.504 431.295 739.564 404.201 735.008C377.106 730.512 376.924 721.4 369.33 713.685C360.643 704.876 347.521 695.642 309.735 697.708C309.735 697.708 309.978 722.19 299.894 739.625C299.894 739.625 304.997 746.064 307.67 745.639C310.343 745.214 317.207 742.298 317.207 742.298C317.207 742.298 332.03 772.673 311.861 781.481C311.861 781.481 297.889 779.902 291.024 764.411C291.024 764.411 301.898 751.106 301.898 748.433C301.898 745.76 314.291 767.509 301.412 764.836C295.459 763.621 307.427 778.565 311.861 775.042C316.296 771.518 315.628 757.303 302.384 745.578C289.08 733.853 291.632 749.709 291.632 749.709C287.561 753.111 282.641 755.541 276.627 756.331C252.205 759.611 230.821 724.073 226.144 708.096C226.144 708.096 239.326 720.185 250.99 725.835C250.99 725.835 308.702 741.994 284.767 695.156C262.776 652.145 294.608 580.886 250.93 586.536C207.251 592.125 207.372 628.331 207.494 635.318C207.615 641.939 212.171 650.627 212.171 650.627C221.405 651.416 229.303 657.309 230.578 665.024C231.854 672.739 226.265 680.029 228.391 681.609C230.518 683.188 236.532 681.548 237.079 683.735C237.625 685.922 236.289 691.876 236.289 691.876C236.289 691.876 240.906 690.721 240.967 691.025L237.018 694.548C237.018 694.548 238.84 708.521 244.794 708.825C250.747 709.128 280.089 693.212 289.202 674.137C298.314 655.061 292.178 640.907 291.753 651.599C291.328 662.29 311.618 647.711 324.193 638.173C336.769 628.635 354.204 644.491 359.246 654.879C364.288 665.267 382.938 659.375 382.938 659.375C379.172 674.44 358.578 681.244 343.816 673.651C329.053 665.996 318.848 675.595 307.913 670.37C296.978 665.146 302.141 644.855 302.202 648.136C302.263 651.416 302.384 667.09 299.651 664.903C296.917 662.716 299.286 649.533 299.286 649.533C299.286 649.533 303.356 610.471 292.178 597.045C281.001 583.62 246.799 578.821 223.774 590.059C200.75 601.298 202.087 642.122 202.087 642.122C201.297 629.364 211.928 624.687 211.928 624.687C209.559 628.271 208.283 636.776 208.283 636.776C209.316 625.78 225.293 619.462 225.293 619.462C219.4 622.5 217.578 630.64 217.578 630.64C220.494 619.341 232.826 618.186 232.826 618.186C232.826 618.186 244.733 611.747 250.93 610.593C260.285 608.831 272.192 620.009 278.145 626.813C281.487 630.64 272.678 636.593 271.584 639.752C270.491 642.911 279.3 653.725 280.029 655.061C280.757 656.398 282.58 653.968 282.641 647.65C282.702 641.332 289.566 638.477 292.057 640.967C294.548 643.458 295.459 656.519 292.664 662.716C289.931 668.912 282.641 663.202 282.641 663.202C282.641 663.202 283.188 675.412 276.87 687.684C268.547 703.722 252.448 711.68 238.658 711.194C233.859 711.012 225.901 691.633 221.77 680.515C221.77 680.515 220.676 675.655 222.62 671.524C224.564 667.333 221.891 658.585 215.755 658.16C209.681 657.734 222.256 687.38 222.256 687.38C223.531 694.488 224.078 701.535 221.344 701.109C203.484 698.437 193.825 714.657 187.689 728.204C181.554 741.751 177.848 756.513 179.913 759.004C181.979 761.495 198.806 774.981 208.648 773.341C218.489 771.7 182.768 760.219 178.698 764.289C174.567 768.42 178.273 794.239 174.203 799.585C170.072 804.93 154.884 816.837 157.375 837.735C159.866 858.694 178.698 857.418 186.899 854.138C195.101 850.857 196.741 829.899 201.236 825.828C205.732 821.758 216.424 812.706 218.064 807.786C219.704 802.865 228.331 796.729 230.396 790.958C232.462 785.187 230.821 772.49 232.887 771.64C234.952 770.789 232.887 775.346 227.116 780.691C221.344 786.037 232.462 784.822 236.167 783.182C239.873 781.542 248.074 773.341 245.584 769.635C243.093 765.929 241.088 770.06 240.663 764.289C240.238 758.518 240.238 758.518 240.238 758.518C240.238 758.518 240.663 756.027 237.382 750.317C234.102 744.545 231.247 743.33 225.05 743.33C218.854 743.33 211.078 742.48 209.073 748.676C207.008 754.812 225.05 749.527 229.181 740.05C233.312 730.634 221.041 731.849 219.34 740.9C217.639 749.952 205.793 756.513 205.003 760.583C204.213 764.654 197.774 788.528 205.853 801.225C213.933 813.921 219.4 806.145 208.709 795.454C198.017 784.762 197.227 793.388 192.731 798.309C188.236 803.23 173.413 799.524 167.277 812.646C161.142 825.768 154.155 848.792 175.479 851.647C196.802 854.502 225.111 792.963 229.242 804.019C233.373 815.076 240.724 814.711 243.579 825.342C246.434 836.034 245.219 830.263 241.513 844.661C237.808 858.998 235.378 868.049 236.167 870.54C237.018 873.031 240.298 880.807 240.298 880.807C240.298 880.807 237.808 867.199 241.939 868.049C246.07 868.9 246.859 886.153 262.047 892.288C277.234 898.424 290.356 902.13 312.104 885.302C333.853 868.475 289.141 904.985 284.22 914.826C279.3 924.668 269.276 943.804 275.594 938.215C281.912 932.626 311.315 971.87 315.385 988.698C319.516 1005.53 327.717 1017.43 334.703 1018.65C341.689 1019.86 354.811 1028.06 361.798 1026.42C368.784 1024.78 394.238 1024.36 403.654 1030.92C413.07 1037.48 414.346 1042.4 414.346 1042.4C414.346 1042.4 415.561 1032.56 419.267 1030.49C422.972 1028.43 425.402 1039.55 429.959 1035.41C434.454 1031.28 432.814 1011.18 427.103 1013.24C421.393 1015.31 400.859 1010.39 394.663 1000.54C388.527 990.703 378.686 977.581 367.143 977.581C355.601 977.581 350.741 983.717 353.171 991.128C355.662 998.539 351.531 960.753 344.119 960.753C336.708 960.753 348.25 1029.7 355.176 1031.77C362.162 1033.83 387.191 980.861 391.322 987.847C395.453 994.834 418.416 1046.11 418.841 1050.66C419.267 1055.16 424.613 1070.35 437.734 1077.33C450.856 1084.32 448.426 1054.37 445.936 1048.17C443.445 1042.04 436.884 1039.12 438.524 1033.41C438.524 1033.41 431.599 990.824 447.88 996.96C464.161 1003.1 504.195 1061.42 477.708 1106.19C451.221 1150.96 488.764 1220.88 546.112 1243.36C580.132 1256.73 637.054 1239.72 629.217 1221C621.381 1202.29 640.152 1177.87 639.059 1156.06C638.026 1134.25 629.156 1091.24 639.727 1066.88C650.358 1042.34 639.848 1023.14 638.816 1006.01C637.783 988.88 709.164 1002.31 699.808 1010.08C690.453 1017.86 637.115 1018.4 638.694 994.469C639.727 978.188 647.867 969.38 647.442 950.851C647.199 940.827 671.803 926.43 679.882 914.341C679.882 914.341 687.172 902.92 680.429 909.116C673.686 915.373 663.237 932.748 645.194 940.706C631.89 946.538 603.642 920.051 596.352 918.471C589.062 916.892 633.834 940.402 626.058 939.855C618.282 939.309 613.058 939.977 618.768 941.01C624.479 942.042 643.19 945.687 641.61 951.398C640.031 957.108 635.839 969.623 632.133 976.73C628.549 983.716 627.273 1006.44 624.175 1018.89C624.175 1018.89 612.147 1047.81 618.464 1050.18C624.782 1052.55 621.745 1024.9 629.764 1027.27C637.783 1029.64 632.741 1041.85 626.787 1051.63C620.834 1061.48 630.979 1064.7 629.156 1083.16C627.395 1101.57 610.749 1114.69 608.016 1115.3C605.343 1115.91 595.805 1114.09 593.132 1095.37C590.459 1076.66 600.847 1057.89 602.67 1046.29C604.431 1034.69 590.763 1018.95 601.455 1016.82C612.147 1014.76 627.941 1021.02 616.946 1024.54C605.95 1028.06 548.542 1009.41 553.584 1006.13C558.687 1002.79 612.754 1012.39 616.338 1016.82C619.922 1021.26 624.357 1040.34 607.408 1051.63C590.459 1062.93 563.608 1037.66 556.5 1018.34C550.668 1002.49 565.43 934.813 565.491 934.752C567.86 931.168 568.771 923.757 568.771 923.757C568.225 917.986 567.313 921.509 565.612 915.252C565.612 915.252 564.154 915.495 567.799 909.784C571.444 904.074 599.997 907.415 637.418 899.092C674.84 890.77 696.285 889.615 712.019 885.667C718.641 884.026 719.127 864.404 713.902 861.792C710.257 859.97 706.308 837.067 708.921 831.539C713.598 821.697 705.276 814.893 710.5 802.987C710.5 802.987 714.874 792.963 690.635 794.664C666.396 796.365 649.082 799.159 654.975 810.945C660.868 822.73 687.172 819.632 694.098 803.351C701.023 787.07 713.841 726.807 695.131 722.311C676.42 717.816 650.115 722.979 649.386 731.667C648.718 740.354 646.592 822.426 641.063 825.16C635.535 827.955 626.848 830.02 625.815 825.828C624.783 821.697 634.806 817.141 632.741 803.29C630.675 789.439 636.872 737.134 632.072 736.101C627.212 735.069 606.436 753.779 605.403 743.695C604.371 733.611 635.171 721.886 641.428 719.82C647.685 717.755 690.939 709.797 701.023 715.993C711.047 722.25 709.71 765.2 705.519 776.621C701.327 788.042 715.056 796.608 719.066 769.149C719.734 764.593 720.585 759.976 721.253 755.359L724.594 730.269C734.618 687.319 738.931 664.903 721.921 654.818C721.374 654.515 726.842 715.082 733.464 710.586C752.417 697.647 766.815 696.796 780.727 699.651C794.638 702.507 794.092 667.393 790.325 653.3C786.559 639.266 772.282 693.273 791.115 702.385C792.634 703.114 794.152 703.661 795.489 704.39C802.839 708.399 819.728 714.778 819.728 714.778C825.013 722.129 823.555 720.853 824.588 731.302C826.35 749.345 823.737 758.457 823.251 763.621C822.765 768.785 821.49 775.649 818.027 779.476C814.503 783.304 803.265 794.846 801.685 799.706C800.045 804.566 800.713 810.762 804.48 812.099C808.246 813.435 812.316 798.856 816.569 795.697C820.821 792.538 828.84 783 829.083 787.374C829.266 791.748 818.148 805.538 816.63 804.141C794.031 783.547 812.377 800.253 813.106 776.196C813.228 771.397 811.648 774.009 806.302 777.532C800.956 781.056 795.307 788.893 795.185 793.692C795.064 798.491 813.167 817.141 819.424 816.473C825.621 815.805 838.257 792.052 840.869 784.579C843.481 777.107 843.481 777.107 843.481 777.107C840.14 776.439 826.532 780.205 819.606 777.411C812.681 774.616 819.606 760.28 821.672 755.42C823.677 750.56 845 760.34 845 760.34C845.972 750.803 847.308 739.442 848.888 732.153C851.439 720.246 855.266 690.053 839.593 685.558C835.766 684.464 799.681 660.286 799.681 660.286C789.596 656.216 740.207 630.458 744.824 641.15C749.441 651.842 751.142 654.636 752.478 648.986C753.815 643.337 728.3 626.57 731.823 638.355C726.295 620.009 691.425 624.808 706.187 633.981L697.135 630.397C697.135 630.397 680.551 650.141 680.854 675.898C681.097 701.596 649.811 697.647 649.811 697.647C638.876 695.763 634.867 675.534 633.53 665.875C632.194 656.216 625.147 648.014 622.231 641.818C619.254 635.621 617.918 601.359 617.918 601.359C617.918 601.359 619.558 595.952 619.558 595.162C619.558 594.372 621.988 590.302 621.988 590.302L622.231 585.746L625.208 577.363L629.278 574.69L629.035 572.26L626.605 570.619L625.512 566.306L629.278 561.203L634.381 556.89L638.451 556.1L641.975 556.343L644.162 557.983C644.162 557.983 647.381 559.624 649.933 560.17C652.484 560.717 652.241 559.927 652.241 559.927L656.129 557.74L660.078 555.553L663.602 554.217L668.461 554.764L674.962 558.287L677.938 559.077C677.938 559.077 682.252 562.843 682.798 563.633C683.345 564.423 686.018 566.063 686.018 566.063L689.542 569.04L690.088 572.26L688.205 574.69L686.018 580.339C686.018 580.339 687.112 583.012 687.355 583.863C687.598 584.713 688.691 586.536 688.691 586.536C688.691 586.536 692.458 590.849 691.121 595.162C689.785 599.475 688.327 637.383 689.542 633.981C690.756 630.579 692.822 617.275 692.822 617.275C697.257 621.345 701.084 610.775 701.084 601.055C701.084 591.335 695.677 595.101 695.677 595.101L696.771 590.242L700.294 586.475C700.294 586.475 701.934 584.592 703.332 583.498C704.729 582.405 703.332 580.825 703.332 580.825L701.934 577.606C701.934 577.606 701.934 575.722 701.934 572.746C701.934 569.769 701.934 570.073 701.934 569.222C701.934 568.372 702.177 564.119 702.177 564.119C702.177 564.119 701.388 559.016 702.724 557.376C704.061 555.736 702.724 554.703 702.724 554.703V548.507V541.763L698.958 539.333L695.738 539.09L692.518 535.02L689.845 531.254C689.845 531.254 687.658 530.464 686.869 530.464C686.079 530.464 684.682 528.034 684.682 528.034L682.495 525.847C682.495 525.847 680.672 525.847 677.149 525.847C673.625 525.847 672.289 525.057 672.289 525.057C672.289 525.057 670.405 522.384 669.312 520.38C668.218 518.375 665.788 521.534 664.452 520.744C663.115 519.954 659.349 520.744 659.349 520.744H655.279H649.994L648.779 522.931L641.489 524.814C641.489 524.814 641.489 524.814 640.699 525.361C639.909 525.908 636.386 529.188 636.386 529.188L630.736 531.314L629.096 533.501H622.109C622.109 533.501 622.11 539.455 619.437 537.815C616.764 536.174 617.796 539.151 618.1 540.245C618.343 541.338 617.007 544.801 617.007 544.801C617.007 544.801 614.577 547.474 614.577 548.324C614.577 549.175 614.82 551.848 614.82 551.848L613.179 558.348L613.422 566.731C613.422 566.731 613.179 569.951 613.179 570.802C613.179 571.652 613.179 572.138 613.179 572.138L613.422 575.115L613.179 576.451L614.516 581.008L613.969 584.227L616.703 590.728C607.287 583.498 606.983 606.583 610.203 612.78C613.422 618.976 616.156 615.21 616.156 615.21C616.156 615.21 618.586 628.939 621.867 634.103C625.147 639.206 642.035 657.066 645.559 659.253C649.082 661.44 652.606 664.113 652.181 652.996C651.755 641.879 664.209 647.589 664.999 643.033C665.788 638.477 652.181 639.813 652.181 639.813C659.045 644.916 667.672 637.383 668.765 636.411C669.859 635.439 664.452 626.327 664.452 626.327C664.452 626.327 667.672 633.86 665.242 634.71C662.812 635.561 650.115 637.14 648.536 636.168C646.895 635.196 648.293 628.939 648.293 628.939L645.316 634.71C645.316 634.71 631.04 637.93 627.516 634.71C625.026 632.402 619.072 596.802 627.516 593.157C638.208 588.601 650.723 595.587 651.755 595.83C652.849 596.073 651.998 618.49 651.998 618.49L649.933 620.92C649.933 620.92 652.241 625.476 656.312 626.023C660.382 626.57 663.298 620.92 663.298 620.92L661.111 617.579C661.111 617.579 659.774 603.424 661.111 596.924C662.447 590.424 678.971 592.428 682.13 592.368C689.663 592.125 685.107 618.49 685.107 618.49C687.415 649.533 654.914 663.02 654.914 663.02C654.914 663.02 644.83 678.936 656.008 685.558C667.186 692.179 686.383 657.734 686.383 657.734C696.406 659.8 702.603 656.155 702.603 663.445C702.603 670.735 702.056 709.189 662.569 717.998C623.082 726.807 628.974 626.631 615.792 632.645C606.801 636.715 581.711 639.084 581.711 639.084C574.786 638.294 562.21 647.893 545.018 659.01C531.775 667.576 509.115 711.558 512.335 721.4C515.19 730.209 551.579 750.56 560.752 747.765C569.926 744.971 512.76 702.932 516.223 713.502C519.686 724.134 511.424 753.111 505.896 762.953C499.152 774.859 498.241 786.159 500.003 792.173C500.732 794.664 500.367 804.201 516.284 808.697C524.06 810.884 549.757 811.309 564.094 798.37C578.43 785.43 619.923 767.63 631.951 767.144C643.979 766.658 629.521 766.78 639.666 754.326C648.657 743.27 646.349 757.121 640.638 760.766C632.923 765.686 637.904 769.453 641.549 772.065C645.134 774.677 654.854 773.827 661.475 769.392C668.097 764.957 661.961 774.981 665.91 774.373C669.919 773.766 667.064 776.56 673.625 770.729C680.125 764.897 697.743 748.433 694.098 742.601C690.453 736.709 675.934 753.597 681.826 755.116C687.719 756.635 686.2 776.5 683.163 775.163C674.354 771.336 694.948 763.378 691.607 756.149C688.266 748.859 695.191 739.382 685.714 734.704C676.237 730.026 673.564 728.69 656.615 733.55C644.344 737.073 635.778 738.956 626.666 741.326C598.113 748.676 617.614 769.574 620.348 772.49C623.082 775.406 635.414 773.28 636.75 768.42C638.026 763.499 615.731 746.368 615.731 746.368C599.45 753.233 572.659 766.051 564.215 769.149C556.318 772.065 551.215 763.682 534.569 780.752C517.924 797.823 552.612 770.303 558.93 747.218C558.93 747.218 571.566 729.662 576.122 717.755C579.646 708.46 574.057 673.225 573.874 672.982C571.019 670.127 571.141 747.461 571.687 750.863C572.234 754.265 573.267 799.888 574.421 804.991C575.575 810.094 576.122 850.857 574.421 854.259C572.72 857.661 563.668 892.653 567.07 894.718C567.07 894.718 567.313 903.709 571.019 907.901C574.725 912.093 558.808 1022.96 566.402 1005.89C573.935 988.819 576.001 931.35 574.846 922.724C573.692 914.097 584.08 912.336 615.184 915.799C646.288 919.261 676.298 900.793 661.9 910.635C647.503 920.416 632.498 922.724 621.563 922.177C610.628 921.63 640.577 934.874 652.12 928.495C663.662 922.177 646.774 998.722 646.956 1004.01C647.138 1009.29 688.387 1013.85 693.673 1008.62C698.958 1003.4 709.832 922.724 706.916 896.298C704.061 869.872 709.893 875.096 709.893 875.096C714.327 874.003 718.398 922.42 716.514 939.491C713.416 967.739 705.519 981.955 705.519 992.343C705.519 1002.73 702.724 1025.09 700.112 1030.25C697.5 1035.48 671.56 1059.35 659.592 1061.42C647.624 1063.48 682.981 1041.67 690.271 1046.35C697.561 1051.03 695.738 1085.84 686.504 1099.87C677.27 1113.9 658.559 1180.91 662.751 1202.72C666.882 1224.53 676.237 1247.43 676.784 1260.37C677.331 1273.37 669.008 1241.17 664.816 1238.01C660.685 1234.92 640.395 1234.37 634.685 1239.59C628.974 1244.82 640.395 1263.47 635.717 1266.63C631.04 1269.73 626.909 1258.3 625.876 1264.02C624.843 1269.73 624.297 1277.5 628.974 1280.66C628.974 1280.66 632.984 1286.01 638.33 1300.46C641.732 1309.58 645.377 1318.93 645.377 1329.32C645.377 1363.83 617.432 1391.77 582.926 1391.77C548.42 1391.77 520.476 1363.83 520.476 1329.32C520.476 1294.82 548.42 1266.87 582.926 1266.87C599.511 1266.87 614.637 1273.37 625.815 1283.88C625.815 1283.88 660.139 1324.95 626.119 1369.11C592.039 1413.28 524.607 1369.78 529.831 1346.51C535.055 1323.25 626.18 1329.62 669.919 1345.72C676.541 1348.15 689.724 1325.31 690.757 1320.15C691.789 1314.98 682.434 1297.31 680.368 1295.73C678.303 1294.15 647.624 1292.63 643.979 1288.44C640.334 1284.31 697.5 1293.66 703.757 1294.69C703.757 1294.69 779.755 1308.06 788.26 1289.17C796.765 1270.21 757.277 1223.68 768.03 1173.13C768.03 1173.13 775.381 1136.81 804.905 1133.95C834.429 1131.09 852.593 1149.26 868.449 1133.95C884.365 1118.64 895.118 1069.25 926.343 1064.15C926.343 1064.15 960.971 1072.65 962.672 1083.47C964.373 1094.28 918.385 1077.82 927.498 1059.65C936.61 1041.49 953.012 1004.61 950.218 1000.06C947.424 995.502 931.507 967.739 933.755 956.379C936.003 945.019 936.671 992.161 962.732 1006.32C988.794 1020.53 1037.58 1039.79 1050.09 1040.94C1062.6 1042.1 1077.91 1038.09 1086.96 1031.89C1096.02 1025.63 1106.28 1019.38 1109.08 1021.69C1111.93 1023.93 1085.81 1030.19 1073.9 1032.44C1062 1034.69 1103.97 1019.38 1104.52 1015.43C1105.07 1011.48 1057.44 987.604 1043.23 976.244C1029.01 964.884 1030.71 958.627 1030.71 958.627C1030.71 958.627 1000.64 964.277 981.322 963.183C962.003 962.029 934.241 948.968 931.386 950.122C928.53 951.276 924.035 961.482 924.035 956.926C924.035 952.37 925.189 939.309 935.395 929.71C945.601 920.051 958.662 895.387 959.209 882.447C959.756 869.568 963.765 863.311 960.363 848.002C956.961 832.693 971.723 794.664 976.826 794.117C981.929 793.57 978.527 823.034 956.961 824.188C935.395 825.342 922.82 821.94 918.264 815.136C913.707 808.332 910.913 787.313 916.016 787.313C921.119 787.313 922.273 814.59 911.46 813.982C900.646 813.375 884.791 810.033 876.833 815.683C868.874 821.333 852.411 854.867 845.06 866.774C837.71 878.68 847.308 880.381 845.06 891.742C842.813 903.102 838.257 912.761 834.855 913.308C831.453 913.854 838.256 897.999 837.102 895.144C835.948 892.288 831.999 913.308 828.051 915.009C824.102 916.71 819.546 913.855 819.546 908.205C819.546 902.555 815.597 898.546 813.288 894.597C811.041 890.648 807.031 894.05 811.041 880.381C814.989 866.774 825.256 863.918 833.761 848.609C842.266 833.301 854.78 795.271 871.244 792.416C887.707 789.561 913.221 790.715 923.427 783.364C933.633 776.014 952.041 780.995 959.027 779.294C966.013 777.593 974.639 769.149 1003.56 779.902C1003.56 779.902 1003.37 786.949 1006.96 795.454C1006.96 795.454 1009.27 801.771 1013.7 801.771C1018.14 801.771 1001.61 785.612 1010.48 779.112C1019.35 772.612 1022.57 760.583 1022.57 758.214C1022.57 755.845 1016.07 741.751 1016.07 741.751L1016.37 736.769L1015.22 730.026L1015.52 727.353L1017.29 722.919L1016.68 718.18V714.657L1016.37 712.895V708.156V704.329L1017.53 699.591V695.156L1020.75 692.483L1023.12 687.502V684.586L1024.88 682.824L1028.4 680.151L1031.62 676.02C1031.62 676.02 1033.69 675.109 1034.54 674.562C1035.45 673.954 1037.45 672.496 1037.45 672.496L1041.58 668.669L1041.89 665.146L1046.32 664.842L1051.06 663.08C1051.06 663.08 1056.35 662.776 1057.26 662.776C1058.17 662.776 1061.09 662.776 1061.09 662.776H1065.22L1068.74 661.865C1068.74 661.865 1070.2 661.865 1071.66 661.258C1073.11 660.65 1075.48 659.496 1076.64 659.496C1077.79 659.496 1079.86 660.104 1079.86 660.104C1079.86 660.104 1082.23 661.562 1082.77 663.02C1083.38 664.478 1083.38 664.781 1085.45 665.085C1087.51 665.389 1091.64 664.477 1091.64 664.477C1091.64 664.477 1096.08 665.632 1097.54 665.389C1098.99 665.085 1103.43 665.996 1104.28 665.996C1105.19 665.996 1105.19 665.996 1105.19 665.996L1106.34 668.365L1110.48 671.038L1113.69 671.342H1119.59L1121.05 672.8C1121.05 672.8 1121.65 672.8 1122.81 675.473C1123.96 678.146 1125.72 681.366 1125.72 681.366L1128.09 688.413V689.871L1126.63 691.025C1126.63 691.025 1123.96 689.871 1123.96 690.721C1123.96 691.572 1121.59 690.114 1125.12 695.156C1128.64 700.137 1129.55 701.353 1130.4 702.203C1131.31 703.114 1131.31 703.114 1131.31 703.114V706.334C1127.79 706.03 1127.79 706.03 1127.79 706.03C1127.79 706.03 1126.03 708.096 1126.63 708.946C1127.24 709.797 1127.55 711.619 1127.79 713.077C1128.09 714.535 1128.09 714.839 1127.79 716.297C1127.48 717.755 1126.88 719.517 1126.88 719.517L1124.2 717.451L1125.36 723.648L1124.2 726.017L1122.44 730.148L1120.38 731.606L1119.77 729.237L1118.31 727.475L1117.4 735.433L1115.94 741.751C1115.94 741.751 1111.57 736.283 1103 737.195C1094.5 738.106 1091.22 747.765 1091.52 752.504C1091.83 757.242 1091.76 769.028 1091.76 769.028L1086.6 770.729L1082.71 767.509L1083.81 765.14C1083.81 765.14 1078.89 763.682 1076.82 774.252C1076.82 774.252 1075.6 777.289 1081.74 778.808L1077.37 780.448L1071.17 795.15C1071.17 795.15 1042.01 790.168 1033.2 770.425C1024.39 750.681 1016.19 802.561 1023.36 812.038C1032.96 824.735 1009.33 805.174 1009.33 805.174C1009.33 805.174 998.271 811.552 992.196 825.646C986.121 839.74 988.49 874.671 985.149 906.2C981.808 937.729 959.634 953.22 957.933 953.524C956.232 953.888 947.849 954.921 950.218 958.566C952.587 962.211 970.691 966.281 983.448 963.122C996.145 959.963 1007.63 916.953 1015.04 899.457C1022.45 882.022 1023.42 830.992 1022.45 827.286C1021.42 823.581 1029.43 818.295 1029.43 818.295C1056.1 830.81 1069.71 802.379 1069.71 802.379C1069.71 802.379 1035.69 781.36 1032.23 759.794C1032.23 759.794 1020.87 755.845 1020.32 744.485C1019.78 733.125 1025.43 728.022 1027.67 728.568C1029.92 729.115 1033.32 744.485 1033.32 744.485L1041.28 735.433L1041.83 721.825H1049.79L1053.73 702.507C1053.73 702.507 1066.25 705.362 1070.75 699.651C1075.3 694.002 1080.4 703.6 1085.51 708.703C1090.61 713.806 1099.12 714.96 1100.82 713.806C1102.52 712.652 1105.19 709.857 1108.96 709.25C1112.72 708.703 1113.27 707.002 1114.97 708.703C1116.67 710.404 1114.97 719.456 1114.97 719.456C1114.97 719.456 1115.94 737.073 1115.7 741.569C1115.46 746.064 1103.61 754.63 1103.61 756.878C1103.61 759.125 1108.17 783 1076.39 800.01C1076.39 800.01 1067.89 827.833 1072.99 836.338C1078.1 844.843 1071.84 810.216 1080.95 803.412C1090.06 796.608 1128.03 841.441 1135.44 850.493C1142.85 859.544 1109.93 866.409 1109.93 866.409C1109.93 866.409 1129.25 844.296 1142.85 859.605C1156.46 874.914 1158.16 878.924 1162.17 868.11C1166.12 857.357 1165.57 844.296 1165.57 844.296C1165.57 844.296 1159.32 832.936 1159.32 824.978C1159.32 817.02 1171.83 794.907 1176.94 794.907C1182.04 794.907 1174.08 806.267 1174.08 806.267C1174.08 806.267 1167.82 820.482 1170.13 822.183C1172.38 823.884 1184.89 826.74 1183.74 834.09C1182.58 841.441 1199.66 830.688 1199.66 823.884C1199.66 817.08 1179.24 836.399 1182.65 841.502C1186.05 846.605 1162.23 815.379 1180.94 804.627C1180.94 804.627 1188.9 804.627 1191.15 810.276C1191.15 810.276 1199.66 811.431 1199.66 817.627C1199.66 817.627 1206.46 826.679 1202.51 832.389C1198.56 838.1 1185.5 848.852 1184.89 855.11C1184.35 861.367 1180.94 902.798 1166.73 905.593C1152.51 908.448 1123.05 880.078 1113.39 870.419C1103.73 860.759 1093.53 843.75 1087.27 843.203C1081.01 842.656 1077.61 844.904 1073.05 856.811C1068.5 868.718 1052.64 914.705 1048.63 920.962C1044.68 927.219 1039.64 960.024 1033.99 965.431C1028.34 970.838 946.634 960.51 949.367 978.249C953.924 1008.32 1000.28 1004.31 996.874 1020.77C993.472 1037.24 960.302 1087.36 944.993 1091.3C929.685 1095.25 922.152 1096.22 908.544 1119.49C894.936 1142.76 884.122 1156.37 890.38 1168.88C896.637 1181.4 907.39 1183.64 908.544 1189.29C909.698 1194.94 906.843 1198.34 902.287 1197.25C897.73 1196.16 876.772 1198.95 870.515 1194.4C864.257 1189.84 862.01 1173.98 853.505 1166.57C845 1159.22 841.598 1148.41 852.35 1146.71C863.103 1145.01 868.814 1136.5 872.762 1135.95C876.711 1135.41 863.103 1148.47 865.412 1151.26C867.659 1154.12 869.36 1163.78 872.762 1163.78C876.164 1163.78 876.164 1139.96 881.814 1140.51C887.464 1141.06 895.422 1150.72 895.422 1150.72C895.422 1150.72 888.618 1156.97 894.875 1166.63C901.132 1176.29 887.889 1088.39 918.567 1079.88C949.185 1071.38 956.293 985.782 972.209 1003.22C989.705 1022.47 1105.43 1016.76 1102.03 1030.98C1098.63 1045.2 1063.45 1078.06 1058.9 1109.83C1054.34 1141.6 1050.94 1164.32 1056.65 1174.53C1062.3 1184.74 1082.17 1213.11 1079.37 1221.07C1076.58 1229.02 1074.27 1229.57 1071.41 1229.02C1068.56 1228.48 1042.5 1222.77 1036.24 1215.42C1029.98 1208.06 1031.14 1192.15 1023.73 1189.9C1016.37 1187.65 1003.86 1178.54 1005.56 1172.89C1007.26 1167.24 1018.62 1148.47 1022.57 1148.47C1026.52 1148.47 1012.91 1167.18 1015.22 1170.58C1017.47 1173.98 1030.53 1175.14 1033.93 1170.04C1037.33 1164.93 1039.58 1150.72 1043.59 1150.72C1047.6 1150.72 1062.3 1158.07 1062.3 1161.47C1062.3 1164.87 1071.96 1192.09 1077.61 1196.1C1083.26 1200.05 1025.97 1149.56 1025.97 1145.01C1025.97 1140.45 1037.33 1113.23 1037.33 1099.63C1037.33 1086.02 1035.09 1034.38 1079.31 1041.73C1123.6 1049.08 1002.16 1162.02 1002.16 1186.98C1002.16 1314.41 903.626 1374.84 813 1420C722.374 1465.16 659.592 1501 631 1588" stroke="#31F565" stroke-width="2" stroke-miterlimit="10"/>
</svg>
