<svg width="146" height="20" viewBox="0 0 146 20" fill="none" xmlns="http://www.w3.org/2000/svg">
<path d="M145.946 3.69367V6.48646H140.18V8.4234H145.45V11.1711H140.18V13.3333H145.946V16.1711H136.892V3.64862L145.946 3.69367Z" fill="#C4C6CC"/>
<path d="M135.045 16.2162H131.712V3.69366H135.045V16.2162Z" fill="#C4C6CC"/>
<path d="M129.865 3.69366V16.2162H126.531V11.2612H121.667V16.2162H118.333V3.69366H121.667V8.4234H126.531V3.69366H129.865Z" fill="#C4C6CC"/>
<path d="M111.486 3.51349C114.64 3.51349 116.486 5.36034 116.937 7.9279H113.649C113.333 7.027 112.658 6.39637 111.486 6.39637C109.73 6.39637 108.739 7.9279 108.739 9.99998C108.739 12.027 109.73 13.6036 111.486 13.6036C112.658 13.6036 113.333 12.9729 113.649 12.072H116.937C116.486 14.6396 114.64 16.4865 111.486 16.4865C107.928 16.4865 105.405 13.8288 105.405 10.045C105.45 6.17115 107.973 3.51349 111.486 3.51349Z" fill="#C4C6CC"/>
<path d="M104.279 3.69367V6.48646H98.5135V8.4234H103.784V11.1711H98.5135V13.3333H104.279V16.1711H95.2252V3.64862L104.279 3.69367Z" fill="#C4C6CC"/>
<path d="M84.3243 3.69366H93.8739V6.48646H89.955V16.1711H86.6216V6.48646H82.6126L84.3243 3.69366Z" fill="#C4C6CC"/>
<path d="M73.1982 3.69366H84.3243L82.6126 6.48646H80.4054V16.1711H77.0721V6.48646H73.1982V3.69366Z" fill="#D7D9E0"/>
<path d="M65.2252 12.072V16.2162H61.937V3.69366H67.6126C70.3153 3.69366 72.2072 5.2252 72.2072 7.9279C72.2072 9.81979 71.2613 11.1261 69.6847 11.7117L72.6577 16.1711H69.009L66.3514 12.027H65.2252V12.072ZM65.2252 9.45943H67.2973C68.4685 9.45943 69.009 8.87385 69.009 7.97294C69.009 7.07204 68.4685 6.48646 67.2973 6.48646H65.2252V9.45943Z" fill="#D7D9E0"/>
<path d="M54.3694 16.3964C50.7207 16.3964 48.1982 13.6486 48.1982 9.95493C48.1982 6.21619 50.7207 3.51349 54.3694 3.51349C58.018 3.51349 60.5856 6.21619 60.5856 9.95493C60.5405 13.6937 58.018 16.3964 54.3694 16.3964ZM54.3694 6.35133C52.6576 6.35133 51.5315 7.79277 51.5315 9.95493C51.5315 12.1171 52.6576 13.5585 54.3694 13.5585C56.0811 13.5585 57.2522 12.1171 57.2522 9.95493C57.2072 7.79277 56.0811 6.35133 54.3694 6.35133Z" fill="#D7D9E0"/>
<path d="M40.4054 12.2973V16.1711H37.1171V3.64862H42.6577C45.4054 3.64862 47.2523 5.18015 47.2523 7.97295C47.2523 10.7207 45.4054 12.2522 42.6577 12.2522L40.4054 12.2973ZM42.3424 6.44141H40.4054V9.59457H42.3424C43.5586 9.59457 44.0541 8.96394 44.0541 8.01799C44.0541 7.07204 43.5135 6.44141 42.3424 6.44141Z" fill="#D7D9E0"/>
<path d="M28.6937 12.4775C28.964 13.3333 29.6847 13.7387 30.7207 13.7387C31.7117 13.7387 32.4324 13.3333 32.4324 12.5225C32.4324 11.9369 32.027 11.6666 31.2162 11.4865L28.7838 10.991C26.9369 10.5856 25.5405 9.63962 25.5405 7.5225C25.5405 5.09007 27.6126 3.46844 30.4054 3.46844C33.5135 3.46844 35.2252 5.13511 35.5856 7.29727H32.3874C32.1171 6.6216 31.5315 6.08106 30.4504 6.08106C29.5045 6.08106 28.8739 6.48646 28.8739 7.16214C28.8739 7.70268 29.2793 8.01799 29.9099 8.15313L32.3874 8.73871C34.5495 9.23421 35.7207 10.4054 35.7207 12.3423C35.7207 14.9099 33.5586 16.3513 30.7658 16.3513C27.7477 16.3513 25.6757 14.9099 25.2252 12.4324H28.6937V12.4775Z" fill="#D7D9E0"/>
<path d="M4.68469 0.045045L8.01803 6.71171H15.2252L19.3243 0L4.68469 0.045045Z" fill="#D7D9E0"/>
<path d="M4.68467 0.0450439L8.018 6.71171H0.675659L4.68467 0.0450439Z" fill="#C4C6CC"/>
<path d="M0.675659 6.71167H8.018L4.09908 13.2432L0.675659 6.71167Z" fill="#D7D9E0"/>
<path d="M14.6396 19.9549L11.3063 13.2432H4.0991L0 20L14.6396 19.9549Z" fill="#D7D9E0"/>
<path d="M14.6397 19.9549L11.3063 13.2432H18.6487L14.6397 19.9549Z" fill="#C4C6CC"/>
<path d="M18.6487 13.2432H11.3063L15.2253 6.71167L18.6487 13.2432Z" fill="#D7D9E0"/>
</svg>
