<svg width="83" height="20" viewBox="0 0 83 20" fill="none" xmlns="http://www.w3.org/2000/svg">
<path fill-rule="evenodd" clip-rule="evenodd" d="M5 7.5H0V0H17.5V7.5H12.5V20H5V7.5ZM36.2432 2.19673C35.5468 1.50028 34.72 0.947825 33.81 0.570909C32.9001 0.193994 31.9248 0 30.9399 0H20V20H27.5V7.5H29.9043C30.5679 7.49997 31.2043 7.76331 31.6738 8.23219L34.2643 10.821C34.7341 11.2895 34.9988 11.9253 35 12.5888V20H42.5V11.5533C42.4987 9.56375 41.7073 7.65618 40.2999 6.25L36.2432 2.19673ZM75 0V7.41119C74.9987 8.07465 74.7341 8.71047 74.2643 9.17892L71.672 11.7677C71.4399 11.9999 71.1643 12.1841 70.861 12.3097C70.5576 12.4354 70.2326 12.5 69.9043 12.5H66.3016C67.0819 11.292 67.498 9.88481 67.5 8.44666V0H60V7.41119C59.9987 8.07465 59.7341 8.71047 59.2643 9.17892L56.672 11.7677C56.4399 11.9999 56.1643 12.1841 55.861 12.3097C55.5577 12.4354 55.2326 12.5 54.9043 12.5H52.5V0H45V20H55.9399C57.9295 20 59.8377 19.2099 61.2449 17.8033L63.75 15.2992V20H70.9399C72.9295 20 74.8377 19.2099 76.2449 17.8033L80.2999 13.7499C81.7074 12.3438 82.4987 10.4362 82.5 8.44666V0H75Z" fill="#C4C6CC"/>
</svg>
