<svg width="128" height="128" viewBox="0 0 128 128" fill="none" xmlns="http://www.w3.org/2000/svg">
<mask id="mask0" mask-type="alpha" maskUnits="userSpaceOnUse" x="0" y="0" width="129" height="128">
<rect x="3.05176e-05" width="128" height="128" rx="1" fill="#F0F1F5"/>
</mask>
<g mask="url(#mask0)">
<path d="M114.5 56C114.5 76.5533 97.3095 89.9918 71.5 97.5C44 105.5 17.5 97.0533 17.5 76.5C17.5 55.9467 34.0049 20 62 20C89.9952 20 114.5 35.4467 114.5 56Z" fill="#EBFFF0"/>
<g filter="url(#filter0_d)">
<path d="M70.3005 197.608C70.0649 197.608 69.8654 197.427 69.8469 197.188C69.7901 196.461 64.1785 124.413 64.1785 116.191C64.1785 113.147 63.9256 111.448 63.6582 110.505C54.9079 110.375 44.7956 110.047 41.8591 109.348C41.1942 109.189 40.4531 109.198 39.6692 109.206C38.0677 109.223 36.2554 109.243 34.8048 107.726C32.4048 105.216 31.5768 98.829 32.1992 87.6268C33.5861 62.6657 33.2218 27.9432 33.2112 26.9547C33.1768 26.5758 32.8605 22.3277 35.6103 19.4571C37.3797 17.6093 40.0029 16.7729 43.4075 16.9627C47.7816 17.2101 51.3481 17.4241 54.3541 17.6042C58.7352 17.8668 61.9003 18.0566 64.654 18.1765C65.5087 18.2141 66.7653 18.1741 68.2557 18.1042C66.6029 17.5635 64.9649 16.6751 63.2043 15.2078C60.8279 13.2277 59.7003 3.18766 59.8527 -14.6323C59.9654 -27.8122 60.7566 -40.5999 60.7645 -40.7277C60.7803 -40.9788 60.9961 -41.1691 61.2475 -41.1537C61.4986 -41.1379 61.6893 -40.9217 61.6735 -40.6706C60.7909 -26.5486 59.4502 10.8938 63.7872 14.5083C66.6438 16.8892 69.1067 17.654 71.9949 17.9151C77.8971 17.6276 83.0183 17.5301 85.9254 18.3635C86.1203 18.3744 86.3125 18.3866 86.5019 18.4005C91.302 18.7542 94.1392 20.3597 94.4373 27.5188C94.8378 37.1268 95.8445 77.1177 95.8546 77.5203C95.8877 78.5647 96.6424 103.208 94.3578 106.532C91.9392 110.049 79.7691 110.575 72.73 110.575C70.4775 110.575 67.6467 110.558 64.61 110.518C64.9312 111.805 65.0894 113.688 65.0894 116.191C65.0894 124.378 70.6985 196.391 70.7553 197.118C70.7747 197.368 70.5874 197.587 70.3366 197.607C70.3245 197.608 70.3123 197.608 70.3005 197.608ZM64.313 109.603C67.4609 109.647 70.4037 109.664 72.7297 109.664C84.2318 109.664 92.0364 108.3 93.607 106.015C95.0825 103.869 95.1806 90.2223 95.0415 81.7283C95.0023 92.245 94.0566 92.5604 93.5189 92.7395C91.3083 93.477 80.0481 93.3079 68.2083 93.0155C66.4149 92.9712 65.1191 92.9393 64.6082 92.9393C63.7629 92.9393 63.6102 93.0583 63.1035 93.4518C63.027 93.511 62.9444 93.5751 62.853 93.6443C62.6781 93.7761 62.523 93.913 62.3867 94.0505C62.2185 94.3553 61.9993 94.6845 61.7142 95.0209C61.6504 95.1827 61.6243 95.3211 61.6343 95.4225C61.8013 95.6004 62.5992 95.8819 63.1864 96.0889C65.1158 96.7696 68.0313 97.7986 67.5604 100.31C67.4751 100.765 67.4156 101.207 67.3579 101.633C67.0161 104.17 66.7273 106.354 61.1807 106.222C58.4249 106.152 56.0995 103.331 55.6569 100.74C55.3181 98.7583 56.1351 97.1865 57.8423 96.5362C59.3491 95.962 60.3151 95.2258 60.9339 94.5317C61.0936 94.1865 61.3383 93.8325 61.6507 93.5007C61.8186 93.1767 61.9127 92.898 61.9653 92.6973C61.5317 92.7052 60.9044 92.7241 59.997 92.762C55.3323 92.9557 37.4104 90.7977 35.3883 90.5517C35.2046 90.753 34.5798 91.7379 34.7277 95.731C34.7708 96.8987 34.6812 97.9828 34.5944 99.0312C34.2811 102.819 34.074 105.321 41.0108 106.226C49.7696 107.369 61.549 108.344 62.7495 108.442C62.9538 108.385 63.2346 108.391 63.5173 108.558C63.83 108.742 64.0948 109.089 64.313 109.603ZM40.1777 108.291C40.8168 108.291 41.4614 108.316 42.0698 108.462C44.9013 109.136 54.6756 109.458 63.2817 109.589C63.2128 109.482 63.1536 109.419 63.1108 109.383C63.0522 109.333 63.0121 109.322 62.9966 109.321C62.9274 109.351 62.8506 109.364 62.7756 109.358C62.6499 109.348 50.1084 108.332 40.8936 107.13C33.0952 106.112 33.3696 102.797 33.6872 98.9565C33.7716 97.9349 33.8591 96.878 33.8181 95.765C33.6222 90.4713 34.7265 89.712 35.2101 89.6315C35.2532 89.6245 35.2969 89.6236 35.3404 89.6285C35.5383 89.6528 55.1963 92.0507 59.9593 91.8521C61.086 91.8056 61.9294 91.7829 62.4361 91.7823C62.9769 91.7829 63.4107 91.7832 63.4945 92.1651C63.7754 92.0734 64.1166 92.0285 64.6082 92.0285C65.1304 92.0285 66.431 92.0604 68.2311 92.105C75.0046 92.272 90.8669 92.663 93.2311 91.8755C93.5532 91.6362 94.3277 89.6364 94.0864 76.4902C93.9321 68.0696 93.4284 57.9364 93.024 49.7942C92.7074 43.4224 92.4575 38.3895 92.5152 36.8311C92.7071 31.6488 89.7882 23.1751 87.3523 20.1305C87.0627 19.7686 86.5317 19.4865 85.8206 19.2692C85.0959 19.2297 84.3269 19.2084 83.5232 19.186C82.6525 19.1617 81.752 19.1365 80.8023 19.0864C79.1683 19.0005 77.7228 18.9868 76.3253 18.9738C74.7657 18.9592 73.3399 18.9458 71.984 18.8262C71.473 18.8517 70.9757 18.8778 70.4981 18.9027C68.0347 19.0314 65.9061 19.1416 64.6145 19.0867C61.8535 18.9665 58.6851 18.7767 54.2994 18.5135C51.2943 18.3331 47.7288 18.1194 43.3559 17.8723C40.2309 17.6934 37.8491 18.4388 36.2724 20.0819C33.7434 22.7172 34.1153 26.8439 34.1192 26.8855C34.1205 26.8985 34.1214 26.9119 34.1214 26.9249C34.1253 27.2774 34.51 62.4507 33.1085 87.6772C32.5095 98.461 33.2795 104.813 35.463 107.096C36.6404 108.327 38.108 108.312 39.6592 108.295C39.831 108.293 40.0041 108.291 40.1777 108.291ZM60.841 95.8788C60.1794 96.425 59.3099 96.9524 58.1668 97.3878C56.4031 98.0597 56.3998 99.6809 56.5546 100.588C56.9287 102.776 58.9301 105.254 61.2038 105.312C65.9279 105.43 66.1147 104.04 66.455 101.512C66.5142 101.074 66.5752 100.621 66.6648 100.142C66.9672 98.529 65.131 97.7415 62.8828 96.9478C61.8456 96.5817 61.1085 96.3218 60.841 95.8788ZM88.0005 19.4862C88.0221 19.5108 88.0433 19.536 88.0637 19.5612C90.6462 22.7898 93.6279 31.4083 93.4257 36.8648C93.3692 38.3837 93.6185 43.399 93.9339 49.7493C94.145 53.9961 94.3827 58.7755 94.5837 63.5704C94.2515 50.9485 93.7743 33.4762 93.5274 27.5561C93.2882 21.8152 91.469 20.0561 88.0005 19.4862Z" fill="#00B831"/>
</g>
<g filter="url(#filter1_d)">
<path d="M62.1037 45.703C57.109 45.703 53.0458 41.7531 53.0458 36.8984C53.0458 32.0437 57.109 28.0938 62.1037 28.0938C67.098 28.0938 71.1612 32.0437 71.1612 36.8984C71.1612 41.7531 67.098 45.703 62.1037 45.703ZM62.1037 29.0046C57.6115 29.0046 53.9567 32.5456 53.9567 36.8984C53.9567 41.2512 57.6115 44.7922 62.1037 44.7922C66.5959 44.7922 70.2504 41.2512 70.2504 36.8984C70.2504 32.5456 66.5959 29.0046 62.1037 29.0046Z" fill="#00B831"/>
</g>
<g filter="url(#filter2_d)">
<path d="M61.0918 44.7921C56.0971 44.7921 52.0339 40.8422 52.0339 35.9875C52.0339 31.1328 56.0971 27.1829 61.0918 27.1829C66.0861 27.1829 70.1493 31.1328 70.1493 35.9875C70.1493 40.8422 66.0861 44.7921 61.0918 44.7921ZM61.0918 28.0937C56.5996 28.0937 52.9448 31.6347 52.9448 35.9875C52.9448 40.3403 56.5996 43.8813 61.0918 43.8813C65.584 43.8813 69.2385 40.3403 69.2385 35.9875C69.2385 31.6347 65.5836 28.0937 61.0918 28.0937Z" fill="#00B831"/>
</g>
<g filter="url(#filter3_d)">
<path d="M62.4826 93.1669C62.2537 93.1669 62.0563 92.9948 62.0305 92.7619C61.8945 91.5393 61.5001 90.1825 61.1188 88.8703C60.8771 88.0387 60.627 87.1786 60.4448 86.3588C60.3528 85.9453 60.4159 85.598 60.6321 85.3272C61.1264 84.7078 62.2546 84.7014 63.9621 84.692C64.4643 84.6893 65.0332 84.686 65.631 84.6662C66.2027 84.6468 67.0832 84.6693 68.1027 84.6951C72.0174 84.794 80.1641 85.0002 80.3214 82.5874C80.3475 82.1848 80.2582 81.8833 80.0481 81.6654C79.3975 80.991 77.6548 81.0424 76.1167 81.0864C75.5244 81.104 74.9654 81.1198 74.4569 81.0988C73.2488 81.0478 67.5283 81.1131 61.9959 81.1759C56.2939 81.2403 50.9079 81.301 49.7872 81.2503C49.3807 81.2324 48.867 81.2637 48.3239 81.298C45.9994 81.4431 42.4879 81.6626 42.119 77.8791C42.0808 77.4883 42.2186 77.1143 42.517 76.7979C44.7853 74.3943 57.9831 74.5679 71.9075 75.1141C73.8998 75.1924 75.4731 75.2541 76.2725 75.2541C80.25 75.2541 80.2859 74.5403 80.3575 73.1191L80.3718 72.8489C80.39 72.5422 80.2962 72.3977 80.213 72.3057C79.6149 71.6478 77.339 71.564 73.894 71.4368L73.118 71.408C70.9092 71.3248 68.5195 71.4823 65.7537 71.6648C61.879 71.9208 57.487 72.2107 52.2616 71.9138C46.0729 71.5622 44.2582 71.4222 43.5751 70.5545C43.1674 70.0366 43.2827 69.4045 43.4285 68.6035L43.4394 68.5434C43.8016 66.5499 48.0193 66.5511 53.9385 66.7713C55.0812 66.8141 56.1606 66.8538 57.0441 66.8538C58.3214 66.8538 60.6585 66.9082 63.3652 66.971C64.6829 67.0017 66.1544 67.036 67.6524 67.0664C64.6051 66.9413 64.3076 66.7886 63.6916 66.263C63.5595 66.1504 63.4101 66.0229 63.1736 65.8708C61.8569 65.0243 61.8623 63.9526 61.8693 62.5957C61.8711 62.2293 61.8733 61.8136 61.8517 61.3601C61.8301 60.908 61.9279 60.5318 62.118 60.2167C54.3975 60.3994 51.468 58.1965 49.9251 56.4814C49.3749 55.8705 49.1624 55.3186 49.2748 54.7939C49.4651 53.9059 50.5147 53.4429 51.6259 52.9526C52.122 52.7336 52.6351 52.5072 53.062 52.2464L53.2153 52.1525C54.8979 51.1254 56.0094 50.4469 56.7377 48.9902C57.477 47.5122 57.1015 44.2202 57.0975 44.1871C57.0681 43.9375 57.2469 43.7113 57.4968 43.6819C57.7439 43.6518 57.9728 43.831 58.0023 44.0805C58.0196 44.2266 58.4134 47.6761 57.5526 49.3976C56.7074 51.0881 55.4416 51.8608 53.6898 52.9301L53.5368 53.0239C53.0583 53.3163 52.517 53.5549 51.9936 53.7863C51.1802 54.1451 50.2584 54.5517 50.1655 54.9852C50.1082 55.2536 50.3711 55.6158 50.6021 55.8723C52.0934 57.5294 55.0199 59.6832 63.1946 59.2646C63.2225 59.263 63.2513 59.2615 63.279 59.26C64.3036 58.78 65.7324 58.5918 67.0659 58.416C67.4548 58.3647 67.8398 58.314 68.2087 58.2575C70.1111 57.9648 72.6532 56.4182 73.4395 55.0754C73.5798 54.8361 73.7246 54.4918 73.6199 54.2119C73.2953 53.3463 71.0319 53.4499 69.8156 53.5042C69.0967 53.5367 68.7096 53.5507 68.4561 53.4781C67.5131 53.2082 66.8509 52.7397 65.614 48.5129C65.0344 46.5331 65.0104 45.0657 65.543 44.1519C65.9037 43.5325 66.3976 43.4007 66.4529 43.3877C66.5777 43.3576 66.7082 43.3828 66.8139 43.4548C66.9195 43.5267 66.99 43.64 67.0079 43.7666C67.01 43.7806 67.214 45.199 67.6118 47.2878C67.9491 49.06 68.4937 51.1394 69.7182 51.4892C70.0646 51.5881 70.5346 51.6595 71.0325 51.7348C72.4938 51.9561 74.4952 52.2588 75.7943 53.639C76.1969 54.0668 76.2916 54.6187 76.0609 55.1923C75.2329 57.2513 69.904 59.7679 63.5173 60.159C63.0124 60.4344 62.7367 60.8005 62.7613 61.3169C62.7841 61.7945 62.7817 62.2226 62.7798 62.6009C62.7732 63.9246 62.7701 64.5291 63.6658 65.1051C63.9545 65.2906 64.1364 65.4457 64.2824 65.5705C64.7712 65.988 64.8875 66.0869 70.4156 66.2472C71.3571 66.2746 72.2284 66.2979 73.0278 66.3195C79.4859 66.4947 79.74 66.5247 79.8292 67.1247C79.8988 67.5922 79.3729 67.7677 79.1486 67.8424C78.0932 68.1949 71.6531 68.0747 63.3433 67.8816C60.6424 67.819 58.3101 67.7647 57.0435 67.7647C56.1433 67.7647 55.0558 67.7243 53.9042 67.6815C50.4187 67.5518 44.584 67.3345 44.3347 68.7065L44.3238 68.7666C44.2042 69.4239 44.1435 69.8049 44.2901 69.9907C44.7291 70.5484 47.3429 70.7215 52.3127 71.0039C57.4828 71.2987 61.8447 71.0099 65.6933 70.7558C68.4849 70.5718 70.895 70.4127 73.152 70.4974L73.9271 70.5263C77.9909 70.6763 80.0308 70.7516 80.8864 71.693C81.1763 72.0121 81.309 72.419 81.2805 72.902L81.2665 73.1643C81.1639 75.204 80.6374 76.1646 76.2719 76.1646C75.4546 76.1646 73.8731 76.1027 71.8711 76.024C63.9727 75.7146 45.4757 74.9893 43.1789 77.4224C43.0265 77.5843 43.0165 77.7039 43.0247 77.7901C43.2876 80.484 45.4581 80.5645 48.2662 80.3884C48.8351 80.3526 49.3731 80.3195 49.8282 80.3401C50.9233 80.3899 56.5468 80.3265 61.9853 80.2645C67.5298 80.2017 73.2631 80.1367 74.4949 80.188C74.9709 80.2083 75.5147 80.192 76.09 80.1756C77.901 80.1227 79.7737 80.0684 80.7033 81.0326C81.0959 81.4398 81.2732 81.9826 81.2298 82.646C81.0321 85.6778 74.6242 85.7701 68.0793 85.605C67.0741 85.5795 66.2061 85.557 65.6611 85.5758C65.0508 85.5962 64.4752 85.5992 63.9669 85.6022C62.7868 85.6086 61.5666 85.6156 61.3441 85.8946C61.2991 85.9508 61.3137 86.0704 61.3338 86.1609C61.5095 86.9518 61.7555 87.7979 61.9932 88.6159C62.3854 89.9651 62.7911 91.3602 62.9356 92.6608C62.9635 92.9107 62.7832 93.136 62.5333 93.1639C62.5163 93.166 62.4993 93.1669 62.4826 93.1669ZM74.3464 53.6326C74.3953 53.7131 74.4375 53.7993 74.4721 53.8919C74.5996 54.2313 74.66 54.7924 74.2249 55.535C74.0385 55.8535 73.7741 56.1787 73.4523 56.4975C74.401 55.9218 75.0183 55.3422 75.2153 54.8519C75.3392 54.5435 75.242 54.381 75.1306 54.2629C74.8968 54.014 74.6321 53.8069 74.3464 53.6326ZM66.2434 44.7815C66.0284 45.2953 65.9164 46.3057 66.4875 48.2566C67.6731 52.3065 68.2217 52.4631 68.706 52.6019C68.8338 52.6368 69.3548 52.6128 69.7741 52.5943C69.9887 52.5846 70.2176 52.5743 70.4547 52.5667C70.0931 52.509 69.7558 52.4464 69.468 52.3645C67.7751 51.8808 67.1272 49.6129 66.7167 47.4576C66.5036 46.3394 66.3454 45.41 66.2434 44.7815Z" fill="#00B831"/>
</g>
</g>
<defs>
<filter id="filter0_d" x="28.0001" y="-45.1545" width="72" height="246.763" filterUnits="userSpaceOnUse" color-interpolation-filters="sRGB">
<feFlood flood-opacity="0" result="BackgroundImageFix"/>
<feColorMatrix in="SourceAlpha" type="matrix" values="0 0 0 0 0 0 0 0 0 0 0 0 0 0 0 0 0 0 127 0"/>
<feOffset/>
<feGaussianBlur stdDeviation="2"/>
<feColorMatrix type="matrix" values="0 0 0 0 0 0 0 0 0 0.8 0 0 0 0 0.213333 0 0 0 0.4 0"/>
<feBlend mode="normal" in2="BackgroundImageFix" result="effect1_dropShadow"/>
<feBlend mode="normal" in="SourceGraphic" in2="effect1_dropShadow" result="shape"/>
</filter>
<filter id="filter1_d" x="49.0458" y="24.0938" width="26.1154" height="25.6093" filterUnits="userSpaceOnUse" color-interpolation-filters="sRGB">
<feFlood flood-opacity="0" result="BackgroundImageFix"/>
<feColorMatrix in="SourceAlpha" type="matrix" values="0 0 0 0 0 0 0 0 0 0 0 0 0 0 0 0 0 0 127 0"/>
<feOffset/>
<feGaussianBlur stdDeviation="2"/>
<feColorMatrix type="matrix" values="0 0 0 0 0 0 0 0 0 0.8 0 0 0 0 0.213333 0 0 0 0.4 0"/>
<feBlend mode="normal" in2="BackgroundImageFix" result="effect1_dropShadow"/>
<feBlend mode="normal" in="SourceGraphic" in2="effect1_dropShadow" result="shape"/>
</filter>
<filter id="filter2_d" x="48.0339" y="23.1829" width="26.1154" height="25.6093" filterUnits="userSpaceOnUse" color-interpolation-filters="sRGB">
<feFlood flood-opacity="0" result="BackgroundImageFix"/>
<feColorMatrix in="SourceAlpha" type="matrix" values="0 0 0 0 0 0 0 0 0 0 0 0 0 0 0 0 0 0 127 0"/>
<feOffset/>
<feGaussianBlur stdDeviation="2"/>
<feColorMatrix type="matrix" values="0 0 0 0 0 0 0 0 0 0.8 0 0 0 0 0.213333 0 0 0 0.4 0"/>
<feBlend mode="normal" in2="BackgroundImageFix" result="effect1_dropShadow"/>
<feBlend mode="normal" in="SourceGraphic" in2="effect1_dropShadow" result="shape"/>
</filter>
<filter id="filter3_d" x="38.1128" y="39.3752" width="47.1715" height="57.7917" filterUnits="userSpaceOnUse" color-interpolation-filters="sRGB">
<feFlood flood-opacity="0" result="BackgroundImageFix"/>
<feColorMatrix in="SourceAlpha" type="matrix" values="0 0 0 0 0 0 0 0 0 0 0 0 0 0 0 0 0 0 127 0"/>
<feOffset/>
<feGaussianBlur stdDeviation="2"/>
<feColorMatrix type="matrix" values="0 0 0 0 0 0 0 0 0 0.8 0 0 0 0 0.213333 0 0 0 0.4 0"/>
<feBlend mode="normal" in2="BackgroundImageFix" result="effect1_dropShadow"/>
<feBlend mode="normal" in="SourceGraphic" in2="effect1_dropShadow" result="shape"/>
</filter>
</defs>
</svg>
