<svg width="128" height="128" viewBox="0 0 128 128" fill="none" xmlns="http://www.w3.org/2000/svg">
<mask id="mask0" mask-type="alpha" maskUnits="userSpaceOnUse" x="0" y="0" width="128" height="128">
<rect width="128" height="128" rx="1" fill="#D7D9E0"/>
</mask>
<g mask="url(#mask0)">
<path d="M68.5018 126.173C37.5 93 38.5384 115.033 32.5 86.5C26.0661 56.0978 37.4385 18.7571 58 19.8333C78.5615 20.9094 102.598 45.4768 101 76C99.4025 106.523 103 124.5 68.5018 126.173Z" fill="#EBFFF0"/>
<g filter="url(#filter0_d)">
<path fill-rule="evenodd" clip-rule="evenodd" d="M62.9441 4.80564C63.6955 6.07655 64.8344 7.23872 66.1724 8.28721L66.17 8.28613C64.6718 7.61198 63.0016 7.5607 61.4658 8.14331C59.9299 8.72535 58.7125 9.87102 58.0381 11.3684L53.2477 22.0072C52.5534 21.2884 51.1738 20.7172 49.9507 20.3224C48.8521 19.9682 47.6211 19.6718 46.8141 20.1634C45.6888 20.8503 45.0195 23.1011 44.9266 24.0978C44.6447 27.1139 46.196 30.8927 48.4229 32.7224L45.2619 39.7424C43.1049 39.1916 40.6491 38.8222 38.4008 40.5636L38.3246 40.6225C36.6019 41.957 34.6535 43.4664 33.4491 45.3152C33.392 45.3669 33.3362 45.4204 33.282 45.4758C33.1955 45.5641 33.1553 45.6805 33.1612 45.7949C31.9336 48.0501 33.0866 49.3522 34.6025 50.6907C35.1336 51.1595 35.6483 51.5603 36.1459 51.8926C34.0689 52.4469 33.0245 52.9808 31.7436 53.6974C30.2567 54.5296 30.0717 56.662 29.983 57.6867C29.9683 57.8553 29.9612 58.0148 29.9598 58.1679C29.9325 58.2703 29.9142 58.3794 29.9062 58.4959C29.8994 58.5968 29.9282 58.6918 29.9818 58.7685C30.0003 59.0051 30.0279 59.234 30.0563 59.4684L30.0564 59.4694C30.0898 59.7434 30.1238 60.0265 30.1431 60.3322C30.1658 60.693 30.0711 61.0721 29.9708 61.4734L29.9704 61.475L29.9703 61.4752C29.9411 61.5925 29.9115 61.7106 29.8846 61.8297C29.7489 62.2488 29.7135 62.7034 29.8333 63.1996L29.8376 63.2175C30.0694 64.1503 30.9002 65.156 31.905 65.7199L31.9051 65.7199C32.3943 65.9942 32.8916 66.1465 33.3616 66.1712L33.2696 66.3755C31.6018 65.6605 29.8796 65.6332 28.6432 66.3073C28.274 66.5085 27.86 66.6876 27.4216 66.8771L27.4208 66.8775C26.1773 67.415 24.7677 68.0242 24.1345 69.3487C23.3771 70.9299 24.2524 73.5004 25.1878 74.5755C25.2078 74.5985 27.0055 76.6418 28.6074 76.7296L25.1977 84.302C24.3571 86.1694 24.5288 88.2398 25.4778 89.8934C25.5186 90.0276 25.5641 90.161 25.6143 90.2935C26.1966 91.8293 27.342 93.0467 28.8396 93.7211L51.5279 103.937C52.5685 104.811 53.2297 106.586 53.8168 108.162L53.817 108.162L53.818 108.165C54.1537 109.066 54.4709 109.918 54.8462 110.602C56.0426 112.785 57.2727 114.775 58.835 117.055C59.2891 117.718 59.6646 118.178 60.0504 118.533C60.695 119.362 61.4411 120.039 62.4383 120.039C62.528 120.039 62.6197 120.033 62.7136 120.022C63.3721 120.386 63.6478 120.857 63.9815 121.713C64.5392 123.143 64.7356 124.722 64.9255 126.248C65.0173 126.985 65.1121 127.747 65.2465 128.489C65.7125 133.264 65.1295 137.456 64.5657 141.509L64.5653 141.512C63.9997 145.575 63.4661 149.413 63.9107 153.743C64.051 155.108 63.9796 157.086 63.9033 159.18L63.9032 159.182C63.7318 163.908 63.5376 169.262 65.4145 171.826C65.4979 171.94 65.6268 172 65.7577 172C65.845 172 65.9331 171.973 66.0085 171.918C66.1981 171.779 66.2389 171.514 66.1003 171.324C64.3975 168.998 64.5945 163.571 64.7529 159.211C64.8302 157.086 64.9031 155.08 64.7566 153.656C64.3224 149.428 64.8492 145.64 65.4072 141.63C65.979 137.522 66.5699 133.274 66.0915 128.392C66.0897 128.374 66.0868 128.356 66.0829 128.339C65.9537 127.626 65.8609 126.881 65.7711 126.161L65.7711 126.161L65.7691 126.144L65.7688 126.143C65.5725 124.565 65.3696 122.933 64.7736 121.404C64.4861 120.668 64.2016 120.126 63.7264 119.7C63.8893 119.619 64.0577 119.522 64.2321 119.408C64.8351 119.014 65.3698 118.5 65.8864 118.004C66.4639 117.45 67.0091 116.927 67.6387 116.556C68.5813 116 69.2166 116.04 70.2692 116.107L70.2727 116.107L70.2881 116.108C70.492 116.121 70.7066 116.135 70.9369 116.144C71.5008 116.168 72.2027 116.235 72.9457 116.306C76.3804 116.633 81.4848 117.12 83.7104 114.337C83.7861 114.301 83.8524 114.243 83.8977 114.168C83.9139 114.142 83.9266 114.115 83.936 114.087C83.9479 114.064 83.9623 114.035 83.9773 114.006C84.0745 113.814 84.255 113.457 83.8926 113.258C83.7676 113.188 83.4834 113.139 83.3029 113.441C81.5787 116.275 76.4326 115.784 73.0268 115.459L73.0265 115.459L73.0241 115.459C72.2704 115.387 71.5586 115.319 70.9729 115.294C70.7434 115.285 70.5294 115.271 70.3268 115.258L70.3249 115.258C69.2351 115.189 68.3751 115.134 67.2072 115.823C66.4925 116.244 65.8852 116.827 65.2981 117.391L65.2931 117.396C64.7838 117.884 64.3023 118.346 63.7671 118.697C63.4235 118.922 63.1187 119.065 62.8408 119.136C62.7991 119.117 62.7565 119.098 62.7129 119.079C61.7578 118.671 61.1988 118.416 60.6877 117.967C60.4746 117.687 60.2527 117.366 60.0121 117.011L59.7953 116.693C58.2476 114.433 57.0308 112.464 55.8508 110.31C55.5045 109.679 55.1973 108.854 54.8723 107.981C54.4768 106.92 54.0499 105.773 53.4812 104.817L60.4315 107.946C61.243 108.312 62.1036 108.492 62.9603 108.492C63.92 108.492 64.8747 108.266 65.7492 107.819C65.7857 108.331 65.8869 108.815 66.0819 109.237C66.1802 109.45 66.4319 109.543 66.6461 109.445C66.8592 109.347 66.9521 109.094 66.8538 108.881C66.4321 107.967 66.5662 106.593 66.8043 105.342L66.8263 105.319C66.9521 105.188 66.9779 104.998 66.9053 104.844C66.98 104.494 67.0583 104.162 67.1293 103.861L67.1294 103.86L67.1298 103.859L67.1768 103.659C67.3721 102.823 67.507 101.981 67.6373 101.167L67.6375 101.166C67.7639 100.375 67.8874 99.603 68.0606 98.8492L70.7597 92.8547C71.3684 91.6292 71.9462 90.4005 72.5135 89.194L72.5143 89.1923L72.5145 89.1919L72.5167 89.1873C73.0704 88.0093 73.6431 86.7914 74.2347 85.5964C75.3005 83.4451 76.8437 81.5578 78.3363 79.7332L78.4747 79.5639C78.4857 79.5656 78.4967 79.5668 78.5077 79.5676C78.518 79.5684 78.5283 79.5688 78.5386 79.5688C78.7007 79.5688 78.8554 79.4755 78.9265 79.3183L79.2408 78.6204C80.0169 77.6538 80.7789 76.6587 81.4567 75.6026L81.4638 75.6027C81.6259 75.6027 81.7809 75.5095 81.8517 75.3522L83.6642 71.3261C83.7143 71.2148 83.7125 71.0934 83.6692 70.9888C84.0251 69.9735 84.2792 69.0106 84.4375 68.0818C84.5166 67.6176 84.5759 67.1443 84.6229 66.6677L84.6569 66.5924C84.7073 66.4803 84.7052 66.3578 84.6609 66.2528C84.7129 65.6385 84.7483 65.0219 84.7829 64.4156C84.8475 63.2887 84.9138 62.1333 85.0871 61.0352C85.1178 60.9663 85.1287 60.8935 85.1221 60.8232C85.1719 60.5338 85.2297 60.2488 85.2975 59.9698C86.0005 57.0801 87.4884 53.965 89.7336 50.6745C89.7532 50.6516 89.7706 50.6263 89.7853 50.5989C90.5224 49.5233 91.3402 48.429 92.2379 47.3178L92.3271 47.207L92.3279 47.2061C93.4193 45.8541 94.1402 44.961 95.8692 44.6839C96.7738 44.5388 98.2763 44.9449 99.3243 45.6398C98.4518 45.67 97.5074 46.179 96.5388 47.1522C96.436 47.2556 96.3197 47.3666 96.1969 47.4837L96.1957 47.4849C95.6442 48.0108 94.9588 48.6651 94.6819 49.3784C93.9855 51.1739 94.9017 52.9371 97.1416 54.1985C96.5114 56.2342 96.3185 58.3121 96.1181 60.4722C96.0442 61.2676 95.9685 62.083 95.8684 62.9013C95.4804 62.8362 95.0767 62.6949 94.6592 62.5483L94.652 62.5457C94.2125 62.3918 93.7585 62.2328 93.3067 62.166C93.0758 62.1323 92.8584 62.2927 92.8241 62.5247C92.7901 62.7568 92.9505 62.973 93.1829 63.0073C93.554 63.062 93.9505 63.2008 94.37 63.3476L94.3701 63.3477L94.3781 63.3505C94.8273 63.5082 95.2858 63.6691 95.7557 63.7448L95.746 63.8111C95.7279 63.9328 95.7106 64.0546 95.6939 64.1764C95.4438 64.1202 95.1945 64.0488 94.9359 63.9749L94.9282 63.9727L94.9208 63.9706C94.6485 63.8927 94.3671 63.8123 94.077 63.7482C93.846 63.6967 93.6207 63.8432 93.5706 64.0721C93.5204 64.3011 93.6649 64.5281 93.8945 64.5785C94.1579 64.6365 94.4136 64.7096 94.6843 64.7871L94.6844 64.7871L94.6941 64.7899C94.9836 64.8729 95.2799 64.9577 95.5874 65.0231C95.5702 65.1729 95.5537 65.3227 95.538 65.4724L95.3623 65.4322L95.2798 65.4134L95.2787 65.4131L95.2444 65.4053C95.0736 65.3663 94.9045 65.3277 94.7406 65.2879C94.5113 65.2332 94.2827 65.3723 94.2271 65.6007C94.1716 65.8288 94.3116 66.0589 94.54 66.1142C94.7185 66.1572 94.903 66.1995 95.0897 66.242L95.0901 66.2421L95.0918 66.2425C95.2124 66.2699 95.3338 66.2976 95.455 66.326C95.3863 67.0885 95.3311 67.8466 95.2767 68.5925L95.2756 68.6075C95.1853 69.8443 95.0919 71.1227 94.9398 72.38C94.7718 73.7697 94.3796 75.1638 94.0001 76.5124C93.6677 77.6941 93.324 78.9162 93.1231 80.1529C92.8319 81.9445 93.1713 83.8405 93.4996 85.6747L93.4996 85.6749L93.5 85.6769C93.6524 86.5281 93.7964 87.3321 93.8803 88.121C94.4496 93.4942 92.2098 97.5575 89.4478 101.938C88.4642 103.498 88.4237 105.003 88.3809 106.597L88.3803 106.618C88.3661 107.143 88.3513 107.686 88.3016 108.247C87.9876 111.788 88.8629 114.693 89.9511 117.854C90.3832 119.111 90.8731 120.568 91.2121 121.963C91.282 122.251 91.3458 122.74 91.413 123.257C91.6615 125.17 91.8933 126.551 92.6142 126.892C92.672 126.919 92.7323 126.932 92.7918 126.932C92.9474 126.932 93.0951 126.843 93.1701 126.693C93.273 126.486 93.184 126.231 92.9783 126.124C92.6187 125.937 92.365 123.986 92.2563 123.15L92.256 123.148C92.1826 122.583 92.1191 122.095 92.0381 121.762C91.6907 120.332 91.1934 118.852 90.7547 117.577C89.6615 114.4 88.8487 111.702 89.1483 108.321C89.2007 107.73 89.2158 107.171 89.2304 106.629L89.2307 106.619V106.619C89.2721 105.082 89.3078 103.754 90.1667 102.391C93.0151 97.8737 95.3238 93.6753 94.7253 88.0309C94.6391 87.2162 94.4867 86.3647 94.3393 85.5408L94.3392 85.5403L94.3391 85.5397L94.3368 85.5267C94.0208 83.7624 93.6941 81.9378 93.9622 80.2889C94.155 79.1025 94.491 77.9071 94.8161 76.7505L94.8161 76.7504L94.8185 76.7419L94.8204 76.7353C95.2075 75.3582 95.6077 73.9342 95.7837 72.482C95.939 71.1989 96.0333 69.905 96.1243 68.6537L96.1248 68.6464V68.6463L96.1249 68.6456C96.1755 67.9528 96.2268 67.2495 96.2891 66.5431C96.4352 66.587 96.5769 66.6339 96.7117 66.6849C96.7613 66.7036 96.8117 66.7124 96.8619 66.7124C97.0336 66.7124 97.1951 66.6078 97.2598 66.4375C97.3428 66.2179 97.232 65.9725 97.0124 65.8895C96.8062 65.8115 96.5909 65.7433 96.3709 65.6813C96.4308 65.0978 96.5009 64.5144 96.5867 63.9353L96.6037 63.8199C96.6989 63.7989 96.807 63.7597 96.9225 63.6775C97.0843 63.5624 97.145 63.3505 97.0682 63.1674C97.0079 63.0226 96.8737 62.9248 96.724 62.9082C96.8198 62.1114 96.8931 61.3217 96.9645 60.5504L96.9645 60.5499C97.1557 58.4906 97.3397 56.5084 97.9136 54.5881C97.9622 54.6064 98.0125 54.6151 98.062 54.6151C98.2232 54.6151 98.3773 54.523 98.4488 54.3668C98.5468 54.1535 98.453 53.9013 98.2396 53.8035L98.1817 53.7767C98.4195 53.1228 98.7099 52.476 99.0691 51.8356C99.2621 51.4919 99.5355 51.1156 99.8251 50.7171L99.8252 50.7171L99.8252 50.717C100.638 49.5983 101.56 48.33 101.322 46.9497C100.977 44.9466 97.8137 43.7303 96.0534 43.812L101.403 31.9307C102.078 30.4328 102.128 28.762 101.546 27.2262C101.425 26.907 101.28 26.6015 101.112 26.3119C100.61 24.6811 99.4366 23.2653 97.7622 22.5111L78.6274 13.8953C78.6077 13.7455 78.5085 13.6111 78.3575 13.5533C74.7805 12.1872 66.4047 8.98763 63.6758 4.37265C61.6412 0.931965 60.9614 -4.30813 61.5975 -11.6463C61.999 -16.2745 62.6157 -21.1321 63.2122 -25.8302L63.2122 -25.8307L63.215 -25.8528L63.2163 -25.8625C64.3026 -34.4178 65.4259 -43.264 65.3922 -51.5766C65.3913 -51.8107 65.2012 -52 64.9671 -52H64.9654C64.7305 -51.9991 64.5412 -51.8079 64.5421 -51.5732C64.5755 -43.3127 63.4553 -34.4908 62.3717 -25.9596C61.773 -21.246 61.1541 -16.3721 60.7508 -11.7197C60.3346 -6.92166 60.1096 0.0115776 62.9441 4.80564ZM59.8724 106.658C60.6805 107.022 61.5392 107.199 62.3913 107.199C63.5995 107.199 64.7944 106.844 65.8127 106.166C65.7846 106.392 65.7626 106.618 65.749 106.844C64.2451 107.776 62.3987 107.9 60.7809 107.171L52.2376 103.324C52.1906 103.288 52.1429 103.252 52.0944 103.218C52.0319 103.173 51.9617 103.148 51.8908 103.141C51.8726 103.128 51.8544 103.115 51.836 103.102C51.7553 103.045 51.6619 103.02 51.5705 103.024L29.189 92.9461C28.8787 92.8064 28.5859 92.6397 28.3132 92.4486L59.8724 106.658ZM32.9206 67.1507C31.7984 66.6759 30.2261 66.4124 29.0501 67.0537C28.6469 67.2733 28.1955 67.4685 27.7591 67.6573C26.5981 68.1591 25.3978 68.678 24.9016 69.7157C24.3635 70.8395 24.9619 73.0201 25.8293 74.0175C26.5842 74.8849 28.0867 76.0708 28.9169 75.8583C28.9465 75.8509 28.9761 75.8468 29.0054 75.8457L32.9206 67.1507ZM39.2502 53.0935L33.752 65.3041C33.33 65.3764 32.8297 65.2634 32.3211 64.9786C31.5206 64.5295 30.8385 63.7207 30.6628 63.0126L30.6559 62.9837C30.5935 62.701 30.6319 62.395 30.7014 62.0731C30.9402 61.3465 31.6235 60.7074 32.2907 60.0835L32.2911 60.0831C32.5761 59.817 32.845 59.5654 33.0785 59.3078C33.5475 58.7906 33.7606 58.5776 34.3274 58.4951C34.4191 58.4817 34.5182 58.4783 34.623 58.4747L34.6331 58.4744L34.6357 58.4743C34.9292 58.4641 35.2936 58.4515 35.547 58.1749C35.7221 57.9839 35.7978 57.7187 35.7791 57.3633C35.7408 56.6407 35.0922 56.0575 34.5059 55.8218C33.6266 55.4684 32.9814 55.8649 32.4123 56.2145L32.3707 56.24L32.3704 56.2402L32.3698 56.2406L32.3689 56.2411C32.3027 56.2816 32.2355 56.3228 32.1669 56.363C32.021 56.4487 31.849 56.532 31.6672 56.62L31.6668 56.6202L31.6664 56.6204L31.666 56.6206L31.6555 56.6257C31.4146 56.7421 31.1547 56.8676 30.9108 57.0198C31.0614 55.9227 31.3716 54.8799 32.1587 54.4392C33.5756 53.6467 34.6189 53.1219 37.1548 52.5149C37.1679 52.5117 37.1808 52.508 37.1933 52.5037C37.9221 52.8641 38.6087 53.0611 39.2502 53.0935ZM31.7102 59.4624C31.4735 59.6838 31.2233 59.9178 30.9838 60.1672C30.9627 59.8814 30.9312 59.6206 30.9005 59.3673L30.9004 59.3661C30.8577 59.0133 30.8166 58.6737 30.8109 58.3056C30.964 57.93 31.4069 57.6898 32.0253 57.3911L32.0264 57.3905L32.0266 57.3904C32.2197 57.2971 32.4193 57.2007 32.5974 57.0961C32.6864 57.044 32.7728 56.991 32.8578 56.9385C33.4158 56.5954 33.7292 56.4256 34.1888 56.6104C34.5325 56.7487 34.9134 57.093 34.9301 57.4081C34.9344 57.4896 34.9294 57.5413 34.9268 57.5689L34.9255 57.5831C34.9252 57.5885 34.9253 57.5918 34.9261 57.5931C34.8732 57.6151 34.7178 57.6204 34.6103 57.6241L34.6045 57.6243C34.4835 57.6285 34.3463 57.6334 34.2049 57.6538C33.3135 57.7833 32.9128 58.2248 32.4486 58.7365C32.2386 58.9683 31.9822 59.2083 31.7104 59.4622L31.7103 59.4623L31.7102 59.4624ZM34.4474 65.8307L40.2277 52.9937C40.395 52.9096 40.4923 52.7212 40.453 52.5289C40.4514 52.521 40.4495 52.5133 40.4475 52.5056L53.6439 23.1987C53.6542 23.1798 53.6632 23.1599 53.6706 23.1393L58.8137 11.7175C59.3946 10.4267 60.4436 9.43972 61.7673 8.93787C63.0903 8.43602 64.5301 8.47995 65.8209 9.06142L97.413 23.2864C97.7236 23.4262 98.0141 23.5925 98.2832 23.7814L66.7291 9.5733C63.6372 8.18195 59.9894 9.56424 58.5972 12.6558L25.7571 85.5889C25.6827 85.7542 25.6159 85.9216 25.5567 86.0907C25.6246 85.6047 25.7617 85.1203 25.973 84.6509L34.4372 65.8534C34.4408 65.8459 34.4442 65.8384 34.4474 65.8307ZM35.1653 50.0537C33.4884 48.5728 32.9695 47.6648 34.0998 45.8748C34.6758 45.3857 35.4397 45.0745 36.2431 44.7472L36.2449 44.7464L36.2456 44.7461C36.9816 44.4461 37.7427 44.1359 38.3671 43.6682C39.0697 43.1418 39.2324 42.429 39.3761 41.7997L39.3762 41.7994L39.3775 41.7936C39.4595 41.4356 39.5369 41.0973 39.7054 40.8045C39.7242 40.7719 39.7381 40.7378 39.7474 40.7031C41.2544 39.9184 42.8925 40.0332 44.9073 40.53L39.6344 52.2402C38.4259 52.3247 36.8895 51.5758 35.1653 50.0537ZM35.5122 44.1282C36.4446 43.1746 37.5387 42.3082 38.571 41.5069L38.5474 41.6096L38.5473 41.6101L38.547 41.6114C38.4199 42.1679 38.3101 42.6489 37.8573 42.9878C37.3206 43.3899 36.6422 43.6665 35.9241 43.9589L35.9222 43.9597C35.7859 44.0153 35.649 44.0711 35.5122 44.1282ZM52.8434 22.905L48.786 31.9158C46.8489 30.2035 45.5218 26.8634 45.7727 24.1771C45.8679 23.1598 46.5327 21.3312 47.2564 20.8894C47.8389 20.5344 49.2312 20.9836 49.6892 21.1313L49.6895 21.1314C51.6738 21.7716 52.7647 22.5036 52.8434 22.905ZM98.3275 51.4205C97.9635 52.0695 97.6666 52.7209 97.4218 53.3763C96.243 52.6781 94.8012 51.4227 95.4748 49.6858C95.6827 49.1497 96.2922 48.568 96.782 48.1006L96.7828 48.0998C96.9118 47.9768 97.0339 47.8601 97.1418 47.7518C97.9265 46.9638 99.0727 46.1338 100.083 46.6563C100.169 46.7003 100.263 46.7125 100.351 46.697C100.416 46.8262 100.461 46.9591 100.485 47.0948C100.662 48.1206 99.8527 49.2335 99.1387 50.216L99.1374 50.2178C98.8327 50.6367 98.5451 51.0328 98.3275 51.4205ZM66.0211 104.919C64.4703 106.372 62.1741 106.763 60.2215 105.883L28.629 91.6583C27.6067 91.1978 26.8012 90.451 26.2645 89.5548C25.9238 88.3561 26.015 87.0883 26.5327 85.9386L59.3725 13.0052C59.9534 11.7145 61.0025 10.7275 62.3261 10.2256C63.65 9.72349 65.0898 9.7677 66.38 10.3489L97.9721 24.5741C98.9645 25.0207 99.7774 25.7441 100.328 26.6562C100.663 27.8207 100.604 29.1051 100.069 30.2938L93.5914 44.68C92.8587 45.1943 92.2997 45.8868 91.6657 46.6723L91.5765 46.7831L91.4875 46.8935L91.4132 46.9861L97.9812 32.3997C98.0274 32.2969 98.0311 32.1801 97.9908 32.0747C97.9512 31.9693 97.8707 31.884 97.7681 31.8375L59.8718 14.7735C59.7689 14.7273 59.6519 14.7236 59.5468 14.7639C59.4413 14.8035 59.3561 14.884 59.3096 14.9866L28.8274 82.6836C28.7812 82.7864 28.7775 82.9032 28.8178 83.0086C28.8574 83.114 28.9379 83.1993 29.0405 83.2458L66.9165 100.3C66.8756 100.545 66.8366 100.789 66.7977 101.032C66.6699 101.832 66.5375 102.659 66.3491 103.465L66.3023 103.664C66.2128 104.043 66.1124 104.47 66.0211 104.919ZM67.2548 98.5682L66.8982 99.36L29.777 82.6453L59.9103 15.7234L97.0316 32.4383L89.0441 50.1765C86.7335 53.5602 85.1999 56.7748 84.4718 59.7683C84.3904 60.1029 84.3228 60.4434 84.266 60.788L69.991 92.4912C69.4828 93.5139 68.9537 94.5327 68.3922 95.5314C67.8378 96.5174 67.4977 97.54 67.2548 98.5682ZM75.918 81.3987C76.4913 80.6469 77.0866 79.9188 77.6742 79.2001L77.6785 79.1948C77.955 78.8567 78.2332 78.5166 78.5096 78.1732L83.79 66.4467C83.8546 65.7562 83.8949 65.0555 83.9344 64.3682L83.9345 64.368L83.9345 64.3666L83.9347 64.3639C83.9515 64.07 83.9685 63.7741 83.9874 63.4776L75.918 81.3987ZM83.0504 70.16L80.9724 74.7748C81.3135 74.2186 81.6273 73.6465 81.9028 73.0544C82.3781 72.0337 82.7589 71.074 83.0504 70.16ZM94.7982 44.0708C94.8761 44.0446 94.956 44.0198 95.0379 43.9965L100.628 31.5816C100.839 31.1132 100.979 30.6252 101.048 30.1303C100.988 30.3026 100.92 30.4736 100.844 30.6429L94.7982 44.0708ZM63.9452 75.3487C61.8789 75.3487 59.8369 74.986 57.876 74.2702C56.7148 73.8463 55.6248 73.3131 54.6137 72.6865C50.9328 70.941 47.9959 68.01 46.2454 64.2963C44.2553 60.0744 44.0362 55.3466 45.6285 50.9838C48.1148 44.1713 54.6986 39.594 62.0116 39.594C62.7675 39.594 63.5202 39.6426 64.2668 39.7392C64.6277 39.6651 65.0121 39.6264 65.4145 39.6264C66.1813 39.6264 66.9561 39.7672 67.7172 40.0452C68.6663 40.3914 69.5037 40.9222 70.149 41.5775C70.5665 41.7925 70.9738 42.023 71.3702 42.2686C75.0382 44.0155 77.9649 46.9415 79.7109 50.6464C81.7007 54.868 81.9197 59.5958 80.3275 63.9586C77.8412 70.7711 71.2576 75.3487 63.9452 75.3487ZM71.2178 43.1787C73.8072 44.8589 75.8832 47.2236 77.2257 50.0723C77.7343 51.1514 78.1213 52.2653 78.3858 53.3978C77.6498 52.7268 76.7556 52.3652 75.8239 52.4576C73.6949 52.6658 72.1902 55.1632 72.4691 58.0249C72.7337 60.7326 74.5255 62.8536 76.5485 62.8536C76.6437 62.8536 76.74 62.8488 76.8361 62.8397C77.2017 62.8042 77.5522 62.7027 77.8804 62.5404C77.8688 62.5732 77.8572 62.6061 77.8454 62.6389L77.8123 62.7304C76.6235 65.988 74.4493 68.708 71.6969 70.6076C71.6999 70.4324 71.6873 70.2562 71.6581 70.0799C71.358 68.2734 69.4529 67.0118 67.0252 67.0118C66.6455 67.0118 66.2596 67.0439 65.877 67.1073C63.0402 67.5783 61.0169 69.6781 61.3669 71.7875C61.4798 72.4695 61.8215 73.0738 62.3336 73.5619C62.2987 73.5622 62.2638 73.5623 62.2289 73.5623C60.2623 73.5623 58.319 73.2166 56.4521 72.5353C55.9643 72.3573 55.4878 72.1586 55.0238 71.9402C54.261 71.4648 53.5456 70.9334 52.8812 70.354C53.2115 70.4274 53.5409 70.4656 53.8635 70.4656C54.7785 70.4656 55.5742 70.1658 56.165 69.5976C57.7063 68.115 57.339 65.2227 55.3464 63.1495C54.1783 61.9353 52.6416 61.2104 51.2358 61.2104C50.3211 61.2104 49.5254 61.5105 48.9351 62.0781C48.557 62.4414 48.2863 62.8908 48.1304 63.4023C46.8678 59.8968 46.7753 55.9609 48.1436 52.2115C48.1642 52.1551 48.1851 52.0989 48.2062 52.0429C48.7962 52.4861 49.5613 52.7239 50.4288 52.7239C51.6838 52.7239 53.0021 52.2371 54.1407 51.3533C55.2211 50.5145 56.0035 49.4164 56.343 48.2611C56.6975 47.0562 56.5337 45.9304 55.882 45.0911C55.5457 44.6585 55.1001 44.3313 54.5742 44.1227C56.6768 42.7411 59.0977 41.8297 61.6637 41.5087C61.5961 41.6341 61.5374 41.7648 61.4879 41.9004C60.7545 43.9095 62.3561 46.3468 65.0575 47.3329C65.8189 47.6109 66.5934 47.7518 67.3602 47.7518C69.2704 47.7518 70.7751 46.8801 71.2868 45.4774C71.5523 44.7502 71.5248 43.9573 71.2178 43.1787ZM53.447 43.8691C56.0346 41.9942 59.1377 40.8227 62.4347 40.5782C62.4864 40.5356 62.5395 40.4943 62.5941 40.4543C62.4003 40.4475 62.2062 40.4442 62.0118 40.4442C58.1638 40.4442 54.5282 41.7757 51.6471 44.0621C52.1296 43.9261 52.6163 43.8556 53.0939 43.8556C53.2136 43.8556 53.3314 43.8601 53.447 43.8691ZM47.0141 49.8749C46.7981 50.3296 46.6021 50.7969 46.4273 51.2757C44.9133 55.4237 45.1221 59.9191 47.0145 63.9342C47.3779 64.7051 47.7951 65.4407 48.2616 66.1368C48.182 65.9065 48.1181 65.6742 48.071 65.4416C46.0747 61.3487 45.6727 56.5021 47.3451 51.9199C47.4124 51.7354 47.4828 51.5526 47.556 51.3715C47.2492 50.9344 47.0673 50.4266 47.0141 49.8749ZM47.9929 50.3828C47.801 49.8535 47.7995 49.226 47.996 48.5575C48.2857 47.5723 48.9635 46.6272 49.9043 45.8964C50.6359 45.3288 51.4725 44.9428 52.2886 44.7851C50.5087 46.319 49.0342 48.2145 47.9929 50.3828ZM48.5439 51.218C49.6897 48.624 51.4781 46.4161 53.68 44.7532C54.3262 44.8628 54.8579 45.1584 55.2107 45.6122C55.6901 46.2299 55.8029 47.0851 55.5275 48.0208C55.2379 49.0064 54.56 49.9514 53.6193 50.6817C52.6433 51.4394 51.4807 51.8738 50.4288 51.8738C49.6589 51.8738 49.0026 51.6431 48.5439 51.218ZM77.9942 49.7098C78.7853 51.3885 79.2965 53.1471 79.5252 54.931C79.8717 55.6207 80.1068 56.4171 80.1901 57.272C80.3232 58.6339 80.0628 59.957 79.457 60.9972C79.3392 61.1995 79.211 61.3868 79.0736 61.5583C78.9415 62.05 78.7872 62.5384 78.6106 63.0223C77.2552 66.7359 74.6825 69.7854 71.4378 71.7912C71.2272 72.2868 70.895 72.7537 70.4657 73.1667C74.5972 71.4073 77.9414 68.0159 79.5289 63.6662C81.043 59.5185 80.8344 55.0231 78.9421 51.008C78.3765 49.8081 77.6809 48.6941 76.8715 47.681C77.2865 48.3272 77.6618 49.0044 77.9942 49.7098ZM76.1115 53.2935C77.1361 53.2935 78.0898 54.0333 78.698 55.1684C78.9371 57.1608 78.806 59.1843 78.3008 61.1548C77.8638 61.6448 77.3305 61.9367 76.7533 61.993C75.0854 62.161 73.5473 60.3169 73.3152 57.9422C73.0814 55.5469 74.2441 53.4658 75.9066 53.3034C75.9755 53.2969 76.0438 53.2935 76.1115 53.2935ZM63.7229 73.4951C62.899 73.0737 62.3334 72.4211 62.2054 71.6486C61.9322 70.0014 63.6418 68.3406 66.0161 67.9461C66.3528 67.8906 66.692 67.8622 67.0252 67.8622C68.9969 67.8622 70.5926 68.8535 70.8196 70.2193C70.875 70.554 70.8486 70.8892 70.7515 71.2143C68.6415 72.4702 66.2451 73.2677 63.7229 73.4951ZM63.5466 74.3624C63.1169 74.3949 62.6839 74.4116 62.2482 74.4121C62.7897 74.4673 63.3342 74.4961 63.8805 74.4982C63.7663 74.4563 63.6549 74.411 63.5466 74.3624ZM65.9729 74.0062C67.2619 73.7233 68.5056 73.2973 69.6827 72.743C69.004 73.3139 68.0727 73.7455 67.0077 73.9224C66.6713 73.978 66.3324 74.0063 65.9991 74.0063L65.9729 74.0062ZM53.8635 69.6158C52.9888 69.6158 52.0439 69.2709 51.2021 68.6641C50.2825 67.5963 49.5048 66.4206 48.8842 65.1697C48.8759 65.1227 48.8684 65.0758 48.8617 65.0288C48.7249 64.0634 48.9601 63.2331 49.524 62.691C49.953 62.2787 50.5447 62.0608 51.2355 62.0608C52.4149 62.0608 53.7227 62.6882 54.7334 63.7389C56.4014 65.4743 56.7791 67.8277 55.5753 68.9853C55.1466 69.3976 54.5544 69.6158 53.8635 69.6158ZM62.7879 41.4067C63.0997 41.3891 63.4132 41.3802 63.7282 41.3802C65.6948 41.3802 67.6384 41.7259 69.5053 42.4068C69.6286 42.4518 69.7511 42.4982 69.873 42.5458C69.9373 42.6271 69.9982 42.7102 70.0556 42.7948C70.6028 43.6018 70.7566 44.4508 70.4886 45.1856C70.1023 46.2442 68.9034 46.9017 67.3602 46.9017C66.6931 46.9017 66.0161 46.7778 65.3491 46.5344C63.0875 45.709 61.7137 43.7611 62.2864 42.192C62.3939 41.8973 62.5644 41.6337 62.7879 41.4067ZM62.7154 61.8409C62.1444 61.8409 61.5831 61.7415 61.0467 61.546C58.3453 60.5598 57.0154 57.3784 58.0829 54.4543C58.9149 52.1752 60.9917 50.6441 63.2501 50.6441C63.8209 50.6441 64.3819 50.7433 64.9181 50.9388C67.6197 51.9247 68.9496 55.1064 67.8824 58.0307C67.0504 60.3096 64.9739 61.8409 62.7154 61.8409ZM63.2504 51.4939C61.3473 51.4939 59.5916 52.8006 58.8817 54.7459C57.9752 57.2297 59.0772 59.922 61.3385 60.7474C61.7812 60.9089 62.2442 60.9908 62.7154 60.9908C64.6183 60.9908 66.3737 59.6842 67.0839 57.7392C67.9904 55.2548 66.8881 52.5623 64.6265 51.7371C64.1844 51.5758 63.7214 51.4939 63.2504 51.4939Z" fill="#00B831"/>
</g>
</g>
<defs>
<filter id="filter0_d" x="19.847" y="-56" width="86.1017" height="232" filterUnits="userSpaceOnUse" color-interpolation-filters="sRGB">
<feFlood flood-opacity="0" result="BackgroundImageFix"/>
<feColorMatrix in="SourceAlpha" type="matrix" values="0 0 0 0 0 0 0 0 0 0 0 0 0 0 0 0 0 0 127 0"/>
<feOffset/>
<feGaussianBlur stdDeviation="2"/>
<feColorMatrix type="matrix" values="0 0 0 0 0 0 0 0 0 0.8 0 0 0 0 0.213333 0 0 0 0.4 0"/>
<feBlend mode="normal" in2="BackgroundImageFix" result="effect1_dropShadow"/>
<feBlend mode="normal" in="SourceGraphic" in2="effect1_dropShadow" result="shape"/>
</filter>
</defs>
</svg>
