<svg width="128" height="128" viewBox="0 0 128 128" fill="none" xmlns="http://www.w3.org/2000/svg">
<mask id="mask0" mask-type="alpha" maskUnits="userSpaceOnUse" x="0" y="0" width="128" height="128">
<rect width="128" height="128" rx="1" fill="#F0F1F5"/>
</mask>
<g mask="url(#mask0)">
<path d="M114.5 56C114.5 76.5533 97.3094 89.9918 71.5 97.5C44 105.5 17.5 97.0533 17.5 76.5C17.5 55.9467 34.0049 20 62 20C89.9951 20 114.5 35.4467 114.5 56Z" fill="#EBFFF0"/>
<g filter="url(#filter0_d)">
<path d="M111.567 64.226C111.565 64.226 111.563 64.226 111.561 64.226C111.377 64.2227 111.231 64.0712 111.235 63.8873C111.352 57.3783 111.398 53.7045 111.308 48.1562C111.163 39.1605 108.433 31.5121 106.518 29.4495C104.709 27.502 100.517 27.5991 86.6293 27.9225L86.3624 27.9287C86.1848 27.9405 86.0264 27.7874 86.0222 27.6038C86.018 27.4201 86.1633 27.2677 86.3471 27.2635L86.6137 27.2573C101.099 26.9202 104.992 26.8297 107.005 28.9965C108.993 31.1374 111.826 38.983 111.974 48.1453C112.063 53.7041 112.018 57.3826 111.9 63.8993C111.896 64.0812 111.748 64.226 111.567 64.226Z" fill="#00B831"/>
</g>
<g filter="url(#filter1_d)">
<path d="M111.366 71.624C111.363 71.624 111.36 71.624 111.357 71.624C111.173 71.6189 111.028 71.4656 111.034 71.2819C111.044 70.9144 111.054 70.5449 111.064 70.1738C111.068 69.9901 111.225 69.8457 111.405 69.8499C111.589 69.8548 111.733 70.0077 111.729 70.1913C111.719 70.5628 111.709 70.9328 111.699 71.3008C111.694 71.4811 111.546 71.624 111.366 71.624Z" fill="#00B831"/>
</g>
<g filter="url(#filter2_d)">
<path d="M21.9681 91.76C20.0676 91.76 16.9836 91.3476 15.6361 88.8649C15.5485 88.7032 15.6084 88.5014 15.7698 88.4138C15.9315 88.3262 16.1334 88.386 16.221 88.5475C17.9762 91.7811 23.4052 91.0087 23.46 91.001C23.4735 90.999 23.4873 90.9976 23.5008 90.9974C23.6751 90.993 41.0233 90.5474 48.1768 89.9631C51.474 89.6941 63.951 89.7289 77.16 89.7661C91.8427 89.8074 108.472 89.8542 109.687 89.4197C109.784 89.2932 110.074 88.6338 110.371 85.2264C110.387 85.0434 110.547 84.9083 110.731 84.9238C110.914 84.9398 111.05 85.101 111.034 85.2843C110.685 89.283 110.337 89.8092 110.038 89.9884C109.21 90.4855 97.0636 90.4872 77.1582 90.4316C63.9637 90.3943 51.5002 90.3595 48.231 90.6263C41.1683 91.203 24.2199 91.6444 23.5376 91.6619C23.4019 91.6815 22.7974 91.76 21.9681 91.76Z" fill="#00B831"/>
</g>
<g filter="url(#filter3_d)">
<path d="M16.6882 66.257C16.6844 66.257 16.6808 66.257 16.6773 66.2567C16.4936 66.251 16.3494 66.097 16.3554 65.9136L16.4005 64.5206C16.7498 53.7456 17.1457 41.5328 16.819 37.5316C16.3579 31.8801 16.7327 31.3393 19.0462 30.8396C19.5329 30.7344 20.0847 30.6153 20.7382 30.388C22.1524 29.8962 32.2993 29.392 43.8565 28.9671C43.766 28.9247 43.6852 28.8699 43.6142 28.8007C40.7968 28.8235 38.0211 28.8479 35.4448 28.8708C29.77 28.9211 24.8691 28.9646 22.3263 28.9646C20.0898 28.9646 18.5196 29.4876 17.5261 30.5634C15.8839 32.3423 16.1219 35.3239 16.3321 37.9545C16.3818 38.5761 16.4289 39.163 16.4482 39.7102C16.4934 40.976 16.3874 45.4175 16.2534 51.0411C16.1465 55.5292 16.0252 60.6159 15.9404 65.6552C15.9371 65.8389 15.7798 65.9797 15.6022 65.9824C15.4185 65.9793 15.2721 65.8278 15.275 65.6441C15.36 60.6026 15.4811 55.5145 15.5882 51.0253C15.7219 45.4131 15.8275 40.98 15.7832 39.7341C15.7641 39.2016 15.718 38.6217 15.6687 38.0078C15.4587 35.378 15.1972 32.1052 17.0371 30.1123C18.1634 28.8923 19.8935 28.2992 22.3261 28.2992C24.8658 28.2992 29.7654 28.2557 35.4386 28.2054C37.9852 28.1827 40.7283 28.1583 43.5124 28.1359C43.5182 28.1169 43.5244 28.0973 43.5313 28.0776C44.0998 26.4289 49.0998 20.8477 54.6699 20.1686C60.2435 19.4889 77.0966 19.4674 78.3245 20.8712C78.7854 21.398 80.8948 22.933 82.756 24.2871C87.2608 27.5648 87.3905 27.7604 87.2621 28.1457C87.1756 28.4057 87.0773 28.7004 80.0047 28.8721C76.104 28.9668 72.0808 28.956 69.2751 28.8462C52.6166 29.2942 23.3287 30.1914 20.9566 31.0166C20.2648 31.257 19.667 31.3863 19.1866 31.4901C17.4028 31.8754 17.0317 31.9557 17.4822 37.4774C17.8121 41.5166 17.4155 53.7494 17.0657 64.5424L17.0204 65.9353C17.0147 66.115 16.8667 66.257 16.6882 66.257ZM46.7213 28.7763C46.5206 28.81 46.325 28.8448 46.1349 28.8788C46.1216 28.8812 46.1083 28.8834 46.095 28.8859C47.3653 28.8408 48.6455 28.7969 49.9285 28.7541C48.868 28.761 47.796 28.7683 46.7213 28.7763ZM60.9322 21.308C66.4353 21.308 73.3489 21.6156 75.5264 22.1342C78.759 22.9039 80.88 27.8846 80.9687 28.0962C80.9802 28.1235 80.9878 28.1517 80.9915 28.1803C83.5022 28.1067 85.5462 27.9942 86.3857 27.8664C85.7097 27.2591 83.8817 25.9292 82.3645 24.8252C80.2917 23.3169 78.3338 21.8925 77.8237 21.3095C76.9165 20.3429 61.3905 20.0193 54.7506 20.8291C49.5456 21.4639 44.879 26.6372 44.2114 28.1304C45.0276 28.124 45.8472 28.1175 46.6648 28.1115C47.357 27.9969 48.1407 27.8924 48.9432 27.8924C49.8653 27.8924 50.5566 26.5961 51.2884 25.2238C52.1763 23.5587 53.1829 21.6713 54.974 21.4987C56.3224 21.3685 58.4888 21.308 60.9322 21.308ZM59.9552 28.0503C63.9541 28.0503 67.1143 28.078 68.6266 28.1517C68.8262 28.1614 69.0327 28.1705 69.2436 28.179C74.6201 28.0352 78.6918 27.9381 80.1478 27.9039C79.5558 26.6804 77.7465 23.3469 75.3722 22.7815C72.2709 22.0426 59.3853 21.7421 55.0376 22.1608C53.6019 22.2993 52.7242 23.9449 51.8755 25.5366C51.3339 26.5522 50.812 27.5313 50.1461 28.0874C53.6522 28.0652 57.0284 28.0503 59.9552 28.0503Z" fill="#00B831"/>
</g>
<g filter="url(#filter4_d)">
<path d="M65.5048 169C65.5041 169 65.5035 169 65.5028 169C65.3189 168.999 65.171 168.849 65.1721 168.665C65.1765 167.926 65.6157 94.6927 65.6157 91.4776C65.6157 90.884 65.4585 90.4429 65.1348 90.1288C64.2032 89.2247 61.8714 89.2943 58.9195 89.3831C57.9116 89.4132 56.8691 89.4445 55.7452 89.4445C54.1446 89.4445 51.6051 89.5106 48.6648 89.5874C40.4931 89.8001 29.3018 90.0915 23.031 89.443C19.6477 89.0927 17.9717 88.5127 17.0532 87.3735C16.9379 87.2304 16.9603 87.021 17.1034 86.9057C17.2467 86.7906 17.4558 86.8127 17.5712 86.9558C18.3544 87.9269 19.9558 88.4557 23.0993 88.7811C29.327 89.4254 40.4938 89.1344 48.6475 88.9224C51.5925 88.8456 54.136 88.7793 55.7452 88.7793C56.8591 88.7793 57.8963 88.7482 58.8995 88.7183C62.1304 88.6214 64.4647 88.5517 65.5984 89.6517C66.058 90.0975 66.2814 90.6951 66.2814 91.4778C66.2814 94.695 65.8422 167.93 65.8377 168.669C65.8366 168.853 65.6878 169 65.5048 169Z" fill="#00B831"/>
</g>
<g filter="url(#filter5_d)">
<path d="M70.4589 20.4617C70.4503 20.4617 70.4419 20.4614 70.433 20.4608C67.8289 20.2605 65.9389 18.1646 64.8152 14.2317C63.928 11.1262 60.299 -55.7498 60.145 -58.5951C60.135 -58.7786 60.2757 -58.9354 60.4593 -58.9454C60.6417 -58.9591 60.7996 -58.8147 60.8096 -58.6311C60.8473 -57.935 64.5883 11.0148 65.4554 14.0489C66.5092 17.7379 68.1543 19.6181 70.4844 19.7976C70.6677 19.8115 70.8047 19.9717 70.7905 20.1549C70.777 20.329 70.6311 20.4617 70.4589 20.4617Z" fill="#00B831"/>
</g>
<g filter="url(#filter6_d)">
<path d="M45.8076 75.9003C44.8094 75.9003 42.177 75.8418 35.7762 75.4467C32.4597 75.242 30.5664 74.6669 29.6374 73.5818C28.6837 72.4678 28.8214 70.9893 28.996 69.1176C29.0876 68.1357 29.1912 67.0226 29.1428 65.8118C29.0751 64.1212 29.2903 62.8979 29.6814 62.0047C29.7648 61.6624 29.9198 61.3809 30.1818 61.1434C31.1763 59.834 32.6988 59.6 33.949 59.4077L34.1921 59.37C34.464 59.327 34.8786 59.2817 35.4036 59.2241C38.3703 58.8989 45.3176 58.1374 47.3378 55.2996C47.6659 54.8389 47.8504 54.3338 47.8861 53.7986C47.9833 52.3402 48.0221 51.1498 47.9897 50.1592C47.8038 49.0747 47.4252 48.1558 46.7904 47.6481C44.8345 46.0832 42.2941 45.3809 39.0255 45.5027C36.0593 45.6125 33.274 45.6138 33.246 45.6138C33.0622 45.6138 32.9133 45.465 32.9133 45.2811C32.9133 45.0972 33.0622 44.9484 33.246 44.9484C33.2738 44.9484 36.0473 44.9471 39.0007 44.8377C42.4365 44.7106 45.1202 45.4597 47.2061 47.1286C47.3496 47.2435 47.4822 47.3737 47.604 47.5174C47.3347 46.6896 46.9188 46.0763 46.3275 45.5244C45.1843 44.4573 36.6304 44.5951 31.1602 44.9477C30.9752 44.9599 30.8183 44.8206 30.8066 44.6372C30.7948 44.4538 30.9339 44.2956 31.1171 44.2836C32.5394 44.1918 45.0625 43.4335 46.7813 45.0378C48.0061 46.181 48.56 47.5114 48.6516 50.0695C49.0839 52.5793 48.5414 55.7723 47.736 57.303C46.5755 59.508 37.9165 60.2821 36.933 60.363L36.3414 60.4362C33.207 60.8218 31.4802 61.0342 30.7651 61.5289C30.7367 61.5486 30.7097 61.5688 30.6839 61.5897C30.5488 61.7724 30.4257 61.9794 30.3173 62.2143C30.2195 62.6641 30.2705 63.3306 30.3707 64.406C30.4557 65.3176 30.5617 66.4522 30.5839 67.9006C30.6695 73.4638 31.6182 73.5072 34.1537 73.6239C34.7479 73.6514 35.4216 73.6823 36.175 73.7869C39.5157 74.251 40.8534 74.2456 44.4286 74.2326C45.0902 74.2301 45.8268 74.2275 46.6651 74.2275C48.989 74.2275 49.246 74.3923 49.2791 74.768C49.3024 75.0348 49.3314 75.3669 46.3902 75.8859C46.3789 75.8879 46.3674 75.8895 46.3561 75.8901C46.3383 75.8913 46.1979 75.9003 45.8076 75.9003ZM29.7985 65.4811C29.8005 65.5804 29.8033 65.6818 29.8078 65.785C29.8579 67.0402 29.7521 68.1765 29.6585 69.1793C29.4986 70.8943 29.3724 72.2489 30.1429 73.1488C30.9344 74.0731 32.7374 74.5921 35.8173 74.7824C44.1846 75.2988 46.1108 75.2354 46.2946 75.2269C46.7937 75.1384 47.3385 75.0238 47.7843 74.9131C47.5019 74.9007 47.1371 74.8924 46.6655 74.8924C45.8282 74.8924 45.0924 74.8951 44.4314 74.8975C40.9235 74.9109 39.4716 74.916 36.0837 74.4455C35.3606 74.345 34.7033 74.3148 34.1233 74.2882C31.2737 74.1571 30.0103 73.8488 29.9187 67.9103C29.9045 66.979 29.8548 66.1767 29.7985 65.4811ZM47.4997 56.1489C45.4804 58.3062 41.0032 59.1835 37.6856 59.624C40.6693 59.315 46.3854 58.4404 47.1475 56.9927C47.2733 56.7538 47.3915 56.4687 47.4997 56.1489Z" fill="#00B831"/>
</g>
<g filter="url(#filter7_d)">
<path d="M96.6018 75.9003C95.6036 75.9003 92.9712 75.8418 86.5705 75.4467C83.2537 75.242 81.3606 74.6669 80.4314 73.5818C79.4777 72.4678 79.6154 70.9893 79.79 69.1176C79.8816 68.1357 79.9854 67.0226 79.9368 65.8118C79.8692 64.1212 80.0841 62.8981 80.4751 62.0051C80.5585 61.6624 80.7136 61.3809 80.976 61.1431C81.9706 59.8338 83.4929 59.5998 84.743 59.4077L84.9861 59.37C85.258 59.327 85.6726 59.2815 86.1976 59.2241C89.1643 58.8989 96.1114 58.1374 98.1316 55.2996C98.4596 54.8382 98.6442 54.3334 98.6799 53.7986C98.7771 52.3402 98.8159 51.1498 98.7835 50.1592C98.5976 49.0747 98.219 48.1558 97.5842 47.6481C95.6283 46.0832 93.0872 45.3809 89.8193 45.5027C86.853 45.6125 84.0678 45.6138 84.0398 45.6138C83.856 45.6138 83.7071 45.465 83.7071 45.2811C83.7071 45.0972 83.856 44.9484 84.0398 44.9484C84.0676 44.9484 86.8411 44.9471 89.7945 44.8377C93.2296 44.7106 95.9139 45.4597 97.9998 47.1286C98.1434 47.2435 98.276 47.3737 98.3978 47.5174C98.1285 46.6896 97.7126 46.0763 97.1213 45.5244C95.9778 44.4573 87.4244 44.5951 81.9539 44.9477C81.7692 44.9599 81.6124 44.8206 81.6004 44.6372C81.5886 44.4538 81.7277 44.2956 81.9109 44.2836C83.3332 44.1918 95.8563 43.4335 97.5751 45.0378C98.7999 46.181 99.3538 47.5114 99.4454 50.0695C99.8777 52.5793 99.3351 55.7723 98.5298 57.303C97.3692 59.508 88.7103 60.2821 87.7268 60.363L87.1352 60.4362C84.0008 60.8218 82.274 61.0342 81.5587 61.5289C81.5303 61.5484 81.5032 61.5686 81.4777 61.5894C81.3424 61.7724 81.2193 61.9794 81.1106 62.2145C81.013 62.6643 81.064 63.3306 81.1643 64.4057C81.2493 65.3174 81.3553 66.4522 81.3775 67.9006C81.4631 73.4638 82.4118 73.5072 84.9473 73.6239C85.5415 73.6514 86.2151 73.6823 86.9686 73.7869C90.3093 74.251 91.647 74.2456 95.2221 74.2326C95.8838 74.2301 96.6204 74.2275 97.4586 74.2275C99.7825 74.2275 100.04 74.3923 100.073 74.768C100.096 75.0348 100.125 75.3669 97.1838 75.8859C97.1725 75.8879 97.161 75.8895 97.1497 75.8901C97.1326 75.8913 96.9922 75.9003 96.6018 75.9003ZM80.5927 65.4813C80.5947 65.5807 80.5976 65.6818 80.602 65.785C80.6521 67.0402 80.5463 68.1767 80.4527 69.1793C80.2928 70.8941 80.1664 72.2487 80.9372 73.1488C81.7286 74.0731 83.5317 74.5921 86.6117 74.7824C94.979 75.2988 96.9054 75.2354 97.0891 75.2269C97.5882 75.1384 98.1329 75.0238 98.5788 74.9131C98.2964 74.9007 97.9315 74.8924 97.46 74.8924C96.6226 74.8924 95.8869 74.8951 95.2259 74.8975C91.7182 74.9109 90.266 74.916 86.8781 74.4455C86.155 74.345 85.4978 74.3148 84.9178 74.2882C82.0682 74.1571 80.8048 73.8488 80.7131 67.9103C80.6987 66.979 80.649 66.1767 80.5927 65.4813ZM98.294 56.1487C96.2746 58.3062 91.7967 59.1835 88.4789 59.624C91.4625 59.315 97.1796 58.4404 97.9417 56.9927C98.0675 56.7538 98.1857 56.4687 98.294 56.1487Z" fill="#00B831"/>
</g>
<g filter="url(#filter8_d)">
<path d="M64.9092 57.1477C63.3499 57.1477 62.0812 55.7297 62.0812 53.987C62.0812 52.2442 63.3499 50.8262 64.9092 50.8262C66.4686 50.8262 67.7373 52.2442 67.7373 53.987C67.7373 55.7297 66.4686 57.1477 64.9092 57.1477ZM64.9092 51.4916C63.7168 51.4916 62.7466 52.6111 62.7466 53.987C62.7466 55.3628 63.7168 56.4823 64.9092 56.4823C66.1017 56.4823 67.0719 55.3628 67.0719 53.987C67.0719 52.6111 66.1017 51.4916 64.9092 51.4916Z" fill="#00B831"/>
</g>
<g filter="url(#filter9_d)">
<path d="M64.0775 56.6487C62.5181 56.6487 61.2494 55.2307 61.2494 53.4879C61.2494 51.7452 62.5181 50.3271 64.0775 50.3271C65.6368 50.3271 66.9055 51.7452 66.9055 53.4879C66.9055 55.2307 65.6368 56.6487 64.0775 56.6487ZM64.0775 50.9926C62.885 50.9926 61.9148 52.112 61.9148 53.4879C61.9148 54.8638 62.885 55.9833 64.0775 55.9833C65.2699 55.9833 66.2401 54.8638 66.2401 53.4879C66.2401 52.112 65.2699 50.9926 64.0775 50.9926Z" fill="#00B831"/>
</g>
<g filter="url(#filter10_d)">
<path d="M64.9092 71.9534C63.3499 71.9534 62.0812 70.5354 62.0812 68.7926C62.0812 67.0499 63.3499 65.6318 64.9092 65.6318C66.4686 65.6318 67.7373 67.0499 67.7373 68.7926C67.7373 70.5354 66.4686 71.9534 64.9092 71.9534ZM64.9092 66.2973C63.7168 66.2973 62.7466 67.4167 62.7466 68.7926C62.7466 70.1685 63.7168 71.288 64.9092 71.288C66.1017 71.288 67.0719 70.1685 67.0719 68.7926C67.0719 67.4167 66.1017 66.2973 64.9092 66.2973Z" fill="#00B831"/>
</g>
<g filter="url(#filter11_d)">
<path d="M64.0775 71.4546C62.5181 71.4546 61.2494 70.0366 61.2494 68.2938C61.2494 66.5511 62.5181 65.1331 64.0775 65.1331C65.6368 65.1331 66.9055 66.5511 66.9055 68.2938C66.9055 70.0366 65.6368 71.4546 64.0775 71.4546ZM64.0775 65.7985C62.885 65.7985 61.9148 66.918 61.9148 68.2938C61.9148 69.6697 62.885 70.7892 64.0775 70.7892C65.2699 70.7892 66.2401 69.6697 66.2401 68.2938C66.2401 66.918 65.2699 65.7985 64.0775 65.7985Z" fill="#00B831"/>
</g>
<g filter="url(#filter12_d)">
<path d="M12.8056 112.27C12.7264 112.27 12.647 112.242 12.5836 112.185C12.2156 111.854 12.0204 111.335 11.8319 110.833C11.7609 110.644 11.6935 110.465 11.6214 110.31C11.2219 109.45 10.7368 108.697 10.2229 107.9C10.0663 107.658 9.90922 107.414 9.75417 107.167C9.01755 105.991 8.4435 104.882 7.94754 103.678C7.63589 102.921 7.15191 102.265 6.63953 101.571C6.31835 101.136 5.98608 100.685 5.69551 100.203C5.17426 99.3386 4.85973 98.3616 4.55563 97.4167C4.43363 97.0372 4.3072 96.6448 4.17013 96.269C3.63335 94.7962 2.95505 93.4842 2.24903 92.1582C2.01924 91.7268 1.73422 91.3482 1.43233 90.9476C0.905314 90.248 0.360328 89.5245 0.152271 88.5201C-0.0285035 87.6475 -0.207947 86.0647 0.623616 85.2693C0.795518 85.1051 1.07012 85.0233 1.33562 84.9441C1.43899 84.9133 1.58649 84.8694 1.66057 84.8345C1.66856 84.7054 1.57163 84.4042 1.51107 84.2161C1.38997 83.8393 1.26464 83.4498 1.3323 83.1004C1.5113 82.1773 2.05451 81.9064 2.53384 81.6675C2.74589 81.5617 2.9464 81.4619 3.12762 81.3062C3.55483 80.9387 3.58277 80.4594 3.61804 79.8525C3.64111 79.4561 3.66706 79.0067 3.82077 78.5511C4.27615 77.1999 5.19644 76.4065 6.17085 75.5662L6.31546 75.4414C6.61291 75.1838 6.8467 74.8338 7.09424 74.4634C7.25926 74.2165 7.42983 73.961 7.62369 73.731C7.96528 73.3253 7.9573 73.2049 7.93134 72.8065C7.91981 72.631 7.90561 72.4128 7.9187 72.1266C7.99278 70.5298 9.10693 69.5681 10.8326 69.6147C12.555 69.6621 14.089 70.7596 15.4425 71.7276C15.661 71.884 15.8763 72.0379 16.0884 72.1848C17.3565 73.0627 18.7936 74.0577 19.6171 75.5334C20.4902 77.0976 20.8764 79.1176 21.139 80.8874C21.1523 80.9764 21.1669 81.062 21.1813 81.1441C21.2761 81.6902 21.3741 82.2551 20.7561 82.7726C20.2282 83.2149 19.3976 83.3688 18.8481 83.4706C18.7683 83.4853 18.6931 83.5001 18.6223 83.5141C18.2297 83.5915 17.8866 83.6592 17.5574 83.5263C17.779 84.1656 17.9407 84.8627 18.0279 85.5827C18.1315 86.4364 17.435 87.5076 16.807 88.1657C16.4743 88.5141 15.8333 89.0911 15.2779 89.0514C15.1259 89.04 14.9955 89.027 14.8831 89.005C14.8383 89.2732 14.7784 89.5396 14.7152 89.8204L14.6526 90.1005C14.6329 90.1903 14.6131 90.2893 14.5921 90.3944C14.4434 91.1377 14.2398 92.1556 13.5964 92.609C13.1039 92.9559 12.6202 93.0836 12.1592 92.9887C11.2742 92.8066 10.7026 91.8776 10.1985 91.0578C9.97243 90.6903 9.75883 90.3432 9.5643 90.1511C9.46005 90.0482 9.32719 89.9526 9.18191 89.8716C9.17436 89.9122 9.15928 89.9519 9.13577 89.9889C9.05192 90.1216 8.95411 90.3092 8.85074 90.508C8.40868 91.3579 7.74059 92.6416 6.6342 92.3849C6.49513 92.3525 6.39199 92.235 6.37846 92.0926C6.36493 91.9502 6.44345 91.8153 6.57409 91.757C6.99154 91.5709 7.60462 91.2002 7.9014 90.5497C7.89674 90.551 7.89208 90.5523 7.8872 90.5537C7.68026 90.6069 7.47176 90.6488 7.26215 90.6814C6.50178 91.0108 5.34416 90.891 4.4465 90.7988C4.15282 90.7684 3.89907 90.7422 3.72495 90.7398C3.72451 90.7398 3.72385 90.7398 3.72318 90.7398C3.53952 90.7373 3.39246 90.5863 3.39512 90.4026C3.39756 90.2187 3.54218 90.0672 3.73227 90.0743C4.01597 90.0783 4.30121 90.0874 4.58713 90.0967C5.4147 90.1238 6.26445 90.1513 7.07494 90.0364C7.15279 89.9938 7.21756 89.9428 7.26636 89.882C7.36995 89.7534 7.38902 89.6562 7.41098 89.5438C7.49926 89.0928 7.73549 88.9471 8.36653 88.9529C8.92327 88.9613 9.60822 89.2594 10.0321 89.6777C10.2839 89.9264 10.5179 90.3068 10.7656 90.7094C11.1993 91.4141 11.6906 92.213 12.2939 92.337C12.5714 92.394 12.8728 92.3053 13.2137 92.0651C13.6398 91.7647 13.8206 90.8618 13.9402 90.264C13.9621 90.1546 13.9825 90.0515 14.0031 89.9581L14.0664 89.6744C14.1635 89.2434 14.2483 88.8666 14.2811 88.4744C14.2516 88.3901 14.2256 88.2928 14.2017 88.1801C14.1544 87.9576 14.1511 87.7189 14.1482 87.488C14.1464 87.3448 14.1444 87.1981 14.1311 87.0653C13.725 85.9389 12.5918 85.5046 11.3068 85.0122C10.904 84.8578 10.4875 84.6981 10.0953 84.5131C9.29769 84.137 8.51359 84.1356 7.60529 84.1341C7.45423 84.1338 7.30141 84.1336 7.14681 84.1314C6.54437 84.1194 5.97809 84.2521 5.38142 84.3887C4.83023 84.5149 4.25996 84.6453 3.65043 84.6604C3.47409 84.6651 3.33235 84.5378 3.31194 84.3676C3.29154 84.1975 3.40377 84.0396 3.57124 84.0028C3.87689 83.936 4.19164 83.79 4.52502 83.6354C4.9662 83.4309 5.42224 83.2195 5.92907 83.1554C6.6626 83.063 7.43449 83.1905 8.09903 83.3258C8.06554 83.0162 7.91826 82.6861 7.76476 82.3421C7.6095 81.9941 7.44913 81.6343 7.39368 81.2603C7.37061 81.1055 7.45889 80.9553 7.60551 80.9001C7.75168 80.8449 7.91715 80.8994 8.00232 81.031C8.14428 81.2505 8.2492 81.493 8.35078 81.7277C8.51404 82.1047 8.66842 82.4607 8.95477 82.6961C9.31388 82.9913 9.8409 83.2517 10.3058 83.4817L10.434 83.5454C10.8109 83.7328 11.1496 83.8703 11.477 84.0036C12.155 84.2794 12.7952 84.5398 13.5325 85.1579C14.1917 85.7102 14.5923 86.2053 14.7227 86.6292C14.7506 86.7201 14.7697 86.814 14.7828 86.9089C14.848 87.107 14.8964 87.3219 14.9254 87.5561C14.9603 87.8376 14.968 88.0969 14.9567 88.3447C15.0157 88.3646 15.1945 88.3782 15.328 88.3881C15.4589 88.3959 15.836 88.2205 16.3264 87.7067C16.9894 87.012 17.4274 86.1528 17.368 85.6634C17.1699 84.0283 16.5706 82.5342 15.7645 81.6664C15.3105 81.1778 14.7901 80.7339 14.2868 80.3047C13.7836 79.8755 13.2632 79.4315 12.7943 78.9331C12.5341 78.656 12.2983 78.3706 12.0705 78.0946C11.5861 77.508 11.1252 76.9494 10.4901 76.5486C10.3788 76.4867 10.2677 76.4246 10.1574 76.3614C10.001 76.2718 9.94449 76.0744 10.0294 75.9156C10.1144 75.7568 10.3105 75.6947 10.4715 75.7752C10.5959 75.8373 10.7144 75.9043 10.8277 75.975C10.8949 76.0123 10.9621 76.0493 11.0296 76.0866C11.9071 76.571 12.8145 77.0719 13.4835 77.8644C13.6622 78.076 13.8332 78.2845 14.0014 78.4899C14.6244 79.2496 15.2129 79.9672 16.0183 80.6233C16.565 81.0684 16.8306 81.5207 17.1116 81.9996C17.2165 82.1784 17.325 82.3631 17.4527 82.5554C17.7535 83.0079 17.8666 82.9853 18.4943 82.862C18.5678 82.8476 18.6454 82.8323 18.7279 82.817C19.2088 82.7278 19.9359 82.5932 20.3296 82.2631C20.6379 82.0047 20.6208 81.8033 20.5263 81.2583C20.5113 81.1711 20.4955 81.0804 20.4815 80.9857C20.2276 79.2753 19.8576 77.3287 19.0367 75.8581C18.2883 74.5173 16.9188 73.5691 15.7102 72.7324C15.4955 72.5838 15.2774 72.4276 15.0559 72.2693C13.7177 71.3119 12.3338 70.322 10.8146 70.2803C9.45162 70.2417 8.64114 70.9273 8.58391 72.1577C8.57237 72.4066 8.58479 72.5962 8.59566 72.7632C8.62849 73.2654 8.62339 73.5777 8.13297 74.1602C7.96284 74.362 7.80979 74.5909 7.64787 74.8334C7.38658 75.2242 7.11664 75.6283 6.7511 75.9449L6.60559 76.0704C5.6629 76.8831 4.84886 77.5851 4.4516 78.7638C4.32672 79.1349 4.30432 79.5195 4.28258 79.8913C4.24354 80.564 4.20317 81.2594 3.5617 81.8111C3.31749 82.0209 3.05886 82.1498 2.83084 82.2636C2.3921 82.4823 2.1022 82.6269 1.98575 83.2275C1.95048 83.4092 2.05362 83.7297 2.14456 84.0127C2.28009 84.4337 2.40807 84.8314 2.25569 85.1557C2.14212 85.3984 1.85643 85.4836 1.52594 85.582C1.39108 85.6224 1.13999 85.6972 1.08343 85.7508C0.444173 86.3624 0.707682 87.9221 0.803726 88.3855C0.981617 89.2437 1.45873 89.8769 1.96379 90.5475C2.26789 90.9509 2.58219 91.3682 2.83639 91.8457C3.55394 93.1934 4.24377 94.5283 4.79518 96.0412C4.9367 96.4292 5.0649 96.8275 5.18889 97.213C5.49477 98.1635 5.78379 99.0614 6.26511 99.8599C6.53971 100.315 6.86244 100.753 7.17475 101.176C7.68846 101.872 8.2197 102.592 8.56261 103.424C9.04372 104.593 9.60135 105.67 10.3176 106.813C10.4713 107.058 10.6268 107.3 10.7816 107.54C11.2851 108.321 11.8057 109.128 12.2245 110.03C12.3074 110.208 12.3819 110.407 12.4543 110.6C12.6148 111.027 12.7808 111.469 13.0276 111.69C13.1645 111.813 13.1756 112.023 13.0529 112.16C12.9877 112.233 12.8968 112.27 12.8056 112.27ZM8.76978 83.5021C8.83766 83.5079 8.90531 83.5148 8.97296 83.5225C8.90331 83.4791 8.83522 83.4347 8.76934 83.3888C8.77067 83.4265 8.77089 83.4642 8.76978 83.5021Z" fill="#00B831"/>
</g>
<g filter="url(#filter13_d)">
<path d="M8.13159 72.6097C7.99384 72.6097 7.86519 72.5236 7.81728 72.3861C7.69529 72.0356 7.49788 71.6756 7.28849 71.2946C6.87925 70.5491 6.41545 69.704 6.43674 68.7167C6.4689 67.2124 7.92043 66.7284 8.61779 66.4957C11.1131 65.6644 13.7478 64.8962 16.12 65.4155C16.943 65.5956 17.8606 66.1073 18.5979 66.5186C18.7219 66.5878 18.8421 66.6548 18.9572 66.7177C19.1764 66.8375 19.4108 66.9449 19.659 67.0584C20.2792 67.3421 20.9204 67.6358 21.3876 68.1622C21.9439 68.7888 22.1271 69.3928 21.9323 69.9577C21.5176 71.1601 19.5279 71.645 18.6917 71.7978C18.4424 71.8433 18.1982 71.8928 17.9562 71.9418C17.1042 72.1141 16.3002 72.2767 15.3779 72.2643C15.1942 72.2616 15.0474 72.1108 15.0498 71.9269C15.0525 71.7431 15.2013 71.6011 15.3872 71.5989C16.2385 71.6115 17.0084 71.4549 17.8242 71.2897C18.0702 71.2398 18.3186 71.1896 18.5721 71.1433C19.6785 70.9412 21.0577 70.4528 21.3033 69.7408C21.414 69.4198 21.2749 69.0374 20.8901 68.6038C20.5159 68.1826 19.9651 67.9304 19.3822 67.6635C19.1342 67.55 18.878 67.4326 18.638 67.3015C18.5214 67.2377 18.3996 67.1698 18.274 67.0997C17.5385 66.6894 16.705 66.2244 15.9781 66.0654C13.7706 65.5823 11.2358 66.3247 8.82851 67.1268C7.80575 67.4679 7.12058 67.8712 7.10217 68.7307C7.08487 69.5396 7.48501 70.2689 7.87207 70.974C8.09499 71.3804 8.30571 71.7641 8.44567 72.1672C8.506 72.3406 8.41439 72.5303 8.24072 72.5906C8.20478 72.6037 8.16796 72.6097 8.13159 72.6097Z" fill="#00B831"/>
</g>
<g filter="url(#filter14_d)">
<path d="M27.4984 111.176C27.3647 111.176 27.2389 111.095 27.1879 110.963C27.0473 110.598 26.7126 110.429 26.3251 110.234C26.1711 110.156 26.0121 110.076 25.8584 109.979C24.9507 109.41 24.3953 108.591 23.9304 107.791C22.9219 106.056 21.8709 104.199 21.0791 102.259C20.8109 101.601 20.6237 100.925 20.4427 100.271C20.312 99.7993 20.1772 99.3113 20.0139 98.8408C19.9465 98.6467 19.8616 98.456 19.7717 98.2539C19.4922 97.6255 19.1755 96.9133 19.4709 96.0928C19.6375 95.6297 19.9711 95.2892 20.2934 94.9603C20.4813 94.7686 20.6587 94.5876 20.7927 94.3929C21.0653 93.9972 21.3605 93.6063 21.6462 93.2284C22.077 92.6583 22.5226 92.0688 22.8899 91.4608C22.9848 91.3035 23.1896 91.2529 23.3468 91.3481C23.5041 91.443 23.5547 91.6478 23.4595 91.805C23.0745 92.4425 22.6182 93.0461 22.1772 93.6296C21.8958 94.0021 21.605 94.3869 21.3408 94.7704C21.1742 95.0124 20.9679 95.2229 20.7688 95.4263C20.4837 95.7171 20.2145 95.9919 20.0969 96.3184C19.8919 96.8873 20.118 97.3953 20.3797 97.9835C20.4713 98.1894 20.5658 98.4023 20.6425 98.6228C20.8129 99.1134 20.9506 99.6118 21.0839 100.094C21.2678 100.759 21.4415 101.386 21.695 102.007C22.4711 103.908 23.509 105.742 24.5058 107.457C24.9279 108.183 25.4267 108.923 26.2124 109.416C26.3397 109.496 26.4783 109.566 26.6247 109.64C27.0706 109.865 27.5761 110.119 27.8088 110.723C27.8749 110.895 27.7895 111.087 27.618 111.153C27.5787 111.169 27.5382 111.176 27.4984 111.176Z" fill="#00B831"/>
</g>
<g filter="url(#filter15_d)">
<path d="M12.4802 103.728C12.4321 103.728 12.3846 103.726 12.338 103.722C12.155 103.706 12.0197 103.544 12.0359 103.361C12.0521 103.178 12.2123 103.043 12.3966 103.059C13.1869 103.129 14.726 102.148 15.2089 101.405C15.4249 101.073 15.4919 100.571 15.5569 100.086C15.5962 99.7946 15.6366 99.4925 15.7109 99.2247C15.9801 98.2541 15.9988 97.1918 15.7681 96.0526C15.7168 95.9156 15.6539 95.7814 15.5886 95.6423C15.4061 95.2528 15.1991 94.8114 15.2617 94.2511C15.2788 94.0985 15.3979 93.9776 15.55 93.9581C15.7024 93.9384 15.8482 94.0257 15.9029 94.169C16.1259 94.7506 16.2951 95.3184 16.41 95.8712C16.4377 95.9491 16.463 96.0298 16.4843 96.1139C16.4983 96.1691 16.4978 96.2243 16.485 96.2758C16.6651 97.3859 16.6209 98.4322 16.3517 99.4026C16.2896 99.6264 16.2538 99.8928 16.2161 100.175C16.1414 100.733 16.064 101.31 15.7665 101.768C15.2431 102.574 13.6385 103.728 12.4802 103.728Z" fill="#00B831"/>
</g>
<g filter="url(#filter16_d)">
<path d="M16.4226 99.1202C16.288 99.1202 16.1611 99.0377 16.111 98.9042C16.0464 98.7323 16.1338 98.5404 16.3057 98.4758C17.1981 98.1414 18.2763 97.3484 18.88 96.7377C19.0178 96.5987 19.1167 96.3862 19.2219 96.161C19.3711 95.8408 19.5257 95.5096 19.8309 95.3062C19.984 95.2042 20.1905 95.2456 20.2923 95.3985C20.3941 95.5513 20.3529 95.758 20.2 95.8598C20.0501 95.9599 19.9407 96.1941 19.825 96.4423C19.7065 96.6965 19.5721 96.9844 19.3534 97.2055C18.6986 97.8676 17.5217 98.7307 16.5393 99.0991C16.5009 99.1135 16.4617 99.1202 16.4226 99.1202Z" fill="#00B831"/>
</g>
<g filter="url(#filter17_d)">
<path d="M115.193 110.588C115.102 110.588 115.011 110.551 114.945 110.477C114.823 110.341 114.834 110.131 114.971 110.008C115.217 109.786 115.383 109.345 115.544 108.918C115.616 108.725 115.691 108.526 115.774 108.348C116.192 107.446 116.713 106.639 117.216 105.858C117.371 105.618 117.527 105.376 117.681 105.131C118.397 103.987 118.955 102.91 119.436 101.742C119.778 100.91 120.31 100.19 120.824 99.4941C121.136 99.0709 121.459 98.6335 121.733 98.1777C122.215 97.3789 122.504 96.4808 122.81 95.5297C122.934 95.1446 123.062 94.7465 123.203 94.359C123.754 92.8471 124.444 91.5118 125.162 90.1635C125.416 89.6861 125.731 89.2687 126.035 88.8652C126.54 88.1947 127.017 87.5614 127.195 86.703C127.291 86.2397 127.555 84.6801 126.915 84.0681C126.859 84.0147 126.607 83.9399 126.473 83.8996C126.142 83.8011 125.856 83.7159 125.743 83.473C125.591 83.149 125.718 82.7515 125.854 82.3305C125.945 82.0475 126.048 81.7267 126.013 81.5451C125.896 80.9444 125.606 80.7998 125.167 80.5811C124.939 80.4675 124.681 80.3386 124.437 80.1288C123.795 79.5772 123.755 78.8816 123.716 78.2091C123.694 77.8371 123.672 77.4525 123.547 77.0814C123.15 75.9029 122.336 75.2009 121.393 74.3884L121.248 74.2626C120.882 73.9459 120.612 73.5417 120.351 73.1509C120.189 72.9085 120.036 72.6796 119.866 72.4777C119.375 71.8953 119.37 71.5827 119.403 71.0808C119.414 70.9137 119.426 70.7241 119.415 70.4752C119.358 69.2444 118.541 68.5601 117.184 68.5978C115.665 68.6395 114.281 69.6295 112.943 70.5868C112.722 70.7452 112.504 70.9013 112.289 71.0499C111.08 71.8866 109.71 72.8351 108.962 74.1757C108.141 75.6463 107.771 77.5929 107.517 79.303C107.503 79.398 107.487 79.4889 107.472 79.5763C107.378 80.1208 107.361 80.3222 107.669 80.5804C108.063 80.9105 108.79 81.0453 109.271 81.1343C109.353 81.1496 109.431 81.1649 109.504 81.1793C110.133 81.3033 110.246 81.3253 110.546 80.8728C110.674 80.6807 110.782 80.4961 110.887 80.3176C111.168 79.8385 111.434 79.386 111.981 78.9408C112.786 78.2849 113.374 77.5676 113.997 76.8079C114.166 76.6025 114.337 76.3938 114.515 76.1819C115.185 75.3892 116.092 74.8883 116.969 74.4039C117.037 74.3669 117.104 74.3298 117.171 74.2926C117.284 74.2218 117.403 74.1548 117.527 74.0927C117.689 74.0124 117.884 74.0743 117.969 74.2331C118.054 74.3919 117.998 74.5894 117.841 74.679C117.731 74.7422 117.62 74.8043 117.509 74.8662C116.874 75.2672 116.412 75.8257 115.928 76.4126C115.7 76.6886 115.465 76.974 115.205 77.2506C114.736 77.7492 114.215 78.1931 113.712 78.6223C113.209 79.0515 112.688 79.4953 112.234 79.984C111.218 81.0777 110.775 81.7815 110.83 83.0618C110.833 83.1292 110.835 83.2104 110.837 83.3025C110.876 84.9525 111.129 86.6471 112.708 86.705C112.935 86.7132 113 86.6999 113.02 86.6913C113.025 86.6822 113.032 86.6578 113.041 86.6254C113.032 86.3887 113.04 86.1412 113.073 85.8737C113.076 85.8522 113.079 85.8309 113.082 85.8096C113.051 85.5572 113.021 85.2743 113.106 84.9993C113.278 84.4388 113.83 83.9284 114.23 83.5933C114.976 82.9684 115.711 82.663 116.49 82.3396C116.838 82.195 117.198 82.0455 117.565 81.8629L117.693 81.7993C118.158 81.5695 118.686 81.3088 119.044 81.0136C119.331 80.7781 119.485 80.4218 119.648 80.0447C119.75 79.8103 119.855 79.5681 119.997 79.3487C120.081 79.2172 120.247 79.1628 120.394 79.2178C120.54 79.2731 120.628 79.423 120.606 79.5778C120.55 79.952 120.39 80.312 120.234 80.6598C120.081 81.0036 119.934 81.3337 119.9 81.6436C120.565 81.5085 121.336 81.38 122.07 81.473C122.577 81.5371 123.033 81.7485 123.475 81.9532C123.808 82.1076 124.123 82.2535 124.428 82.3203C124.595 82.3569 124.708 82.5148 124.687 82.6852C124.667 82.8555 124.522 82.9888 124.349 82.978C123.739 82.9629 123.169 82.8325 122.618 82.7062C122.021 82.5698 121.457 82.4374 120.853 82.4489C120.698 82.4509 120.545 82.4512 120.394 82.4516C119.486 82.4532 118.702 82.4545 117.904 82.8307C117.512 83.0157 117.095 83.1754 116.693 83.3297C115.253 83.8816 114.004 84.3603 113.754 85.8207C113.78 86.0403 113.802 86.2665 113.753 86.497C113.739 86.5617 113.725 86.6223 113.71 86.6788C113.735 87.1118 113.827 87.5191 113.933 87.9908L113.996 88.2759C114.017 88.3695 114.037 88.4731 114.059 88.5829C114.179 89.1802 114.36 90.0827 114.786 90.3828C115.127 90.6231 115.428 90.7118 115.705 90.6548C116.308 90.5308 116.8 89.7318 117.234 89.0271C117.481 88.6246 117.715 88.2439 117.967 87.9955C118.391 87.5772 119.076 87.2791 119.632 87.2704C120.26 87.2649 120.5 87.4104 120.588 87.8613C120.61 87.9738 120.629 88.0711 120.733 88.1998C120.781 88.2603 120.846 88.3114 120.924 88.3539C121.735 88.4688 122.584 88.4416 123.412 88.4143C123.698 88.405 123.983 88.3959 124.267 88.3919C124.454 88.3901 124.602 88.5365 124.604 88.7202C124.607 88.9038 124.46 89.0549 124.276 89.0573C124.275 89.0573 124.275 89.0573 124.274 89.0573C124.1 89.0597 123.846 89.0859 123.553 89.1163C122.655 89.2088 121.497 89.3284 120.736 88.999C120.527 88.9666 120.319 88.9247 120.112 88.8714C120.107 88.8701 120.102 88.8688 120.098 88.8672C120.394 89.518 121.008 89.8884 121.425 90.0747C121.556 90.1331 121.635 90.2682 121.621 90.4103C121.607 90.5525 121.504 90.6703 121.365 90.7027C120.258 90.9598 119.591 89.6757 119.148 88.826C119.045 88.6272 118.948 88.4393 118.863 88.3069C118.84 88.2699 118.825 88.23 118.817 88.1896C118.672 88.2705 118.539 88.3661 118.435 88.4691C118.24 88.6609 118.027 89.0083 117.801 89.3756C117.297 90.1952 116.725 91.1243 115.84 91.3064C115.379 91.4018 114.895 91.2736 114.403 90.9269C113.76 90.474 113.556 89.4566 113.407 88.7135C113.386 88.6079 113.366 88.5085 113.347 88.4185L113.284 88.137C113.223 87.8655 113.165 87.6073 113.121 87.348C113.002 87.37 112.859 87.3762 112.685 87.37C110.268 87.2815 110.199 84.4024 110.173 83.3184C110.171 83.231 110.169 83.1543 110.166 83.0904C110.147 82.6432 110.186 82.2509 110.271 81.896C109.993 81.9539 109.702 81.8964 109.377 81.8321C109.306 81.8181 109.231 81.8033 109.151 81.7886C108.602 81.6868 107.771 81.5329 107.243 81.0904C106.626 80.5731 106.723 80.0086 106.818 79.4627C106.832 79.3804 106.847 79.2948 106.86 79.2052C107.123 77.4354 107.509 75.4156 108.383 73.8514C109.206 72.3759 110.643 71.3807 111.911 70.5027C112.124 70.3559 112.339 70.202 112.557 70.0454C113.911 69.0772 115.445 67.9799 117.167 67.9324C118.896 67.8876 120.007 68.8476 120.081 70.4444C120.094 70.7305 120.08 70.9488 120.068 71.1242C120.042 71.5228 120.034 71.6431 120.376 72.049C120.57 72.279 120.74 72.5343 120.905 72.7814C121.153 73.1518 121.387 73.5018 121.684 73.7596L121.829 73.8844C122.803 74.7244 123.724 75.5178 124.179 76.8691C124.332 77.3249 124.359 77.7743 124.382 78.1707C124.417 78.7776 124.445 79.2569 124.872 79.6244C125.053 79.7801 125.254 79.8799 125.466 79.9857C125.945 80.2246 126.488 80.4955 126.667 81.4184C126.735 81.7678 126.61 82.1575 126.489 82.5341C126.428 82.7222 126.331 83.0234 126.339 83.1525C126.413 83.1871 126.561 83.231 126.664 83.2621C126.93 83.3413 127.204 83.4231 127.376 83.5873C128.208 84.3831 128.029 85.9657 127.847 86.8383C127.639 87.8427 127.094 88.5662 126.567 89.2658C126.266 89.6664 125.98 90.0448 125.751 90.4764C125.044 91.8031 124.366 93.1155 123.83 94.587C123.693 94.9625 123.566 95.3545 123.444 95.7338C123.14 96.6789 122.826 97.6564 122.304 98.5212C122.014 99.0035 121.681 99.4537 121.36 99.8891C120.848 100.583 120.364 101.239 120.052 101.996C119.557 103.199 118.983 104.307 118.246 105.485C118.09 105.732 117.933 105.976 117.777 106.219C117.263 107.015 116.778 107.768 116.379 108.628C116.306 108.784 116.239 108.963 116.168 109.152C115.979 109.654 115.784 110.173 115.416 110.503C115.352 110.56 115.272 110.588 115.193 110.588ZM119.229 81.7068C119.164 81.7525 119.095 81.797 119.026 81.8405C119.093 81.8325 119.161 81.8259 119.229 81.8201C119.228 81.7822 119.228 81.7445 119.229 81.7068Z" fill="#00B831"/>
</g>
<g filter="url(#filter18_d)">
<path d="M119.867 70.9278C119.83 70.9278 119.794 70.9218 119.757 70.9092C119.584 70.8488 119.492 70.6592 119.553 70.4855C119.693 70.0827 119.904 69.699 120.126 69.2928C120.513 68.5875 120.914 67.8584 120.896 67.0492C120.878 66.1897 120.193 65.7865 119.17 65.4453C116.762 64.6433 114.228 63.9007 112.02 64.384C111.294 64.543 110.46 65.0079 109.725 65.4183C109.599 65.4884 109.477 65.5563 109.36 65.6201C109.12 65.7514 108.864 65.8688 108.616 65.9821C108.033 66.249 107.482 66.5009 107.108 66.9224C106.723 67.356 106.584 67.7384 106.695 68.0591C106.94 68.7712 108.32 69.2596 109.426 69.4616C109.679 69.5078 109.928 69.5581 110.174 69.608C110.99 69.7733 111.759 69.9283 112.611 69.9172C112.791 69.9121 112.946 70.0614 112.948 70.2453C112.951 70.4292 112.804 70.58 112.62 70.5827C111.694 70.5922 110.894 70.4325 110.042 70.2602C109.8 70.2111 109.556 70.1617 109.306 70.1162C108.47 69.9636 106.481 69.4787 106.066 68.2763C105.871 67.7114 106.054 67.1071 106.611 66.4805C107.078 65.9542 107.719 65.6607 108.339 65.3768C108.588 65.2632 108.822 65.1559 109.041 65.0361C109.156 64.9731 109.277 64.9061 109.401 64.8369C110.176 64.4042 111.056 63.9138 111.878 63.7339C114.251 63.2146 116.885 63.9827 119.38 64.8139C120.078 65.0465 121.53 65.5305 121.562 67.0348C121.583 68.0221 121.119 68.8672 120.71 69.6129C120.501 69.994 120.303 70.354 120.181 70.7042C120.133 70.8417 120.004 70.9278 119.867 70.9278Z" fill="#00B831"/>
</g>
<g filter="url(#filter19_d)">
<path d="M100.5 109.494C100.46 109.494 100.42 109.486 100.381 109.471C100.209 109.405 100.124 109.213 100.19 109.041C100.423 108.437 100.928 108.182 101.374 107.957C101.52 107.884 101.659 107.814 101.786 107.734C102.572 107.24 103.071 106.501 103.493 105.775C104.49 104.059 105.528 102.225 106.303 100.325C106.557 99.7042 106.731 99.076 106.915 98.4112C107.048 97.9297 107.186 97.4315 107.356 96.9411C107.433 96.7204 107.527 96.5075 107.619 96.3014C107.88 95.7134 108.106 95.2054 107.901 94.6367C107.784 94.3102 107.515 94.0354 107.23 93.7446C107.03 93.5412 106.824 93.3307 106.657 93.0885C106.386 92.695 106.097 92.3188 105.817 91.955C105.402 91.4143 104.972 90.8553 104.593 90.228C104.498 90.0708 104.548 89.8663 104.706 89.7711C104.863 89.6762 105.067 89.7265 105.163 89.8838C105.522 90.4791 105.922 90.999 106.345 91.5493C106.63 91.9198 106.924 92.3031 107.205 92.711C107.339 92.9057 107.517 93.0867 107.705 93.2786C108.027 93.6075 108.361 93.948 108.527 94.4111C108.823 95.2314 108.506 95.9434 108.227 96.5718C108.137 96.7741 108.052 96.9648 107.984 97.1591C107.821 97.6296 107.686 98.1171 107.556 98.5887C107.375 99.2428 107.188 99.9193 106.919 100.577C106.128 102.516 105.076 104.373 104.068 106.109C103.603 106.909 103.048 107.727 102.14 108.297C101.986 108.394 101.827 108.474 101.673 108.552C101.286 108.747 100.951 108.916 100.81 109.281C100.76 109.413 100.634 109.494 100.5 109.494Z" fill="#00B831"/>
</g>
<g filter="url(#filter20_d)">
<path d="M115.519 102.046C114.36 102.046 112.755 100.892 112.232 100.086C111.934 99.6275 111.857 99.0504 111.782 98.4923C111.744 98.2104 111.709 97.944 111.647 97.7206C111.377 96.7502 111.333 95.7037 111.513 94.5933C111.501 94.5421 111.5 94.4869 111.514 94.4318C111.535 94.348 111.56 94.2677 111.588 94.1901C111.703 93.6369 111.872 93.0688 112.095 92.4868C112.15 92.3435 112.297 92.2566 112.448 92.2759C112.6 92.2954 112.719 92.4163 112.736 92.5689C112.799 93.1289 112.592 93.5706 112.41 93.9598C112.344 94.0994 112.281 94.2338 112.23 94.3711C111.999 95.5103 112.018 96.5721 112.287 97.5423C112.362 97.8102 112.402 98.1119 112.441 98.4038C112.506 98.8889 112.573 99.3904 112.789 99.7227C113.272 100.466 114.808 101.448 115.602 101.377C115.787 101.362 115.946 101.496 115.962 101.679C115.979 101.862 115.843 102.023 115.66 102.04C115.614 102.044 115.567 102.046 115.519 102.046Z" fill="#00B831"/>
</g>
<g filter="url(#filter21_d)">
<path d="M111.576 97.4382C111.537 97.4382 111.498 97.4313 111.459 97.4169C110.477 97.0487 109.3 96.1857 108.645 95.5236C108.426 95.3022 108.292 95.0145 108.174 94.7603C108.058 94.5121 107.948 94.2777 107.799 94.1778C107.646 94.076 107.605 93.8693 107.706 93.7165C107.808 93.5637 108.015 93.5224 108.168 93.6242C108.473 93.8276 108.627 94.1588 108.777 94.4791C108.882 94.704 108.981 94.9165 109.119 95.0558C109.722 95.6662 110.8 96.4594 111.693 96.7941C111.865 96.8586 111.952 97.0503 111.888 97.2224C111.837 97.3559 111.71 97.4382 111.576 97.4382Z" fill="#00B831"/>
</g>
</g>
<defs>
<filter id="filter0_d" x="82.0221" y="23.0747" width="33.9989" height="45.1513" filterUnits="userSpaceOnUse" color-interpolation-filters="sRGB">
<feFlood flood-opacity="0" result="BackgroundImageFix"/>
<feColorMatrix in="SourceAlpha" type="matrix" values="0 0 0 0 0 0 0 0 0 0 0 0 0 0 0 0 0 0 127 0"/>
<feOffset/>
<feGaussianBlur stdDeviation="2"/>
<feColorMatrix type="matrix" values="0 0 0 0 0 0 0 0 0 0.8 0 0 0 0 0.213333 0 0 0 0.4 0"/>
<feBlend mode="normal" in2="BackgroundImageFix" result="effect1_dropShadow"/>
<feBlend mode="normal" in="SourceGraphic" in2="effect1_dropShadow" result="shape"/>
</filter>
<filter id="filter1_d" x="107.033" y="65.8499" width="8.69538" height="9.77412" filterUnits="userSpaceOnUse" color-interpolation-filters="sRGB">
<feFlood flood-opacity="0" result="BackgroundImageFix"/>
<feColorMatrix in="SourceAlpha" type="matrix" values="0 0 0 0 0 0 0 0 0 0 0 0 0 0 0 0 0 0 127 0"/>
<feOffset/>
<feGaussianBlur stdDeviation="2"/>
<feColorMatrix type="matrix" values="0 0 0 0 0 0 0 0 0 0.8 0 0 0 0 0.213333 0 0 0 0.4 0"/>
<feBlend mode="normal" in2="BackgroundImageFix" result="effect1_dropShadow"/>
<feBlend mode="normal" in="SourceGraphic" in2="effect1_dropShadow" result="shape"/>
</filter>
<filter id="filter2_d" x="11.5958" y="80.9226" width="103.439" height="14.8374" filterUnits="userSpaceOnUse" color-interpolation-filters="sRGB">
<feFlood flood-opacity="0" result="BackgroundImageFix"/>
<feColorMatrix in="SourceAlpha" type="matrix" values="0 0 0 0 0 0 0 0 0 0 0 0 0 0 0 0 0 0 127 0"/>
<feOffset/>
<feGaussianBlur stdDeviation="2"/>
<feColorMatrix type="matrix" values="0 0 0 0 0 0 0 0 0 0.8 0 0 0 0 0.213333 0 0 0 0.4 0"/>
<feBlend mode="normal" in2="BackgroundImageFix" result="effect1_dropShadow"/>
<feBlend mode="normal" in="SourceGraphic" in2="effect1_dropShadow" result="shape"/>
</filter>
<filter id="filter3_d" x="11.275" y="15.7173" width="80.0152" height="54.5397" filterUnits="userSpaceOnUse" color-interpolation-filters="sRGB">
<feFlood flood-opacity="0" result="BackgroundImageFix"/>
<feColorMatrix in="SourceAlpha" type="matrix" values="0 0 0 0 0 0 0 0 0 0 0 0 0 0 0 0 0 0 127 0"/>
<feOffset/>
<feGaussianBlur stdDeviation="2"/>
<feColorMatrix type="matrix" values="0 0 0 0 0 0 0 0 0 0.8 0 0 0 0 0.213333 0 0 0 0.4 0"/>
<feBlend mode="normal" in2="BackgroundImageFix" result="effect1_dropShadow"/>
<feBlend mode="normal" in="SourceGraphic" in2="effect1_dropShadow" result="shape"/>
</filter>
<filter id="filter4_d" x="12.9795" y="82.832" width="57.3019" height="90.1679" filterUnits="userSpaceOnUse" color-interpolation-filters="sRGB">
<feFlood flood-opacity="0" result="BackgroundImageFix"/>
<feColorMatrix in="SourceAlpha" type="matrix" values="0 0 0 0 0 0 0 0 0 0 0 0 0 0 0 0 0 0 127 0"/>
<feOffset/>
<feGaussianBlur stdDeviation="2"/>
<feColorMatrix type="matrix" values="0 0 0 0 0 0 0 0 0 0.8 0 0 0 0 0.213333 0 0 0 0.4 0"/>
<feBlend mode="normal" in2="BackgroundImageFix" result="effect1_dropShadow"/>
<feBlend mode="normal" in="SourceGraphic" in2="effect1_dropShadow" result="shape"/>
</filter>
<filter id="filter5_d" x="56.1445" y="-62.9463" width="18.647" height="87.408" filterUnits="userSpaceOnUse" color-interpolation-filters="sRGB">
<feFlood flood-opacity="0" result="BackgroundImageFix"/>
<feColorMatrix in="SourceAlpha" type="matrix" values="0 0 0 0 0 0 0 0 0 0 0 0 0 0 0 0 0 0 127 0"/>
<feOffset/>
<feGaussianBlur stdDeviation="2"/>
<feColorMatrix type="matrix" values="0 0 0 0 0 0 0 0 0 0.8 0 0 0 0 0.213333 0 0 0 0.4 0"/>
<feBlend mode="normal" in2="BackgroundImageFix" result="effect1_dropShadow"/>
<feBlend mode="normal" in="SourceGraphic" in2="effect1_dropShadow" result="shape"/>
</filter>
<filter id="filter6_d" x="24.8707" y="40.0247" width="28.4126" height="39.8757" filterUnits="userSpaceOnUse" color-interpolation-filters="sRGB">
<feFlood flood-opacity="0" result="BackgroundImageFix"/>
<feColorMatrix in="SourceAlpha" type="matrix" values="0 0 0 0 0 0 0 0 0 0 0 0 0 0 0 0 0 0 127 0"/>
<feOffset/>
<feGaussianBlur stdDeviation="2"/>
<feColorMatrix type="matrix" values="0 0 0 0 0 0 0 0 0 0.8 0 0 0 0 0.213333 0 0 0 0.4 0"/>
<feBlend mode="normal" in2="BackgroundImageFix" result="effect1_dropShadow"/>
<feBlend mode="normal" in="SourceGraphic" in2="effect1_dropShadow" result="shape"/>
</filter>
<filter id="filter7_d" x="75.6647" y="40.0247" width="28.4122" height="39.8757" filterUnits="userSpaceOnUse" color-interpolation-filters="sRGB">
<feFlood flood-opacity="0" result="BackgroundImageFix"/>
<feColorMatrix in="SourceAlpha" type="matrix" values="0 0 0 0 0 0 0 0 0 0 0 0 0 0 0 0 0 0 127 0"/>
<feOffset/>
<feGaussianBlur stdDeviation="2"/>
<feColorMatrix type="matrix" values="0 0 0 0 0 0 0 0 0 0.8 0 0 0 0 0.213333 0 0 0 0.4 0"/>
<feBlend mode="normal" in2="BackgroundImageFix" result="effect1_dropShadow"/>
<feBlend mode="normal" in="SourceGraphic" in2="effect1_dropShadow" result="shape"/>
</filter>
<filter id="filter8_d" x="58.0812" y="46.8262" width="13.6561" height="14.3216" filterUnits="userSpaceOnUse" color-interpolation-filters="sRGB">
<feFlood flood-opacity="0" result="BackgroundImageFix"/>
<feColorMatrix in="SourceAlpha" type="matrix" values="0 0 0 0 0 0 0 0 0 0 0 0 0 0 0 0 0 0 127 0"/>
<feOffset/>
<feGaussianBlur stdDeviation="2"/>
<feColorMatrix type="matrix" values="0 0 0 0 0 0 0 0 0 0.8 0 0 0 0 0.213333 0 0 0 0.4 0"/>
<feBlend mode="normal" in2="BackgroundImageFix" result="effect1_dropShadow"/>
<feBlend mode="normal" in="SourceGraphic" in2="effect1_dropShadow" result="shape"/>
</filter>
<filter id="filter9_d" x="57.2494" y="46.3271" width="13.6561" height="14.3216" filterUnits="userSpaceOnUse" color-interpolation-filters="sRGB">
<feFlood flood-opacity="0" result="BackgroundImageFix"/>
<feColorMatrix in="SourceAlpha" type="matrix" values="0 0 0 0 0 0 0 0 0 0 0 0 0 0 0 0 0 0 127 0"/>
<feOffset/>
<feGaussianBlur stdDeviation="2"/>
<feColorMatrix type="matrix" values="0 0 0 0 0 0 0 0 0 0.8 0 0 0 0 0.213333 0 0 0 0.4 0"/>
<feBlend mode="normal" in2="BackgroundImageFix" result="effect1_dropShadow"/>
<feBlend mode="normal" in="SourceGraphic" in2="effect1_dropShadow" result="shape"/>
</filter>
<filter id="filter10_d" x="58.0812" y="61.6318" width="13.6561" height="14.3216" filterUnits="userSpaceOnUse" color-interpolation-filters="sRGB">
<feFlood flood-opacity="0" result="BackgroundImageFix"/>
<feColorMatrix in="SourceAlpha" type="matrix" values="0 0 0 0 0 0 0 0 0 0 0 0 0 0 0 0 0 0 127 0"/>
<feOffset/>
<feGaussianBlur stdDeviation="2"/>
<feColorMatrix type="matrix" values="0 0 0 0 0 0 0 0 0 0.8 0 0 0 0 0.213333 0 0 0 0.4 0"/>
<feBlend mode="normal" in2="BackgroundImageFix" result="effect1_dropShadow"/>
<feBlend mode="normal" in="SourceGraphic" in2="effect1_dropShadow" result="shape"/>
</filter>
<filter id="filter11_d" x="57.2494" y="61.1331" width="13.6561" height="14.3216" filterUnits="userSpaceOnUse" color-interpolation-filters="sRGB">
<feFlood flood-opacity="0" result="BackgroundImageFix"/>
<feColorMatrix in="SourceAlpha" type="matrix" values="0 0 0 0 0 0 0 0 0 0 0 0 0 0 0 0 0 0 127 0"/>
<feOffset/>
<feGaussianBlur stdDeviation="2"/>
<feColorMatrix type="matrix" values="0 0 0 0 0 0 0 0 0 0.8 0 0 0 0 0.213333 0 0 0 0.4 0"/>
<feBlend mode="normal" in2="BackgroundImageFix" result="effect1_dropShadow"/>
<feBlend mode="normal" in="SourceGraphic" in2="effect1_dropShadow" result="shape"/>
</filter>
<filter id="filter12_d" x="-4" y="65.613" width="29.2514" height="50.6569" filterUnits="userSpaceOnUse" color-interpolation-filters="sRGB">
<feFlood flood-opacity="0" result="BackgroundImageFix"/>
<feColorMatrix in="SourceAlpha" type="matrix" values="0 0 0 0 0 0 0 0 0 0 0 0 0 0 0 0 0 0 127 0"/>
<feOffset/>
<feGaussianBlur stdDeviation="2"/>
<feColorMatrix type="matrix" values="0 0 0 0 0 0 0 0 0 0.8 0 0 0 0 0.213333 0 0 0 0.4 0"/>
<feBlend mode="normal" in2="BackgroundImageFix" result="effect1_dropShadow"/>
<feBlend mode="normal" in="SourceGraphic" in2="effect1_dropShadow" result="shape"/>
</filter>
<filter id="filter13_d" x="2.43604" y="61.2466" width="23.5716" height="15.3631" filterUnits="userSpaceOnUse" color-interpolation-filters="sRGB">
<feFlood flood-opacity="0" result="BackgroundImageFix"/>
<feColorMatrix in="SourceAlpha" type="matrix" values="0 0 0 0 0 0 0 0 0 0 0 0 0 0 0 0 0 0 127 0"/>
<feOffset/>
<feGaussianBlur stdDeviation="2"/>
<feColorMatrix type="matrix" values="0 0 0 0 0 0 0 0 0 0.8 0 0 0 0 0.213333 0 0 0 0.4 0"/>
<feBlend mode="normal" in2="BackgroundImageFix" result="effect1_dropShadow"/>
<feBlend mode="normal" in="SourceGraphic" in2="effect1_dropShadow" result="shape"/>
</filter>
<filter id="filter14_d" x="15.3525" y="87.3" width="16.4786" height="27.8758" filterUnits="userSpaceOnUse" color-interpolation-filters="sRGB">
<feFlood flood-opacity="0" result="BackgroundImageFix"/>
<feColorMatrix in="SourceAlpha" type="matrix" values="0 0 0 0 0 0 0 0 0 0 0 0 0 0 0 0 0 0 127 0"/>
<feOffset/>
<feGaussianBlur stdDeviation="2"/>
<feColorMatrix type="matrix" values="0 0 0 0 0 0 0 0 0 0.8 0 0 0 0 0.213333 0 0 0 0.4 0"/>
<feBlend mode="normal" in2="BackgroundImageFix" result="effect1_dropShadow"/>
<feBlend mode="normal" in="SourceGraphic" in2="effect1_dropShadow" result="shape"/>
</filter>
<filter id="filter15_d" x="8.03461" y="89.9553" width="12.5588" height="17.7726" filterUnits="userSpaceOnUse" color-interpolation-filters="sRGB">
<feFlood flood-opacity="0" result="BackgroundImageFix"/>
<feColorMatrix in="SourceAlpha" type="matrix" values="0 0 0 0 0 0 0 0 0 0 0 0 0 0 0 0 0 0 127 0"/>
<feOffset/>
<feGaussianBlur stdDeviation="2"/>
<feColorMatrix type="matrix" values="0 0 0 0 0 0 0 0 0 0.8 0 0 0 0 0.213333 0 0 0 0.4 0"/>
<feBlend mode="normal" in2="BackgroundImageFix" result="effect1_dropShadow"/>
<feBlend mode="normal" in="SourceGraphic" in2="effect1_dropShadow" result="shape"/>
</filter>
<filter id="filter16_d" x="12.0897" y="91.2502" width="12.2584" height="11.87" filterUnits="userSpaceOnUse" color-interpolation-filters="sRGB">
<feFlood flood-opacity="0" result="BackgroundImageFix"/>
<feColorMatrix in="SourceAlpha" type="matrix" values="0 0 0 0 0 0 0 0 0 0 0 0 0 0 0 0 0 0 127 0"/>
<feOffset/>
<feGaussianBlur stdDeviation="2"/>
<feColorMatrix type="matrix" values="0 0 0 0 0 0 0 0 0 0.8 0 0 0 0 0.213333 0 0 0 0.4 0"/>
<feBlend mode="normal" in2="BackgroundImageFix" result="effect1_dropShadow"/>
<feBlend mode="normal" in="SourceGraphic" in2="effect1_dropShadow" result="shape"/>
</filter>
<filter id="filter17_d" x="102.748" y="63.9309" width="29.2519" height="50.657" filterUnits="userSpaceOnUse" color-interpolation-filters="sRGB">
<feFlood flood-opacity="0" result="BackgroundImageFix"/>
<feColorMatrix in="SourceAlpha" type="matrix" values="0 0 0 0 0 0 0 0 0 0 0 0 0 0 0 0 0 0 127 0"/>
<feOffset/>
<feGaussianBlur stdDeviation="2"/>
<feColorMatrix type="matrix" values="0 0 0 0 0 0 0 0 0 0.8 0 0 0 0 0.213333 0 0 0 0.4 0"/>
<feBlend mode="normal" in2="BackgroundImageFix" result="effect1_dropShadow"/>
<feBlend mode="normal" in="SourceGraphic" in2="effect1_dropShadow" result="shape"/>
</filter>
<filter id="filter18_d" x="101.99" y="59.5649" width="23.5721" height="15.3629" filterUnits="userSpaceOnUse" color-interpolation-filters="sRGB">
<feFlood flood-opacity="0" result="BackgroundImageFix"/>
<feColorMatrix in="SourceAlpha" type="matrix" values="0 0 0 0 0 0 0 0 0 0 0 0 0 0 0 0 0 0 127 0"/>
<feOffset/>
<feGaussianBlur stdDeviation="2"/>
<feColorMatrix type="matrix" values="0 0 0 0 0 0 0 0 0 0.8 0 0 0 0 0.213333 0 0 0 0.4 0"/>
<feBlend mode="normal" in2="BackgroundImageFix" result="effect1_dropShadow"/>
<feBlend mode="normal" in="SourceGraphic" in2="effect1_dropShadow" result="shape"/>
</filter>
<filter id="filter19_d" x="96.1674" y="85.7231" width="16.4783" height="27.7706" filterUnits="userSpaceOnUse" color-interpolation-filters="sRGB">
<feFlood flood-opacity="0" result="BackgroundImageFix"/>
<feColorMatrix in="SourceAlpha" type="matrix" values="0 0 0 0 0 0 0 0 0 0 0 0 0 0 0 0 0 0 127 0"/>
<feOffset/>
<feGaussianBlur stdDeviation="2"/>
<feColorMatrix type="matrix" values="0 0 0 0 0 0 0 0 0 0.8 0 0 0 0 0.213333 0 0 0 0.4 0"/>
<feBlend mode="normal" in2="BackgroundImageFix" result="effect1_dropShadow"/>
<feBlend mode="normal" in="SourceGraphic" in2="effect1_dropShadow" result="shape"/>
</filter>
<filter id="filter20_d" x="107.405" y="88.2732" width="12.5588" height="17.7729" filterUnits="userSpaceOnUse" color-interpolation-filters="sRGB">
<feFlood flood-opacity="0" result="BackgroundImageFix"/>
<feColorMatrix in="SourceAlpha" type="matrix" values="0 0 0 0 0 0 0 0 0 0 0 0 0 0 0 0 0 0 127 0"/>
<feOffset/>
<feGaussianBlur stdDeviation="2"/>
<feColorMatrix type="matrix" values="0 0 0 0 0 0 0 0 0 0.8 0 0 0 0 0.213333 0 0 0 0.4 0"/>
<feBlend mode="normal" in2="BackgroundImageFix" result="effect1_dropShadow"/>
<feBlend mode="normal" in="SourceGraphic" in2="effect1_dropShadow" result="shape"/>
</filter>
<filter id="filter21_d" x="103.651" y="89.5684" width="12.2582" height="11.8699" filterUnits="userSpaceOnUse" color-interpolation-filters="sRGB">
<feFlood flood-opacity="0" result="BackgroundImageFix"/>
<feColorMatrix in="SourceAlpha" type="matrix" values="0 0 0 0 0 0 0 0 0 0 0 0 0 0 0 0 0 0 127 0"/>
<feOffset/>
<feGaussianBlur stdDeviation="2"/>
<feColorMatrix type="matrix" values="0 0 0 0 0 0 0 0 0 0.8 0 0 0 0 0.213333 0 0 0 0.4 0"/>
<feBlend mode="normal" in2="BackgroundImageFix" result="effect1_dropShadow"/>
<feBlend mode="normal" in="SourceGraphic" in2="effect1_dropShadow" result="shape"/>
</filter>
</defs>
</svg>
