<svg width="128" height="128" viewBox="0 0 128 128" fill="none" xmlns="http://www.w3.org/2000/svg">
<mask id="mask0" mask-type="alpha" maskUnits="userSpaceOnUse" x="0" y="0" width="128" height="128">
<rect width="128" height="128" rx="1" fill="#D7D9E0"/>
</mask>
<g mask="url(#mask0)">
<path d="M123.806 75.9679C76.7521 94.4024 101.57 101.724 67.886 96.9392C31.9958 91.8415 -3.96238 85.1663 4 65C11.9624 44.8337 33.1186 7.32002 66.5 20.5002C99.8814 33.6803 133.301 40.8126 123.806 75.9679Z" fill="#EBFFF0"/>
<g filter="url(#filter0_d)">
<path fill-rule="evenodd" clip-rule="evenodd" d="M65.8752 194.589C65.8758 194.816 66.0609 195 66.2884 195C66.2887 195 66.2892 195 66.2898 195C66.5179 194.999 66.7021 194.814 66.7016 194.586C66.6997 193.945 66.4881 130.443 66.2639 125.404C66.0694 121.032 65.8518 106.342 66.9145 100.199C67.0922 99.1723 67.8031 98.3355 68.8674 97.6533C74.6273 97.21 93.0255 97.2617 106.508 97.3008L106.759 97.3015H106.76H106.76H106.76H106.76H106.761H106.761H106.761H106.762C111.052 97.3138 114.754 97.3245 117.225 97.3142C120.62 97.301 122.752 96.6892 123.933 95.3888C125.318 93.8651 125.116 91.709 124.902 89.4264L124.902 89.4248C124.8 88.3378 124.694 87.2134 124.763 86.1335C125.088 81.0494 125.415 61.4149 125.454 57.3806C125.494 53.1665 124.444 32.6758 123.686 25.9643C122.89 18.9154 106.825 19.626 106.167 19.6598C105.18 19.649 102.351 19.7203 98.7303 19.8116L98.7281 19.8117L98.7244 19.8117L98.7216 19.8118L98.7202 19.8119L98.2177 19.8245L98.1963 19.8251C89.6667 20.0401 76.7953 20.3646 72.7653 20.0742C68.7809 19.7871 68.3964 -2.10221 69.0886 -15.8117L74.1679 -66.546C74.1905 -66.7729 74.0249 -66.975 73.7977 -66.9975C73.5701 -67.0225 73.3682 -66.8548 73.3454 -66.6282L68.2653 -15.8741C68.2606 -15.7842 67.8138 -6.77525 68.0918 2.1699C68.2551 7.43551 68.6341 11.6529 69.2184 14.706C69.9937 18.7584 71.1346 20.7831 72.7061 20.8964C76.774 21.1895 89.6629 20.8647 98.2086 20.6494L98.2387 20.6486L98.277 20.6477C102.116 20.5505 105.147 20.4738 106.183 20.4837L106.187 20.4835H106.187C106.52 20.4694 122.159 19.8069 122.865 26.0561C123.621 32.7478 124.668 53.1729 124.627 57.3721C124.588 61.402 124.262 81.0112 123.938 86.0804C123.865 87.2255 123.974 88.3831 124.079 89.5026C124.276 91.599 124.461 93.5792 123.321 94.8336C122.32 95.9349 120.325 96.4764 117.221 96.4885C114.719 96.4986 110.949 96.4878 106.583 96.4752L106.567 96.4752L106.511 96.475C94.2907 96.4398 78.0368 96.3942 70.7688 96.7167C73.2107 95.776 76.4673 95.2637 79.5416 94.9893C92.5151 95.0242 110.735 95.1889 117.747 95.2557L117.79 95.2563H117.819C118.546 95.2563 119.176 94.9912 119.691 94.4685C121.593 92.5371 121.457 87.413 121.376 84.3491L121.376 84.3461L121.375 84.328L121.375 84.3272C121.361 83.7649 121.348 83.279 121.351 82.9157C121.378 80.0836 121.797 65.1962 121.971 61.3492C122.072 59.1401 121.613 50.9387 121.17 42.998L121.168 42.9636L121.164 42.9006L121.164 42.8985C120.836 37.0252 120.527 31.4866 120.49 29.1357C120.406 23.6567 115.329 23.4518 111.969 23.3165C111.702 23.3058 111.444 23.2953 111.198 23.2827C109.708 23.2068 104.968 23.3451 99.4787 23.5054C92.6449 23.7056 84.8993 23.9311 81.0215 23.8189C76.6051 23.69 73.7748 22.57 71.7082 21.7522L71.7073 21.7519C70.4689 21.2616 69.4905 20.8747 68.5322 20.812C67.4928 20.7448 61.4147 20.8163 53.7125 20.9071L53.7058 20.9071L53.7049 20.9071L53.6605 20.9077C42.6404 21.038 28.9259 21.2 22.2342 21.0553C11.2477 20.8194 10.7147 21.5926 10.0079 25.2903L9.93382 25.675C9.15733 29.6482 7.98476 45.4528 7.13776 58.0114C6.95769 60.6808 6.80064 62.9474 6.66207 64.9473L6.63479 65.3411L6.63418 65.3499C6.05727 73.6685 5.79374 77.4684 5.48011 87.1589C5.32118 92.0671 5.90485 94.9109 7.37244 96.3799C8.92909 97.9375 11.319 97.8664 14.3433 97.7766H14.3435L14.3459 97.7765C15.2588 97.749 16.2022 97.7207 17.2233 97.7309C18.057 97.7391 19.2412 97.7517 20.6983 97.768L20.7054 97.7681L20.7104 97.7681C31.4564 97.8862 59.0352 98.1891 67.4312 97.7507C66.7239 98.4059 66.254 99.1693 66.1003 100.058C65.026 106.268 65.2428 121.046 65.4384 125.44C65.6586 130.392 65.8671 192.171 65.875 194.524L65.875 194.527L65.8752 194.589ZM17.2312 96.9062C17.0864 96.9048 16.9434 96.9043 16.8018 96.9043C15.9292 96.9043 15.1136 96.9284 14.3214 96.9521C11.3846 97.0406 9.26228 97.1031 7.95776 95.7975C6.66454 94.5034 6.15523 91.8476 6.30618 87.1861C6.61964 77.5074 6.88269 73.7126 7.45948 65.3988C7.60492 63.3029 7.77046 60.9141 7.96244 58.0673C8.80807 45.5322 9.97707 29.7648 10.7453 25.8334L10.8199 25.4451C11.4204 22.3037 11.5463 21.6501 22.2166 21.8806C28.9218 22.0252 42.6443 21.8635 53.6704 21.7329C61.3791 21.6413 67.469 21.5701 68.4785 21.6355C69.307 21.6894 70.232 22.0554 71.4029 22.5188C73.3468 23.2882 75.9481 24.3177 79.8732 24.5886C75.771 24.7357 72.6818 24.844 71.6382 24.8286C67.4056 24.7866 36.9695 25.4575 29.3322 25.6615C27.7911 25.7028 26.54 26.2429 25.6142 27.2677C23.0895 30.0621 23.5305 35.8304 23.8224 39.6476C23.9092 40.7833 23.9841 41.7645 23.9533 42.3669C23.7905 45.5344 22.8063 53.375 22.1378 56.0646C21.9392 56.0596 21.7365 56.0709 21.5357 56.083L21.479 56.0864C21.3002 56.097 21.1169 56.108 20.9286 56.1047C20.8016 56.1053 20.69 56.122 20.5856 56.1575C20.3306 55.7266 20.0637 55.1574 19.8194 54.4444C19.4409 53.3412 18.701 52.5498 17.6791 52.1563C16.2845 51.6198 14.4916 51.8898 12.6302 52.9169C11.1419 53.7374 10.4911 55.5845 10.9723 57.6215C11.4645 59.7056 13.1364 61.8582 15.7631 61.9679C18.7429 62.0965 19.5909 59.7964 20.1517 58.2751L20.1526 58.2727C20.2623 57.9749 20.3738 57.6729 20.4879 57.4307C20.8035 57.7689 21.1586 58.0007 21.5436 58.0153C21.8753 58.0222 22.3458 57.88 22.6779 57.1054L22.6854 57.0881L22.6906 57.0754C22.9749 57.3727 23.1129 58.1632 23.1008 59.4259C23.0862 60.9518 22.8961 65.032 22.676 69.7564C22.3802 76.1033 22.045 83.2968 22.0103 86.9144L22.0102 86.9155C21.9483 93.3577 21.9336 94.8884 24.8256 94.9167L24.865 94.9169C30.5695 94.9714 59.3959 95.2329 66.7088 95.0421C68.1488 95.0047 70.6727 94.9871 73.8712 94.9838C71.8726 95.4202 70.0519 96.0205 68.6708 96.841C68.6355 96.8438 68.6011 96.8468 68.5666 96.8495C62.0969 97.3968 32.1358 97.0685 20.7709 96.944H20.7691L20.7077 96.9433C19.25 96.9271 18.0653 96.9141 17.2312 96.9062ZM117.798 94.4316L117.766 94.4313C118.122 94.3816 118.37 94.3271 118.512 94.2677C119.181 93.9892 119.861 92.6335 120.3 84.6701C120.578 79.6283 120.675 73.431 120.753 68.4519L120.753 68.4144C120.787 66.2912 120.816 64.4571 120.854 62.9809C120.97 58.4863 120.039 48.6104 119.066 40.8163C118.522 36.4603 117.934 32.4723 117.41 29.5872C116.862 26.569 116.481 25.2469 116.212 24.6383C118.129 25.1823 119.621 26.379 119.664 29.1486C119.7 31.5142 120.01 37.0553 120.338 42.9333L120.338 42.9379L120.338 42.9381L120.342 43.0096C120.765 50.571 121.244 59.1413 121.146 61.312C120.971 65.164 120.552 80.0718 120.525 82.9077C120.521 83.2902 120.534 83.7898 120.55 84.3684C120.623 87.1083 120.758 92.2084 119.102 93.8905C118.739 94.2595 118.315 94.4303 117.798 94.4316ZM23.2412 56.4592C23.1468 56.3693 23.0459 56.2989 22.9407 56.2441C23.6651 53.2988 24.6273 45.3516 24.7782 42.4087C24.8118 41.7548 24.7389 40.8 24.6466 39.5916L24.646 39.5844L24.6459 39.5826C24.3649 35.9061 23.9404 30.3512 26.2276 27.8202C27.0071 26.9575 28.0296 26.5211 29.3542 26.4857C36.9883 26.2819 67.407 25.6123 71.6304 25.6533C72.924 25.6661 77.2874 25.5079 82.8197 25.3072L82.8202 25.3072L82.9356 25.303L82.9766 25.3015L82.9775 25.3015H82.9776H82.9778L82.9783 25.3014L82.9794 25.3014L82.98 25.3014C94.5728 24.881 113.881 24.181 115.346 24.7692C116.603 26.2255 120.261 53.928 120.028 62.9597C119.99 64.4392 119.961 66.2742 119.928 68.3978L119.927 68.439L119.927 68.4446V68.4451C119.85 73.3519 119.755 79.4571 119.485 84.4484C119.058 92.3638 118.384 93.3853 118.195 93.5063C117.426 93.8267 111.72 94.152 88.9087 93.8825C88.2876 93.8751 87.8083 93.8696 87.5025 93.8665C85.4667 93.8465 82.5219 93.8877 79.4611 94.1646C73.6489 94.1481 68.8953 94.1597 66.6873 94.2174C59.3882 94.4072 30.5747 94.1462 24.8727 94.0917L24.8333 94.0915C22.8347 94.0722 22.7744 93.3639 22.8363 86.9224C22.8707 83.327 23.2044 76.1626 23.4992 69.8321L23.501 69.7947C23.7216 65.062 23.9119 60.9746 23.9268 59.4336C23.9422 57.8195 23.737 56.9302 23.2412 56.4592ZM13.0296 53.6384C14.1427 53.0244 15.2106 52.7098 16.1452 52.7098C16.5908 52.7098 17.0062 52.7816 17.3816 52.9259C18.1683 53.2284 18.741 53.846 19.0374 54.7111C19.1726 55.1057 19.4927 55.9628 19.9491 56.705C19.7216 57.0523 19.5516 57.5132 19.377 57.9872L19.3699 58.0066C18.8092 59.528 18.1756 61.2473 15.7973 61.1432C13.6033 61.0516 12.1969 59.2134 11.7763 57.4321C11.4628 56.1053 11.6275 54.4119 13.0296 53.6384ZM21.5742 57.1906C21.4715 57.1868 21.3255 57.0999 21.1536 56.9272C21.2859 56.9238 21.4134 56.9164 21.5382 56.9093L21.5388 56.9092L21.5847 56.9066C21.6861 56.9002 21.7797 56.8953 21.8662 56.8917C21.7679 57.0837 21.6734 57.1936 21.5742 57.1906ZM70.7226 67.305C70.8272 67.3165 73.2974 67.5893 74.297 67.5893C75.3099 67.5893 76.4579 67.5893 78.4761 67.1573C79.1022 67.0234 79.5785 66.7083 79.8919 66.221C80.539 65.2148 80.3236 63.7456 80.0638 62.5783C79.8079 61.4283 77.2584 61.2136 73.3985 61.017C72.4471 60.9688 71.5486 60.9229 70.9603 60.8495C70.7047 60.8173 70.5397 60.7637 70.4452 60.7084C70.6926 60.1277 70.9283 59.562 71.1437 59.0382C71.3247 58.788 71.5139 58.5383 71.6858 58.3117L71.6991 58.2941L71.6996 58.2935L71.7001 58.2928L71.7007 58.2921C72.0194 57.8714 72.3487 57.4368 72.6612 56.983C73.5135 55.7453 74.5095 55.7761 75.8885 55.8187L75.8894 55.8187L75.8982 55.819C76.7197 55.8439 77.6487 55.8722 78.6417 55.5968C80.082 55.1975 80.5172 54.9984 80.4318 54.5332C80.3503 54.0872 80.0561 53.9557 77.0821 54.2249C73.9299 54.5109 71.7921 55.6334 71.7026 55.6812C71.6153 55.7277 71.5475 55.8041 71.5117 55.8965C71.5002 55.9268 71.0506 57.0869 70.4143 58.6353C69.8155 59.4669 69.4164 60.1667 69.5293 60.7453C68.6206 62.8621 67.5935 65.0892 66.8991 66.0978C66.7038 66.3816 66.579 66.4938 66.5173 66.5369C66.3056 66.2546 66.1233 65.0809 66.0002 64.2882L66 64.2873L65.9999 64.2867C65.8697 63.4476 65.735 62.58 65.5188 61.8468L65.3434 61.2471C64.6688 58.9348 63.9711 56.5441 62.636 54.6778C62.5035 54.4928 62.2451 54.4496 62.0597 54.5818C61.8741 54.7144 61.8311 54.9718 61.9636 55.1574C63.2169 56.9096 63.8948 59.2318 64.5501 61.4776L64.7264 62.0792C64.9269 62.7603 65.0574 63.6007 65.1836 64.4133C65.4442 66.0934 65.6166 67.2035 66.3374 67.3677C66.8718 67.4875 67.3029 66.9678 67.5803 66.5647C68.2683 65.5657 69.2379 63.4984 70.1185 61.4696C70.4055 61.6115 70.7151 61.6502 70.8584 61.6678C71.477 61.7448 72.348 61.7894 73.3569 61.8408L73.3658 61.8413C74.696 61.9091 76.2019 61.9858 77.3892 62.159C79.1339 62.4136 79.257 62.7537 79.2576 62.757L79.2576 62.7572C79.3898 63.3515 79.7409 64.9295 79.197 65.7755C79.0042 66.0752 78.7119 66.2636 78.3034 66.3508C76.3701 66.7646 75.2688 66.7646 74.297 66.7646C73.3429 66.7646 70.8391 66.488 70.8137 66.485C70.5879 66.463 70.3827 66.623 70.3576 66.8493C70.3323 67.0756 70.4956 67.2797 70.7226 67.305ZM103.523 74.5725H91.4169C91.0312 74.5725 90.6545 74.5336 90.2905 74.4596C90.888 74.7241 91.5488 74.8711 92.2433 74.8711H104.349C107.092 74.8711 109.443 71.6756 109.443 69.0594L110.222 48.8158C110.222 48.6291 110.207 48.4419 110.178 48.256L109.419 67.9743C109.419 69.7035 108.492 71.6625 107.088 72.9936L107.118 73.019C107.292 73.1656 107.315 73.4257 107.168 73.6C107.086 73.6977 106.969 73.7474 106.851 73.7474C106.757 73.7474 106.663 73.7158 106.585 73.6504C106.562 73.631 106.54 73.6116 106.517 73.5921L106.485 73.5641L106.447 73.5313C105.577 74.1731 104.575 74.5725 103.523 74.5725ZM105.897 72.9939C105.181 73.4909 104.37 73.7946 103.522 73.7946H91.4166C90.1069 73.7946 88.9165 73.2743 88.042 72.4299C87.6396 71.726 87.4095 70.9118 87.4095 70.0449V50.051C88.5806 50.888 89.4488 52.5336 90.1798 53.9191L90.1809 53.9212C90.4532 54.4368 90.7104 54.9239 90.964 55.3361C92.463 57.7707 93.8375 59.9489 95.4811 61.9471C95.9303 62.4932 96.448 62.9129 96.9488 63.3188L96.9491 63.319L96.9498 63.3196L96.953 63.3222C97.1933 63.5172 97.4417 63.7187 97.6783 63.9309C98.919 65.044 100.061 66.34 101.165 67.5936L101.178 67.6079C101.945 68.4782 102.738 69.3779 103.561 70.2131C104.006 70.6646 104.402 71.1697 104.784 71.6583L104.789 71.6647C105.138 72.1105 105.494 72.566 105.897 72.9939ZM106.54 72.473C106.152 72.0655 105.803 71.62 105.44 71.1568L105.44 71.1556C105.041 70.647 104.629 70.1211 104.15 69.6345C103.341 68.8139 102.554 67.9209 101.793 67.057L101.786 67.0486C100.666 65.7771 99.5073 64.4627 98.2306 63.3174C97.9772 63.0902 97.7197 62.8813 97.4704 62.6792L97.4692 62.6782L97.4691 62.6781L97.4689 62.678C96.9789 62.2808 96.5158 61.9054 96.1196 61.4236C94.5063 59.4624 93.2034 57.3984 91.6678 54.9043C91.4287 54.5155 91.178 54.0407 90.9126 53.5378L90.9109 53.5347C90.5186 52.7912 90.09 51.9788 89.5904 51.2349C90.4954 52.2779 91.3546 53.388 92.1957 54.4749C92.6727 55.0914 93.1658 55.7285 93.6541 56.336C94.578 57.4848 95.5079 58.6296 96.4381 59.7746L96.4557 59.7963C98.3588 62.139 100.326 64.561 102.203 66.9766C103.686 68.8861 105.247 70.6174 106.844 72.1223C106.852 72.1298 106.86 72.1369 106.868 72.1436C106.762 72.2578 106.653 72.3678 106.54 72.473ZM87.7125 49.2572C87.6247 49.1703 87.5205 49.0687 87.4095 48.9671V49.0805C87.5128 49.1347 87.6137 49.1938 87.7125 49.2572ZM86.5831 48.7684V48.4418C86.5751 48.4414 86.5671 48.4413 86.5594 48.4415V48.7628L86.5831 48.7684ZM86.5594 49.6172V68.945C86.5594 69.1075 86.5674 69.2682 86.5831 69.4267V49.6248L86.5594 49.6172ZM108.9 45.776C109.227 46.399 109.419 47.0834 109.419 47.7167L108.64 67.9595C108.64 69.1379 108.164 70.4334 107.391 71.5038C105.833 70.0325 104.307 68.3393 102.856 66.4712C100.975 64.0496 99.0053 61.6252 97.1003 59.2801L97.0799 59.2549C96.1505 58.111 95.2214 56.9673 94.2984 55.8193C93.827 55.2331 93.349 54.6159 92.8854 54.0172L92.8493 53.9706L92.8473 53.9681C91.496 52.2222 90.0987 50.4168 88.5217 48.8958C88.4653 48.8411 88.4049 48.7814 88.3416 48.7184L88.3391 48.716C88.0726 48.451 87.7551 48.1355 87.4095 47.9105V47.846C87.4095 46.2621 88.2361 44.5786 89.7684 44.5786C90.516 44.5786 91.3657 44.9892 92.2259 45.7663C92.302 45.8348 92.4006 45.873 92.503 45.873H104.609C104.724 45.873 104.834 45.8251 104.912 45.7404C105.499 45.1061 106.142 44.7843 106.825 44.7843C107.559 44.7843 108.298 45.1729 108.9 45.776ZM89.7684 43.7537C88.0127 43.7537 86.6742 45.3986 86.5876 47.6165C86.5782 47.6163 86.5688 47.6163 86.5594 47.6163V46.7461C86.5594 45.1506 87.3945 43.4551 88.942 43.4551C89.333 43.4551 89.7513 43.5662 90.1841 43.7822C90.0447 43.7632 89.9061 43.7537 89.7684 43.7537ZM107.21 43.9832C107.083 43.9673 106.955 43.9591 106.825 43.9591C105.967 43.9591 105.143 44.3347 104.433 45.0478H92.66C92.5384 44.942 92.417 44.8426 92.2958 44.7497H103.782C103.891 44.7497 103.995 44.7043 104.069 44.6246C104.66 43.9852 105.309 43.661 105.998 43.661C106.421 43.661 106.831 43.7792 107.21 43.9832ZM109.431 45.1432C108.672 43.8723 107.419 42.8826 105.998 42.8826C105.144 42.8826 104.324 43.2582 103.616 43.9712H91.8248C90.8395 43.1125 89.8702 42.6772 88.9423 42.6772C87.1397 42.6772 85.7804 44.4263 85.7804 46.7461V68.9447C85.7804 70.4199 86.3518 71.7644 87.2854 72.7691C88.2503 74.5125 90.111 75.6958 92.2433 75.6958H104.349C107.537 75.6958 110.269 72.0468 110.269 69.0751L111.049 48.8315C111.049 47.5536 110.417 46.1221 109.431 45.1432ZM44.5252 76.8637C44.4333 76.8637 44.3426 76.8332 44.2691 76.7749C43.9799 76.5466 43.6975 76.3173 43.4219 76.0871C43.4163 76.0843 43.4107 76.0814 43.4052 76.0783C43.4001 76.0754 43.395 76.0724 43.39 76.0693C43.3766 76.0611 43.3636 76.0519 43.3511 76.042C35.0876 69.5192 32.4409 62.181 31.6757 57.1736C30.8447 51.737 31.9613 47.8971 32.0093 47.7363C32.0456 47.6142 32.1365 47.5155 32.2558 47.4693C32.3748 47.4228 32.5084 47.4346 32.618 47.5001C33.1402 47.813 33.7005 47.9648 34.3307 47.9648C36.5188 47.9648 39.0896 46.111 41.5762 44.3178L41.5775 44.3169L41.7127 44.2195C42.62 43.5654 43.5224 43.2475 44.4716 43.2475C46.1926 43.2475 47.7244 44.2935 49.3463 45.4009L49.347 45.4014L49.3478 45.402C49.9351 45.803 50.5425 46.2177 51.1616 46.5814C52.997 47.659 55.3077 47.885 56.9229 47.885C57.7886 47.885 58.3806 47.8166 58.4275 47.8111L58.4304 47.8108C58.5469 47.7957 58.6648 47.8322 58.7538 47.9098C58.8425 47.9873 58.8937 48.099 58.8946 48.2167C58.8955 48.3394 58.896 48.4616 58.8962 48.5833C59.1602 48.5655 59.3215 48.5469 59.3458 48.544H59.3459L59.349 48.5437C59.4655 48.5288 59.5834 48.5651 59.6724 48.6427C59.7611 48.7202 59.8123 48.8319 59.8131 48.9496C59.9093 61.3036 55.7971 68.2244 52.3309 71.8547C48.5509 75.8133 44.7866 76.8101 44.6283 76.8505C44.5938 76.8596 44.5594 76.8637 44.5252 76.8637ZM44.4608 75.8721C44.5115 75.913 44.5625 75.9539 44.6137 75.9948C45.4174 75.7382 48.6209 74.5608 51.7684 71.2478C55.071 67.7712 58.981 61.1703 58.9876 49.4044C58.9567 49.4065 58.9243 49.4087 58.8906 49.4108C58.7223 61.0197 54.7652 67.6102 51.412 71.1218C48.5862 74.0815 45.7689 75.3855 44.4608 75.8721ZM43.7156 75.2555C44.5512 74.9862 47.7283 73.8011 50.8504 70.5149C54.0802 67.1149 57.891 60.7268 58.0638 49.4417C57.9916 49.4426 57.9172 49.4431 57.8406 49.4431C56.1227 49.4431 53.6561 49.197 51.6607 48.0256C51.0182 47.6482 50.3998 47.2261 49.8017 46.8179L49.7984 46.8157L49.7977 46.8152C48.2841 45.7817 46.8545 44.8056 45.3893 44.8056C44.62 44.8056 43.8758 45.0726 43.1141 45.6215L42.9783 45.7194L42.9773 45.7201C40.3846 47.5897 37.7038 49.5229 35.2485 49.5229C34.6656 49.5229 34.1128 49.411 33.5996 49.1907C33.3344 50.3803 32.7722 53.646 33.417 57.8224C34.1318 62.4509 36.5144 69.1406 43.7156 75.2555ZM42.631 44.9524C43.2564 44.5015 43.8794 44.2104 44.5171 44.073C44.5018 44.0728 44.4866 44.0727 44.4713 44.0727C43.702 44.0727 42.9577 44.3397 42.1964 44.8886L42.0611 44.9859L42.0592 44.9873C39.8016 46.6153 37.4775 48.2913 35.2935 48.6974C37.472 48.6727 40.0252 46.8314 42.4952 45.05L42.631 44.9524ZM32.4236 56.5671C31.9779 52.183 32.7579 49.0819 32.9058 48.5464C32.8302 48.5191 32.7554 48.4896 32.6813 48.4578C32.4272 49.5973 31.9007 52.6419 32.4236 56.5671ZM45.9229 66.4602H44.3799C41.0842 66.4602 38.403 63.7835 38.403 60.4934V58.9529C38.403 56.7058 39.6537 54.7449 41.4966 53.7274C42.5165 52.9192 43.8059 52.436 45.2062 52.436H46.7492C50.045 52.436 52.7262 55.1127 52.7262 58.4028V59.9433C52.7262 62.1904 51.4755 64.1514 49.6325 65.1688C48.6126 65.977 47.3232 66.4602 45.9229 66.4602ZM49.1736 64.4792C48.4508 64.8658 47.6253 65.0851 46.7495 65.0851H45.2065C42.3666 65.0851 40.0559 62.7786 40.0559 59.9433V58.4028C40.0559 56.797 40.7971 55.3606 41.956 54.417C42.6789 54.0304 43.5043 53.8111 44.3802 53.8111H45.9232C48.7631 53.8111 51.0738 56.1176 51.0738 58.9529V60.4934C51.0738 62.0992 50.3325 63.5356 49.1736 64.4792ZM51.8999 59.9913V58.9529C51.8999 56.5735 50.4976 54.5149 48.4747 53.5576C50.4688 54.2674 51.9001 56.1713 51.9001 58.4028V59.9433C51.9001 59.9593 51.9 59.9753 51.8999 59.9913ZM42.6527 65.3378C40.6598 64.6274 39.2296 62.724 39.2296 60.4934V60.0052C39.2536 62.3577 40.6483 64.3884 42.6527 65.3378Z" fill="#00B831"/>
</g>
</g>
<defs>
<filter id="filter0_d" x="1.45477" y="-71" width="128" height="270" filterUnits="userSpaceOnUse" color-interpolation-filters="sRGB">
<feFlood flood-opacity="0" result="BackgroundImageFix"/>
<feColorMatrix in="SourceAlpha" type="matrix" values="0 0 0 0 0 0 0 0 0 0 0 0 0 0 0 0 0 0 127 0"/>
<feOffset/>
<feGaussianBlur stdDeviation="2"/>
<feColorMatrix type="matrix" values="0 0 0 0 0 0 0 0 0 0.8 0 0 0 0 0.213333 0 0 0 0.4 0"/>
<feBlend mode="normal" in2="BackgroundImageFix" result="effect1_dropShadow"/>
<feBlend mode="normal" in="SourceGraphic" in2="effect1_dropShadow" result="shape"/>
</filter>
</defs>
</svg>
