<svg width="128" height="128" viewBox="0 0 128 128" fill="none" xmlns="http://www.w3.org/2000/svg">
<mask id="mask0" mask-type="alpha" maskUnits="userSpaceOnUse" x="0" y="0" width="128" height="128">
<rect width="128" height="128" rx="1" transform="matrix(-1 0 0 1 128 0)" fill="#F0F1F5"/>
</mask>
<g mask="url(#mask0)">
<path d="M13.5 56C13.5 76.5533 30.6906 89.9918 56.5 97.5C84 105.5 110.5 97.0533 110.5 76.5C110.5 55.9467 93.9951 20 66 20C38.0049 20 13.5 35.4467 13.5 56Z" fill="#EBFFF0"/>
<g filter="url(#filter0_d)">
<path d="M71.2679 177.677C71.0891 177.677 70.9406 177.536 70.933 177.356C70.9062 176.71 68.2498 112.739 68.2498 106.838C68.2498 106.643 68.2511 106.452 68.2522 106.266C68.263 104.674 68.2708 103.524 67.4496 102.701C66.7918 102.042 65.5449 101.553 63.478 101.196C45.3224 101.251 27.6112 101.285 24.0106 101.212L22.9732 101.191C19.6102 101.125 13.982 101.016 9.20263 100.69C1.31594 100.152 0.130048 99.3359 0.0102073 98.6084C-0.0935356 97.9787 0.588396 97.4482 2.29076 96.834C4.34639 96.0928 5.9468 95.503 7.23263 95.0292C11.6435 93.404 12.4383 93.1113 15.4704 92.6447L15.7299 92.6047C17.6841 92.3033 17.716 92.3004 19.1579 92.3344C20.253 92.3594 22.2914 92.4068 26.845 92.3424C31.5035 92.2771 35.1663 92.2984 38.398 92.3167C42.4797 92.3402 46.0054 92.3605 50.0887 92.1937C52.615 92.0904 55.6052 92.1215 58.2918 92.2785C62.2935 92.5123 62.4601 92.7768 62.5493 92.9186C62.619 93.0293 62.6242 93.1641 62.5634 93.2788C62.4565 93.4798 62.2848 93.5661 60.9942 93.6092C59.2507 93.6674 52.6416 93.6133 44.9888 93.5507C33.9379 93.4601 18.8033 93.3362 17.845 93.5976C17.505 93.6904 17.0363 93.7964 16.4935 93.9191C14.3623 94.4012 10.7954 95.2081 7.62636 96.8512L7.34264 96.9977C6.58983 97.386 5.32994 98.0362 5.29483 98.321C5.35542 98.4592 5.979 98.9732 11.3888 99.2972C16.0908 99.5789 23.7316 99.6927 34.748 99.6462C50.7803 99.5778 59.1092 99.7716 63.5588 100.524C71.5825 100.501 79.6876 100.473 86.6972 100.448C95.8827 100.416 103.138 100.391 105.551 100.391C109.346 100.391 114.75 99.9742 119.318 99.3283C125.299 98.4829 127.156 97.6572 127.323 97.3214C126.792 96.5243 124.21 95.8712 121.712 95.2392C119.475 94.6733 117.161 94.0879 115.537 93.2759C115.299 93.1569 114.869 92.9418 114.344 91.0818C114.251 91.233 114.147 91.3763 114.031 91.5091C113.537 92.0746 112.896 92.38 112.126 92.4166C109.021 92.5655 55.9337 91.8512 53.6755 91.8208H18.8661C18.7072 91.8771 18.3696 91.9453 17.9754 91.7211C16.9672 91.1476 16.3799 89.0671 16.2296 85.5374C15.9379 78.6803 16.3642 34.9373 16.3781 33.5309C16.3412 33.3062 16.2162 32.2205 17.0205 31.2316C17.9059 30.1425 19.5581 29.5903 21.9308 29.5903C26.0512 29.5903 44.8575 29.6623 56.094 29.7054C61.2283 29.7251 64.9383 29.7392 65.3061 29.7392C65.4852 29.7392 66.1727 29.7557 67.2184 29.7839C66.7603 28.9126 66.3569 26.7481 66.119 21.5717C65.9147 17.1237 65.8605 10.9405 65.958 3.19397C66.1239 -9.98965 66.6795 -23.3173 66.6849 -23.4503C66.6927 -23.6352 66.8461 -23.7769 67.0341 -23.7716C67.2193 -23.7638 67.3628 -23.6075 67.3552 -23.4223C67.3498 -23.2922 66.8068 -10.2671 66.6346 2.75753C66.5335 10.4036 66.578 16.5524 66.767 21.0333C67.0979 28.8835 67.8127 29.6039 67.9526 29.6687C70.2918 29.8338 82.4131 29.747 89.6552 29.6949C92.0105 29.6781 93.8707 29.6647 94.7447 29.6647C95.4429 29.6647 96.6089 29.6263 97.9589 29.582C107.819 29.2574 113.639 29.3609 114.211 30.8488C114.889 32.6118 114.854 37.8211 114.835 40.6194C114.832 40.9845 114.83 41.3007 114.83 41.552C114.83 43.6009 115.121 85.8987 115.128 86.8496C115.144 87.0399 115.259 88.6745 114.781 90.1249C115.226 92.0184 115.601 92.5582 115.837 92.6762C117.396 93.4556 119.674 94.032 121.877 94.5894C124.757 95.3179 127.244 95.947 127.895 96.9697C128.028 97.1794 128.035 97.4151 127.915 97.6342C126.885 99.5105 112.472 101.063 105.551 101.063C103.139 101.063 95.8847 101.088 86.6999 101.119C80.4581 101.141 73.3468 101.165 66.1979 101.188C66.9776 101.482 67.5247 101.827 67.9249 102.228C68.9438 103.249 68.9348 104.583 68.9234 106.271C68.9223 106.455 68.921 106.644 68.921 106.839C68.921 112.726 71.5769 176.683 71.6038 177.328C71.6116 177.513 71.4678 177.669 71.2827 177.677C71.2773 177.677 71.2726 177.677 71.2679 177.677ZM17.2322 93.0615C16.8968 93.1039 16.4711 93.1694 15.8319 93.2681L15.5721 93.3081C12.6067 93.7644 11.8215 94.0537 7.46427 95.6593C6.17732 96.1333 4.57579 96.7235 2.51792 97.4656C0.696387 98.1225 0.671121 98.4963 0.671792 98.4999C0.687666 98.5969 1.06396 99.4631 9.24802 100.021C14.011 100.346 19.6292 100.456 22.9859 100.521L24.0242 100.541C27.1432 100.605 40.8903 100.587 56.3312 100.546C51.3035 100.318 44.3183 100.277 34.7507 100.318C7.35538 100.433 4.90692 99.551 4.64242 98.4722C4.46064 97.7306 5.54055 97.1732 7.03499 96.4023L7.3176 96.2562C10.5634 94.5736 14.183 93.7548 16.3455 93.2656C16.6735 93.1914 16.9737 93.1236 17.2322 93.0615ZM48.8333 92.9114C52.8035 92.9427 56.2554 92.9698 58.5297 92.9635C56.2422 92.8222 53.1462 92.7404 50.116 92.8645C49.6823 92.8821 49.2554 92.8978 48.8333 92.9114ZM18.8004 91.1505H53.6795C54.2369 91.1579 109.009 91.8937 112.093 91.7472C112.683 91.7191 113.151 91.4975 113.524 91.0695C113.769 90.7894 113.953 90.4442 114.089 90.0733C113.333 86.7597 112.428 79.8964 111.625 65.4942C111.488 63.033 111.367 60.577 111.259 58.1971C111.272 59.3877 111.282 60.5812 111.29 61.7658C111.436 84.686 110.462 85.0605 109.994 85.2405C108.815 85.6939 80.4096 85.7579 25.5652 85.4319C23.459 85.4191 22.1676 85.4115 21.9306 85.4115C21.6858 85.4115 21.4575 85.3098 21.2706 85.1173C20.2211 84.0363 20.2627 79.9668 20.4563 73.393C20.5245 71.0776 20.5949 68.683 20.552 66.7499C20.4075 60.2554 20.2615 39.5333 20.2542 38.4654C20.1817 38.1723 19.8365 36.5788 20.577 35.4891C20.9584 34.9279 21.5518 34.599 22.3409 34.5111C23.9294 34.3345 38.4078 34.5122 51.1814 34.6687C59.5754 34.7716 67.5039 34.8684 68.1044 34.8089C69.5843 34.6609 106.217 34.3756 108.199 34.3602C108.396 34.3235 109.283 34.1907 110.059 34.6155C109.944 34.1836 109.701 33.7952 109.323 33.4384C106.498 30.7692 97.4062 31.0315 93.9834 31.1308C93.5058 31.1446 93.1286 31.1554 92.8811 31.1554C91.479 31.1554 82.541 30.896 75.3591 30.6874C70.2269 30.5385 65.7948 30.4099 65.3058 30.4099C64.9367 30.4099 61.2263 30.3958 56.0913 30.3762C44.8555 30.3332 26.0499 30.261 21.9306 30.261C19.8079 30.261 18.2927 30.7397 17.5483 31.6448C16.8628 32.479 17.0345 33.3975 17.0422 33.4361C17.0466 33.4587 17.0491 33.4833 17.0489 33.5061C17.0444 33.9562 16.6053 78.5922 16.8995 85.509C17.0873 89.9219 17.9318 90.907 18.2862 91.1257C18.4896 91.2515 18.6347 91.1927 18.6508 91.1854C18.6998 91.1594 18.745 91.1505 18.8004 91.1505ZM110.81 35.3124C111.104 35.7641 111.253 36.3559 111.253 37.0805C111.253 38.5133 111.54 51.8981 112.295 65.4569C112.991 77.9512 113.767 84.7553 114.435 88.44C114.516 87.5904 114.46 86.9082 114.459 86.8943C114.458 86.8854 114.457 86.8764 114.457 86.8675C114.454 86.4351 114.159 43.6163 114.159 41.5522C114.159 41.2998 114.161 40.9821 114.164 40.6152C114.181 38.0572 114.218 32.7343 113.585 31.0896C113.512 30.9 112.881 30.2704 107.816 30.1253C104.624 30.0341 100.784 30.1604 97.9808 30.2525C96.5691 30.299 95.4539 30.3357 94.7444 30.3357C93.8727 30.3357 92.0136 30.3491 89.6599 30.3659C89.1531 30.3697 88.6218 30.3733 88.0723 30.3773C90.5046 30.4421 92.3154 30.4848 92.8811 30.4848C93.119 30.4848 93.4919 30.4741 93.9639 30.4605C97.7919 30.3498 106.757 30.0906 109.784 32.9512C110.438 33.5696 110.782 34.3039 110.805 35.1336C110.807 35.1922 110.808 35.2516 110.81 35.3124ZM26.6779 35.109C24.407 35.109 22.8576 35.1289 22.4149 35.1783C21.8215 35.2443 21.4016 35.4694 21.1317 35.8665C20.5026 36.7923 20.9086 38.3188 20.9128 38.334C20.9204 38.3619 20.9245 38.3907 20.9247 38.4198C20.9262 38.636 21.0754 60.107 21.2227 66.7354C21.2661 68.6857 21.1952 71.089 21.127 73.4129C20.9853 78.2325 20.8243 83.6949 21.7519 84.6505C21.8302 84.7309 21.8888 84.7412 21.9308 84.7412C22.168 84.7412 23.4608 84.7488 25.5692 84.7616C96.2657 85.1817 108.732 84.8591 109.727 84.6216C110.053 84.2156 110.753 81.0651 110.616 61.2944C110.544 50.9731 110.271 40.1141 110.145 35.5405C110.085 35.4674 110.018 35.4017 109.945 35.3431C109.285 34.8132 108.316 35.0209 108.307 35.0229C108.284 35.028 108.26 35.0307 108.237 35.031C107.851 35.0341 69.6297 35.3306 68.1713 35.4763C67.5325 35.5398 60.3134 35.4517 51.1731 35.3397C42.5166 35.2337 32.3487 35.109 26.6779 35.109Z" fill="#00B831"/>
</g>
<g filter="url(#filter1_d)">
<path d="M53.2053 79.7535C52.9146 79.7535 52.1757 79.7361 50.4044 79.6268C49.3992 79.5648 48.8387 79.3848 48.5304 79.0246C48.1986 78.6374 48.2455 78.1357 48.2949 77.6044C48.3195 77.3393 48.3477 77.039 48.3347 76.7188C48.3142 76.2017 48.3879 75.8211 48.5167 75.5394C48.5561 75.403 48.622 75.2979 48.722 75.2141C49.0618 74.8161 49.5495 74.741 49.8748 74.6907L49.9416 74.6804C50.0185 74.6681 50.1384 74.6549 50.2895 74.6384C51.0128 74.5592 52.9341 74.3486 53.4318 73.6495C53.4973 73.5574 53.5326 73.4619 53.5395 73.3572C53.5666 72.953 53.5755 72.6333 53.5673 72.3755C53.5246 72.1416 53.4465 71.952 53.3258 71.8557C52.8306 71.459 52.1772 71.2786 51.3305 71.3126C50.5026 71.3434 49.7245 71.3439 49.7169 71.3439C49.5794 71.3439 49.4614 71.2611 49.4095 71.1431C49.3234 71.1478 49.238 71.1532 49.1533 71.1585C48.9697 71.169 48.8087 71.0304 48.7969 70.8455C48.785 70.6606 48.9252 70.5012 49.1099 70.4891C50.59 70.3934 53.1469 70.302 53.6408 70.7637C54.0484 71.1438 54.206 71.6095 54.2362 72.2972C54.3706 73.0813 54.1776 74.0367 53.955 74.4597C53.5999 75.135 51.6026 75.3691 50.7604 75.4386L50.6061 75.4578C49.8475 75.5511 49.3402 75.6134 49.1774 75.7127C49.1636 75.733 49.1508 75.7547 49.1385 75.778C49.122 75.8667 49.1369 76.0456 49.1604 76.2963C49.1843 76.5536 49.2143 76.874 49.2208 77.2856C49.2409 78.6016 49.3684 78.6074 49.9801 78.6358C50.1505 78.6437 50.3434 78.6524 50.5636 78.6832C51.475 78.8096 51.8421 78.8078 52.8232 78.8046C53.0065 78.8037 53.2106 78.8031 53.4427 78.8031C53.9652 78.8031 54.378 78.8031 54.4106 79.1749C54.4424 79.5369 54.0531 79.6321 53.4087 79.7462C53.3973 79.7482 53.3857 79.7495 53.3741 79.7504C53.3616 79.7508 53.316 79.7535 53.2053 79.7535Z" fill="#00B831"/>
</g>
<g filter="url(#filter2_d)">
<path d="M62.8167 55.6331C58.3339 55.6331 54.6868 52.0208 54.6868 47.5805C54.6868 43.1405 58.3339 39.5283 62.8167 39.5283C67.2998 39.5283 70.9471 43.1403 70.9471 47.5805C70.9471 52.0208 67.2998 55.6331 62.8167 55.6331ZM62.8167 40.1993C58.7037 40.1993 55.3575 43.5106 55.3575 47.5807C55.3575 51.651 58.7037 54.9625 62.8167 54.9625C66.93 54.9625 70.2764 51.651 70.2764 47.5807C70.2764 43.5103 66.9298 40.1993 62.8167 40.1993Z" fill="#00B831"/>
</g>
<g filter="url(#filter3_d)">
<path d="M61.9371 55.5007C57.454 55.5007 53.8067 51.8885 53.8067 47.4481C53.8067 43.0077 57.454 39.3955 61.9371 39.3955C66.42 39.3955 70.0671 43.0077 70.0671 47.4481C70.0671 51.8885 66.42 55.5007 61.9371 55.5007ZM61.9371 40.0665C57.8238 40.0665 54.4775 43.378 54.4775 47.4483C54.4775 51.5187 57.8238 54.8302 61.9371 54.8302C66.0501 54.8302 69.3963 51.5187 69.3963 47.4483C69.3963 43.378 66.0501 40.0665 61.9371 40.0665Z" fill="#00B831"/>
</g>
<g filter="url(#filter4_d)">
<path d="M64.1584 69.6819C64.0493 69.6821 63.9266 69.6367 63.8255 69.5099C63.2028 68.7314 63.2125 64.0156 63.2301 62.5889C63.2324 62.4038 63.3848 62.2647 63.5697 62.2578C63.7551 62.2602 63.9033 62.4121 63.9009 62.5974C63.8769 64.5272 63.9456 66.6794 64.0952 67.9686C64.1781 66.5971 64.1864 64.2452 64.1352 61.9897L62.1659 62.5437C61.9883 62.5938 61.8025 62.4901 61.7522 62.3117C61.7019 62.1332 61.8059 61.9481 61.9843 61.8978L64.3691 61.2271C64.4686 61.1991 64.5757 61.2188 64.6588 61.28C64.742 61.3413 64.7923 61.4377 64.795 61.5412C65.0018 69.399 64.5392 69.5679 64.2906 69.6589C64.2512 69.6734 64.2061 69.6819 64.1584 69.6819Z" fill="#00B831"/>
</g>
<g filter="url(#filter5_d)">
<path d="M76.189 79.4176C75.6264 79.4176 75.1902 79.3852 74.8919 79.3217C74.475 79.2332 74.2637 79.0534 74.2637 78.7876C74.2637 78.0102 76.2433 78.0012 76.2634 78.0012C76.5292 78.0012 76.7417 78.0035 76.9154 78.0053C77.6228 78.0122 77.6223 78.0124 78.1196 77.8029L78.2958 77.7289C78.4355 77.6708 78.5527 77.6328 78.647 77.6021C78.8615 77.5326 78.8615 77.5326 78.8921 77.4179C78.9605 77.1617 78.9873 76.5991 79.0363 75.5778L79.0587 75.1159C79.0694 74.8968 79.0821 74.6812 79.0967 74.4704C78.4688 74.747 77.6575 74.7968 76.9342 74.7968C76.4912 74.7968 76.218 74.6938 76.0991 74.4816C76.0193 74.3387 76.0253 74.1654 76.1161 74.0174C76.3725 73.5986 77.3581 73.3379 78.5122 73.3813C78.7575 73.3907 78.9779 73.4283 79.1731 73.4933C79.1843 73.3637 79.1953 73.2371 79.206 73.1139C79.2769 72.3043 79.3455 71.5229 79.312 70.9798C78.59 70.8159 76.5585 70.8575 74.7945 71.0223C74.6096 71.0388 74.4463 70.904 74.4294 70.7196C74.4121 70.5351 74.5476 70.3717 74.7321 70.3544C74.9107 70.3377 75.1216 70.3191 75.3545 70.3008C75.3376 70.2652 75.3266 70.2257 75.3235 70.1841C75.3087 69.9996 75.4464 69.8377 75.6309 69.8232C75.7521 69.8136 78.5985 69.586 78.8214 69.5712C79.1445 69.5495 79.4106 69.6412 79.6073 69.8427C79.7703 70.0092 79.8714 70.2355 79.9291 70.521C79.955 70.5382 79.9785 70.5561 79.999 70.5749C80.1131 70.6789 80.1761 70.8152 80.1761 70.9588C80.1761 71.1415 80.1909 71.344 80.2063 71.5584C80.2537 72.21 80.3074 72.9487 79.9968 73.6315C79.9499 73.735 79.8935 73.8292 79.8289 73.9152C80.3543 74.5111 80.2814 75.4593 80.2173 76.2962C80.196 76.5716 80.1761 76.8319 80.1761 77.0702C80.1761 79.1507 78.0454 79.4176 76.189 79.4176ZM75.5439 78.7283C75.7152 78.7397 75.9271 78.7469 76.189 78.7469C76.739 78.7469 77.1998 78.718 77.585 78.6657C77.4238 78.68 77.2239 78.6796 76.9087 78.6762C76.7367 78.6744 76.5266 78.6722 76.2634 78.6722C75.9888 78.6722 75.7465 78.6952 75.5439 78.7283ZM79.0097 78.1859C78.9618 78.2042 78.91 78.2219 78.8541 78.24C78.77 78.2675 78.6707 78.2995 78.5538 78.348L78.3801 78.4209C78.1165 78.5318 77.9595 78.5962 77.7992 78.6326C78.368 78.5351 78.7521 78.3791 79.0097 78.1859ZM78.1299 74.048C77.8497 74.0541 77.6094 74.0807 77.4093 74.1167C77.6483 74.1064 77.8945 74.0861 78.1299 74.048ZM78.8194 70.2438C78.9091 70.2523 78.9956 70.2621 79.0785 70.2733C79.0365 70.2503 78.9723 70.2342 78.8657 70.2406C78.8556 70.2411 78.84 70.2422 78.8194 70.2438Z" fill="#00B831"/>
</g>
<g filter="url(#filter6_d)">
<path d="M49.5975 83.2162C47.7158 83.2162 46.4698 83.0392 45.6063 82.5835C43.8937 81.68 43.7385 79.7514 43.4816 76.5563C42.9609 70.0838 44.8958 67.0675 45.6213 66.7564C46.1206 66.5425 52.5732 66.3137 55.3134 66.2257C55.0545 62.395 55.1357 61.1505 55.4335 59.9588C55.7628 58.6419 58.246 58.6146 62.0046 58.5737C63.3723 58.559 64.9224 58.5418 66.5291 58.4572C68.4065 58.3584 69.7802 58.7374 70.6099 59.5839C71.7303 60.7264 71.6062 62.4395 71.532 63.4631C71.5163 63.679 71.5029 63.8655 71.5029 64.0088C71.5029 64.2519 71.487 64.4866 71.4716 64.7136C71.4336 65.2748 71.4007 65.7595 71.6386 66.0041C71.6865 66.053 71.746 66.0949 71.8202 66.1313C71.8271 66.1347 71.834 66.1378 71.8412 66.1411C71.9123 66.079 72.0093 66.0466 72.1102 66.062C72.2313 66.0797 72.3279 66.1601 72.3718 66.2657C72.482 66.2764 72.6027 66.2818 72.7333 66.282C73.5878 66.282 76.5935 66.2956 79.3585 66.4689C84.0267 66.7616 84.8178 67.274 84.977 67.7843C85.3273 68.906 86.3151 79.9034 85.6341 81.4356C85.1379 82.5515 81.7708 82.641 77.4205 82.641C77.395 82.6414 77.3706 82.641 77.3454 82.641C76.3583 82.641 75.5082 82.6416 74.9913 82.6772C74.3234 82.7239 73.347 82.6872 71.9955 82.6365C71.1944 82.6067 70.2524 82.5716 69.1595 82.5462C67.1377 82.6776 64.1615 82.6716 61.6366 82.5886C59.8936 82.6483 57.9654 82.7467 55.8389 82.9008C53.21 83.091 51.1791 83.2162 49.5975 83.2162ZM55.3602 66.8953C51.724 67.0127 46.3401 67.2325 45.874 67.3773C45.5755 67.5262 43.6294 70.0304 44.1501 76.5025C44.6561 82.791 44.6762 83.0365 55.7906 82.2316C56.1255 82.2074 56.4548 82.1846 56.7799 82.1629C55.912 81.7366 55.9039 80.2093 55.8887 77.2854C55.8791 75.4261 55.8668 73.1123 55.6298 70.2971C55.5196 68.99 55.4304 67.8672 55.3602 66.8953ZM71.7209 81.955C71.8229 81.959 71.9228 81.9626 72.0207 81.9662C73.3513 82.016 74.3127 82.0516 74.9454 82.0082C75.4972 81.97 76.3869 81.9684 77.4142 81.9702C79.7713 81.9682 84.6626 81.9702 85.0212 81.1633C85.5435 79.9881 84.7261 69.2308 84.3368 67.9846C84.029 67.4768 79.9414 66.9532 72.7326 66.9532C72.588 66.953 72.4545 66.9474 72.3302 66.936C72.1918 68.0827 71.8756 71.1291 71.8756 75.0393C71.8756 76.9521 71.9928 78.2922 72.0784 79.2709C72.2023 80.6875 72.2678 81.4394 71.7209 81.955ZM56.0298 66.8474C56.0993 67.8153 56.1881 68.9357 56.2981 70.241C56.5373 73.0823 56.5496 75.4112 56.5592 77.2821C56.5711 79.5767 56.5807 81.3891 57.1189 81.5794C57.5522 81.7323 59.3002 81.8557 61.4222 81.9253C64.6583 81.8099 67.2662 81.8285 69.3265 81.8792C70.2278 81.8184 70.867 81.7294 71.0692 81.608C71.5633 81.3115 71.5492 80.9236 71.4099 79.3292C71.3234 78.3381 71.2047 76.9812 71.2047 75.0391C71.2047 71.0318 71.5342 67.9182 71.6711 66.7969C71.6199 66.7777 71.5709 66.7564 71.5239 66.7336C71.382 66.6637 71.259 66.576 71.1579 66.4725C70.7108 66.0128 70.7553 65.3597 70.802 64.6684C70.8165 64.4524 70.8317 64.2293 70.8317 64.009C70.8317 63.8411 70.846 63.6435 70.8626 63.4148C70.9328 62.4453 71.0392 60.9802 70.1308 60.0538C69.4415 59.3507 68.2413 59.0388 66.5639 59.1273C64.9432 59.2125 63.3857 59.2295 62.0116 59.2445C59.0679 59.2767 56.2874 59.3071 56.0837 60.1218C55.8069 61.229 55.7324 62.4739 55.9857 66.2219C56.1201 66.2623 56.2196 66.3848 56.2243 66.5326C56.229 66.6713 56.1483 66.7929 56.0298 66.8474Z" fill="#00B831"/>
</g>
<g filter="url(#filter7_d)">
<path d="M62.1869 49.6993C60.8 49.6993 59.6716 48.4832 59.6716 46.9883C59.6716 45.4934 60.8 44.2773 62.1869 44.2773C63.5738 44.2773 64.7022 45.4934 64.7022 46.9883C64.7022 48.4832 63.5738 49.6993 62.1869 49.6993ZM62.1869 44.9481C61.1698 44.9481 60.3423 45.8634 60.3423 46.9883C60.3423 48.1131 61.1698 49.0285 62.1869 49.0285C63.204 49.0285 64.0315 48.1131 64.0315 46.9883C64.0315 45.8634 63.204 44.9481 62.1869 44.9481Z" fill="#00B831"/>
</g>
<g filter="url(#filter8_d)">
<path d="M61.6838 42.9985C60.2969 42.9985 59.1685 42.143 59.1685 41.0915C59.1685 40.04 60.2969 39.1846 61.6838 39.1846C63.0707 39.1846 64.1991 40.04 64.1991 41.0915C64.1991 42.143 63.0707 42.9985 61.6838 42.9985ZM61.6838 39.8553C60.6839 39.8553 59.8392 40.4214 59.8392 41.0915C59.8392 41.7616 60.6839 42.3277 61.6838 42.3277C62.6836 42.3277 63.5283 41.7616 63.5283 41.0915C63.5283 40.4214 62.6836 39.8553 61.6838 39.8553Z" fill="#00B831"/>
</g>
<g filter="url(#filter9_d)">
<path d="M59.7509 54.7598C59.2977 54.7598 58.8257 54.646 58.3861 54.4309C57.1403 53.821 56.5029 52.5566 56.965 51.6124C57.2519 51.0264 57.8998 50.6763 58.6978 50.6763C59.151 50.6763 59.623 50.7901 60.0626 51.0052C61.3082 51.6149 61.9456 52.8792 61.4837 53.8237C61.1968 54.4097 60.5489 54.7598 59.7509 54.7598ZM58.698 51.347C58.1619 51.347 57.7393 51.5565 57.5676 51.9071C57.2731 52.509 57.7829 53.3888 58.6811 53.8284C59.0294 53.9989 59.3992 54.0891 59.7509 54.0891C60.2871 54.0891 60.7096 53.8796 60.8813 53.529C61.1756 52.9271 60.6658 52.0471 59.7679 51.6077C59.4195 51.4371 59.0495 51.347 58.698 51.347Z" fill="#00B831"/>
</g>
<g filter="url(#filter10_d)">
<path d="M65.4268 54.7917C64.6919 54.7917 64.0983 54.487 63.7978 53.9551C63.5369 53.4936 63.5355 52.9299 63.7942 52.3683C64.0359 51.844 64.4817 51.3785 65.0494 51.0577C65.5285 50.7869 66.0468 50.6438 66.5488 50.6438C67.2835 50.6438 67.8771 50.9485 68.1776 51.48C68.6947 52.3956 68.1333 53.6955 66.9259 54.3781C66.447 54.6491 65.9285 54.7917 65.4268 54.7917ZM66.5488 51.3146C66.1678 51.3146 65.7526 51.4308 65.3796 51.6414C64.9334 51.8936 64.5868 52.2516 64.4037 52.6491C64.2376 53.0095 64.23 53.3561 64.382 53.6251C64.56 53.9403 64.941 54.121 65.427 54.121C65.8078 54.121 66.2232 54.0049 66.5962 53.7943C67.4666 53.3022 67.9236 52.3936 67.5938 51.8102C67.4156 51.4954 67.0348 51.3146 66.5488 51.3146Z" fill="#00B831"/>
</g>
<g filter="url(#filter11_d)">
<path d="M68.5393 47.9232C67.7116 47.9232 66.8486 47.284 66.3923 46.3324C65.7926 45.0819 66.0761 43.6946 67.0241 43.2396C67.2287 43.1417 67.4505 43.092 67.6839 43.092C68.5121 43.092 69.3749 43.7313 69.8312 44.6831C70.1134 45.2711 70.2126 45.9079 70.1107 46.4762C70.0016 47.085 69.6781 47.5463 69.1996 47.7757C68.995 47.8734 68.773 47.9232 68.5393 47.9232ZM67.6837 43.7626C67.5516 43.7626 67.4272 43.7901 67.3141 43.8442C66.71 44.1342 66.5647 45.1407 66.9971 46.0422C67.3389 46.7548 67.973 47.2523 68.5393 47.2523C68.6717 47.2523 68.7962 47.2248 68.9094 47.1704C69.1882 47.0367 69.3802 46.7481 69.4502 46.3575C69.5274 45.9266 69.448 45.435 69.2262 44.9728C68.8846 44.2603 68.2503 43.7626 67.6837 43.7626Z" fill="#00B831"/>
</g>
<g filter="url(#filter12_d)">
<path d="M55.6417 47.7019C55.3369 47.7019 55.0579 47.6238 54.8124 47.4698C53.9219 46.9106 53.7973 45.5 54.5349 44.3253C55.0572 43.4938 55.8708 42.9775 56.6583 42.9775C56.9633 42.9775 57.2423 43.0556 57.4876 43.2096C57.9368 43.4916 58.206 43.9866 58.2455 44.6037C58.2824 45.1798 58.1116 45.8012 57.7648 46.3537C57.2425 47.1854 56.4291 47.7019 55.6417 47.7019ZM56.6581 43.6481C56.1078 43.6481 55.4975 44.0536 55.1028 44.6819C54.5714 45.5289 54.6016 46.5453 55.169 46.9017C55.3059 46.9877 55.4648 47.0311 55.6415 47.0311C56.1917 47.0311 56.8021 46.6253 57.1965 45.9968C57.469 45.5628 57.6038 45.0833 57.5759 44.6464C57.5506 44.2504 57.3926 43.9419 57.1307 43.7775C56.9939 43.6917 56.8349 43.6481 56.6581 43.6481Z" fill="#00B831"/>
</g>
</g>
<defs>
<filter id="filter0_d" x="-4" y="-27.7717" width="136" height="209.449" filterUnits="userSpaceOnUse" color-interpolation-filters="sRGB">
<feFlood flood-opacity="0" result="BackgroundImageFix"/>
<feColorMatrix in="SourceAlpha" type="matrix" values="0 0 0 0 0 0 0 0 0 0 0 0 0 0 0 0 0 0 127 0"/>
<feOffset/>
<feGaussianBlur stdDeviation="2"/>
<feColorMatrix type="matrix" values="0 0 0 0 0 0 0 0 0 0.8 0 0 0 0 0.213333 0 0 0 0.4 0"/>
<feBlend mode="normal" in2="BackgroundImageFix" result="effect1_dropShadow"/>
<feBlend mode="normal" in="SourceGraphic" in2="effect1_dropShadow" result="shape"/>
</filter>
<filter id="filter1_d" x="44.2601" y="66.4114" width="14.1524" height="17.3422" filterUnits="userSpaceOnUse" color-interpolation-filters="sRGB">
<feFlood flood-opacity="0" result="BackgroundImageFix"/>
<feColorMatrix in="SourceAlpha" type="matrix" values="0 0 0 0 0 0 0 0 0 0 0 0 0 0 0 0 0 0 127 0"/>
<feOffset/>
<feGaussianBlur stdDeviation="2"/>
<feColorMatrix type="matrix" values="0 0 0 0 0 0 0 0 0 0.8 0 0 0 0 0.213333 0 0 0 0.4 0"/>
<feBlend mode="normal" in2="BackgroundImageFix" result="effect1_dropShadow"/>
<feBlend mode="normal" in="SourceGraphic" in2="effect1_dropShadow" result="shape"/>
</filter>
<filter id="filter2_d" x="50.6868" y="35.5283" width="24.2604" height="24.1047" filterUnits="userSpaceOnUse" color-interpolation-filters="sRGB">
<feFlood flood-opacity="0" result="BackgroundImageFix"/>
<feColorMatrix in="SourceAlpha" type="matrix" values="0 0 0 0 0 0 0 0 0 0 0 0 0 0 0 0 0 0 127 0"/>
<feOffset/>
<feGaussianBlur stdDeviation="2"/>
<feColorMatrix type="matrix" values="0 0 0 0 0 0 0 0 0 0.8 0 0 0 0 0.213333 0 0 0 0.4 0"/>
<feBlend mode="normal" in2="BackgroundImageFix" result="effect1_dropShadow"/>
<feBlend mode="normal" in="SourceGraphic" in2="effect1_dropShadow" result="shape"/>
</filter>
<filter id="filter3_d" x="49.8067" y="35.3955" width="24.2604" height="24.1052" filterUnits="userSpaceOnUse" color-interpolation-filters="sRGB">
<feFlood flood-opacity="0" result="BackgroundImageFix"/>
<feColorMatrix in="SourceAlpha" type="matrix" values="0 0 0 0 0 0 0 0 0 0 0 0 0 0 0 0 0 0 127 0"/>
<feOffset/>
<feGaussianBlur stdDeviation="2"/>
<feColorMatrix type="matrix" values="0 0 0 0 0 0 0 0 0 0.8 0 0 0 0 0.213333 0 0 0 0.4 0"/>
<feBlend mode="normal" in2="BackgroundImageFix" result="effect1_dropShadow"/>
<feBlend mode="normal" in="SourceGraphic" in2="effect1_dropShadow" result="shape"/>
</filter>
<filter id="filter4_d" x="57.7396" y="57.2146" width="11.1072" height="16.4673" filterUnits="userSpaceOnUse" color-interpolation-filters="sRGB">
<feFlood flood-opacity="0" result="BackgroundImageFix"/>
<feColorMatrix in="SourceAlpha" type="matrix" values="0 0 0 0 0 0 0 0 0 0 0 0 0 0 0 0 0 0 127 0"/>
<feOffset/>
<feGaussianBlur stdDeviation="2"/>
<feColorMatrix type="matrix" values="0 0 0 0 0 0 0 0 0 0.8 0 0 0 0 0.213333 0 0 0 0.4 0"/>
<feBlend mode="normal" in2="BackgroundImageFix" result="effect1_dropShadow"/>
<feBlend mode="normal" in="SourceGraphic" in2="effect1_dropShadow" result="shape"/>
</filter>
<filter id="filter5_d" x="70.2637" y="65.5681" width="13.9982" height="17.8495" filterUnits="userSpaceOnUse" color-interpolation-filters="sRGB">
<feFlood flood-opacity="0" result="BackgroundImageFix"/>
<feColorMatrix in="SourceAlpha" type="matrix" values="0 0 0 0 0 0 0 0 0 0 0 0 0 0 0 0 0 0 127 0"/>
<feOffset/>
<feGaussianBlur stdDeviation="2"/>
<feColorMatrix type="matrix" values="0 0 0 0 0 0 0 0 0 0.8 0 0 0 0 0.213333 0 0 0 0.4 0"/>
<feBlend mode="normal" in2="BackgroundImageFix" result="effect1_dropShadow"/>
<feBlend mode="normal" in="SourceGraphic" in2="effect1_dropShadow" result="shape"/>
</filter>
<filter id="filter6_d" x="39.3938" y="54.4419" width="50.4742" height="32.7743" filterUnits="userSpaceOnUse" color-interpolation-filters="sRGB">
<feFlood flood-opacity="0" result="BackgroundImageFix"/>
<feColorMatrix in="SourceAlpha" type="matrix" values="0 0 0 0 0 0 0 0 0 0 0 0 0 0 0 0 0 0 127 0"/>
<feOffset/>
<feGaussianBlur stdDeviation="2"/>
<feColorMatrix type="matrix" values="0 0 0 0 0 0 0 0 0 0.8 0 0 0 0 0.213333 0 0 0 0.4 0"/>
<feBlend mode="normal" in2="BackgroundImageFix" result="effect1_dropShadow"/>
<feBlend mode="normal" in="SourceGraphic" in2="effect1_dropShadow" result="shape"/>
</filter>
<filter id="filter7_d" x="55.6716" y="40.2773" width="13.0306" height="13.4219" filterUnits="userSpaceOnUse" color-interpolation-filters="sRGB">
<feFlood flood-opacity="0" result="BackgroundImageFix"/>
<feColorMatrix in="SourceAlpha" type="matrix" values="0 0 0 0 0 0 0 0 0 0 0 0 0 0 0 0 0 0 127 0"/>
<feOffset/>
<feGaussianBlur stdDeviation="2"/>
<feColorMatrix type="matrix" values="0 0 0 0 0 0 0 0 0 0.8 0 0 0 0 0.213333 0 0 0 0.4 0"/>
<feBlend mode="normal" in2="BackgroundImageFix" result="effect1_dropShadow"/>
<feBlend mode="normal" in="SourceGraphic" in2="effect1_dropShadow" result="shape"/>
</filter>
<filter id="filter8_d" x="55.1685" y="35.1846" width="13.0306" height="11.8139" filterUnits="userSpaceOnUse" color-interpolation-filters="sRGB">
<feFlood flood-opacity="0" result="BackgroundImageFix"/>
<feColorMatrix in="SourceAlpha" type="matrix" values="0 0 0 0 0 0 0 0 0 0 0 0 0 0 0 0 0 0 127 0"/>
<feOffset/>
<feGaussianBlur stdDeviation="2"/>
<feColorMatrix type="matrix" values="0 0 0 0 0 0 0 0 0 0.8 0 0 0 0 0.213333 0 0 0 0.4 0"/>
<feBlend mode="normal" in2="BackgroundImageFix" result="effect1_dropShadow"/>
<feBlend mode="normal" in="SourceGraphic" in2="effect1_dropShadow" result="shape"/>
</filter>
<filter id="filter9_d" x="52.8145" y="46.6763" width="12.8197" height="12.0835" filterUnits="userSpaceOnUse" color-interpolation-filters="sRGB">
<feFlood flood-opacity="0" result="BackgroundImageFix"/>
<feColorMatrix in="SourceAlpha" type="matrix" values="0 0 0 0 0 0 0 0 0 0 0 0 0 0 0 0 0 0 127 0"/>
<feOffset/>
<feGaussianBlur stdDeviation="2"/>
<feColorMatrix type="matrix" values="0 0 0 0 0 0 0 0 0 0.8 0 0 0 0 0.213333 0 0 0 0.4 0"/>
<feBlend mode="normal" in2="BackgroundImageFix" result="effect1_dropShadow"/>
<feBlend mode="normal" in="SourceGraphic" in2="effect1_dropShadow" result="shape"/>
</filter>
<filter id="filter10_d" x="59.6011" y="46.6438" width="12.7688" height="12.1479" filterUnits="userSpaceOnUse" color-interpolation-filters="sRGB">
<feFlood flood-opacity="0" result="BackgroundImageFix"/>
<feColorMatrix in="SourceAlpha" type="matrix" values="0 0 0 0 0 0 0 0 0 0 0 0 0 0 0 0 0 0 127 0"/>
<feOffset/>
<feGaussianBlur stdDeviation="2"/>
<feColorMatrix type="matrix" values="0 0 0 0 0 0 0 0 0 0.8 0 0 0 0 0.213333 0 0 0 0.4 0"/>
<feBlend mode="normal" in2="BackgroundImageFix" result="effect1_dropShadow"/>
<feBlend mode="normal" in="SourceGraphic" in2="effect1_dropShadow" result="shape"/>
</filter>
<filter id="filter11_d" x="62.0778" y="39.092" width="12.072" height="12.8312" filterUnits="userSpaceOnUse" color-interpolation-filters="sRGB">
<feFlood flood-opacity="0" result="BackgroundImageFix"/>
<feColorMatrix in="SourceAlpha" type="matrix" values="0 0 0 0 0 0 0 0 0 0 0 0 0 0 0 0 0 0 127 0"/>
<feOffset/>
<feGaussianBlur stdDeviation="2"/>
<feColorMatrix type="matrix" values="0 0 0 0 0 0 0 0 0 0.8 0 0 0 0 0.213333 0 0 0 0.4 0"/>
<feBlend mode="normal" in2="BackgroundImageFix" result="effect1_dropShadow"/>
<feBlend mode="normal" in="SourceGraphic" in2="effect1_dropShadow" result="shape"/>
</filter>
<filter id="filter12_d" x="50.0538" y="38.9775" width="12.1966" height="12.7243" filterUnits="userSpaceOnUse" color-interpolation-filters="sRGB">
<feFlood flood-opacity="0" result="BackgroundImageFix"/>
<feColorMatrix in="SourceAlpha" type="matrix" values="0 0 0 0 0 0 0 0 0 0 0 0 0 0 0 0 0 0 127 0"/>
<feOffset/>
<feGaussianBlur stdDeviation="2"/>
<feColorMatrix type="matrix" values="0 0 0 0 0 0 0 0 0 0.8 0 0 0 0 0.213333 0 0 0 0.4 0"/>
<feBlend mode="normal" in2="BackgroundImageFix" result="effect1_dropShadow"/>
<feBlend mode="normal" in="SourceGraphic" in2="effect1_dropShadow" result="shape"/>
</filter>
</defs>
</svg>
