<svg width="131" height="128" viewBox="0 0 131 128" fill="none" xmlns="http://www.w3.org/2000/svg">
<mask id="mask0" mask-type="alpha" maskUnits="userSpaceOnUse" x="0" y="0" width="131" height="128">
<rect width="130.783" height="128" rx="1" fill="#D7D9E0"/>
</mask>
<g mask="url(#mask0)">
<path d="M125 59.8091C125 82.5371 104.797 97.3975 74.4639 105.7C42.1443 114.547 11 105.206 11 82.4781C11 59.7501 30.3975 20 63.299 20C96.2004 20 125 37.081 125 59.8091Z" fill="#EBFFF0"/>
<g filter="url(#filter0_d)">
<path fill-rule="evenodd" clip-rule="evenodd" d="M66.0054 197.422C66.0062 197.644 66.1861 197.823 66.4076 197.823C66.4081 197.823 66.4084 197.823 66.4089 197.823C66.6309 197.823 66.8103 197.642 66.8097 197.42C66.8079 196.795 66.6019 134.878 66.3837 129.964C66.1941 125.702 65.9826 111.379 67.017 105.389C67.1899 104.388 67.8827 103.571 68.9193 102.906C74.5272 102.474 92.434 102.524 105.558 102.562C109.839 102.574 113.537 102.585 115.989 102.575C119.294 102.562 121.368 101.966 122.519 100.698C123.866 99.2127 123.67 97.1112 123.462 94.8863L123.462 94.885L123.461 94.8833C123.362 93.8231 123.26 92.7269 123.327 91.6738C123.646 86.6635 123.959 67.7253 123.999 63.6386C124.038 59.5327 123.016 39.5547 122.279 33.0068C121.504 26.1344 105.867 26.8272 105.225 26.8594C104.22 26.8505 101.253 26.9248 97.495 27.0197C89.1898 27.2297 76.6387 27.5463 72.7129 27.2637C68.8346 26.9838 68.4605 5.64112 69.1341 -7.7264L74.0773 -57.194C74.0996 -57.4152 73.9382 -57.612 73.7173 -57.6343C73.4944 -57.6573 73.299 -57.4951 73.277 -57.2742L68.3321 -7.78699L68.332 -7.78516C68.3237 -7.61623 67.8942 1.12626 68.1632 9.80659C68.3225 14.9408 68.6914 19.0532 69.2601 22.0298C70.0151 25.981 71.1256 27.9552 72.6552 28.0657C76.6205 28.3514 89.1907 28.0339 97.5109 27.8236H97.5114H97.5116L97.5153 27.8235L97.7955 27.8165H97.7957H97.7958H97.796H97.7963L97.7968 27.8165L97.8032 27.8163C101.417 27.7251 104.251 27.6535 105.241 27.6629C105.396 27.6546 120.789 26.9696 121.48 33.0966C122.215 39.6253 123.234 59.5389 123.195 63.6306C123.156 67.5693 122.837 86.7126 122.524 91.6221C122.453 92.739 122.559 93.8677 122.661 94.9592L122.661 94.9593C122.852 97.0032 123.033 98.9339 121.923 100.157C120.949 101.231 119.007 101.759 115.986 101.771C113.582 101.78 109.978 101.77 105.8 101.758L105.786 101.758L105.56 101.757C93.6657 101.723 77.8465 101.678 70.7709 101.993C73.1456 101.077 76.3116 100.578 79.3011 100.31C91.8948 100.344 109.576 100.503 116.387 100.568L116.538 100.57C117.25 100.574 117.881 100.318 118.389 99.8018C120.241 97.918 120.109 92.9189 120.029 89.9318L120.029 89.9166L120.029 89.9142L120.029 89.9126C120.014 89.3647 120.002 88.8912 120.005 88.5371C120.032 85.7605 120.44 71.2419 120.609 67.5092C120.707 65.3502 120.259 57.326 119.826 49.5655L119.826 49.5641L119.825 49.5523L119.825 49.5507C119.505 43.8132 119.203 38.3958 119.167 36.0995C119.085 30.7573 114.143 30.5575 110.873 30.4253L110.773 30.4212L110.772 30.4212L110.771 30.4212C110.547 30.412 110.33 30.4031 110.122 30.3924C108.673 30.3177 104.072 30.4525 98.7386 30.6087L98.7381 30.6087L98.7101 30.6096L98.6349 30.6117C92.0032 30.8059 84.5082 31.0252 80.7486 30.9147C76.4491 30.7892 73.6942 29.6972 71.6825 28.8995C70.477 28.4214 69.5247 28.0442 68.5919 27.9831C67.5774 27.9166 61.637 27.9871 54.1163 28.0764L54.101 28.0766C43.3762 28.2033 30.036 28.361 23.5257 28.2204C12.8316 27.989 12.3133 28.7443 11.625 32.3491L11.5526 32.7247C10.7968 36.5988 9.65545 52.0088 8.83125 64.254C8.64522 67.016 8.48462 69.3356 8.34366 71.3715L8.34361 71.3722L8.34114 71.4079L8.34071 71.4141C7.77903 79.5233 7.5225 83.227 7.21692 92.6739C7.06248 97.4595 7.63036 100.232 9.05915 101.664C10.5748 103.184 12.9018 103.114 15.8476 103.026C16.7362 103 17.6542 102.973 18.6478 102.982C19.4594 102.99 20.6118 103.002 22.0301 103.018L22.053 103.018C32.5209 103.133 59.351 103.429 67.5208 103.001C66.8317 103.64 66.3741 104.384 66.2244 105.252C65.1788 111.306 65.3898 125.716 65.5802 130C65.7946 134.829 65.9975 195.089 66.0052 197.361L66.0054 197.422ZM18.6556 102.178C18.5154 102.176 18.3768 102.176 18.2395 102.176C17.4045 102.176 16.6232 102.199 15.8636 102.221L15.823 102.222C12.9646 102.308 10.8982 102.37 9.6281 101.096C8.36929 99.8345 7.87354 97.245 8.02047 92.7002C8.3254 83.2714 8.58159 79.5718 9.14205 71.4783L9.14308 71.4634C9.28491 69.4182 9.44632 67.0866 9.63346 64.3079C10.4563 52.0855 11.5939 36.7116 12.342 32.8786L12.4149 32.4998L12.415 32.4994C12.9997 29.4376 13.1213 28.8008 23.5083 29.0244C30.0342 29.1655 43.3926 29.0075 54.1256 28.8805C61.6294 28.7914 67.5562 28.7217 68.5394 28.7855C69.3459 28.8384 70.2462 29.1952 71.386 29.647L71.3878 29.6477C73.2802 30.3978 75.8127 31.4017 79.6338 31.6651C75.6396 31.8088 72.6316 31.9091 71.6149 31.8997C67.5074 31.8614 37.8748 32.5126 30.4348 32.7116C28.9344 32.7518 27.7166 33.2787 26.8155 34.2779C24.3579 37.0023 24.7874 42.6259 25.0716 46.3477L25.0717 46.3488C25.1564 47.4562 25.2293 48.4123 25.1993 49C25.0408 52.0882 24.0828 59.7333 23.4319 62.3557C23.2396 62.3504 23.0439 62.3619 22.8503 62.3734L22.85 62.3734L22.8455 62.3737C22.654 62.3849 22.4567 62.3951 22.2548 62.3949C22.1309 62.3959 22.0224 62.4117 21.9207 62.4466C21.6725 62.0265 21.4127 61.4712 21.1748 60.776C20.8064 59.7003 20.086 58.9289 19.0913 58.5452C17.7338 58.0221 15.9886 58.2852 14.1767 59.2866C12.7283 60.0869 12.0948 61.8873 12.5629 63.8735C13.042 65.9059 14.6698 68.0047 17.2265 68.1119C20.1254 68.2328 20.9534 65.9919 21.4993 64.509C21.606 64.2186 21.7143 63.9242 21.8256 63.688C22.1328 64.018 22.4784 64.2441 22.853 64.258C23.1779 64.2733 23.634 64.1264 23.9574 63.3711L23.9617 63.3609L23.9663 63.35L23.9697 63.3416C24.2461 63.6314 24.3805 64.4023 24.3687 65.6334C24.3547 67.1218 24.1696 71.1002 23.9553 75.7076L23.955 75.7144C23.667 81.8996 23.341 88.9103 23.3072 92.4363C23.2469 98.7186 23.2326 100.211 26.0479 100.239L26.0803 100.239C31.633 100.292 59.6931 100.547 66.8167 100.361C68.2115 100.325 70.6682 100.308 73.7862 100.305C71.8423 100.73 70.0714 101.315 68.7279 102.114L68.6833 102.118L68.6252 102.123C62.3182 102.656 33.0767 102.335 22.0517 102.214L22.0393 102.214C20.6204 102.198 19.4675 102.186 18.6556 102.178ZM116.546 99.7656L116.517 99.7653C116.863 99.7168 117.103 99.664 117.243 99.6055C117.894 99.3339 118.555 98.0118 118.982 90.2474C119.253 85.3318 119.348 79.2892 119.423 74.4341L119.426 74.2808L119.426 74.277C119.458 72.2581 119.485 70.5113 119.522 69.0997C119.634 64.7176 118.729 55.0881 117.781 47.4889C117.252 43.2414 116.679 39.3529 116.169 36.5398C115.636 33.5966 115.265 32.3075 115.004 31.7145C116.869 32.2448 118.322 33.4114 118.363 36.1121C118.399 38.4241 118.702 43.8469 119.022 49.591L119.023 49.6091V49.6093L119.023 49.6099C119.435 56.9899 119.902 65.3547 119.806 67.4727C119.636 71.2103 119.228 85.7489 119.201 88.5293C119.197 88.9023 119.21 89.3895 119.225 89.9536L119.225 89.9556C119.296 92.6276 119.428 97.5985 117.816 99.2379C117.467 99.5929 117.058 99.7656 116.566 99.7656H116.546ZM24.5062 62.7407C24.4142 62.6533 24.3164 62.5847 24.2137 62.5313C24.9191 59.659 25.8556 51.9101 26.0026 49.0418C26.0354 48.4061 25.9647 47.4789 25.8752 46.306L25.8739 46.2882L25.8738 46.2869C25.6 42.7019 25.1864 37.2854 27.4129 34.8171C28.1716 33.9763 29.1671 33.5505 30.4565 33.5162C37.893 33.3173 67.5192 32.6644 71.6072 32.7046C72.878 32.7167 77.1698 32.5609 82.6048 32.3633L82.639 32.3621C93.9247 31.9517 112.732 31.2678 114.159 31.8424C115.383 33.2623 118.944 60.2732 118.717 69.0793C118.68 70.5311 118.652 72.3342 118.619 74.4218L118.619 74.4268V74.427C118.544 79.2115 118.451 85.1649 118.189 90.0318C117.773 97.7496 117.117 98.7459 116.933 98.8636C116.184 99.176 110.631 99.4937 88.4259 99.2304C88.1038 99.2266 87.8207 99.2232 87.5815 99.2205L87.2914 99.2173L87.0572 99.2149C85.0752 99.1966 82.205 99.2355 79.223 99.506C73.5607 99.4902 68.9324 99.5012 66.7958 99.5567C59.6856 99.7431 31.6384 99.4875 26.0881 99.4345L26.0556 99.4342C24.1099 99.4154 24.0512 98.725 24.1118 92.4441C24.1453 88.9328 24.4711 81.9299 24.7585 75.7514L24.7594 75.7327L24.7594 75.7322L24.7594 75.7314C24.9738 71.1216 25.1588 67.1426 25.1733 65.6412C25.1886 64.0674 24.9891 63.2 24.5062 62.7407ZM14.566 59.9907C15.6497 59.3917 16.6892 59.0852 17.599 59.0852C18.0328 59.0852 18.4371 59.1549 18.802 59.296C19.5677 59.5912 20.1252 60.1933 20.4139 61.0368C20.5456 61.4213 20.8574 62.2568 21.3014 62.9807C21.08 63.3193 20.9146 63.7688 20.7446 64.2307L20.7445 64.2309L20.7414 64.2394C20.1949 65.7254 19.5773 67.405 17.2603 67.3081C15.1245 67.2186 13.7555 65.4259 13.3461 63.6891C13.0412 62.3954 13.2016 60.7446 14.566 59.9907ZM22.8836 63.4542C22.7835 63.4504 22.6414 63.3657 22.4741 63.1973C22.6159 63.1934 22.7519 63.1853 22.8851 63.1775L22.8937 63.1769C22.9924 63.1711 23.0836 63.1662 23.1678 63.1627C23.072 63.3504 22.957 63.4577 22.8836 63.4542ZM47.3876 59.45C47.3876 59.5636 47.3901 59.6766 47.3951 59.789C47.3314 59.4168 47.2983 59.0348 47.2983 58.6453C47.2983 54.8016 50.5256 51.6743 54.4927 51.6743C54.6398 51.6743 54.7858 51.6786 54.9307 51.6871C50.7313 51.9174 47.3876 55.3112 47.3876 59.45ZM46.4939 58.6453C46.4939 61.1091 47.6789 63.3089 49.524 64.7344C49.9549 65.1858 50.4402 65.5875 50.9696 65.9296C51.0083 66.297 51.2564 68.9101 50.6471 70.1281C50.0039 71.4145 49.0223 72.0138 47.5364 72.9208L47.401 73.0037C47.0241 73.234 46.5709 73.434 46.1328 73.6273L46.1325 73.6275C45.1513 74.0604 44.2246 74.4693 44.0565 75.2534C43.9573 75.7168 44.145 76.2042 44.6308 76.7439C45.939 78.1974 48.3764 80.0522 54.5997 80.0522C55.1644 80.0522 55.7612 80.0367 56.3902 80.0053C60.1039 79.8149 63.435 78.8041 65.5279 77.6148C66.702 77.1024 67.1412 76.6686 67.3562 76.2685C67.3916 76.2029 67.4203 76.138 67.4433 76.0733C67.5602 75.9152 67.6503 75.7589 67.712 75.6052C67.9158 75.0987 67.8321 74.6113 67.4766 74.2335C66.3298 73.0151 64.5633 72.7476 63.273 72.5521L63.2714 72.5519C62.8317 72.4854 62.4167 72.4224 62.1108 72.335C61.0294 72.0261 60.5484 70.1898 60.2506 68.6248C60.0203 67.4155 59.8636 66.4607 59.7824 65.9429C61.9513 64.5507 63.385 62.16 63.385 59.45C63.385 56.9861 62.2 54.7862 60.3549 53.3606C58.8931 51.8295 56.806 50.8699 54.4927 50.8699C50.0821 50.8699 46.4939 54.3579 46.4939 58.6453ZM58.1263 66.7552C58.0143 67.5175 58.1344 68.5052 58.4861 69.7066C59.5784 73.4394 60.1632 73.8531 60.9959 74.0914C61.2198 74.1555 61.5957 74.1418 62.3558 74.1086C63.5867 74.0539 66.1486 73.941 66.4358 74.7062L66.4508 74.7458L66.4746 74.8072L66.4932 74.8542L66.5248 74.9333C66.661 75.2733 66.7465 75.5052 66.7082 75.7168C66.3964 76.094 65.8631 76.5058 65.1485 76.9104C63.598 77.5761 60.8721 78.3025 56.8447 79.1315C56.7994 79.1406 56.7575 79.1572 56.72 79.1795C56.5969 79.1878 56.4733 79.1953 56.3492 79.2015C49.1304 79.5704 46.5457 77.6692 45.2288 76.2058C45.0247 75.9792 44.7925 75.6594 44.8432 75.4224C44.9252 75.0396 45.7386 74.6808 46.4567 74.3639L46.4575 74.3636L46.4684 74.3588C46.9273 74.156 47.4011 73.9465 47.8204 73.6903L47.9555 73.6075C49.5025 72.6632 50.6203 71.9808 51.3668 70.4879C51.929 69.3634 51.8851 67.4039 51.818 66.4077C52.8928 66.9307 54.1048 67.2251 55.3863 67.2251C56.3483 67.2251 57.2712 67.0592 58.1263 66.7552ZM59.4578 65.1944C59.3847 65.1675 59.3046 65.1621 59.2269 65.1805C59.182 65.1912 58.8088 65.2906 58.5013 65.733C57.5583 66.1737 56.5015 66.4208 55.3863 66.4208C55.2392 66.4208 55.0931 66.4165 54.9482 66.408C59.1476 66.1777 62.4914 62.7839 62.4914 58.6453C62.4914 58.5317 62.4889 58.4187 62.4839 58.3063C62.5476 58.6785 62.5807 59.0606 62.5807 59.45C62.5807 61.8306 61.3427 63.9363 59.4578 65.1944ZM61.6871 58.6453C61.6871 56.8433 60.9777 55.1988 59.8154 53.9601C58.5935 53.0325 57.0554 52.479 55.3863 52.479C51.4192 52.479 48.1919 55.6063 48.1919 59.45C48.1919 61.2519 48.9012 62.8963 50.0634 64.1349C51.2854 65.0625 52.8235 65.6161 54.4927 65.6161C58.4597 65.6161 61.6871 62.4891 61.6871 58.6453ZM59.258 69.4803C58.7537 67.7574 58.8526 66.8651 59.0424 66.4115C59.1322 66.9665 59.2719 67.7872 59.4601 68.7747C59.8226 70.678 60.3948 72.6809 61.8898 73.108C62.1435 73.1804 62.4403 73.2351 62.7588 73.286C62.6097 73.2919 62.4631 73.2986 62.3207 73.3048L62.2959 73.3059L62.2953 73.3059C61.8629 73.3247 61.3376 73.3476 61.2171 73.3176L61.2169 73.3176C60.7893 73.1951 60.3048 73.0563 59.258 69.4803ZM56.772 83.2597C56.5932 83.2597 56.4151 83.2572 56.2375 83.2523C62.4538 83.0863 68.1197 80.0482 71.5876 75.0256C71.6955 75.1814 71.8058 75.3355 71.9184 75.4879C68.493 80.3677 62.8845 83.2597 56.772 83.2597ZM56.772 84.0638C63.0637 84.0638 68.8451 81.1243 72.4327 76.1521C73.5527 77.5338 74.87 78.7581 76.3428 79.7845C79.6568 82.4557 83.9105 84.0635 88.5436 84.0635C99.093 84.0635 107.676 75.728 107.676 65.4822C107.676 59.2647 104.515 53.7506 99.6722 50.3759C96.3582 47.7046 92.1044 46.0968 87.4711 46.0968C81.0077 46.0968 75.2824 49.226 71.8171 54.0065C70.6815 52.5979 69.3608 51.373 67.899 50.3554C64.5215 47.6303 60.2437 46.0971 55.6995 46.0971C45.1499 46.0971 36.5672 54.4326 36.5672 64.6781C36.5672 70.8958 39.7279 76.41 44.5708 79.7847C47.8849 82.456 52.1387 84.0638 56.772 84.0638ZM87.9972 46.9086C87.8225 46.9038 87.6471 46.9014 87.4711 46.9014C81.1881 46.9014 75.6332 49.9841 72.3298 54.672C72.4419 54.8244 72.5519 54.9787 72.6599 55.135C76.0033 50.3095 81.6142 47.0833 87.9972 46.9086ZM71.279 59.5134C73.8131 52.6384 80.5958 47.7057 88.5436 47.7057C92.5107 47.7057 96.1874 48.9346 99.1905 51.0204C103.226 54.2838 105.799 59.195 105.799 64.6781C105.799 74.4805 97.577 82.4551 87.4711 82.4551C83.5043 82.4551 79.8277 81.2263 76.8247 79.1405C74.369 77.1547 72.4551 74.559 71.3328 71.5955C70.6106 69.6885 70.2162 67.6293 70.2162 65.4825C70.2162 65.1053 70.2284 64.7308 70.2524 64.3594C70.3602 62.6991 70.7068 61.069 71.279 59.5134ZM88.008 83.2519C98.3101 82.9749 106.603 74.7493 106.603 64.6778C106.603 63.1143 106.403 61.5954 106.027 60.1437C106.576 61.8295 106.871 63.6231 106.871 65.4825C106.871 75.2848 98.6495 83.2594 88.5436 83.2594C88.3645 83.2594 88.1859 83.2569 88.008 83.2519ZM70.5986 59.0371C71.0182 57.9361 71.5465 56.8721 72.1791 55.8595C72.0726 55.6993 71.9638 55.5411 71.8527 55.3849C71.1993 56.4143 70.6509 57.5129 70.2223 58.6665C69.6385 60.2409 69.2861 61.8922 69.1786 63.5742C69.1555 63.9393 69.1437 64.3074 69.1437 64.6781C69.1437 66.538 69.4397 68.3322 69.9885 70.0186C69.7056 68.9278 69.5224 67.799 69.4487 66.6419C69.424 66.2568 69.4116 65.8702 69.4116 65.4825C69.4116 63.2684 69.8165 61.0887 70.5986 59.0371ZM71.1066 55.0551C70.0757 53.504 68.8288 52.1434 67.4168 51.0005C64.364 48.8823 60.6704 47.706 56.772 47.706C46.6658 47.706 38.444 55.6806 38.444 65.4827C38.444 70.9659 41.0166 75.8772 45.0526 79.1407C48.0556 81.2266 51.7324 82.4554 55.6995 82.4554C61.9697 82.4554 67.7096 79.4122 71.1066 74.3019C70.3843 73.1457 69.7981 71.9225 69.3542 70.6537C68.6848 68.7405 68.3391 66.7239 68.3391 64.6781C68.3391 62.4508 68.749 60.2579 69.5404 58.1953C69.9578 57.1077 70.4812 56.0563 71.1066 55.0551ZM37.6397 65.4825C37.6397 67.0469 37.8398 68.5667 38.2164 70.0191C37.6676 68.3327 37.3715 66.5385 37.3715 64.6784C37.3715 54.8763 45.5934 46.9017 55.6995 46.9017C55.8756 46.9017 56.0514 46.9041 56.2266 46.9089C45.9282 47.1902 37.6397 55.414 37.6397 65.4825ZM97.3203 61.5461C97.2552 61.4848 97.1863 61.4275 97.114 61.3745C97.154 61.0723 97.0749 60.7535 97.0126 60.5022L97.0089 60.4872L97.0089 60.4871C96.9783 60.3629 96.9494 60.2454 96.9324 60.1354C96.6576 58.3712 96.2825 56.9555 95.2623 55.3524C94.4827 54.1277 93.6569 53.296 92.5117 52.6479C90.7665 51.5438 88.727 51.1304 86.8376 51.4757C85.9201 51.5559 85.0438 51.7318 84.321 51.9594C82.8563 52.4203 81.8873 53.44 81.1521 54.5867C81.0518 54.7226 80.9548 54.8666 80.8604 55.0184C80.6593 55.3431 80.4993 55.6643 80.3711 55.9839C80.3239 56.078 80.2778 56.1715 80.2319 56.2648C79.5222 57.7158 79.1791 59.371 79.2308 61.0771C78.3823 61.379 77.7733 62.1903 77.7733 63.1413V74.6293C77.7733 75.5189 78.3064 76.2863 79.07 76.6287C79.462 76.9968 79.9892 77.2226 80.5682 77.2226H96.4268C97.6344 77.2226 98.6168 76.2402 98.6168 75.0332V63.5452C98.6168 62.6558 98.0837 61.8886 97.3203 61.5461ZM95.8919 62.2672C95.6332 62.2672 95.3791 62.2151 95.1471 62.1598H80.5682C79.8041 62.1598 79.1826 62.7813 79.1826 63.5452V75.0332C79.1826 75.3816 79.3119 75.7004 79.525 75.9441C79.6626 75.9901 79.8098 76.015 79.9627 76.015H88.6252C88.6151 75.8235 88.6224 75.6262 88.6293 75.4385L88.6294 75.4358L88.6298 75.4245C88.6361 75.2496 88.642 75.085 88.63 74.98C88.5831 74.5711 88.5463 74.3368 88.5217 74.2038C88.4713 74.2057 88.4123 74.1998 88.349 74.1845C88.2964 74.1721 88.2096 74.1794 88.1189 74.1877L88.1134 74.1882C87.9021 74.2059 87.5862 74.2324 87.3073 74.0073C86.7027 73.5185 87.0111 71.7296 87.2634 70.6566C87.2687 70.4464 87.2717 70.2303 87.2717 70.0115C87.2717 69.8654 87.2821 69.6992 87.2934 69.5243L87.2939 69.5163C87.3061 69.3234 87.3204 69.0984 87.3149 68.8903C87.2433 68.6409 87.1317 68.3921 86.9762 68.1269C86.9693 68.1213 86.9623 68.1159 86.9553 68.1106L86.9526 68.1085C86.8069 67.9942 86.6422 67.8651 86.5108 67.6668C86.3668 67.4497 86.011 66.8818 85.8233 66.3C85.7686 66.1297 85.7308 65.9635 85.7099 65.8026C85.5909 65.3396 85.5734 64.8693 85.7582 64.473C85.9188 64.1288 86.2982 63.7084 87.195 63.6585C87.3124 63.652 87.439 63.6429 87.5714 63.6335C87.5889 63.6322 87.6063 63.631 87.6239 63.6298C87.6389 63.6287 87.6541 63.6277 87.6693 63.6266C88.0452 63.5523 88.4552 63.5196 88.8764 63.5915C89.1949 63.6054 89.5016 63.6469 89.7665 63.737C90.5261 63.9952 91.0009 64.9036 91.1916 65.6675C91.409 66.533 91.3313 67.2376 90.9607 67.762C90.6972 68.135 90.3044 68.3883 89.7896 68.5194C89.855 68.8519 89.8502 69.2286 89.8456 69.5758L89.8454 69.5918C89.8431 69.7856 89.8409 69.9678 89.8531 70.1038C89.888 70.4925 89.8995 70.8915 89.9105 71.2773L89.9117 71.3177C89.9169 71.5009 89.9221 71.6832 89.9301 71.8623C89.9344 71.9532 89.947 72.0645 89.9598 72.1854L89.9599 72.1857C90.0264 72.7973 90.1174 73.6346 89.5134 73.9113C89.448 73.9413 89.3756 73.9646 89.2971 73.9823C89.3365 74.1679 89.3777 74.443 89.4257 74.8631C89.4479 75.0554 89.4406 75.2533 89.4328 75.4626L89.4327 75.4658C89.4272 75.613 89.4189 75.8328 89.4303 76.015H95.8213C96.5855 76.015 97.207 75.3935 97.207 74.6296V63.1416C97.207 62.7932 97.0778 62.4744 96.8647 62.2307C96.7399 62.189 96.6072 62.1646 96.4695 62.1605C96.2792 62.2383 96.0842 62.2672 95.8919 62.2672ZM95.8213 60.9513C95.8929 60.9513 95.9637 60.9548 96.0336 60.9615C96.0564 60.5929 95.7596 59.9856 95.4393 59.3777C95.3101 59.1326 95.1985 58.9208 95.1293 58.7425C94.9889 58.3795 94.8596 58.0081 94.7229 57.6148L94.7226 57.6141C94.1591 55.9925 93.5765 54.3158 92.223 53.4188C92.2025 53.4052 92.182 53.3917 92.1615 53.3784C92.1355 53.3615 92.1095 53.3449 92.0833 53.3284C91.6074 53.0622 91.0671 52.8292 90.4357 52.6083C89.393 52.2434 88.1063 52.1755 86.9008 52.2809C86.603 52.3396 86.3099 52.42 86.0241 52.5219C84.2679 53.1491 82.8587 53.6523 81.8272 55.0272C81.5597 55.4433 81.324 55.8801 81.1065 56.3118C80.6993 57.3454 80.6682 58.3784 80.6334 59.535L80.6333 59.5378C80.6234 59.8721 80.6132 60.2145 80.5939 60.5676C80.5867 60.698 80.5735 60.8268 80.557 60.9513H81.6906C81.6663 59.8979 82.308 58.7882 83.0217 57.8856C83.1649 57.4891 83.3067 57.1102 83.4467 56.7515C84.1945 54.8288 85.8739 54.5636 87.577 54.5636C89.4769 54.5636 91.5618 54.765 92.6222 56.2598C93.9122 58.0794 94.6189 59.6227 94.767 60.9513H95.8213ZM83.1102 60.2303C83.0496 60.4986 82.993 60.7398 82.9337 60.9513H93.7435C93.5068 60.4612 93.3122 59.9497 93.1232 59.4531L93.1198 59.4442L93.1192 59.4426C92.5891 58.0479 92.0884 56.7306 90.7454 55.9922C89.0037 55.0345 86.9888 55.2747 85.3559 56.6346C84.8854 57.0268 84.2727 57.6164 83.7352 58.2779C83.5692 58.7412 83.4008 59.2283 83.2322 59.7362C83.1995 59.8343 83.156 60.0265 83.1102 60.2303ZM87.9131 73.163H87.913C87.927 73.1024 87.9439 73.0375 87.9557 72.9919L87.9578 72.9839C87.9873 72.8724 88.0151 72.7673 88.0238 72.6699C88.0399 72.4889 88.0339 72.3144 88.028 72.1456L88.0278 72.1382L88.0275 72.1293C88.0233 72.0092 88.0191 71.8889 88.0248 71.7696C88.0396 71.4631 88.0551 71.1221 88.0648 70.7612C88.2551 69.9619 88.26 69.3286 88.1152 68.7559C88.0956 68.4189 88.0238 68.0977 87.8337 67.8419C87.7613 67.7446 87.6787 67.6644 87.5961 67.5942C87.4755 67.4019 87.3392 67.2073 87.1883 67.0065C86.8885 66.6067 86.6277 66.1034 86.5019 65.6554C86.4818 65.4581 86.499 65.2487 86.595 65.065C86.7196 64.8277 86.9647 64.6521 87.3232 64.5438C87.4881 64.4942 87.6441 64.4542 87.7921 64.4248C88.1096 64.4028 88.4536 64.3819 88.7745 64.3926C88.9603 64.4269 89.1327 64.4878 89.296 64.5754C89.9585 64.9302 90.3462 65.5152 90.4492 66.3139C90.502 66.7228 90.3679 67.1657 90.1076 67.4424C89.899 67.6639 89.6349 67.7644 89.3147 67.7446C89.1611 67.7309 89.0171 67.8138 88.9421 67.9395C88.9166 67.9685 88.8951 68.0014 88.8783 68.0379C88.8187 68.1685 88.8329 68.3213 88.9166 68.4385C89.0536 68.6307 89.0466 69.1712 89.0415 69.5662L89.0415 69.5716C89.0385 69.7903 89.0358 69.9967 89.052 70.1759C89.0846 70.5387 89.0956 70.9233 89.1063 71.2956L89.1064 71.3004C89.1121 71.502 89.1179 71.7023 89.1268 71.8985C89.1316 72.0039 89.145 72.1329 89.1603 72.2726C89.1858 72.5058 89.2442 73.0439 89.1619 73.1868C88.9472 73.2659 88.2801 73.1997 87.9551 73.1673C87.9409 73.1656 87.927 73.1643 87.9131 73.163Z" fill="#00B831"/>
</g>
</g>
<defs>
<filter id="filter0_d" x="3.19232" y="-61.6365" width="124.808" height="263.46" filterUnits="userSpaceOnUse" color-interpolation-filters="sRGB">
<feFlood flood-opacity="0" result="BackgroundImageFix"/>
<feColorMatrix in="SourceAlpha" type="matrix" values="0 0 0 0 0 0 0 0 0 0 0 0 0 0 0 0 0 0 127 0"/>
<feOffset/>
<feGaussianBlur stdDeviation="2"/>
<feColorMatrix type="matrix" values="0 0 0 0 0 0 0 0 0 0.8 0 0 0 0 0.213333 0 0 0 0.4 0"/>
<feBlend mode="normal" in2="BackgroundImageFix" result="effect1_dropShadow"/>
<feBlend mode="normal" in="SourceGraphic" in2="effect1_dropShadow" result="shape"/>
</filter>
</defs>
</svg>
