<svg width="20" height="20" viewBox="0 0 20 20" fill="none" xmlns="http://www.w3.org/2000/svg">
<path fill-rule="evenodd" clip-rule="evenodd" d="M14.5813 11.985C14.3313 11.86 13.11 11.2625 12.8813 11.18C12.6538 11.0963 12.4875 11.055 12.3213 11.305C12.1562 11.5512 11.6788 12.1088 11.5338 12.2738C11.3888 12.4363 11.2437 12.4488 10.9963 12.3363C10.7463 12.2113 9.94375 11.9487 8.99375 11.0987C8.25375 10.4362 7.75625 9.62375 7.61 9.37375C7.465 9.12375 7.59375 8.98625 7.71875 8.86125C7.83125 8.74875 7.96875 8.57375 8.09375 8.42375C8.21625 8.27375 8.25625 8.17375 8.34125 8.01125C8.42375 7.83625 8.3825 7.69875 8.32 7.57375C8.2575 7.44875 7.76 6.22375 7.5525 5.73625C7.3525 5.24875 7.14625 5.31125 6.9925 5.31125C6.84875 5.29875 6.6825 5.29875 6.5175 5.29875C6.35 5.29875 6.08 5.36125 5.8525 5.59875C5.625 5.84875 4.9825 6.44875 4.9825 7.66125C4.9825 8.87375 5.87375 10.0487 5.9975 10.2238C6.1225 10.3862 7.7525 12.8862 10.2475 13.9612C10.8425 14.2112 11.305 14.3612 11.6675 14.4862C12.2625 14.6737 12.805 14.6487 13.2337 14.5862C13.7125 14.5112 14.7062 13.9862 14.9137 13.3988C15.1262 12.8112 15.1262 12.3238 15.0637 12.2113C15.0012 12.0988 14.8387 12.0362 14.5887 11.9237L14.5813 11.985ZM10.05 18.125H10.0375C8.5625 18.125 7.1 17.725 5.825 16.975L5.525 16.7962L2.4 17.6087L3.2375 14.5712L3.0375 14.2587C2.2125 12.9462 1.775 11.4338 1.775 9.87625C1.775 5.33875 5.4875 1.63875 10.06 1.63875C12.2725 1.63875 14.3475 2.50125 15.91 4.06375C17.4725 5.61375 18.335 7.68875 18.335 9.88875C18.3313 14.4262 14.6188 18.1263 10.0562 18.1263L10.05 18.125ZM17.1 2.875C15.2 1.0375 12.7 0 10.0375 0C4.5525 0 0.0875 4.445 0.08375 9.91C0.08375 11.6562 0.54125 13.36 1.4125 14.865L0 20L5.27875 18.6225C6.73375 19.41 8.37125 19.8275 10.0375 19.8288H10.0425C15.53 19.8288 19.9975 15.3825 20 9.91625C20 7.27 18.9662 4.77875 17.0875 2.90625" fill="#00CC36"/>
</svg>
